<svg xmlns="http://www.w3.org/2000/svg" xmlns:xlink="http://www.w3.org/1999/xlink" width="400" zoomAndPan="magnify" viewBox="0 0 300 187.499995" height="250" preserveAspectRatio="xMidYMid meet" version="1.0"><defs><clipPath id="52ea1a2037"><path d="M 0.398438 4 L 82 4 L 82 187 L 0.398438 187 Z M 0.398438 4 " clip-rule="nonzero"/></clipPath><clipPath id="3f8d610882"><path d="M 0.398438 0 L 85 0 L 85 187 L 0.398438 187 Z M 0.398438 0 " clip-rule="nonzero"/></clipPath><clipPath id="1417191b29"><path d="M 158 41 L 224.800781 41 L 224.800781 108 L 158 108 Z M 158 41 " clip-rule="nonzero"/></clipPath><clipPath id="6a3b13d0fa"><path d="M 26.253906 152.429688 L 61.203125 152.429688 L 61.203125 180.734375 L 26.253906 180.734375 Z M 26.253906 152.429688 " clip-rule="nonzero"/></clipPath><clipPath id="4bb80f6697"><path d="M 60.820312 152.5 C 60.679688 152.710938 60.523438 152.902344 60.382812 153.0625 C 59.386719 154.082031 57.742188 154.621094 55.769531 154.621094 C 55.035156 154.621094 54.253906 154.546875 53.445312 154.394531 C 51.972656 154.121094 50.3125 153.960938 48.558594 153.960938 C 43.453125 153.960938 37.585938 155.328125 33.492188 159.285156 C 27.464844 165.171875 26.5 173.726562 26.292969 179.648438 C 26.273438 180.007812 26.324219 180.347656 26.421875 180.65625 C 26.695312 176.988281 27.386719 172.71875 29.265625 168.777344 C 30.28125 166.632812 31.648438 164.589844 33.492188 162.789062 C 37.585938 158.832031 43.453125 157.464844 48.558594 157.464844 C 50.308594 157.464844 51.972656 157.625 53.445312 157.898438 C 54.253906 158.050781 55.035156 158.125 55.769531 158.125 C 56.695312 158.125 57.550781 158.007812 58.300781 157.773438 C 59.144531 157.511719 59.851562 157.105469 60.375 156.566406 C 60.46875 156.46875 60.566406 156.359375 60.65625 156.238281 C 61.027344 155.730469 61.332031 155.023438 61.136719 154.132812 C 61.011719 153.570312 60.90625 153.027344 60.820312 152.5 " clip-rule="nonzero"/></clipPath><clipPath id="4d111ddc3b"><path d="M 0.398438 6 L 63 6 L 63 63 L 0.398438 63 Z M 0.398438 6 " clip-rule="nonzero"/></clipPath></defs><g clip-path="url(#52ea1a2037)"><path fill="#e4eef6" d="M 0.503906 4.609375 L 0.503906 186.78125 L 30.175781 186.78125 L 30.175781 170.789062 C 30.175781 170.789062 31.816406 161.476562 48.351562 160.820312 C 64.882812 160.164062 64.554688 160.164062 64.773438 155.234375 C 64.992188 150.304688 66.636719 139.132812 66.636719 139.132812 L 62.476562 128.945312 L 69.15625 122.042969 L 71.453125 107.253906 L 81.089844 107.253906 L 66.492188 76.945312 C 66.492188 76.945312 67.660156 55.769531 59.046875 39.703125 C 50.429688 23.636719 27.953125 2.816406 0.503906 4.609375 " fill-opacity="1" fill-rule="nonzero"/></g><g clip-path="url(#3f8d610882)"><path fill="#2c3d53" d="M 69.113281 75.488281 C 68.980469 75.207031 68.785156 74.363281 68.785156 73.96875 C 68.785156 71.445312 68.882812 69.195312 68.976562 67.019531 C 69.152344 63.003906 69.316406 59.207031 68.859375 54.355469 C 67.101562 35.753906 42.535156 -0.00390625 3.921875 1.019531 C 1.988281 1.066406 0.457031 2.675781 0.503906 4.609375 C 0.550781 6.542969 2.113281 8.148438 4.09375 8.023438 C 37.058594 7.28125 60.273438 37.988281 61.882812 55.015625 C 62.296875 59.386719 62.148438 62.78125 61.976562 66.714844 C 61.890625 68.644531 61.808594 70.644531 61.785156 72.859375 L 58.316406 72.859375 C 56.378906 72.859375 54.8125 74.429688 54.8125 76.363281 C 54.8125 78.300781 56.378906 79.867188 58.316406 79.867188 L 63.488281 79.867188 L 76.039062 104.273438 L 69.039062 104.273438 C 68.054688 104.273438 67.121094 104.6875 66.457031 105.410156 C 65.792969 106.132812 65.464844 107.101562 65.546875 108.078125 L 66.582031 120.050781 C 56.847656 127.28125 56.335938 128.003906 57.207031 130.605469 C 57.335938 130.996094 57.539062 131.359375 57.796875 131.683594 L 63.230469 138.460938 C 61.402344 141.28125 59.449219 146.367188 61.144531 154.121094 C 61.386719 155.234375 60.859375 156.066406 60.375 156.566406 C 59.011719 157.964844 56.425781 158.46875 53.449219 157.902344 C 47.679688 156.832031 38.992188 157.476562 33.496094 162.796875 C 27.460938 168.679688 26.492188 177.234375 26.289062 183.15625 C 26.222656 185.089844 27.734375 186.710938 29.671875 186.777344 C 29.710938 186.78125 33.242188 187 33.292969 183.398438 C 33.398438 175.902344 35.167969 170.957031 38.378906 167.824219 C 41.703125 164.605469 47.859375 163.996094 52.160156 164.792969 C 57.527344 165.8125 62.347656 164.589844 65.398438 161.449219 C 67.742188 159.039062 68.6875 155.828125 67.992188 152.628906 C 66.222656 144.527344 69.804688 141.332031 69.894531 141.25 C 70.632812 140.675781 71.113281 139.824219 71.222656 138.890625 C 71.332031 137.960938 71.0625 137.019531 70.476562 136.289062 L 65.324219 129.867188 C 67.164062 128.398438 69.902344 126.316406 72.328125 124.523438 C 73.304688 123.796875 73.839844 122.613281 73.734375 121.398438 L 72.859375 111.28125 L 80.019531 111.28125 C 81.59375 111.28125 83.027344 110.53125 83.855469 109.28125 C 84.703125 107.988281 84.824219 106.308594 84.171875 104.785156 C 84.140625 104.707031 69.113281 75.488281 69.113281 75.488281 " fill-opacity="1" fill-rule="nonzero"/></g><g clip-path="url(#1417191b29)"><path fill="#2c3d53" d="M 191.457031 41.3125 C 173.097656 41.3125 158.171875 56.242188 158.171875 74.613281 C 158.171875 92.980469 173.097656 107.914062 191.457031 107.914062 C 209.8125 107.914062 224.738281 92.980469 224.738281 74.613281 C 224.738281 56.242188 209.8125 41.3125 191.457031 41.3125 M 191.457031 100.902344 C 176.964844 100.902344 165.175781 89.105469 165.175781 74.613281 C 165.175781 60.117188 176.964844 48.324219 191.457031 48.324219 C 205.941406 48.324219 217.730469 60.117188 217.730469 74.613281 C 217.730469 89.105469 205.941406 100.902344 191.457031 100.902344 " fill-opacity="1" fill-rule="nonzero"/></g><path fill="#8dd9dd" d="M 191.457031 48.320312 C 176.96875 48.320312 165.179688 60.117188 165.179688 74.613281 C 165.179688 89.105469 176.96875 100.902344 191.457031 100.902344 C 205.941406 100.902344 217.734375 89.105469 217.734375 74.613281 C 217.734375 60.117188 205.941406 48.320312 191.457031 48.320312 M 191.457031 90.386719 C 182.765625 90.386719 175.6875 83.304688 175.6875 74.613281 C 175.6875 65.917969 182.765625 58.839844 191.457031 58.839844 C 200.144531 58.839844 207.222656 65.917969 207.222656 74.613281 C 207.222656 83.304688 200.144531 90.386719 191.457031 90.386719 " fill-opacity="1" fill-rule="nonzero"/><path fill="#2c3d53" d="M 191.453125 58.839844 C 182.765625 58.839844 175.6875 65.917969 175.6875 74.613281 C 175.6875 83.304688 182.765625 90.386719 191.453125 90.386719 C 200.144531 90.386719 207.222656 83.304688 207.222656 74.613281 C 207.222656 65.917969 200.144531 58.839844 191.453125 58.839844 Z M 191.453125 83.375 C 186.621094 83.375 182.695312 79.449219 182.695312 74.613281 C 182.695312 69.773438 186.621094 65.847656 191.453125 65.847656 C 196.289062 65.847656 200.214844 69.773438 200.214844 74.613281 C 200.214844 79.449219 196.289062 83.375 191.453125 83.375 " fill-opacity="1" fill-rule="nonzero"/><path fill="#e4eef6" d="M 200.214844 74.613281 C 200.214844 79.449219 196.292969 83.375 191.457031 83.375 C 186.621094 83.375 182.695312 79.449219 182.695312 74.613281 C 182.695312 69.773438 186.621094 65.847656 191.457031 65.847656 C 196.292969 65.847656 200.214844 69.773438 200.214844 74.613281 " fill-opacity="1" fill-rule="nonzero"/><path fill="#2c3d53" d="M 82.839844 71.128906 C 80.90625 71.128906 79.335938 72.699219 79.335938 74.636719 C 79.335938 76.570312 80.90625 78.140625 82.839844 78.140625 C 84.773438 78.140625 86.34375 76.570312 86.34375 74.636719 C 86.34375 72.699219 84.773438 71.128906 82.839844 71.128906 " fill-opacity="1" fill-rule="nonzero"/><path fill="#2c3d53" d="M 95.105469 76.945312 C 93.167969 76.945312 91.601562 78.515625 91.601562 80.449219 C 91.601562 82.382812 93.167969 83.953125 95.105469 83.953125 C 97.039062 83.953125 98.609375 82.382812 98.609375 80.449219 C 98.609375 78.515625 97.039062 76.945312 95.105469 76.945312 " fill-opacity="1" fill-rule="nonzero"/><path fill="#2c3d53" d="M 107.367188 82.796875 C 105.429688 82.796875 103.863281 84.363281 103.863281 86.300781 C 103.863281 88.234375 105.429688 89.804688 107.367188 89.804688 C 109.300781 89.804688 110.871094 88.234375 110.871094 86.300781 C 110.871094 84.363281 109.300781 82.796875 107.367188 82.796875 " fill-opacity="1" fill-rule="nonzero"/><path fill="#2c3d53" d="M 119.628906 88.632812 C 117.695312 88.632812 116.125 90.199219 116.125 92.136719 C 116.125 94.070312 117.695312 95.640625 119.628906 95.640625 C 121.566406 95.640625 123.132812 94.070312 123.132812 92.136719 C 123.132812 90.199219 121.566406 88.632812 119.628906 88.632812 " fill-opacity="1" fill-rule="nonzero"/><path fill="#2c3d53" d="M 131.886719 94.472656 C 129.953125 94.472656 128.386719 96.042969 128.386719 97.976562 C 128.386719 99.910156 129.953125 101.480469 131.886719 101.480469 C 133.824219 101.480469 135.390625 99.910156 135.390625 97.976562 C 135.390625 96.042969 133.824219 94.472656 131.886719 94.472656 " fill-opacity="1" fill-rule="nonzero"/><path fill="#2c3d53" d="M 144.15625 100.320312 C 142.21875 100.320312 140.652344 101.890625 140.652344 103.828125 C 140.652344 105.761719 142.21875 107.332031 144.15625 107.332031 C 146.089844 107.332031 147.660156 105.761719 147.660156 103.828125 C 147.660156 101.890625 146.089844 100.320312 144.15625 100.320312 " fill-opacity="1" fill-rule="nonzero"/><path fill="#2c3d53" d="M 156.417969 106.183594 C 154.484375 106.183594 152.914062 107.753906 152.914062 109.691406 C 152.914062 111.625 154.484375 113.195312 156.417969 113.195312 C 158.355469 113.195312 159.921875 111.625 159.921875 109.691406 C 159.921875 107.753906 158.355469 106.183594 156.417969 106.183594 " fill-opacity="1" fill-rule="nonzero"/><path fill="#2c3d53" d="M 95.105469 65.265625 C 93.167969 65.265625 91.601562 66.835938 91.601562 68.773438 C 91.601562 70.707031 93.167969 72.277344 95.105469 72.277344 C 97.039062 72.277344 98.609375 70.707031 98.609375 68.773438 C 98.609375 66.835938 97.039062 65.265625 95.105469 65.265625 " fill-opacity="1" fill-rule="nonzero"/><path fill="#2c3d53" d="M 107.367188 59.421875 C 105.429688 59.421875 103.863281 60.988281 103.863281 62.925781 C 103.863281 64.859375 105.429688 66.429688 107.367188 66.429688 C 109.300781 66.429688 110.871094 64.859375 110.871094 62.925781 C 110.871094 60.988281 109.300781 59.421875 107.367188 59.421875 " fill-opacity="1" fill-rule="nonzero"/><path fill="#2c3d53" d="M 119.628906 53.578125 C 117.695312 53.578125 116.125 55.148438 116.125 57.082031 C 116.125 59.019531 117.695312 60.589844 119.628906 60.589844 C 121.566406 60.589844 123.132812 59.019531 123.132812 57.082031 C 123.132812 55.148438 121.566406 53.578125 119.628906 53.578125 " fill-opacity="1" fill-rule="nonzero"/><path fill="#2c3d53" d="M 131.894531 47.742188 C 129.960938 47.742188 128.394531 49.3125 128.394531 51.246094 C 128.394531 53.179688 129.960938 54.753906 131.894531 54.753906 C 133.832031 54.753906 135.398438 53.179688 135.398438 51.246094 C 135.398438 49.3125 133.832031 47.742188 131.894531 47.742188 " fill-opacity="1" fill-rule="nonzero"/><path fill="#2c3d53" d="M 144.15625 41.890625 C 142.21875 41.890625 140.652344 43.460938 140.652344 45.398438 C 140.652344 47.332031 142.21875 48.902344 144.15625 48.902344 C 146.089844 48.902344 147.660156 47.332031 147.660156 45.398438 C 147.660156 43.460938 146.089844 41.890625 144.15625 41.890625 " fill-opacity="1" fill-rule="nonzero"/><path fill="#2c3d53" d="M 156.417969 43.085938 C 158.351562 43.085938 159.921875 41.515625 159.921875 39.578125 C 159.921875 37.644531 158.351562 36.074219 156.417969 36.074219 C 154.480469 36.074219 152.914062 37.644531 152.914062 39.578125 C 152.914062 41.515625 154.480469 43.085938 156.417969 43.085938 " fill-opacity="1" fill-rule="nonzero"/><g clip-path="url(#6a3b13d0fa)"><g clip-path="url(#4bb80f6697)"><path fill="#c1c7ce" d="M 26.273438 180.65625 L 61.332031 180.65625 L 61.332031 152.5 L 26.273438 152.5 L 26.273438 180.65625 " fill-opacity="1" fill-rule="nonzero"/></g></g><path fill="#5f6f7f" d="M 29.265625 168.777344 C 27.386719 172.71875 26.695312 176.988281 26.421875 180.65625 C 26.425781 180.664062 26.429688 180.675781 26.429688 180.683594 C 26.703125 177.011719 27.390625 172.730469 29.265625 168.777344 M 60.65625 156.238281 C 60.566406 156.359375 60.46875 156.46875 60.375 156.566406 C 59.851562 157.105469 59.144531 157.511719 58.300781 157.773438 C 59.144531 157.511719 59.855469 157.109375 60.382812 156.566406 C 60.472656 156.46875 60.566406 156.359375 60.65625 156.238281 " fill-opacity="1" fill-rule="nonzero"/><g clip-path="url(#4d111ddc3b)"><path fill="#f4f8fc" d="M 0.964844 6.292969 C 0.691406 6.773438 0.527344 7.324219 0.503906 7.902344 L 0.503906 8.144531 C 0.570312 9.992188 2.015625 11.539062 3.882812 11.539062 C 3.953125 11.539062 4.023438 11.535156 4.09375 11.535156 C 4.496094 11.523438 4.886719 11.519531 5.285156 11.519531 C 37.621094 11.523438 60.296875 41.695312 61.890625 58.523438 C 62.023438 59.917969 62.09375 61.210938 62.132812 62.457031 C 62.179688 60.109375 62.140625 57.753906 61.882812 55.019531 C 60.382812 39.144531 40.121094 11.390625 10.679688 8.296875 C 8.914062 8.109375 7.117188 8.011719 5.285156 8.011719 C 4.890625 8.011719 4.492188 8.019531 4.09375 8.027344 C 4.019531 8.03125 3.949219 8.035156 3.875 8.035156 C 3.214844 8.035156 2.609375 7.839844 2.101562 7.507812 C 1.632812 7.207031 1.242188 6.785156 0.964844 6.292969 " fill-opacity="1" fill-rule="nonzero"/><path fill="#929ea9" d="M 10.679688 8.296875 C 40.121094 11.390625 60.382812 39.144531 61.882812 55.019531 C 62.140625 57.753906 62.179688 60.113281 62.128906 62.457031 C 62.132812 62.496094 62.132812 62.53125 62.132812 62.570312 C 62.1875 60.1875 62.152344 57.804688 61.886719 55.015625 C 60.386719 39.140625 40.125 11.382812 10.679688 8.296875 M 0.976562 6.277344 C 0.972656 6.28125 0.96875 6.289062 0.964844 6.296875 C 1.242188 6.785156 1.632812 7.207031 2.101562 7.507812 C 1.632812 7.203125 1.246094 6.777344 0.976562 6.277344 " fill-opacity="1" fill-rule="nonzero"/></g><path fill="#b2e5e7" d="M 191.457031 48.320312 C 177.1875 48.320312 165.535156 59.761719 165.1875 73.953125 C 165.195312 73.585938 165.214844 73.222656 165.246094 72.859375 C 165.289062 73.449219 165.34375 74.035156 165.421875 74.613281 C 167.132812 61.761719 178.160156 51.828125 191.457031 51.828125 C 204.75 51.828125 215.78125 61.761719 217.488281 74.613281 C 217.566406 74.035156 217.625 73.449219 217.664062 72.859375 C 217.695312 73.222656 217.714844 73.582031 217.726562 73.949219 C 217.371094 59.757812 205.722656 48.320312 191.457031 48.320312 " fill-opacity="1" fill-rule="nonzero"/><path fill="#738b98" d="M 217.734375 74.65625 C 217.734375 74.863281 217.730469 75.0625 217.722656 75.265625 C 217.730469 75.066406 217.734375 74.863281 217.734375 74.65625 " fill-opacity="1" fill-rule="nonzero"/><path fill="#738b98" d="M 165.175781 74.660156 C 165.179688 74.859375 165.179688 75.0625 165.183594 75.265625 C 165.179688 75.0625 165.179688 74.859375 165.175781 74.660156 " fill-opacity="1" fill-rule="nonzero"/><path fill="#263e4a" d="M 165.183594 73.953125 C 165.179688 74.15625 165.179688 74.359375 165.179688 74.566406 C 165.179688 74.359375 165.179688 74.15625 165.183594 73.953125 M 217.722656 73.949219 C 217.730469 74.15625 217.734375 74.359375 217.734375 74.566406 C 217.734375 74.359375 217.730469 74.152344 217.722656 73.949219 " fill-opacity="1" fill-rule="nonzero"/><path fill="#62aeaf" d="M 217.488281 74.613281 C 215.78125 87.460938 204.75 97.398438 191.457031 97.398438 C 178.160156 97.398438 167.132812 87.460938 165.421875 74.613281 C 165.34375 75.1875 165.289062 75.773438 165.246094 76.363281 C 165.214844 75.996094 165.195312 75.632812 165.1875 75.261719 C 165.535156 89.457031 177.183594 100.902344 191.457031 100.902344 C 205.726562 100.902344 217.375 89.460938 217.726562 75.265625 C 217.714844 75.636719 217.695312 76 217.664062 76.363281 C 217.625 75.773438 217.566406 75.1875 217.488281 74.613281 " fill-opacity="1" fill-rule="nonzero"/><path fill="#7cbab6" d="M 217.664062 72.859375 C 217.625 73.449219 217.566406 74.035156 217.488281 74.613281 C 217.566406 75.191406 217.625 75.773438 217.664062 76.363281 C 217.695312 76 217.714844 75.636719 217.722656 75.265625 C 217.730469 75.0625 217.734375 74.863281 217.734375 74.65625 C 217.734375 74.644531 217.734375 74.628906 217.734375 74.613281 C 217.734375 74.597656 217.734375 74.582031 217.734375 74.566406 C 217.734375 74.359375 217.730469 74.15625 217.722656 73.949219 C 217.714844 73.585938 217.695312 73.222656 217.664062 72.859375 " fill-opacity="1" fill-rule="nonzero"/><path fill="#7cbab6" d="M 165.246094 72.859375 C 165.214844 73.222656 165.195312 73.585938 165.1875 73.953125 C 165.179688 74.15625 165.175781 74.359375 165.175781 74.566406 C 165.175781 74.582031 165.175781 74.597656 165.175781 74.613281 C 165.175781 74.628906 165.175781 74.644531 165.175781 74.660156 C 165.175781 74.859375 165.179688 75.0625 165.1875 75.261719 C 165.195312 75.632812 165.214844 76 165.246094 76.363281 C 165.285156 75.777344 165.34375 75.191406 165.421875 74.613281 C 165.34375 74.035156 165.285156 73.449219 165.246094 72.859375 " fill-opacity="1" fill-rule="nonzero"/></svg>