<svg xmlns="http://www.w3.org/2000/svg" xmlns:xlink="http://www.w3.org/1999/xlink" width="400" zoomAndPan="magnify" viewBox="0 0 300 187.499995" height="250" preserveAspectRatio="xMidYMid meet" version="1.0"><defs><clipPath id="28229de32b"><path d="M 88 0 L 242.542969 0 L 242.542969 105 L 88 105 Z M 88 0 " clip-rule="nonzero"/></clipPath><clipPath id="d80347b2e1"><path d="M 88 0 L 242.542969 0 L 242.542969 9 L 88 9 Z M 88 0 " clip-rule="nonzero"/></clipPath></defs><g clip-path="url(#28229de32b)"><path fill="#0cc0df" d="M 88.933594 4.394531 C 88.933594 1.976562 90.890625 0.015625 93.308594 0.015625 L 237.773438 0.015625 C 240.191406 0.015625 242.148438 1.976562 242.148438 4.394531 L 242.148438 99.828125 C 242.148438 102.242188 240.191406 104.203125 237.773438 104.203125 L 93.308594 104.203125 C 90.890625 104.203125 88.933594 102.242188 88.933594 99.828125 Z M 88.933594 4.394531 " fill-opacity="1" fill-rule="nonzero"/></g><g clip-path="url(#d80347b2e1)"><path fill="#1ecc52" d="M 88.867188 4.59375 C 88.867188 2.175781 90.824219 0.214844 93.242188 0.214844 L 237.851562 0.214844 C 240.265625 0.214844 242.226562 2.175781 242.226562 4.59375 L 242.226562 8.804688 L 88.867188 8.804688 Z M 88.867188 4.59375 " fill-opacity="1" fill-rule="nonzero"/></g><path fill="#0cc0df" d="M 99 4.648438 C 99 5.667969 98.21875 6.5 97.25 6.5 C 96.28125 6.5 95.5 5.667969 95.5 4.648438 C 95.5 3.625 96.28125 2.792969 97.25 2.792969 C 98.21875 2.792969 99 3.625 99 4.648438 Z M 99 4.648438 " fill-opacity="1" fill-rule="nonzero"/><path fill="#0cc0df" d="M 104.691406 4.648438 C 104.691406 5.667969 103.90625 6.5 102.941406 6.5 C 101.972656 6.5 101.1875 5.667969 101.1875 4.648438 C 101.1875 3.625 101.972656 2.792969 102.941406 2.792969 C 103.90625 2.792969 104.691406 3.625 104.691406 4.648438 Z M 104.691406 4.648438 " fill-opacity="1" fill-rule="nonzero"/><path fill="#0cc0df" d="M 110.382812 4.648438 C 110.382812 5.667969 109.597656 6.5 108.632812 6.5 C 107.664062 6.5 106.878906 5.667969 106.878906 4.648438 C 106.878906 3.625 107.664062 2.792969 108.632812 2.792969 C 109.597656 2.792969 110.382812 3.625 110.382812 4.648438 Z M 110.382812 4.648438 " fill-opacity="1" fill-rule="nonzero"/><path fill="#f2f2f2" d="M 146.277344 34.597656 C 146.277344 43.304688 139.222656 50.359375 130.519531 50.359375 C 121.816406 50.359375 114.761719 43.304688 114.761719 34.597656 C 114.761719 25.894531 121.816406 18.839844 130.519531 18.839844 C 139.222656 18.839844 146.277344 25.894531 146.277344 34.597656 Z M 146.277344 34.597656 " fill-opacity="1" fill-rule="nonzero"/><path fill="#f2f2f2" d="M 105.566406 63.929688 C 105.566406 61.996094 107.136719 60.425781 109.070312 60.425781 L 151.96875 60.425781 C 153.90625 60.425781 155.472656 61.996094 155.472656 63.929688 C 155.472656 65.863281 153.90625 67.433594 151.96875 67.433594 L 109.070312 67.433594 C 107.136719 67.433594 105.566406 65.863281 105.566406 63.929688 Z M 105.566406 63.929688 " fill-opacity="1" fill-rule="nonzero"/><path fill="#f2f2f2" d="M 105.566406 76.1875 C 105.566406 74.253906 107.136719 72.683594 109.070312 72.683594 L 151.96875 72.683594 C 153.90625 72.683594 155.472656 74.253906 155.472656 76.1875 C 155.472656 78.121094 153.90625 79.6875 151.96875 79.6875 L 109.070312 79.6875 C 107.136719 79.6875 105.566406 78.121094 105.566406 76.1875 Z M 105.566406 76.1875 " fill-opacity="1" fill-rule="nonzero"/><path fill="#253036" d="M 118.699219 90.851562 C 118.699219 87.589844 121.347656 84.941406 124.609375 84.941406 L 135.992188 84.941406 C 139.253906 84.941406 141.902344 87.589844 141.902344 90.851562 C 141.902344 94.117188 139.253906 96.761719 135.992188 96.761719 L 124.609375 96.761719 C 121.347656 96.761719 118.699219 94.117188 118.699219 90.851562 Z M 118.699219 90.851562 " fill-opacity="1" fill-rule="nonzero"/><path fill="#0cc0df" d="M 128.679688 89.445312 C 128.851562 89.277344 129.128906 89.277344 129.300781 89.449219 L 130.699219 90.867188 L 129.296875 92.257812 C 129.125 92.425781 128.847656 92.425781 128.675781 92.253906 C 128.507812 92.082031 128.507812 91.804688 128.679688 91.636719 L 129.015625 91.300781 L 125.265625 91.300781 C 125.023438 91.300781 124.828125 91.105469 124.828125 90.863281 C 124.828125 90.621094 125.023438 90.425781 125.265625 90.425781 L 129.035156 90.425781 L 128.675781 90.066406 C 128.507812 89.894531 128.507812 89.617188 128.679688 89.445312 Z M 128.679688 89.445312 " fill-opacity="1" fill-rule="evenodd"/><path fill="#0cc0df" d="M 127.015625 87.132812 L 134.460938 87.132812 L 134.460938 94.574219 L 127.015625 94.574219 L 127.015625 92.492188 C 127.015625 92.253906 127.214844 92.054688 127.457031 92.054688 C 127.695312 92.054688 127.894531 92.253906 127.894531 92.492188 L 127.894531 93.699219 L 133.582031 93.699219 L 133.582031 88.007812 L 127.894531 88.007812 L 127.894531 89.210938 C 127.894531 89.453125 127.695312 89.648438 127.457031 89.648438 C 127.214844 89.648438 127.015625 89.453125 127.015625 89.210938 Z M 127.015625 87.132812 " fill-opacity="1" fill-rule="evenodd"/><path fill="#1ecc52" d="M 135.773438 29.347656 C 135.773438 32.246094 133.421875 34.597656 130.519531 34.597656 C 127.617188 34.597656 125.265625 32.246094 125.265625 29.347656 C 125.265625 26.445312 127.617188 24.09375 130.519531 24.09375 C 133.421875 24.09375 135.773438 26.445312 135.773438 29.347656 Z M 135.773438 29.347656 " fill-opacity="1" fill-rule="nonzero"/><path fill="#1ecc52" d="M 130.519531 37.226562 C 124.691406 37.226562 119.8125 40.492188 118.570312 44.875 C 121.460938 48.230469 125.742188 50.359375 130.519531 50.359375 C 135.296875 50.359375 139.578125 48.230469 142.46875 44.875 C 141.226562 40.492188 136.347656 37.226562 130.519531 37.226562 Z M 130.519531 37.226562 " fill-opacity="1" fill-rule="nonzero"/><path fill="#253036" d="M 110.511719 66.117188 L 110.5625 64.613281 L 109.375 65.421875 L 109.070312 64.847656 L 110.320312 64.148438 L 109.070312 63.449219 L 109.375 62.875 L 110.5625 63.683594 L 110.511719 62.179688 L 111.128906 62.179688 L 111.074219 63.683594 L 112.265625 62.875 L 112.570312 63.449219 L 111.320312 64.148438 L 112.570312 64.847656 L 112.265625 65.421875 L 111.074219 64.613281 L 111.128906 66.117188 Z M 110.511719 66.117188 " fill-opacity="1" fill-rule="nonzero"/><path fill="#253036" d="M 110.511719 78.375 L 110.5625 76.871094 L 109.375 77.679688 L 109.070312 77.105469 L 110.320312 76.40625 L 109.070312 75.707031 L 109.375 75.132812 L 110.5625 75.941406 L 110.511719 74.4375 L 111.128906 74.4375 L 111.074219 75.941406 L 112.265625 75.132812 L 112.570312 75.707031 L 111.320312 76.40625 L 112.570312 77.105469 L 112.265625 77.679688 L 111.074219 76.871094 L 111.128906 78.375 Z M 110.511719 78.375 " fill-opacity="1" fill-rule="nonzero"/><path fill="#253036" d="M 115.765625 66.117188 L 115.816406 64.613281 L 114.628906 65.421875 L 114.320312 64.847656 L 115.574219 64.148438 L 114.320312 63.449219 L 114.628906 62.875 L 115.816406 63.683594 L 115.765625 62.179688 L 116.378906 62.179688 L 116.328125 63.683594 L 117.519531 62.875 L 117.824219 63.449219 L 116.570312 64.148438 L 117.824219 64.847656 L 117.519531 65.421875 L 116.328125 64.613281 L 116.378906 66.117188 Z M 115.765625 66.117188 " fill-opacity="1" fill-rule="nonzero"/><path fill="#253036" d="M 115.765625 78.375 L 115.816406 76.871094 L 114.628906 77.679688 L 114.320312 77.105469 L 115.574219 76.40625 L 114.320312 75.707031 L 114.628906 75.132812 L 115.816406 75.941406 L 115.765625 74.4375 L 116.378906 74.4375 L 116.328125 75.941406 L 117.519531 75.132812 L 117.824219 75.707031 L 116.570312 76.40625 L 117.824219 77.105469 L 117.519531 77.679688 L 116.328125 76.871094 L 116.378906 78.375 Z M 115.765625 78.375 " fill-opacity="1" fill-rule="nonzero"/><path fill="#253036" d="M 121.019531 66.117188 L 121.070312 64.613281 L 119.882812 65.421875 L 119.574219 64.847656 L 120.828125 64.148438 L 119.574219 63.449219 L 119.882812 62.875 L 121.070312 63.683594 L 121.019531 62.179688 L 121.632812 62.179688 L 121.582031 63.683594 L 122.769531 62.875 L 123.078125 63.449219 L 121.824219 64.148438 L 123.078125 64.847656 L 122.769531 65.421875 L 121.582031 64.613281 L 121.632812 66.117188 Z M 121.019531 66.117188 " fill-opacity="1" fill-rule="nonzero"/><path fill="#253036" d="M 121.019531 78.375 L 121.070312 76.871094 L 119.882812 77.679688 L 119.574219 77.105469 L 120.828125 76.40625 L 119.574219 75.707031 L 119.882812 75.132812 L 121.070312 75.941406 L 121.019531 74.4375 L 121.632812 74.4375 L 121.582031 75.941406 L 122.769531 75.132812 L 123.078125 75.707031 L 121.824219 76.40625 L 123.078125 77.105469 L 122.769531 77.679688 L 121.582031 76.871094 L 121.632812 78.375 Z M 121.019531 78.375 " fill-opacity="1" fill-rule="nonzero"/><path fill="#253036" d="M 126.273438 66.117188 L 126.324219 64.613281 L 125.136719 65.421875 L 124.828125 64.847656 L 126.082031 64.148438 L 124.828125 63.449219 L 125.136719 62.875 L 126.324219 63.683594 L 126.273438 62.179688 L 126.886719 62.179688 L 126.835938 63.683594 L 128.023438 62.875 L 128.332031 63.449219 L 127.078125 64.148438 L 128.332031 64.847656 L 128.023438 65.421875 L 126.835938 64.613281 L 126.886719 66.117188 Z M 126.273438 66.117188 " fill-opacity="1" fill-rule="nonzero"/><path fill="#253036" d="M 131.527344 66.117188 L 131.578125 64.613281 L 130.386719 65.421875 L 130.082031 64.847656 L 131.335938 64.148438 L 130.082031 63.449219 L 130.386719 62.875 L 131.578125 63.683594 L 131.527344 62.179688 L 132.140625 62.179688 L 132.089844 63.683594 L 133.277344 62.875 L 133.582031 63.449219 L 132.332031 64.148438 L 133.582031 64.847656 L 133.277344 65.421875 L 132.089844 64.613281 L 132.140625 66.117188 Z M 131.527344 66.117188 " fill-opacity="1" fill-rule="nonzero"/><path fill="#253036" d="M 126.273438 78.375 L 126.324219 76.871094 L 125.136719 77.679688 L 124.828125 77.105469 L 126.082031 76.40625 L 124.828125 75.707031 L 125.136719 75.132812 L 126.324219 75.941406 L 126.273438 74.4375 L 126.886719 74.4375 L 126.835938 75.941406 L 128.023438 75.132812 L 128.332031 75.707031 L 127.078125 76.40625 L 128.332031 77.105469 L 128.023438 77.679688 L 126.835938 76.871094 L 126.886719 78.375 Z M 126.273438 78.375 " fill-opacity="1" fill-rule="nonzero"/><path fill="#f2f2f2" d="M 175.171875 20.371094 C 175.171875 18.316406 176.835938 16.652344 178.890625 16.652344 L 232.300781 16.652344 C 234.355469 16.652344 236.019531 18.316406 236.019531 20.371094 C 236.019531 22.425781 234.355469 24.09375 232.300781 24.09375 L 178.890625 24.09375 C 176.835938 24.09375 175.171875 22.425781 175.171875 20.371094 Z M 175.171875 20.371094 " fill-opacity="1" fill-rule="nonzero"/><path fill="#253036" d="M 179.464844 18.621094 C 178.675781 18.621094 178.015625 19.296875 178.015625 20.152344 C 178.015625 21.007812 178.675781 21.683594 179.464844 21.683594 C 179.894531 21.683594 180.28125 21.488281 180.550781 21.171875 C 180.777344 20.902344 180.914062 20.546875 180.914062 20.152344 C 180.914062 19.296875 180.257812 18.621094 179.464844 18.621094 Z M 177.578125 20.152344 C 177.578125 19.074219 178.414062 18.183594 179.464844 18.183594 C 180.519531 18.183594 181.351562 19.074219 181.351562 20.152344 C 181.351562 20.578125 181.222656 20.96875 181.003906 21.292969 L 182.332031 22.625 L 182.019531 22.933594 L 180.71875 21.625 C 180.386719 21.933594 179.949219 22.125 179.464844 22.125 C 178.414062 22.125 177.578125 21.230469 177.578125 20.152344 Z M 177.578125 20.152344 " fill-opacity="1" fill-rule="evenodd"/><path fill="#1ecc52" d="M 175.171875 35.914062 C 175.171875 35.1875 175.761719 34.597656 176.484375 34.597656 L 234.707031 34.597656 C 235.433594 34.597656 236.019531 35.1875 236.019531 35.914062 L 236.019531 53.859375 C 236.019531 54.585938 235.433594 55.175781 234.707031 55.175781 L 176.484375 55.175781 C 175.761719 55.175781 175.171875 54.585938 175.171875 53.859375 Z M 175.171875 35.914062 " fill-opacity="1" fill-rule="nonzero"/><path fill="#f2f2f2" d="M 175.171875 61.742188 C 175.171875 61.015625 175.761719 60.425781 176.484375 60.425781 L 199.6875 60.425781 C 200.410156 60.425781 201 61.015625 201 61.742188 L 201 95.449219 C 201 96.175781 200.410156 96.761719 199.6875 96.761719 L 176.484375 96.761719 C 175.761719 96.761719 175.171875 96.175781 175.171875 95.449219 Z M 175.171875 61.742188 " fill-opacity="1" fill-rule="nonzero"/><path fill="#f2f2f2" d="M 210.191406 61.742188 C 210.191406 61.015625 210.78125 60.425781 211.507812 60.425781 L 234.707031 60.425781 C 235.433594 60.425781 236.019531 61.015625 236.019531 61.742188 L 236.019531 95.449219 C 236.019531 96.175781 235.433594 96.761719 234.707031 96.761719 L 211.507812 96.761719 C 210.78125 96.761719 210.191406 96.175781 210.191406 95.449219 Z M 210.191406 61.742188 " fill-opacity="1" fill-rule="nonzero"/><path fill="#1ecc52" d="M 175.171875 61.742188 C 175.171875 61.015625 175.761719 60.425781 176.484375 60.425781 L 199.6875 60.425781 C 200.410156 60.425781 201 61.015625 201 61.742188 L 201 83.628906 L 175.171875 83.628906 Z M 175.171875 61.742188 " fill-opacity="1" fill-rule="nonzero"/><path fill="#1ecc52" d="M 210.191406 61.742188 C 210.191406 61.015625 210.78125 60.425781 211.507812 60.425781 L 234.707031 60.425781 C 235.433594 60.425781 236.019531 61.015625 236.019531 61.742188 L 236.019531 83.628906 L 210.191406 83.628906 Z M 210.191406 61.742188 " fill-opacity="1" fill-rule="nonzero"/><path fill="#253036" d="M 185.898438 17.964844 L 186.335938 17.964844 L 186.335938 22.78125 L 185.898438 22.78125 Z M 185.898438 17.964844 " fill-opacity="1" fill-rule="evenodd"/><path fill="#fcbfbc" d="M 153.753906 178.464844 C 152.59375 177.210938 145.402344 178.027344 142.746094 177.507812 L 142.277344 168.546875 C 142.496094 168.535156 150.914062 170.285156 152.066406 167.15625 C 155.175781 169.625 154.21875 176.175781 153.753906 178.464844 Z M 153.753906 178.464844 " fill-opacity="1" fill-rule="nonzero"/><path fill="#0cc0df" d="M 148.335938 169.4375 C 148.984375 171.042969 149.800781 170.441406 151.175781 171.855469 C 153.78125 174.539062 148.859375 176.125 150.410156 177.949219 C 151.375 179.085938 156.46875 178.90625 159.015625 178.5 C 159.703125 174.171875 160.386719 165.855469 160.402344 160.199219 C 160.40625 158.5 160.488281 156.488281 159.1875 155.402344 C 157.246094 153.78125 154.285156 158.722656 152.804688 162.011719 C 152.394531 162.570312 151.972656 163.109375 151.578125 163.605469 L 151.464844 163.746094 C 151.203125 164.078125 150.933594 164.398438 150.667969 164.714844 C 150.269531 165.191406 149.878906 165.652344 149.53125 166.09375 C 148.558594 167.328125 147.925781 168.425781 148.335938 169.4375 Z M 148.335938 169.4375 " fill-opacity="1" fill-rule="nonzero"/><path fill="#253036" d="M 148.617188 167.929688 C 148.402344 168.453125 148.363281 168.917969 148.539062 169.351562 C 148.691406 169.734375 148.851562 169.972656 149.015625 170.140625 C 149.179688 170.304688 149.359375 170.414062 149.578125 170.523438 C 149.636719 170.550781 149.699219 170.582031 149.761719 170.609375 C 150.183594 170.8125 150.707031 171.0625 151.332031 171.703125 C 152.019531 172.410156 152.234375 173.078125 152.152344 173.710938 C 152.074219 174.328125 151.71875 174.875 151.363281 175.355469 C 151.277344 175.472656 151.191406 175.582031 151.113281 175.6875 C 151.019531 175.808594 150.925781 175.929688 150.832031 176.054688 C 150.667969 176.28125 150.53125 176.492188 150.441406 176.695312 C 150.347656 176.894531 150.308594 177.078125 150.320312 177.253906 C 150.335938 177.425781 150.40625 177.609375 150.574219 177.804688 L 150.242188 178.089844 C 150.023438 177.832031 149.910156 177.566406 149.886719 177.289062 C 149.863281 177.019531 149.929688 176.757812 150.042969 176.511719 C 150.152344 176.269531 150.308594 176.03125 150.480469 175.796875 C 150.570312 175.675781 150.671875 175.542969 150.773438 175.410156 C 150.855469 175.300781 150.9375 175.195312 151.011719 175.09375 C 151.367188 174.617188 151.65625 174.148438 151.71875 173.65625 C 151.78125 173.183594 151.632812 172.644531 151.015625 172.007812 C 150.449219 171.425781 149.992188 171.207031 149.578125 171.007812 C 149.511719 170.976562 149.449219 170.945312 149.386719 170.914062 C 149.148438 170.796875 148.917969 170.664062 148.703125 170.445312 C 148.488281 170.230469 148.300781 169.9375 148.132812 169.515625 C 147.898438 168.941406 147.96875 168.355469 148.214844 167.765625 C 148.453125 167.179688 148.871094 166.578125 149.359375 165.957031 C 149.652344 165.582031 149.980469 165.195312 150.3125 164.796875 C 150.375 164.722656 150.4375 164.648438 150.503906 164.574219 C 150.765625 164.257812 151.03125 163.9375 151.292969 163.609375 L 151.40625 163.46875 M 151.546875 163.992188 C 151.335938 164.253906 151.125 164.511719 150.914062 164.761719 C 150.925781 164.792969 150.933594 164.824219 150.941406 164.859375 C 150.953125 164.902344 150.964844 164.949219 150.980469 165 L 150.984375 165.015625 C 151 165.070312 151.015625 165.132812 151.03125 165.195312 C 151.101562 165.457031 151.191406 165.769531 151.308594 166.085938 C 151.425781 166.402344 151.570312 166.714844 151.738281 166.96875 C 151.910156 167.226562 152.09375 167.410156 152.296875 167.492188 L 152.125 167.898438 C 151.8125 167.765625 151.566406 167.503906 151.375 167.210938 C 151.179688 166.917969 151.023438 166.570312 150.898438 166.238281 C 150.777344 165.902344 150.679688 165.574219 150.609375 165.3125 C 150.597656 165.261719 150.582031 165.214844 150.570312 165.167969 C 150.292969 165.5 150.027344 165.820312 149.777344 166.132812 C 149.785156 166.144531 149.789062 166.160156 149.796875 166.179688 C 149.886719 166.425781 150.046875 166.871094 150.269531 167.34375 C 150.414062 167.648438 150.578125 167.957031 150.757812 168.214844 C 150.9375 168.472656 151.125 168.667969 151.300781 168.765625 L 151.085938 169.148438 C 150.824219 169 150.59375 168.746094 150.398438 168.464844 C 150.199219 168.179688 150.023438 167.847656 149.875 167.53125 C 149.703125 167.164062 149.558594 166.800781 149.460938 166.539062 C 149.089844 167.035156 148.796875 167.496094 148.617188 167.929688 M 151.847656 163.617188 C 151.921875 163.75 151.996094 163.914062 152.066406 164.085938 C 152.089844 164.140625 152.113281 164.199219 152.140625 164.257812 C 152.226562 164.464844 152.316406 164.683594 152.421875 164.90625 C 152.558594 165.1875 152.707031 165.460938 152.882812 165.6875 C 153.058594 165.914062 153.25 166.082031 153.457031 166.171875 L 153.285156 166.574219 C 152.984375 166.445312 152.738281 166.214844 152.539062 165.957031 C 152.335938 165.695312 152.167969 165.390625 152.027344 165.09375 C 151.917969 164.859375 151.820312 164.628906 151.734375 164.421875 C 151.710938 164.363281 151.6875 164.308594 151.664062 164.253906 C 151.621094 164.15625 151.582031 164.066406 151.546875 163.992188 M 151.847656 163.617188 C 152.125 163.269531 152.410156 162.898438 152.699219 162.515625 C 152.808594 162.921875 152.964844 163.402344 153.160156 163.851562 C 153.296875 164.171875 153.460938 164.480469 153.644531 164.734375 C 153.828125 164.984375 154.046875 165.203125 154.304688 165.3125 L 154.476562 164.910156 C 154.324219 164.84375 154.160156 164.699219 154 164.476562 C 153.839844 164.257812 153.691406 163.976562 153.558594 163.675781 C 153.3125 163.105469 153.128906 162.46875 153.03125 162.035156 C 153.769531 160.410156 154.859375 158.40625 155.992188 157.003906 C 156.570312 156.289062 157.144531 155.75 157.675781 155.484375 C 157.941406 155.351562 158.183594 155.292969 158.40625 155.304688 C 158.625 155.3125 158.835938 155.394531 159.046875 155.570312 L 159.324219 155.234375 C 159.050781 155.003906 158.746094 154.882812 158.425781 154.867188 C 158.109375 154.851562 157.792969 154.9375 157.480469 155.089844 C 156.867188 155.398438 156.242188 155.996094 155.652344 156.726562 C 154.472656 158.1875 153.359375 160.25 152.613281 161.902344 M 157.117188 167.351562 C 156.839844 171.167969 156.386719 174.972656 156.023438 177.492188 L 155.589844 177.429688 C 155.953125 174.917969 156.40625 171.125 156.683594 167.320312 C 156.960938 163.511719 157.058594 159.710938 156.722656 157.175781 L 157.15625 157.117188 C 157.5 159.703125 157.398438 163.542969 157.117188 167.351562 Z M 157.117188 167.351562 " fill-opacity="1" fill-rule="evenodd"/><path fill="#fcbfbc" d="M 153.347656 185.773438 C 152.496094 184.292969 145.308594 183.46875 142.835938 182.367188 L 144.394531 173.527344 C 144.609375 173.566406 152.417969 177.164062 154.246094 174.375 C 156.71875 177.480469 154.3125 183.648438 153.347656 185.773438 Z M 153.347656 185.773438 " fill-opacity="1" fill-rule="nonzero"/><path fill="#0cc0df" d="M 150.097656 175.757812 C 150.367188 177.46875 151.296875 177.066406 152.320312 178.753906 C 154.253906 181.957031 149.101562 182.390625 150.203125 184.515625 C 150.886719 185.84375 155.890625 186.816406 158.464844 186.992188 C 160.109375 182.929688 162.644531 174.980469 163.929688 169.46875 C 164.316406 167.816406 164.847656 165.875 163.828125 164.523438 C 162.300781 162.507812 158.304688 166.65625 156.121094 169.53125 C 155.59375 169.980469 155.0625 170.410156 154.570312 170.804688 L 154.425781 170.917969 C 154.09375 171.179688 153.761719 171.433594 153.433594 171.679688 C 152.933594 172.058594 152.449219 172.417969 152.011719 172.769531 C 150.789062 173.753906 149.925781 174.679688 150.097656 175.757812 Z M 150.097656 175.757812 " fill-opacity="1" fill-rule="nonzero"/><path fill="#253036" d="M 150.710938 174.355469 C 150.382812 174.8125 150.238281 175.257812 150.3125 175.722656 C 150.375 176.128906 150.476562 176.394531 150.601562 176.59375 C 150.722656 176.792969 150.875 176.9375 151.066406 177.09375 C 151.117188 177.136719 151.167969 177.179688 151.222656 177.222656 C 151.589844 177.511719 152.042969 177.875 152.503906 178.640625 C 153.015625 179.484375 153.078125 180.179688 152.855469 180.78125 C 152.640625 181.363281 152.171875 181.816406 151.714844 182.207031 C 151.605469 182.300781 151.5 182.386719 151.394531 182.472656 C 151.277344 182.570312 151.160156 182.667969 151.042969 182.769531 C 150.832031 182.953125 150.648438 183.125 150.515625 183.300781 C 150.378906 183.480469 150.296875 183.648438 150.273438 183.820312 C 150.25 183.992188 150.277344 184.183594 150.394531 184.417969 L 150.007812 184.617188 C 149.851562 184.316406 149.800781 184.03125 149.839844 183.757812 C 149.878906 183.488281 150.003906 183.25 150.167969 183.035156 C 150.328125 182.824219 150.539062 182.625 150.753906 182.4375 C 150.871094 182.339844 151 182.230469 151.125 182.125 C 151.230469 182.039062 151.335938 181.953125 151.433594 181.871094 C 151.886719 181.484375 152.273438 181.097656 152.445312 180.628906 C 152.609375 180.183594 152.589844 179.625 152.132812 178.867188 C 151.710938 178.171875 151.3125 177.851562 150.953125 177.566406 C 150.898438 177.523438 150.839844 177.476562 150.785156 177.433594 C 150.582031 177.265625 150.386719 177.085938 150.226562 176.824219 C 150.066406 176.5625 149.949219 176.238281 149.878906 175.789062 C 149.785156 175.179688 149.984375 174.621094 150.351562 174.101562 C 150.71875 173.585938 151.261719 173.09375 151.875 172.597656 C 152.246094 172.300781 152.652344 171.996094 153.066406 171.683594 C 153.144531 171.625 153.222656 171.566406 153.300781 171.507812 C 153.628906 171.257812 153.960938 171.007812 154.289062 170.746094 L 154.433594 170.632812 M 154.449219 171.175781 C 154.1875 171.382812 153.921875 171.585938 153.660156 171.78125 C 153.664062 171.816406 153.664062 171.847656 153.667969 171.882812 C 153.667969 171.925781 153.667969 171.976562 153.671875 172.027344 L 153.671875 172.042969 C 153.671875 172.101562 153.675781 172.167969 153.679688 172.234375 C 153.6875 172.5 153.707031 172.828125 153.75 173.160156 C 153.792969 173.496094 153.859375 173.832031 153.96875 174.121094 C 154.074219 174.410156 154.214844 174.628906 154.390625 174.753906 L 154.132812 175.109375 C 153.859375 174.910156 153.679688 174.601562 153.558594 174.273438 C 153.433594 173.941406 153.359375 173.570312 153.316406 173.21875 C 153.269531 172.863281 153.25 172.519531 153.242188 172.25 C 153.238281 172.199219 153.238281 172.148438 153.234375 172.101562 C 152.890625 172.363281 152.558594 172.613281 152.246094 172.863281 C 152.25 172.878906 152.25 172.894531 152.253906 172.910156 C 152.285156 173.175781 152.34375 173.644531 152.453125 174.15625 C 152.523438 174.484375 152.617188 174.820312 152.730469 175.109375 C 152.851562 175.40625 152.988281 175.636719 153.136719 175.773438 L 152.839844 176.09375 C 152.621094 175.890625 152.453125 175.589844 152.324219 175.273438 C 152.195312 174.949219 152.097656 174.589844 152.023438 174.246094 C 151.9375 173.851562 151.882812 173.464844 151.847656 173.1875 C 151.375 173.585938 150.984375 173.972656 150.710938 174.355469 M 154.828125 170.878906 C 154.871094 171.023438 154.902344 171.203125 154.9375 171.382812 C 154.945312 171.441406 154.957031 171.503906 154.96875 171.566406 C 155.003906 171.785156 155.046875 172.023438 155.097656 172.261719 C 155.167969 172.566406 155.253906 172.867188 155.371094 173.128906 C 155.492188 173.390625 155.636719 173.597656 155.824219 173.730469 L 155.5625 174.082031 C 155.296875 173.890625 155.113281 173.609375 154.972656 173.3125 C 154.835938 173.011719 154.742188 172.675781 154.671875 172.355469 C 154.617188 172.105469 154.574219 171.855469 154.535156 171.636719 C 154.523438 171.574219 154.515625 171.515625 154.503906 171.457031 C 154.484375 171.351562 154.46875 171.257812 154.449219 171.175781 M 154.828125 170.878906 C 155.175781 170.597656 155.539062 170.304688 155.90625 169.996094 C 155.921875 170.414062 155.964844 170.917969 156.054688 171.402344 C 156.117188 171.742188 156.207031 172.078125 156.328125 172.371094 C 156.449219 172.65625 156.613281 172.917969 156.839844 173.082031 L 157.097656 172.726562 C 156.964844 172.632812 156.839844 172.453125 156.730469 172.199219 C 156.625 171.949219 156.542969 171.644531 156.484375 171.320312 C 156.367188 170.707031 156.335938 170.046875 156.339844 169.605469 C 157.421875 168.183594 158.933594 166.476562 160.355469 165.363281 C 161.078125 164.800781 161.761719 164.402344 162.339844 164.261719 C 162.625 164.195312 162.875 164.191406 163.085938 164.25 C 163.296875 164.3125 163.488281 164.4375 163.652344 164.65625 L 164 164.390625 C 163.785156 164.101562 163.515625 163.917969 163.207031 163.832031 C 162.902344 163.742188 162.570312 163.757812 162.234375 163.835938 C 161.566406 164 160.824219 164.441406 160.085938 165.019531 C 158.609375 166.175781 157.058594 167.9375 155.960938 169.378906 M 159.125 175.703125 C 157.996094 179.359375 156.695312 182.960938 155.773438 185.335938 L 155.367188 185.179688 C 156.285156 182.8125 157.578125 179.21875 158.707031 175.574219 C 159.832031 171.925781 160.785156 168.246094 161.027344 165.699219 L 161.460938 165.738281 C 161.214844 168.335938 160.253906 172.050781 159.125 175.703125 Z M 159.125 175.703125 " fill-opacity="1" fill-rule="evenodd"/><path fill="#fcbfbc" d="M 98.941406 144.039062 C 98.5 142.507812 98.238281 137.125 98.0625 136.597656 C 96.019531 137.328125 92.855469 137.648438 92.152344 139.226562 C 92.152344 141.632812 92.015625 145.539062 93.25 148.417969 C 93.90625 149.949219 103.609375 155.421875 106.820312 156.078125 L 112.074219 153.453125 C 110.320312 152.050781 102.804688 145.5 98.941406 144.039062 Z M 98.941406 144.039062 " fill-opacity="1" fill-rule="nonzero"/><path fill="#253036" d="M 146.214844 168.554688 C 140.609375 167.855469 98.714844 167.460938 81.644531 166.367188 C 80.242188 168.644531 79.308594 175.046875 79.015625 177.96875 C 82.519531 177.96875 142.929688 181.6875 144.242188 180.8125 C 147.089844 177.96875 146.871094 172.496094 146.214844 168.554688 Z M 146.214844 168.554688 " fill-opacity="1" fill-rule="nonzero"/><path fill="#253036" d="M 69.167969 183.65625 C 57.785156 183.132812 61.476562 163.886719 64.6875 155.859375 C 68.480469 158.699219 77.25 164.265625 81.976562 163.808594 C 92.5 162.753906 103.351562 160.042969 107.472656 160.457031 C 111.777344 160.886719 138.75 168.222656 147.746094 174.464844 C 148.097656 177.265625 143.878906 183 142.273438 184.097656 C 131.984375 181.6875 114.257812 178.40625 108.566406 174.464844 C 101.386719 177.265625 80.546875 184.183594 69.167969 183.65625 Z M 69.167969 183.65625 " fill-opacity="1" fill-rule="nonzero"/><path fill="#f2f2f2" d="M 134.40625 168.207031 C 134.449219 168.09375 134.574219 168.039062 134.6875 168.078125 C 139.308594 169.800781 143.566406 171.644531 146.546875 173.433594 C 146.648438 173.496094 146.683594 173.628906 146.621094 173.734375 C 146.558594 173.835938 146.421875 173.871094 146.320312 173.808594 C 143.375 172.039062 139.148438 170.207031 134.535156 168.488281 C 134.421875 168.449219 134.367188 168.320312 134.40625 168.207031 Z M 134.40625 168.207031 " fill-opacity="1" fill-rule="evenodd"/><path fill="#f2f2f2" d="M 108.59375 174.21875 L 108.691406 174.285156 C 110.101562 175.261719 112.28125 176.207031 114.933594 177.113281 C 117.585938 178.019531 120.691406 178.878906 123.941406 179.691406 C 124.058594 179.71875 124.128906 179.839844 124.101562 179.957031 C 124.070312 180.074219 123.953125 180.144531 123.835938 180.117188 C 120.578125 179.300781 117.460938 178.4375 114.792969 177.527344 C 112.191406 176.636719 110 175.699219 108.539062 174.710938 C 106.019531 175.691406 101.902344 177.148438 97.125 178.613281 C 97.007812 178.648438 96.886719 178.585938 96.851562 178.46875 C 96.816406 178.355469 96.878906 178.230469 96.996094 178.195312 C 101.832031 176.710938 105.988281 175.234375 108.488281 174.261719 Z M 108.59375 174.21875 " fill-opacity="1" fill-rule="evenodd"/><path fill="#1ecc52" d="M 91.710938 118.648438 C 90.3125 124.605469 83.832031 120.546875 80.328125 117.773438 C 76.972656 118.796875 69.078125 121.40625 67.851562 123.683594 C 66.628906 125.960938 63.109375 134.117188 61.507812 137.910156 C 62.773438 138.664062 64.753906 139.695312 66.710938 140.433594 C 66.125 149.597656 60.246094 160.804688 61.285156 171.621094 C 72.011719 159.800781 73.980469 168.992188 94.777344 166.367188 C 96.527344 163.738281 87 148.800781 93.460938 140.976562 C 93.523438 140.902344 93.582031 140.828125 93.640625 140.75 C 95.925781 140.054688 98.433594 138.699219 99.695312 137.910156 C 98.164062 123.683594 95.097656 120.621094 91.710938 118.648438 Z M 91.710938 118.648438 " fill-opacity="1" fill-rule="nonzero"/><path fill="#253036" d="M 91.523438 118.539062 C 91.582031 118.4375 91.71875 118.398438 91.820312 118.460938 C 93.542969 119.460938 95.191406 120.75 96.59375 123.585938 C 97.992188 126.414062 99.144531 130.765625 99.910156 137.886719 L 99.925781 138.023438 L 99.808594 138.097656 C 98.554688 138.882812 96.066406 140.230469 93.773438 140.941406 C 93.726562 141 93.679688 141.058594 93.632812 141.117188 C 92.058594 143.023438 91.449219 145.371094 91.40625 147.878906 C 91.363281 150.390625 91.886719 153.050781 92.5625 155.5625 C 92.972656 157.082031 93.429688 158.523438 93.847656 159.851562 C 94.125 160.734375 94.390625 161.566406 94.609375 162.332031 C 94.882812 163.277344 95.09375 164.121094 95.175781 164.816406 C 95.253906 165.496094 95.222656 166.089844 94.957031 166.488281 C 94.890625 166.589844 94.753906 166.617188 94.65625 166.546875 C 94.554688 166.480469 94.527344 166.34375 94.59375 166.246094 C 94.765625 165.988281 94.820312 165.535156 94.738281 164.867188 C 94.660156 164.210938 94.464844 163.394531 94.191406 162.453125 C 93.976562 161.710938 93.714844 160.886719 93.4375 160.007812 C 93.015625 158.667969 92.546875 157.195312 92.140625 155.675781 C 91.460938 153.148438 90.925781 150.445312 90.96875 147.871094 C 91.011719 145.296875 91.636719 142.84375 93.292969 140.835938 C 93.355469 140.765625 93.410156 140.691406 93.46875 140.617188 C 95.054688 138.542969 95.390625 135.792969 95.125 132.808594 C 94.878906 129.996094 94.101562 127.011719 93.382812 124.238281 C 93.335938 124.070312 93.292969 123.90625 93.25 123.738281 C 93.21875 123.621094 93.292969 123.503906 93.40625 123.472656 C 93.523438 123.441406 93.644531 123.511719 93.675781 123.628906 C 93.71875 123.796875 93.761719 123.96875 93.808594 124.140625 C 94.523438 126.902344 95.308594 129.917969 95.5625 132.769531 C 95.808594 135.554688 95.550781 138.214844 94.195312 140.339844 C 96.210938 139.636719 98.296875 138.515625 99.460938 137.796875 C 98.695312 130.777344 97.558594 126.519531 96.203125 123.78125 C 94.84375 121.039062 93.265625 119.808594 91.601562 118.839844 C 91.496094 118.777344 91.460938 118.644531 91.523438 118.539062 Z M 91.523438 118.539062 " fill-opacity="1" fill-rule="evenodd"/><path fill="#fcbfbc" d="M 84.488281 161.988281 C 70.480469 157.832031 62.382812 151.527344 61.507812 148.199219 C 60.671875 145.023438 62.003906 140.824219 62.78125 138.628906 C 64.976562 139.800781 68.085938 141.179688 70.292969 141.335938 C 69.9375 143.082031 69.617188 145.699219 69.167969 146.449219 C 80.109375 152.578125 77.484375 153.890625 87.773438 158.707031 C 89.378906 158.925781 92.761719 159.710938 93.460938 161.113281 C 92.660156 162.5 91.1875 165.621094 88.210938 164.398438 C 87.160156 164.921875 85 162.792969 84.488281 161.988281 Z M 84.488281 161.988281 " fill-opacity="1" fill-rule="nonzero"/><path fill="#0cc0df" d="M 125.800781 140.539062 L 95.507812 142.648438 C 94.890625 142.691406 94.378906 143.148438 94.28125 143.75 L 90.921875 163.851562 L 75.765625 164.90625 C 75.742188 164.90625 75.726562 164.933594 75.738281 164.957031 C 76.332031 166.113281 77.449219 166.910156 78.742188 167.101562 L 79.671875 167.238281 C 79.714844 167.242188 79.753906 167.242188 79.792969 167.242188 L 118.941406 164.515625 C 120.601562 164.398438 122.066406 163.449219 122.855469 162.027344 C 123.003906 161.851562 123.109375 161.636719 123.148438 161.402344 L 126.503906 141.296875 C 126.574219 140.882812 126.230469 140.511719 125.800781 140.539062 Z M 125.800781 140.539062 " fill-opacity="1" fill-rule="nonzero"/><path fill="#fcbfbc" d="M 80.242188 117.777344 C 83.785156 116.75 83.050781 111.207031 83.050781 107.925781 C 83.425781 109.167969 86.113281 115.28125 90.8125 115.773438 C 90.769531 116.53125 91.472656 117.964844 92.101562 119.03125 C 92.472656 119.65625 92.597656 120.441406 92.203125 121.054688 C 89.527344 125.21875 83.238281 120.75 80.242188 117.777344 Z M 80.242188 117.777344 " fill-opacity="1" fill-rule="nonzero"/><path fill="#fcbfbc" d="M 85.019531 103.519531 C 90.65625 103.394531 92.84375 99.519531 93.28125 97.449219 C 94.507812 97.914062 96.972656 99.496094 97.027344 102.105469 C 97.09375 105.367188 97.652344 115.101562 92.136719 115.761719 C 91.679688 115.816406 91.238281 115.820312 90.8125 115.773438 C 86.113281 115.28125 83.425781 109.167969 83.046875 107.925781 C 80.367188 106.371094 80.367188 103.375 81.503906 102.421875 C 82.417969 101.65625 84.226562 102.835938 85.019531 103.519531 Z M 85.019531 103.519531 " fill-opacity="1" fill-rule="nonzero"/><path fill="#253036" d="M 82.164062 103.628906 C 82.21875 103.523438 82.347656 103.476562 82.457031 103.53125 C 82.730469 103.667969 83.132812 103.9375 83.46875 104.3125 C 83.800781 104.691406 84.082031 105.199219 84.070312 105.800781 C 84.066406 105.921875 83.96875 106.015625 83.847656 106.011719 C 83.726562 106.011719 83.628906 105.910156 83.632812 105.789062 C 83.644531 105.335938 83.429688 104.933594 83.140625 104.605469 C 82.847656 104.273438 82.496094 104.039062 82.261719 103.921875 C 82.15625 103.871094 82.109375 103.738281 82.164062 103.628906 Z M 82.984375 107.714844 C 83.101562 107.679688 83.222656 107.746094 83.257812 107.863281 C 83.441406 108.460938 84.195312 110.277344 85.484375 112 C 86.777344 113.726562 88.578125 115.320312 90.835938 115.558594 C 90.957031 115.570312 91.042969 115.675781 91.03125 115.796875 C 91.019531 115.917969 90.910156 116.003906 90.792969 115.992188 C 88.351562 115.738281 86.457031 114.027344 85.136719 112.261719 C 83.8125 110.496094 83.035156 108.632812 82.839844 107.988281 C 82.804688 107.871094 82.871094 107.75 82.984375 107.714844 Z M 82.984375 107.714844 " fill-opacity="1" fill-rule="evenodd"/><path fill="#253036" d="M 85.019531 103.519531 C 90.65625 103.394531 92.84375 99.519531 93.28125 97.449219 C 94.507812 97.914062 96.972656 99.496094 97.027344 102.105469 C 97.09375 105.367188 97.652344 115.101562 92.136719 115.761719 C 91.679688 115.816406 91.238281 115.820312 90.8125 115.773438 C 90.769531 116.519531 91.253906 117.589844 91.492188 118.648438 C 94.054688 120.160156 95.875 123.183594 96.746094 124.777344 C 97.144531 125.503906 97.671875 127.160156 98.195312 128.847656 L 100.851562 125.339844 C 102.441406 122.769531 101.28125 120.28125 99.773438 118.015625 C 98.21875 115.679688 100 114.425781 101 112.046875 C 102 109.671875 100.515625 107.515625 99.515625 105.84375 C 98.519531 104.171875 99.039062 102.28125 99.078125 97.792969 C 99.109375 94.207031 93.703125 92.128906 90.996094 91.542969 C 87.910156 90.949219 81.234375 91.25 79.234375 97.203125 C 77.660156 102.082031 79.386719 102.6875 75.507812 103.566406 C 70.746094 104.648438 75.03125 108.984375 71.777344 110.988281 C 69.871094 112.289062 66.316406 117.707031 70.261719 121.714844 C 75.507812 120.183594 80.109375 118.429688 80.109375 118.429688 C 83.652344 117.402344 83.152344 110.78125 83.050781 107.925781 C 80.367188 106.371094 80.367188 103.375 81.503906 102.421875 C 82.417969 101.65625 84.226562 102.835938 85.019531 103.519531 Z M 85.019531 103.519531 " fill-opacity="1" fill-rule="nonzero"/><path fill="#253036" d="M 89.179688 103.664062 C 88.761719 104.191406 88.457031 104.957031 88.382812 105.839844 C 88.304688 106.71875 88.46875 107.527344 88.789062 108.117188 C 89.109375 108.714844 89.570312 109.070312 90.074219 109.113281 C 90.582031 109.15625 91.09375 108.886719 91.515625 108.359375 C 91.933594 107.828125 92.234375 107.0625 92.3125 106.183594 C 92.390625 105.300781 92.222656 104.496094 91.90625 103.902344 C 91.582031 103.308594 91.125 102.953125 90.617188 102.910156 C 90.113281 102.863281 89.597656 103.132812 89.179688 103.664062 Z M 88.835938 103.390625 C 89.3125 102.789062 89.957031 102.410156 90.65625 102.472656 C 91.355469 102.535156 91.925781 103.019531 92.289062 103.695312 C 92.617188 104.296875 92.792969 105.074219 92.769531 105.910156 C 92.910156 105.878906 93.074219 105.859375 93.234375 105.859375 C 93.398438 105.855469 93.582031 105.875 93.75 105.941406 C 93.855469 105.222656 94.117188 104.582031 94.480469 104.113281 C 94.882812 103.582031 95.4375 103.242188 96.042969 103.296875 C 96.648438 103.347656 97.132812 103.78125 97.441406 104.371094 C 97.75 104.964844 97.898438 105.746094 97.824219 106.578125 C 97.75 107.40625 97.472656 108.152344 97.0625 108.683594 C 96.660156 109.210938 96.105469 109.550781 95.5 109.5 C 94.90625 109.445312 94.425781 109.027344 94.117188 108.457031 C 93.824219 107.90625 93.667969 107.183594 93.707031 106.410156 C 93.601562 106.332031 93.441406 106.292969 93.238281 106.296875 C 93.058594 106.296875 92.878906 106.328125 92.734375 106.367188 C 92.632812 107.261719 92.3125 108.054688 91.859375 108.628906 C 91.382812 109.230469 90.738281 109.609375 90.039062 109.546875 C 89.335938 109.488281 88.769531 109.003906 88.40625 108.328125 C 88.039062 107.648438 87.863281 106.753906 87.945312 105.800781 C 88.027344 104.847656 88.359375 103.996094 88.835938 103.390625 Z M 94.828125 104.378906 C 94.476562 104.832031 94.222656 105.496094 94.15625 106.253906 C 94.152344 106.285156 94.152344 106.3125 94.148438 106.339844 C 94.097656 107.082031 94.242188 107.757812 94.503906 108.25 C 94.769531 108.742188 95.140625 109.027344 95.539062 109.0625 C 95.945312 109.097656 96.367188 108.875 96.714844 108.417969 C 97.066406 107.960938 97.320312 107.300781 97.386719 106.539062 C 97.453125 105.777344 97.316406 105.082031 97.054688 104.574219 C 96.789062 104.0625 96.410156 103.765625 96.003906 103.730469 C 95.597656 103.695312 95.175781 103.921875 94.828125 104.378906 Z M 94.828125 104.378906 " fill-opacity="1" fill-rule="evenodd"/><path fill="#253036" d="M 92.046875 107.03125 C 92.007812 107.464844 91.742188 107.796875 91.453125 107.773438 C 91.164062 107.746094 90.960938 107.375 90.996094 106.941406 C 91.035156 106.507812 91.300781 106.175781 91.589844 106.199219 C 91.878906 106.226562 92.082031 106.597656 92.046875 107.03125 Z M 92.046875 107.03125 " fill-opacity="1" fill-rule="nonzero"/><path fill="#253036" d="M 96.75 107.621094 C 96.710938 108.054688 96.445312 108.386719 96.15625 108.359375 C 95.867188 108.335938 95.660156 107.960938 95.699219 107.527344 C 95.738281 107.09375 96.003906 106.761719 96.292969 106.789062 C 96.582031 106.8125 96.785156 107.1875 96.75 107.621094 Z M 96.75 107.621094 " fill-opacity="1" fill-rule="nonzero"/><path fill="#253036" d="M 88.429688 104.476562 L 84.972656 103.734375 L 85.066406 103.304688 L 88.523438 104.046875 Z M 88.429688 104.476562 " fill-opacity="1" fill-rule="evenodd"/><path fill="#253036" d="M 91.160156 112.285156 C 91.207031 112.171875 91.335938 112.121094 91.445312 112.164062 C 91.925781 112.355469 92.558594 112.453125 93.148438 112.171875 C 93.257812 112.117188 93.390625 112.164062 93.441406 112.273438 C 93.492188 112.382812 93.449219 112.511719 93.339844 112.5625 C 92.597656 112.921875 91.828125 112.789062 91.28125 112.570312 C 91.171875 112.523438 91.117188 112.398438 91.160156 112.285156 Z M 91.160156 112.285156 " fill-opacity="1" fill-rule="evenodd"/><path fill="#253036" d="M 74.917969 132.667969 C 75.035156 132.699219 75.101562 132.824219 75.066406 132.9375 C 74.738281 134.070312 74.214844 135.835938 73.703125 137.445312 C 73.199219 139.050781 72.699219 140.53125 72.425781 141.074219 L 72.402344 141.125 L 72.351562 141.160156 C 71.761719 141.550781 70.933594 141.628906 70.023438 141.53125 C 69.109375 141.433594 68.066406 141.152344 67.019531 140.777344 C 64.921875 140.03125 62.753906 138.90625 61.394531 138.101562 C 61.289062 138.039062 61.257812 137.902344 61.316406 137.800781 C 61.378906 137.695312 61.515625 137.660156 61.617188 137.722656 C 62.960938 138.519531 65.101562 139.628906 67.167969 140.363281 C 68.199219 140.730469 69.203125 141.003906 70.070312 141.097656 C 70.917969 141.1875 71.601562 141.105469 72.0625 140.824219 C 72.320312 140.277344 72.792969 138.878906 73.285156 137.316406 C 73.792969 135.707031 74.320312 133.945312 74.648438 132.816406 C 74.679688 132.699219 74.804688 132.632812 74.917969 132.667969 Z M 74.917969 132.667969 " fill-opacity="1" fill-rule="evenodd"/><path fill="#1ecc52" d="M 224.347656 153.671875 C 226.039062 146.347656 228.40625 138.5 229.828125 134.191406 C 230.691406 140.25 228.914062 149.875 227.023438 157.390625 C 231.097656 151.992188 239.761719 141.0625 241.863281 140.539062 C 238.417969 147.90625 230.304688 163.519531 225.449219 167.023438 L 216.914062 165.273438 C 214.109375 164.222656 205.09375 147.90625 200.933594 139.882812 C 203.386719 140.757812 211.167969 150.753906 214.753906 155.640625 C 213.808594 148.417969 213.09375 138.90625 212.753906 133.097656 C 214.503906 135.023438 217.898438 146.886719 219.375 152.578125 C 220.238281 144.777344 222.015625 132.941406 223.039062 126.53125 C 224.792969 130.382812 224.640625 146.230469 224.347656 153.671875 Z M 224.347656 153.671875 " fill-opacity="1" fill-rule="nonzero"/><path fill="#0cc0df" d="M 220.84375 154.984375 C 222.535156 147.660156 224.902344 139.8125 226.324219 135.503906 C 227.191406 141.566406 225.414062 151.1875 223.523438 158.707031 C 227.59375 153.308594 236.261719 142.378906 238.363281 141.851562 C 234.914062 149.21875 226.804688 164.835938 221.945312 168.335938 L 213.410156 166.585938 C 210.609375 165.535156 201.589844 149.21875 197.433594 141.195312 C 199.882812 142.070312 207.667969 152.066406 211.253906 156.953125 C 210.308594 149.730469 209.589844 140.222656 209.25 134.410156 C 211.003906 136.335938 214.394531 148.199219 215.875 153.890625 C 216.734375 146.089844 218.515625 134.253906 219.539062 127.84375 C 221.289062 131.695312 221.136719 147.542969 220.84375 154.984375 Z M 220.84375 154.984375 " fill-opacity="1" fill-rule="nonzero"/><path fill="#253036" d="M 209.25 164.835938 L 231.140625 164.835938 L 227.070312 185.578125 C 226.988281 185.988281 226.628906 186.285156 226.210938 186.285156 L 214.179688 186.285156 C 213.761719 186.285156 213.402344 185.988281 213.320312 185.578125 Z M 209.25 164.835938 " fill-opacity="1" fill-rule="nonzero"/></svg>