<svg xmlns="http://www.w3.org/2000/svg" xmlns:xlink="http://www.w3.org/1999/xlink" width="400" zoomAndPan="magnify" viewBox="0 0 300 187.499995" height="250" preserveAspectRatio="xMidYMid meet" version="1.0"><defs><g/><clipPath id="348bba646b"><path d="M 93 12 L 267 12 L 267 128.945312 L 93 128.945312 Z M 93 12 " clip-rule="nonzero"/></clipPath><clipPath id="47b979a456"><path d="M 40 1.039062 L 213 1.039062 L 213 117 L 40 117 Z M 40 1.039062 " clip-rule="nonzero"/></clipPath></defs><g clip-path="url(#348bba646b)"><path fill="#34cb78" d="M 161.609375 128.460938 C 203.308594 124.539062 237.648438 96.085938 266.222656 58.066406 C 240.957031 35.132812 216.429688 20.046875 192.515625 12.933594 C 199.75 17.960938 206.128906 24.339844 210.910156 31.820312 C 224.15625 38.445312 237.648438 47.640625 251.503906 59.414062 C 239.609375 74.253906 227.46875 86.152344 215.203125 95.347656 C 212.136719 97.554688 209.195312 99.640625 206.128906 101.605469 C 187.730469 113.253906 168.722656 118.652344 149.101562 118.039062 C 126.410156 115.21875 108.015625 96.941406 105.808594 73.273438 C 103.476562 48.5 119.789062 26.300781 143.089844 20.414062 C 128.988281 22.992188 115.128906 29 101.515625 38.074219 C 95.875 48.5 93.054688 60.519531 94.28125 73.273438 C 95.628906 87.378906 101.636719 99.886719 110.714844 109.574219 C 122.609375 122.085938 139.535156 129.566406 157.929688 128.707031 C 159.15625 128.585938 160.382812 128.585938 161.609375 128.460938 Z M 161.609375 128.460938 " fill-opacity="1" fill-rule="evenodd"/></g><g clip-path="url(#47b979a456)"><path fill="#0cc0df" d="M 145.175781 1.40625 C 103.476562 5.332031 69.136719 33.78125 40.5625 71.800781 C 65.703125 94.734375 90.355469 109.820312 114.269531 116.933594 C 107.035156 111.90625 100.65625 105.527344 95.875 98.046875 C 82.628906 91.425781 69.136719 82.226562 55.28125 70.453125 C 67.175781 55.613281 79.316406 43.71875 91.582031 34.519531 C 94.648438 32.3125 97.589844 30.226562 100.65625 28.265625 C 119.054688 16.734375 138.0625 11.21875 157.683594 11.832031 C 180.375 14.652344 198.769531 32.925781 200.976562 56.59375 C 203.308594 81.367188 186.996094 103.566406 163.695312 109.453125 C 177.796875 106.878906 191.65625 100.867188 205.269531 91.792969 C 210.910156 81.367188 213.730469 69.347656 212.503906 56.59375 C 211.15625 42.492188 205.148438 29.980469 196.070312 20.292969 C 184.175781 7.785156 167.25 0.300781 148.855469 1.160156 C 147.628906 1.285156 146.402344 1.285156 145.175781 1.40625 Z M 145.175781 1.40625 " fill-opacity="1" fill-rule="evenodd"/></g><path fill="#1ecc52" d="M 115.621094 69.105469 C 113.65625 48.132812 129.109375 29.492188 150.082031 27.527344 C 171.054688 25.566406 189.695312 40.894531 191.65625 61.992188 C 193.617188 82.960938 178.167969 101.605469 157.195312 103.566406 C 136.222656 105.527344 117.582031 90.074219 115.621094 69.105469 Z M 154.863281 37.339844 C 152.78125 37.585938 151.308594 39.425781 151.429688 41.386719 C 151.675781 43.472656 153.515625 44.945312 155.476562 44.820312 C 164.554688 43.960938 172.648438 50.707031 173.507812 59.78125 C 173.75 61.867188 175.589844 63.339844 177.554688 63.21875 C 179.636719 62.972656 181.109375 61.132812 180.988281 59.167969 C 179.761719 45.925781 167.988281 36.234375 154.742188 37.460938 Z M 154.863281 37.339844 " fill-opacity="1" fill-rule="evenodd"/><g fill="#34cb78" fill-opacity="1"><g transform="translate(28.901186, 173.713574)"><g><path d="M 29.53125 -6.296875 L 29.53125 0 L 3.859375 0 L 3.859375 -36.96875 L 29.0625 -36.96875 L 29.0625 -30.671875 L 11.046875 -30.671875 L 11.046875 -21.765625 L 26.609375 -21.765625 L 26.609375 -15.9375 L 11.046875 -15.9375 L 11.046875 -6.296875 Z M 29.53125 -6.296875 "/></g></g></g><g fill="#34cb78" fill-opacity="1"><g transform="translate(65.402468, 173.713574)"><g><path d="M 3.75 5.3125 C 4.375 5.445312 4.953125 5.566406 5.484375 5.671875 C 6.023438 5.773438 6.488281 5.828125 6.875 5.828125 C 7.53125 5.828125 8.078125 5.660156 8.515625 5.328125 C 8.953125 5.003906 9.378906 4.414062 9.796875 3.5625 C 10.210938 2.71875 10.644531 1.53125 11.09375 0 L 0.3125 -27.28125 L 7.546875 -27.28125 L 14.890625 -7.140625 L 21.359375 -27.28125 L 28.015625 -27.28125 L 16.5625 5.421875 C 16.144531 6.628906 15.507812 7.726562 14.65625 8.71875 C 13.8125 9.707031 12.753906 10.488281 11.484375 11.0625 C 10.210938 11.632812 8.796875 11.921875 7.234375 11.921875 C 6.679688 11.921875 6.125 11.878906 5.5625 11.796875 C 5.007812 11.710938 4.40625 11.566406 3.75 11.359375 Z M 3.75 5.3125 "/></g></g></g><g fill="#34cb78" fill-opacity="1"><g transform="translate(99.248271, 173.713574)"><g><path d="M 15.828125 0.515625 C 13.640625 0.515625 11.660156 0.144531 9.890625 -0.59375 C 8.117188 -1.34375 6.609375 -2.367188 5.359375 -3.671875 C 4.109375 -4.972656 3.144531 -6.460938 2.46875 -8.140625 C 1.789062 -9.828125 1.453125 -11.609375 1.453125 -13.484375 C 1.453125 -16.085938 2.035156 -18.46875 3.203125 -20.625 C 4.367188 -22.78125 6.035156 -24.503906 8.203125 -25.796875 C 10.367188 -27.097656 12.929688 -27.75 15.890625 -27.75 C 18.867188 -27.75 21.414062 -27.097656 23.53125 -25.796875 C 25.65625 -24.503906 27.28125 -22.789062 28.40625 -20.65625 C 29.53125 -18.519531 30.09375 -16.21875 30.09375 -13.75 C 30.09375 -13.332031 30.078125 -12.90625 30.046875 -12.46875 C 30.015625 -12.039062 29.976562 -11.6875 29.9375 -11.40625 L 8.859375 -11.40625 C 8.992188 -10.019531 9.398438 -8.804688 10.078125 -7.765625 C 10.753906 -6.722656 11.617188 -5.929688 12.671875 -5.390625 C 13.734375 -4.847656 14.875 -4.578125 16.09375 -4.578125 C 17.476562 -4.578125 18.785156 -4.914062 20.015625 -5.59375 C 21.253906 -6.269531 22.097656 -7.164062 22.546875 -8.28125 L 28.53125 -6.609375 C 27.875 -5.222656 26.929688 -3.988281 25.703125 -2.90625 C 24.472656 -1.832031 23.023438 -0.992188 21.359375 -0.390625 C 19.691406 0.210938 17.847656 0.515625 15.828125 0.515625 Z M 8.703125 -15.828125 L 22.96875 -15.828125 C 22.832031 -17.222656 22.441406 -18.429688 21.796875 -19.453125 C 21.148438 -20.472656 20.304688 -21.269531 19.265625 -21.84375 C 18.222656 -22.414062 17.0625 -22.703125 15.78125 -22.703125 C 14.53125 -22.703125 13.390625 -22.414062 12.359375 -21.84375 C 11.335938 -21.269531 10.503906 -20.472656 9.859375 -19.453125 C 9.222656 -18.429688 8.835938 -17.222656 8.703125 -15.828125 Z M 8.703125 -15.828125 "/></g></g></g><g fill="#0cc0df" fill-opacity="1"><g transform="translate(135.655567, 173.713574)"><g><path d="M 1.609375 -18.75 C 1.609375 -21.007812 2.015625 -23.222656 2.828125 -25.390625 C 3.648438 -27.554688 4.84375 -29.53125 6.40625 -31.3125 C 7.96875 -33.101562 9.875 -34.53125 12.125 -35.59375 C 14.382812 -36.65625 16.957031 -37.1875 19.84375 -37.1875 C 23.25 -37.1875 26.191406 -36.4375 28.671875 -34.9375 C 31.148438 -33.445312 33 -31.503906 34.21875 -29.109375 L 28.6875 -25.3125 C 28.0625 -26.695312 27.242188 -27.796875 26.234375 -28.609375 C 25.234375 -29.429688 24.160156 -30.003906 23.015625 -30.328125 C 21.867188 -30.660156 20.742188 -30.828125 19.640625 -30.828125 C 17.828125 -30.828125 16.253906 -30.460938 14.921875 -29.734375 C 13.585938 -29.003906 12.46875 -28.050781 11.5625 -26.875 C 10.65625 -25.695312 9.984375 -24.378906 9.546875 -22.921875 C 9.117188 -21.460938 8.90625 -20.003906 8.90625 -18.546875 C 8.90625 -16.910156 9.164062 -15.335938 9.6875 -13.828125 C 10.207031 -12.316406 10.941406 -10.976562 11.890625 -9.8125 C 12.847656 -8.65625 13.992188 -7.738281 15.328125 -7.0625 C 16.671875 -6.382812 18.140625 -6.046875 19.734375 -6.046875 C 20.878906 -6.046875 22.039062 -6.234375 23.21875 -6.609375 C 24.40625 -6.992188 25.5 -7.601562 26.5 -8.4375 C 27.507812 -9.269531 28.289062 -10.347656 28.84375 -11.671875 L 34.734375 -8.28125 C 34.003906 -6.4375 32.8125 -4.875 31.15625 -3.59375 C 29.507812 -2.3125 27.660156 -1.335938 25.609375 -0.671875 C 23.566406 -0.015625 21.539062 0.3125 19.53125 0.3125 C 16.894531 0.3125 14.484375 -0.234375 12.296875 -1.328125 C 10.109375 -2.421875 8.222656 -3.878906 6.640625 -5.703125 C 5.054688 -7.523438 3.820312 -9.570312 2.9375 -11.84375 C 2.050781 -14.125 1.609375 -16.425781 1.609375 -18.75 Z M 1.609375 -18.75 "/></g></g></g><g fill="#0cc0df" fill-opacity="1"><g transform="translate(176.58264, 173.713574)"><g><path d="M 1.296875 -8.078125 C 1.296875 -9.847656 1.789062 -11.398438 2.78125 -12.734375 C 3.769531 -14.066406 5.148438 -15.097656 6.921875 -15.828125 C 8.691406 -16.554688 10.722656 -16.921875 13.015625 -16.921875 C 14.160156 -16.921875 15.320312 -16.832031 16.5 -16.65625 C 17.6875 -16.488281 18.710938 -16.210938 19.578125 -15.828125 L 19.578125 -17.296875 C 19.578125 -19.023438 19.066406 -20.359375 18.046875 -21.296875 C 17.023438 -22.234375 15.503906 -22.703125 13.484375 -22.703125 C 11.992188 -22.703125 10.570312 -22.441406 9.21875 -21.921875 C 7.863281 -21.398438 6.441406 -20.640625 4.953125 -19.640625 L 2.703125 -24.21875 C 4.515625 -25.394531 6.363281 -26.273438 8.25 -26.859375 C 10.144531 -27.453125 12.132812 -27.75 14.21875 -27.75 C 18.101562 -27.75 21.128906 -26.773438 23.296875 -24.828125 C 25.472656 -22.890625 26.5625 -20.117188 26.5625 -16.515625 L 26.5625 -7.8125 C 26.5625 -7.082031 26.691406 -6.5625 26.953125 -6.25 C 27.210938 -5.9375 27.632812 -5.742188 28.21875 -5.671875 L 28.21875 0 C 27.59375 0.101562 27.03125 0.1875 26.53125 0.25 C 26.03125 0.320312 25.609375 0.359375 25.265625 0.359375 C 23.867188 0.359375 22.816406 0.046875 22.109375 -0.578125 C 21.398438 -1.203125 20.957031 -1.960938 20.78125 -2.859375 L 20.625 -4.265625 C 19.445312 -2.742188 17.972656 -1.566406 16.203125 -0.734375 C 14.429688 0.0976562 12.625 0.515625 10.78125 0.515625 C 8.976562 0.515625 7.351562 0.144531 5.90625 -0.59375 C 4.46875 -1.34375 3.335938 -2.367188 2.515625 -3.671875 C 1.703125 -4.972656 1.296875 -6.441406 1.296875 -8.078125 Z M 18.28125 -6.671875 C 18.664062 -7.085938 18.976562 -7.503906 19.21875 -7.921875 C 19.457031 -8.335938 19.578125 -8.71875 19.578125 -9.0625 L 19.578125 -11.828125 C 18.742188 -12.171875 17.84375 -12.4375 16.875 -12.625 C 15.90625 -12.820312 14.984375 -12.921875 14.109375 -12.921875 C 12.304688 -12.921875 10.820312 -12.53125 9.65625 -11.75 C 8.5 -10.96875 7.921875 -9.929688 7.921875 -8.640625 C 7.921875 -7.953125 8.109375 -7.296875 8.484375 -6.671875 C 8.867188 -6.046875 9.425781 -5.539062 10.15625 -5.15625 C 10.882812 -4.769531 11.753906 -4.578125 12.765625 -4.578125 C 13.804688 -4.578125 14.828125 -4.773438 15.828125 -5.171875 C 16.835938 -5.578125 17.65625 -6.078125 18.28125 -6.671875 Z M 18.28125 -6.671875 "/></g></g></g><g fill="#0cc0df" fill-opacity="1"><g transform="translate(211.678079, 173.713574)"><g><path d="M 19.421875 -21.25 C 17.304688 -21.25 15.414062 -20.835938 13.75 -20.015625 C 12.082031 -19.203125 10.882812 -18.035156 10.15625 -16.515625 L 10.15625 0 L 3.171875 0 L 3.171875 -27.28125 L 9.578125 -27.28125 L 9.578125 -21.453125 C 10.554688 -23.328125 11.789062 -24.800781 13.28125 -25.875 C 14.769531 -26.957031 16.347656 -27.550781 18.015625 -27.65625 C 18.398438 -27.65625 18.695312 -27.65625 18.90625 -27.65625 C 19.113281 -27.65625 19.285156 -27.632812 19.421875 -27.59375 Z M 19.421875 -21.25 "/></g></g></g><g fill="#0cc0df" fill-opacity="1"><g transform="translate(237.036771, 173.713574)"><g><path d="M 15.828125 0.515625 C 13.640625 0.515625 11.660156 0.144531 9.890625 -0.59375 C 8.117188 -1.34375 6.609375 -2.367188 5.359375 -3.671875 C 4.109375 -4.972656 3.144531 -6.460938 2.46875 -8.140625 C 1.789062 -9.828125 1.453125 -11.609375 1.453125 -13.484375 C 1.453125 -16.085938 2.035156 -18.46875 3.203125 -20.625 C 4.367188 -22.78125 6.035156 -24.503906 8.203125 -25.796875 C 10.367188 -27.097656 12.929688 -27.75 15.890625 -27.75 C 18.867188 -27.75 21.414062 -27.097656 23.53125 -25.796875 C 25.65625 -24.503906 27.28125 -22.789062 28.40625 -20.65625 C 29.53125 -18.519531 30.09375 -16.21875 30.09375 -13.75 C 30.09375 -13.332031 30.078125 -12.90625 30.046875 -12.46875 C 30.015625 -12.039062 29.976562 -11.6875 29.9375 -11.40625 L 8.859375 -11.40625 C 8.992188 -10.019531 9.398438 -8.804688 10.078125 -7.765625 C 10.753906 -6.722656 11.617188 -5.929688 12.671875 -5.390625 C 13.734375 -4.847656 14.875 -4.578125 16.09375 -4.578125 C 17.476562 -4.578125 18.785156 -4.914062 20.015625 -5.59375 C 21.253906 -6.269531 22.097656 -7.164062 22.546875 -8.28125 L 28.53125 -6.609375 C 27.875 -5.222656 26.929688 -3.988281 25.703125 -2.90625 C 24.472656 -1.832031 23.023438 -0.992188 21.359375 -0.390625 C 19.691406 0.210938 17.847656 0.515625 15.828125 0.515625 Z M 8.703125 -15.828125 L 22.96875 -15.828125 C 22.832031 -17.222656 22.441406 -18.429688 21.796875 -19.453125 C 21.148438 -20.472656 20.304688 -21.269531 19.265625 -21.84375 C 18.222656 -22.414062 17.0625 -22.703125 15.78125 -22.703125 C 14.53125 -22.703125 13.390625 -22.414062 12.359375 -21.84375 C 11.335938 -21.269531 10.503906 -20.472656 9.859375 -19.453125 C 9.222656 -18.429688 8.835938 -17.222656 8.703125 -15.828125 Z M 8.703125 -15.828125 "/></g></g></g></svg>