<svg xmlns="http://www.w3.org/2000/svg" xmlns:xlink="http://www.w3.org/1999/xlink" width="400" zoomAndPan="magnify" viewBox="0 0 300 187.499995" height="250" preserveAspectRatio="xMidYMid meet" version="1.0"><defs><clipPath id="1e0ad2dfda"><path d="M 0.398438 59 L 102 59 L 102 187 L 0.398438 187 Z M 0.398438 59 " clip-rule="nonzero"/></clipPath><clipPath id="b40a841bd1"><path d="M 0.398438 59 L 46 59 L 46 129 L 0.398438 129 Z M 0.398438 59 " clip-rule="nonzero"/></clipPath></defs><g clip-path="url(#1e0ad2dfda)"><path fill="#a2d6f5" d="M 42.496094 61.132812 C 42.496094 61.132812 22.523438 71.460938 17.878906 76.390625 C 13.234375 81.320312 10.128906 87.519531 9.199219 90.621094 C 8.269531 93.71875 3.796875 118.445312 2.695312 120.914062 C 1.597656 123.378906 0.398438 126.332031 1.179688 126.601562 C 1.597656 126.746094 2.429688 127.84375 3.917969 128.113281 C 6.730469 128.625 10.960938 128.332031 12.769531 128.332031 C 15.554688 128.332031 20.957031 126.941406 20.957031 126.941406 L 31.175781 122.449219 L 23.746094 157.085938 C 23.746094 157.085938 21.421875 176.25 22.207031 178.394531 C 22.207031 178.394531 26.703125 181.8125 37.214844 184.132812 C 47.726562 186.453125 64.300781 186.453125 72.050781 186.132812 C 79.800781 185.816406 93.417969 182.570312 93.566406 181.351562 C 93.710938 180.128906 92.488281 145.320312 92.171875 143.464844 C 91.855469 141.613281 97.597656 93.402344 98.992188 90.304688 C 100.386719 87.203125 101.609375 83.515625 101.609375 83.515625 C 101.609375 83.515625 97.132812 69.578125 92.488281 66.796875 C 90.09375 65.429688 87.550781 64.332031 84.933594 63.476562 C 82.246094 62.671875 79.484375 62.0625 76.695312 61.671875 C 76.695312 61.671875 49.488281 57.300781 42.496094 61.132812 Z M 42.496094 61.132812 " fill-opacity="1" fill-rule="nonzero"/></g><path fill="#7b4e3d" d="M 46.285156 37.796875 C 46.285156 37.796875 43.402344 32.550781 42.203125 30.621094 C 41.003906 28.695312 38.363281 21.785156 41.617188 15.441406 C 44.867188 9.09375 49.21875 3.96875 55.011719 2.160156 C 60.804688 0.355469 67.894531 0.964844 72.101562 2.355469 C 76.304688 3.746094 76.328125 4.429688 76.328125 4.429688 C 76.328125 4.429688 80.65625 3.601562 84.25 8.214844 C 85.960938 10.410156 87.355469 12.851562 87.746094 15.023438 C 88.136719 17.195312 87.453125 19.441406 87.234375 20.222656 C 86.816406 21.714844 83.347656 25.742188 81.242188 26.277344 L 80.777344 22.03125 C 80.777344 22.03125 76.941406 22.152344 75.035156 20.296875 C 73.128906 18.441406 72.980469 16.710938 70.242188 16.929688 C 68.066406 17.125 67.527344 18.199219 67.527344 18.199219 C 67.527344 18.199219 65.867188 16.636719 63.226562 17.367188 C 60.585938 18.101562 59.09375 18.199219 58.265625 22.445312 C 57.433594 26.691406 57.726562 28.351562 55.992188 30.453125 C 54.839844 31.816406 53.570312 33.0625 52.203125 34.210938 C 52.203125 34.210938 50.757812 31.28125 48.851562 31.648438 C 46.945312 32.011719 45.378906 35.113281 46.285156 37.796875 Z M 46.285156 37.796875 " fill-opacity="1" fill-rule="nonzero"/><path fill="#fdcbac" d="M 52.496094 33.992188 C 52.496094 33.992188 49.339844 30.28125 47.53125 31.820312 C 45.722656 33.355469 46.210938 37.75 47.289062 39.605469 C 48.363281 41.460938 49.878906 43.363281 51.296875 43.851562 C 51.296875 43.851562 52.203125 49.953125 51.785156 51.566406 C 51.371094 53.175781 51.003906 56.058594 49.878906 57.421875 C 48.753906 58.789062 42.496094 61.132812 42.496094 61.132812 C 42.496094 61.132812 46.335938 68.066406 52.324219 72.191406 C 58.3125 76.316406 64.960938 78.832031 66.40625 79.246094 C 67.847656 79.660156 69.042969 77.585938 69.042969 77.585938 C 69.042969 77.585938 74.253906 71.070312 75.695312 66.578125 C 77.136719 62.085938 76.695312 61.671875 76.695312 61.671875 C 76.695312 61.671875 72.101562 61.183594 71.441406 59.523438 C 70.78125 57.863281 70.167969 56.105469 69.925781 54.664062 C 69.925781 54.664062 73.101562 54.203125 74.546875 52.761719 C 75.988281 51.320312 79.164062 47.367188 80.242188 44.878906 C 81.316406 42.386719 81.609375 41.167969 81.609375 36.140625 C 81.609375 31.109375 80.777344 22.03125 80.777344 22.03125 C 80.777344 22.03125 76.890625 22.492188 75.035156 20.296875 C 73.175781 18.101562 72.320312 17.246094 71.367188 17.125 C 70.414062 17 67.773438 17.78125 67.773438 17.78125 C 67.773438 17.78125 65.378906 17.292969 64.132812 17 C 62.882812 16.710938 58.800781 18.199219 58.265625 21.664062 C 57.726562 25.128906 57.945312 27.886719 55.992188 30.453125 C 54.035156 33.015625 52.496094 33.992188 52.496094 33.992188 Z M 52.496094 33.992188 " fill-opacity="1" fill-rule="nonzero"/><path fill="#fad097" d="M 49.292969 85.542969 C 48.925781 85.226562 47.777344 84.492188 47.410156 85.984375 C 47.042969 87.472656 48.144531 88.007812 48.65625 88.617188 C 49.167969 89.230469 60.488281 99.554688 60.488281 99.554688 L 62.199219 97.480469 C 57.507812 93.769531 53.863281 89.523438 49.292969 85.542969 Z M 49.292969 85.542969 " fill-opacity="1" fill-rule="nonzero"/><path fill="#fdcbac" d="M 5.042969 128.257812 L 5.042969 138.609375 C 5.042969 138.609375 5.558594 146.519531 9.835938 148.933594 C 14.113281 151.351562 19.34375 151.691406 22.9375 149.835938 C 26.53125 147.980469 51.125 129.601562 51.125 129.601562 C 51.125 129.601562 59.632812 121.058594 60.757812 120.667969 C 61.882812 120.277344 67.675781 117.984375 67.675781 117.984375 L 71.515625 105.386719 C 71.515625 105.386719 72.46875 103.191406 71 101.289062 C 69.535156 99.382812 68.457031 98.945312 68.457031 98.945312 L 73.25 97.257812 L 74.375 93.648438 C 74.375 93.648438 65.207031 94.550781 64.007812 95.332031 C 62.8125 96.113281 58.335938 102.75 56.871094 106.804688 C 56.871094 106.804688 54.109375 109.832031 51.027344 111.464844 C 47.949219 113.101562 38.460938 119.203125 32.179688 122.035156 C 25.898438 124.867188 21.421875 126.453125 19.003906 127.257812 C 16.582031 128.0625 12.230469 128.722656 9.152344 128.257812 C 8.222656 128.113281 5.042969 128.257812 5.042969 128.257812 Z M 5.042969 128.257812 " fill-opacity="1" fill-rule="nonzero"/><path fill="#fef7d1" d="M 121.484375 84.324219 L 79.605469 82.929688 C 79.605469 82.929688 77.503906 82.785156 76.695312 85.128906 C 76.304688 86.277344 72.515625 100.824219 68.628906 114.125 C 64.59375 127.917969 60.488281 140.464844 60.488281 140.464844 C 60.488281 140.464844 59.363281 142.390625 61.464844 143.125 C 63.570312 143.855469 102.511719 144.078125 102.511719 144.078125 C 102.511719 144.078125 104.710938 144.175781 105.105469 143.199219 C 105.25 142.878906 108.597656 135.605469 110.628906 127.574219 C 114.34375 112.980469 120.945312 90.570312 121.164062 90.523438 C 121.386719 90.472656 122.707031 86.570312 122.707031 85.835938 C 122.707031 85.105469 122.214844 84.226562 121.484375 84.324219 Z M 121.484375 84.324219 " fill-opacity="1" fill-rule="nonzero"/><path fill="#fdcbac" d="M 115.25 111.5625 C 115.25 111.5625 113.21875 108.242188 109.894531 106.972656 C 106.570312 105.707031 104.664062 104.460938 104.101562 106.585938 C 103.539062 108.707031 107.695312 110.488281 107.695312 110.488281 C 107.695312 110.488281 103.613281 108.878906 102.855469 109.34375 C 102.097656 109.804688 102.292969 111.953125 103.90625 112.855469 C 103.90625 112.855469 102.292969 113.222656 102.609375 114.515625 C 102.929688 115.8125 103.097656 115.785156 103.855469 116.691406 C 104.613281 117.59375 109.40625 119.960938 109.75 121.207031 C 109.75 121.207031 106.179688 118.789062 104.957031 118.59375 C 103.734375 118.398438 103.292969 119.449219 103.464844 120.203125 C 103.636719 120.960938 105.175781 122.863281 107.035156 124.132812 C 108.355469 125.0625 109.554688 126.113281 110.652344 127.28125 L 110.605469 128.746094 C 110.605469 128.746094 113.414062 128.746094 115.296875 125.84375 C 117.179688 122.9375 117.765625 119.789062 117.300781 117.640625 C 116.839844 115.492188 115.25 111.5625 115.25 111.5625 Z M 115.25 111.5625 " fill-opacity="1" fill-rule="nonzero"/><path fill="#000000" d="M 69.65625 54.421875 C 69.828125 55.8125 69.925781 57.253906 70.488281 58.546875 C 71.050781 59.839844 72.46875 61.183594 73.789062 62.132812 C 74.152344 62.402344 74.519531 61.792969 74.152344 61.5 C 72.933594 60.621094 71.734375 59.570312 71.121094 58.179688 C 70.511719 56.789062 70.535156 55.667969 70.390625 54.421875 C 70.339844 53.957031 69.605469 53.957031 69.65625 54.421875 Z M 69.65625 54.421875 " fill-opacity="1" fill-rule="nonzero"/><g clip-path="url(#b40a841bd1)"><path fill="#000000" d="M 44.621094 59.839844 C 44.160156 60.15625 43.667969 60.425781 43.132812 60.621094 L 40.171875 61.890625 C 37.753906 62.964844 35.40625 64.136719 33.109375 65.453125 C 30.957031 66.699219 28.804688 67.917969 26.726562 69.238281 C 24.648438 70.554688 23.230469 71.582031 21.546875 72.851562 C 19.859375 74.121094 18.757812 74.804688 17.558594 76 C 16.191406 77.390625 14.894531 78.902344 13.722656 80.464844 C 12.058594 82.589844 10.714844 84.933594 9.738281 87.421875 C 9.320312 88.570312 8.957031 89.71875 8.660156 90.890625 C 7.734375 94.28125 6.976562 97.722656 6.191406 101.140625 C 5.289062 105.144531 4.433594 109.148438 3.578125 113.148438 C 2.890625 116.324219 2.207031 119.519531 1.472656 122.667969 C 1.253906 123.523438 1.058594 124.378906 0.816406 125.207031 L 0.691406 125.5 C 0.742188 125.402344 0.644531 125.648438 0.617188 125.695312 L 0.546875 125.988281 C 0.472656 126.429688 0.59375 126.84375 0.886719 127.183594 C 1.574219 127.964844 2.820312 128.210938 3.773438 128.355469 C 5.3125 128.578125 6.851562 128.699219 8.417969 128.675781 C 11.058594 128.648438 13.699219 128.503906 16.3125 128.234375 L 16.753906 128.1875 C 17.21875 128.136719 17.21875 127.40625 16.753906 127.453125 C 14.824219 127.671875 12.867188 127.796875 10.910156 127.894531 C 9.320312 127.941406 7.734375 127.964844 6.144531 127.867188 C 4.554688 127.769531 3.503906 127.699219 2.28125 127.234375 C 1.9375 127.113281 1.621094 126.890625 1.375 126.625 C 1.207031 126.378906 1.230469 126.160156 1.351562 125.84375 C 1.472656 125.527344 1.742188 124.597656 1.914062 123.9375 C 2.625 121.109375 3.210938 118.25 3.847656 115.394531 C 4.675781 111.515625 5.507812 107.632812 6.363281 103.726562 C 7.21875 99.824219 7.976562 96.527344 8.882812 92.9375 C 9.199219 91.644531 9.542969 90.351562 9.933594 89.082031 C 10.570312 87.128906 11.425781 85.273438 12.5 83.542969 C 13.746094 81.539062 15.1875 79.636719 16.777344 77.902344 C 17.535156 77 18.390625 76.171875 19.320312 75.4375 C 21.226562 73.996094 23.132812 72.53125 25.089844 71.191406 C 27.046875 69.847656 28.585938 68.945312 30.371094 67.894531 C 32.667969 66.527344 34.992188 65.1875 37.386719 63.988281 C 39.78125 62.792969 41.640625 62.085938 43.742188 61.132812 C 44.230469 60.9375 44.695312 60.671875 45.136719 60.351562 C 45.527344 60.058594 44.988281 59.546875 44.621094 59.839844 Z M 44.621094 59.839844 " fill-opacity="1" fill-rule="nonzero"/></g><path fill="#000000" d="M 30.347656 95.234375 C 31.203125 102.3125 31.496094 109.464844 31.273438 116.59375 C 31.226562 118.496094 31.105469 120.398438 30.933594 122.304688 C 30.882812 122.792969 31.617188 122.765625 31.667969 122.304688 C 32.324219 115.226562 32.179688 108.046875 31.617188 100.945312 C 31.46875 99.042969 31.300781 97.136719 31.078125 95.234375 C 31.007812 94.769531 30.273438 94.769531 30.347656 95.234375 Z M 30.347656 95.234375 " fill-opacity="1" fill-rule="nonzero"/><path fill="#000000" d="M 71.21875 59.816406 C 72.050781 60.5 73.078125 60.9375 74.082031 61.304688 C 75.351562 61.71875 76.648438 62.035156 77.96875 62.304688 C 80.460938 62.84375 83.078125 63.160156 85.496094 64.015625 C 86.914062 64.527344 88.308594 65.1875 89.652344 65.796875 C 90.996094 66.40625 92.683594 67.308594 93.929688 68.433594 C 95.179688 69.554688 95.714844 70.628906 96.402344 71.898438 C 97.0625 73.09375 97.648438 74.339844 98.160156 75.609375 C 99.238281 78.269531 100.191406 80.953125 101.117188 83.664062 C 101.265625 84.101562 101.972656 83.90625 101.804688 83.46875 C 100.972656 80.980469 100.066406 78.511719 99.136719 76.074219 C 98.675781 74.925781 98.183594 73.777344 97.621094 72.65625 C 97.0625 71.53125 96.304688 70.066406 95.421875 68.945312 C 93.34375 66.359375 90.042969 65.1875 87.109375 63.917969 C 86.035156 63.429688 84.933594 63.039062 83.785156 62.769531 C 82.441406 62.453125 81.121094 62.207031 79.777344 61.9375 C 78.433594 61.671875 76.722656 61.328125 75.230469 60.890625 C 73.738281 60.449219 72.710938 60.109375 71.757812 59.277344 C 71.390625 58.984375 70.878906 59.5 71.21875 59.816406 Z M 71.21875 59.816406 " fill-opacity="1" fill-rule="nonzero"/><path fill="#000000" d="M 16.632812 128.210938 C 19.371094 127.796875 21.984375 126.941406 24.550781 125.890625 C 27.117188 124.84375 30.152344 123.597656 32.863281 122.277344 C 38.488281 119.519531 43.960938 116.421875 49.21875 113.027344 C 50.5625 112.199219 51.882812 111.320312 53.203125 110.464844 C 53.765625 110.074219 54.351562 109.734375 54.890625 109.316406 C 55.695312 108.730469 56.40625 108.046875 56.992188 107.242188 C 57.554688 106.460938 57.773438 105.609375 58.167969 104.730469 C 58.949219 102.898438 60.046875 101.191406 61.171875 99.53125 C 61.734375 98.722656 62.320312 97.917969 62.957031 97.136719 C 63.59375 96.355469 63.8125 96.0625 64.375 95.722656 C 64.9375 95.378906 65.648438 95.210938 66.257812 95.039062 C 67.1875 94.820312 68.117188 94.648438 69.042969 94.527344 C 70.535156 94.28125 72.050781 94.109375 73.566406 93.988281 L 73.910156 93.988281 C 74.105469 93.988281 74.277344 93.816406 74.277344 93.621094 C 74.277344 93.425781 74.105469 93.257812 73.910156 93.257812 C 72.734375 93.328125 71.5625 93.453125 70.414062 93.621094 C 68.628906 93.84375 66.796875 94.085938 65.085938 94.648438 C 64.496094 94.820312 63.984375 95.113281 63.519531 95.503906 C 62.933594 96.039062 62.394531 96.648438 61.90625 97.308594 C 60.609375 98.96875 59.460938 100.75 58.433594 102.582031 C 58.019531 103.335938 57.628906 104.117188 57.308594 104.925781 C 57.140625 105.339844 57.015625 105.777344 56.820312 106.167969 C 56.550781 106.683594 56.210938 107.144531 55.820312 107.558594 C 54.546875 108.925781 52.8125 109.855469 51.273438 110.878906 C 46.015625 114.371094 40.566406 117.542969 34.941406 120.449219 C 32.128906 121.890625 29.269531 123.230469 26.335938 124.425781 C 23.84375 125.453125 21.324219 126.476562 18.710938 127.113281 C 17.953125 127.28125 17.195312 127.429688 16.4375 127.550781 C 15.972656 127.625 16.167969 128.308594 16.632812 128.234375 Z M 16.632812 128.210938 " fill-opacity="1" fill-rule="nonzero"/><path fill="#000000" d="M 4.605469 128.480469 C 4.40625 131.089844 4.335938 133.726562 4.457031 136.339844 C 4.554688 138.585938 4.75 140.832031 5.386719 142.976562 C 6.023438 145.125 6.828125 146.640625 8.199219 148.007812 C 9.371094 149.105469 10.738281 149.960938 12.253906 150.519531 C 15.628906 151.863281 19.589844 151.9375 22.914062 150.375 C 24.210938 149.765625 25.335938 148.859375 26.507812 148.03125 C 30.515625 145.175781 34.527344 142.320312 38.535156 139.414062 C 42.9375 136.242188 47.359375 133.066406 51.613281 129.699219 C 54.058594 127.769531 56.355469 125.648438 58.484375 123.378906 C 59.21875 122.621094 59.976562 121.742188 60.902344 121.207031 C 61.417969 120.886719 61.980469 120.789062 62.566406 120.59375 C 63.542969 120.277344 64.472656 119.886719 65.402344 119.449219 L 66.699219 118.765625 C 67.113281 118.542969 66.746094 117.910156 66.332031 118.128906 C 64.988281 118.910156 63.542969 119.519531 62.054688 119.984375 C 61.074219 120.203125 60.171875 120.691406 59.4375 121.402344 C 58.433594 122.304688 57.554688 123.304688 56.625 124.257812 C 55.257812 125.648438 53.816406 126.992188 52.300781 128.234375 C 48.484375 131.359375 44.453125 134.214844 40.46875 137.121094 C 36.480469 140.023438 31.863281 143.320312 27.535156 146.394531 L 24.773438 148.371094 C 23.695312 149.203125 22.472656 149.835938 21.179688 150.277344 C 19.417969 150.8125 17.558594 150.9375 15.75 150.691406 C 12.449219 150.253906 9.101562 148.640625 7.339844 145.710938 C 6.21875 143.808594 5.679688 141.636719 5.433594 139.464844 C 5.167969 137.070312 5.066406 134.65625 5.140625 132.238281 C 5.164062 130.96875 5.238281 129.722656 5.335938 128.480469 C 5.386719 128.015625 4.652344 128.015625 4.605469 128.480469 Z M 4.605469 128.480469 " fill-opacity="1" fill-rule="nonzero"/><path fill="#000000" d="M 67.945312 99.089844 C 69.753906 98.773438 71.515625 98.332031 73.25 97.746094 C 73.691406 97.601562 73.496094 96.894531 73.054688 97.039062 C 71.320312 97.625 69.558594 98.066406 67.75 98.382812 C 67.285156 98.457031 67.480469 99.164062 67.945312 99.089844 Z M 67.945312 99.089844 " fill-opacity="1" fill-rule="nonzero"/><path fill="#000000" d="M 68.484375 99.308594 C 69.09375 99.40625 69.632812 99.75 70 100.238281 C 70.4375 100.800781 70.730469 101.457031 70.878906 102.140625 C 71.023438 102.605469 71.734375 102.410156 71.585938 101.945312 C 71.390625 101.117188 71.023438 100.335938 70.488281 99.675781 C 69.972656 99.066406 69.265625 98.675781 68.484375 98.578125 C 68.285156 98.578125 68.117188 98.75 68.117188 98.945312 C 68.117188 99.140625 68.285156 99.308594 68.484375 99.308594 Z M 68.484375 99.308594 " fill-opacity="1" fill-rule="nonzero"/><path fill="#000000" d="M 68.386719 102.921875 C 68.996094 102.140625 70 101.726562 71 101.898438 C 71.171875 101.945312 71.367188 101.847656 71.441406 101.679688 C 71.441406 101.679688 71.441406 101.652344 71.441406 101.652344 C 71.488281 101.457031 71.390625 101.261719 71.195312 101.191406 C 69.949219 100.96875 68.679688 101.433594 67.871094 102.410156 C 67.726562 102.554688 67.726562 102.777344 67.871094 102.921875 C 67.992188 103.070312 68.214844 103.070312 68.359375 102.945312 C 68.359375 102.945312 68.386719 102.921875 68.386719 102.921875 Z M 68.386719 102.921875 " fill-opacity="1" fill-rule="nonzero"/><path fill="#000000" d="M 110.410156 127.476562 C 109.675781 129.601562 108.917969 131.75 108.160156 133.898438 C 107.132812 136.851562 106.128906 139.878906 104.90625 142.78125 C 104.808594 143.050781 104.6875 143.320312 104.515625 143.539062 C 103.953125 144.027344 102.707031 143.785156 102.023438 143.660156 C 101.679688 143.589844 101.3125 143.5625 100.949219 143.5625 L 94.886719 143.5625 L 84.835938 143.515625 C 81.171875 143.492188 77.527344 143.464844 73.886719 143.394531 C 70.976562 143.34375 68.066406 143.296875 65.15625 143.171875 C 64.300781 143.148438 63.421875 143.101562 62.566406 143.027344 L 61.980469 142.953125 C 61.394531 142.808594 60.21875 142.441406 60.34375 141.613281 C 60.367188 141.515625 60.390625 141.417969 60.441406 141.34375 C 60.660156 140.832031 60.855469 140.269531 61.050781 139.730469 C 61.515625 138.488281 61.980469 137.21875 62.417969 135.972656 C 63.347656 133.3125 64.230469 130.652344 65.085938 127.964844 C 66.894531 122.230469 68.554688 116.46875 70.167969 110.660156 C 71.78125 104.851562 73.273438 99.285156 74.789062 93.574219 L 76.890625 85.761719 C 77.015625 85.152344 77.308594 84.589844 77.722656 84.128906 C 78.238281 83.589844 78.847656 83.46875 79.558594 83.542969 C 81.195312 83.6875 82.882812 83.710938 84.519531 83.761719 L 93.957031 84.078125 L 105.003906 84.394531 L 114.832031 84.640625 C 116.714844 84.6875 118.621094 84.738281 120.53125 84.738281 L 120.992188 84.738281 C 121.261719 84.6875 121.53125 84.714844 121.777344 84.859375 C 122.117188 85.105469 122.167969 85.59375 122.167969 85.957031 C 122.144531 87.082031 121.582031 88.324219 121.238281 89.398438 C 120.261719 92.644531 119.28125 95.894531 118.28125 99.140625 C 117.277344 102.386719 116.347656 105.558594 115.296875 108.757812 L 114.859375 110.050781 C 114.808594 110.195312 114.761719 110.34375 114.6875 110.464844 C 114.6875 110.515625 114.710938 110.417969 114.664062 110.515625 C 114.664062 110.5625 114.636719 110.585938 114.613281 110.613281 C 114.515625 110.78125 114.5625 111.003906 114.734375 111.125 C 114.90625 111.222656 115.125 111.171875 115.25 110.976562 C 115.617188 110.367188 115.8125 109.5625 116.03125 108.878906 C 116.496094 107.4375 116.960938 105.972656 117.398438 104.535156 C 118.550781 100.871094 119.648438 97.1875 120.75 93.523438 C 121.1875 92.109375 121.628906 90.667969 122.046875 89.253906 C 122.460938 87.835938 123.070312 86.691406 122.851562 85.398438 C 122.753906 84.589844 122.070312 83.980469 121.238281 83.980469 L 118.574219 83.980469 L 110.410156 83.808594 L 99.382812 83.515625 L 88.625 83.175781 C 86.109375 83.101562 83.589844 83.027344 81.074219 82.90625 L 79.484375 82.808594 C 77.871094 82.636719 76.648438 83.835938 76.257812 85.324219 C 74.765625 90.816406 73.324219 96.308594 71.832031 101.800781 C 70.21875 107.753906 68.582031 113.710938 66.84375 119.644531 C 65.109375 125.574219 63.421875 130.945312 61.464844 136.484375 C 61.003906 137.753906 60.5625 139.023438 60.074219 140.269531 C 59.902344 140.757812 59.558594 141.320312 59.609375 141.832031 C 59.683594 143.148438 61.296875 143.613281 62.394531 143.734375 C 64.496094 143.980469 66.625 143.980469 68.726562 144.027344 C 72.199219 144.125 75.644531 144.175781 79.117188 144.199219 L 90.214844 144.296875 L 101.511719 144.296875 C 101.632812 144.296875 101.386719 144.273438 101.511719 144.296875 L 102.464844 144.46875 C 103.269531 144.566406 104.417969 144.664062 105.054688 144.027344 C 105.273438 143.757812 105.445312 143.464844 105.542969 143.148438 C 106.082031 141.90625 106.519531 140.609375 107.011719 139.339844 C 108.183594 136.09375 109.332031 132.824219 110.457031 129.554688 C 110.675781 128.917969 110.898438 128.285156 111.09375 127.671875 C 111.289062 127.0625 110.554688 127.039062 110.410156 127.476562 Z M 110.410156 127.476562 " fill-opacity="1" fill-rule="nonzero"/><path fill="#000000" d="M 30.882812 171.292969 C 33.425781 171.171875 35.96875 170.855469 38.488281 170.339844 C 41.714844 169.730469 44.890625 168.949219 48.046875 168.070312 C 54.964844 166.117188 61.785156 163.703125 68.261719 160.601562 C 71.539062 159.015625 74.742188 157.257812 77.699219 155.132812 C 78.066406 154.867188 77.722656 154.230469 77.332031 154.5 C 71.90625 158.429688 65.648438 161.210938 59.414062 163.578125 C 52.960938 166.046875 46.308594 167.996094 39.539062 169.390625 C 36.703125 169.949219 33.792969 170.4375 30.882812 170.5625 C 30.417969 170.585938 30.417969 171.316406 30.882812 171.292969 Z M 30.882812 171.292969 " fill-opacity="1" fill-rule="nonzero"/><path fill="#000000" d="M 25.238281 148.175781 C 23.257812 155.964844 22.082031 163.921875 21.691406 171.925781 C 21.59375 174.199219 21.546875 176.46875 21.570312 178.738281 C 21.570312 178.859375 21.644531 178.980469 21.742188 179.054688 C 23.0625 179.714844 24.480469 180.25 25.847656 180.789062 C 29.515625 182.179688 33.28125 183.300781 37.09375 184.207031 C 42.644531 185.5 48.289062 186.328125 53.960938 186.648438 C 60.34375 186.988281 66.722656 186.816406 73.078125 186.207031 C 77.550781 185.816406 81.976562 185.132812 86.351562 184.15625 C 88.578125 183.667969 90.875 183.105469 92.953125 182.15625 C 93.296875 181.984375 93.785156 181.789062 93.832031 181.351562 C 93.882812 180.910156 93.761719 180.226562 93.734375 179.691406 C 93.589844 176.664062 93.417969 173.613281 93.269531 170.585938 C 93.074219 166.3125 92.90625 162.066406 92.808594 157.792969 C 92.683594 153.960938 92.613281 150.128906 92.710938 146.296875 C 92.734375 145.589844 92.757812 144.90625 92.808594 144.222656 C 92.855469 143.539062 92.097656 143.734375 92.074219 144.222656 C 91.855469 147.640625 91.925781 151.082031 92 154.523438 C 92.074219 158.769531 92.21875 163.019531 92.414062 167.265625 C 92.5625 170.757812 92.734375 174.269531 92.90625 177.761719 L 93.050781 180.691406 C 93.050781 180.886719 93.074219 181.105469 93.101562 181.300781 C 93.125 181.449219 93.125 181.226562 93.125 181.226562 C 93.125 181.226562 93.171875 181.226562 93.125 181.203125 C 93.074219 181.179688 93.171875 181.179688 93.125 181.226562 C 92.636719 181.519531 92.097656 181.765625 91.558594 181.9375 C 90.460938 182.324219 89.359375 182.644531 88.210938 182.960938 C 84.371094 183.9375 80.484375 184.644531 76.574219 185.109375 C 70.609375 185.816406 64.621094 186.132812 58.628906 186.085938 C 52.640625 186.011719 46.652344 185.402344 40.761719 184.253906 C 36.507812 183.425781 32.300781 182.277344 28.195312 180.863281 C 26.214844 180.179688 24.257812 179.421875 22.351562 178.542969 L 22.109375 178.421875 L 22.304688 178.738281 C 22.230469 170.757812 22.9375 162.773438 24.480469 154.9375 C 24.894531 152.742188 25.382812 150.546875 25.945312 148.371094 C 26.042969 147.933594 25.359375 147.738281 25.238281 148.175781 Z M 25.238281 148.175781 " fill-opacity="1" fill-rule="nonzero"/><path fill="#000000" d="M 74.546875 143.855469 C 74.546875 143.855469 90.167969 146.835938 92.269531 146.835938 L 92.585938 143.882812 C 92.585938 143.882812 74.179688 143.953125 74.546875 143.855469 Z M 74.546875 143.855469 " fill-opacity="1" fill-rule="nonzero"/><path fill="#000000" d="M 92.269531 147.199219 C 90.140625 147.199219 75.109375 144.320312 74.472656 144.199219 L 74.472656 144.148438 C 74.203125 144.101562 74.179688 144.003906 74.179688 143.90625 C 74.152344 143.734375 74.253906 143.539062 74.421875 143.492188 C 74.472656 143.492188 74.546875 143.464844 74.59375 143.492188 L 74.667969 143.492188 C 75.71875 143.5625 85.839844 143.539062 92.585938 143.515625 C 92.683594 143.515625 92.78125 143.5625 92.855469 143.636719 C 92.929688 143.710938 92.953125 143.808594 92.953125 143.90625 L 92.636719 146.882812 C 92.613281 147.078125 92.464844 147.226562 92.269531 147.199219 Z M 78.847656 144.296875 C 83.320312 145.125 89.996094 146.324219 91.953125 146.46875 L 92.171875 144.246094 Z M 74.644531 144.175781 Z M 74.644531 144.175781 " fill-opacity="1" fill-rule="nonzero"/><path fill="#000000" d="M 31.226562 102.289062 C 31.226562 102.289062 32.253906 117.007812 33.742188 118.375 C 34.671875 119.226562 35.871094 119.714844 37.140625 119.765625 L 31.300781 122.304688 C 31.300781 122.304688 31.863281 119.058594 31.933594 117.957031 C 32.203125 113.859375 31.226562 102.289062 31.226562 102.289062 Z M 31.226562 102.289062 " fill-opacity="1" fill-rule="nonzero"/><path fill="#000000" d="M 31.300781 122.667969 C 31.203125 122.667969 31.128906 122.644531 31.054688 122.597656 C 30.957031 122.523438 30.910156 122.375 30.933594 122.253906 C 30.933594 122.230469 31.496094 119.007812 31.566406 117.933594 C 31.765625 115.078125 31.324219 108.488281 31.054688 104.851562 C 30.957031 103.582031 30.882812 102.652344 30.859375 102.3125 C 30.859375 102.117188 31.007812 101.945312 31.203125 101.921875 C 31.398438 101.898438 31.566406 102.066406 31.59375 102.261719 C 31.617188 102.386719 31.691406 103.460938 31.8125 104.972656 C 32.277344 110.464844 33.132812 117.324219 33.988281 118.105469 C 34.867188 118.886719 35.96875 119.324219 37.140625 119.398438 C 37.3125 119.398438 37.460938 119.519531 37.507812 119.691406 C 37.535156 119.863281 37.460938 120.035156 37.289062 120.082031 L 31.445312 122.644531 Z M 32.351562 115.199219 C 32.351562 116.273438 32.351562 117.25 32.300781 117.984375 C 32.253906 118.714844 31.933594 120.691406 31.765625 121.71875 L 35.847656 119.9375 C 34.964844 119.691406 34.160156 119.253906 33.5 118.640625 C 33.058594 118.25 32.667969 116.933594 32.351562 115.199219 Z M 32.351562 115.199219 " fill-opacity="1" fill-rule="nonzero"/><path fill="#000000" d="M 68.898438 107.023438 C 69.507812 106.488281 70.316406 106.195312 71.121094 106.21875 C 71.320312 106.21875 71.488281 106.046875 71.488281 105.851562 C 71.488281 105.65625 71.320312 105.484375 71.121094 105.484375 C 70.097656 105.484375 69.117188 105.851562 68.359375 106.511719 C 68.214844 106.65625 68.214844 106.878906 68.359375 107.023438 C 68.507812 107.167969 68.75 107.167969 68.898438 107.023438 Z M 68.898438 107.023438 " fill-opacity="1" fill-rule="nonzero"/><path fill="#000000" d="M 80.363281 22.101562 C 81.046875 26.082031 80.878906 30.132812 81.171875 34.136719 C 81.464844 38.140625 81.660156 41.484375 80.046875 44.949219 C 79.3125 46.464844 78.40625 47.902344 77.382812 49.222656 C 76.550781 50.320312 75.71875 51.613281 74.644531 52.492188 C 72.101562 54.566406 68.703125 54.105469 65.816406 53.152344 C 62.933594 52.199219 60.21875 50.417969 57.824219 48.246094 C 57.457031 47.929688 56.917969 48.464844 57.285156 48.78125 C 59.484375 50.785156 61.785156 52.445312 64.570312 53.492188 C 67.359375 54.542969 70.488281 55.324219 73.421875 54.078125 C 74.839844 53.492188 75.769531 52.492188 76.722656 51.320312 C 77.820312 50.003906 78.824219 48.585938 79.753906 47.148438 C 81.757812 43.804688 82.367188 40.238281 82.125 36.382812 C 81.976562 33.941406 81.804688 31.5 81.707031 29.058594 C 81.660156 26.667969 81.464844 24.25 81.121094 21.882812 C 81.023438 21.421875 80.289062 21.617188 80.363281 22.101562 Z M 80.363281 22.101562 " fill-opacity="1" fill-rule="nonzero"/><path fill="#000000" d="M 52.519531 33.769531 C 51.882812 32.332031 50.441406 31.28125 48.828125 31.332031 C 47.214844 31.378906 46.457031 32.378906 46.089844 33.769531 C 45.722656 35.164062 45.941406 37.433594 46.53125 38.996094 C 47.117188 40.558594 47.875 41.898438 49.023438 42.875 C 50.269531 43.925781 51.808594 44.558594 53.449219 44.683594 C 53.9375 44.707031 53.9375 43.949219 53.449219 43.902344 C 50.195312 43.707031 47.652344 40.972656 47.019531 37.894531 C 46.796875 36.917969 46.675781 35.945312 46.699219 34.941406 C 46.75 34.113281 46.96875 33.0625 47.628906 32.5 C 48.289062 31.941406 49.144531 32.011719 49.828125 32.234375 C 50.757812 32.550781 51.492188 33.257812 51.859375 34.160156 C 52.054688 34.601562 52.714844 34.210938 52.519531 33.769531 Z M 52.519531 33.769531 " fill-opacity="1" fill-rule="nonzero"/><path fill="#000000" d="M 48.4375 35.164062 C 48.902344 35.066406 49.367188 35.429688 49.707031 35.699219 C 50.074219 35.992188 50.417969 36.335938 50.683594 36.699219 C 51.273438 37.457031 51.664062 38.335938 51.835938 39.261719 C 51.933594 39.726562 52.664062 39.53125 52.566406 39.042969 C 52.347656 37.945312 51.882812 36.917969 51.175781 36.066406 C 50.808594 35.652344 50.417969 35.261719 49.976562 34.917969 C 49.464844 34.550781 48.875 34.285156 48.242188 34.40625 C 48.046875 34.453125 47.921875 34.648438 47.949219 34.84375 C 47.949219 34.871094 47.949219 34.894531 47.972656 34.894531 C 48.046875 35.089844 48.242188 35.1875 48.4375 35.164062 Z M 48.4375 35.164062 " fill-opacity="1" fill-rule="nonzero"/><path fill="#000000" d="M 51.34375 36.652344 C 50.757812 36.210938 50.195312 36.992188 50.097656 37.503906 C 50 38.089844 50.050781 38.703125 50.222656 39.289062 C 50.539062 40.386719 51.222656 41.410156 52.25 41.921875 C 52.691406 42.144531 53.082031 41.484375 52.640625 41.265625 C 51.933594 40.875 51.371094 40.238281 51.101562 39.484375 C 50.953125 39.117188 50.855469 38.703125 50.832031 38.3125 C 50.785156 38.089844 50.808594 37.847656 50.855469 37.628906 C 50.855469 37.53125 50.90625 37.433594 50.953125 37.359375 C 50.980469 37.359375 50.980469 37.335938 51.003906 37.308594 C 51.027344 37.285156 51.050781 37.359375 50.980469 37.308594 C 51.148438 37.40625 51.371094 37.359375 51.492188 37.1875 C 51.492188 37.1875 51.492188 37.164062 51.492188 37.164062 C 51.589844 36.992188 51.542969 36.773438 51.34375 36.652344 C 51.371094 36.652344 51.34375 36.652344 51.34375 36.652344 Z M 51.34375 36.652344 " fill-opacity="1" fill-rule="nonzero"/><path fill="#000000" d="M 52.59375 34.332031 C 54.425781 33.796875 55.671875 31.574219 56.503906 30.011719 C 57.335938 28.449219 58.167969 26.886719 58.214844 25.253906 C 58.289062 23.054688 58.433594 20.664062 60.074219 19.003906 C 61.710938 17.34375 63.714844 17.320312 65.695312 17.464844 C 66.183594 17.515625 66.183594 16.757812 65.695312 16.710938 C 62.492188 16.441406 59.386719 17.464844 58.140625 20.640625 C 57.359375 22.640625 57.75 24.835938 57.089844 26.742188 C 56.550781 28.277344 55.84375 29.742188 54.964844 31.109375 C 54.351562 32.039062 53.519531 33.257812 52.398438 33.574219 C 52.175781 33.625 52.054688 33.84375 52.101562 34.0625 C 52.175781 34.257812 52.371094 34.382812 52.59375 34.332031 Z M 52.59375 34.332031 " fill-opacity="1" fill-rule="nonzero"/><path fill="#ffffff" d="M 73.152344 41.921875 L 72.078125 41.972656 C 71.417969 42.046875 70.78125 42.046875 70.121094 41.972656 C 68.800781 41.851562 67.457031 41.851562 66.136719 41.921875 C 65.621094 41.972656 64.765625 42.265625 65.035156 43.679688 C 65.304688 45.097656 67.210938 45.976562 69.144531 46.511719 C 71.074219 47.050781 73.519531 45.414062 73.957031 43.777344 C 74.398438 42.144531 73.835938 41.875 73.152344 41.921875 Z M 73.152344 41.921875 " fill-opacity="1" fill-rule="nonzero"/><path fill="#000000" d="M 73.152344 41.535156 C 72.394531 41.582031 71.613281 41.65625 70.855469 41.632812 C 69.679688 41.605469 68.507812 41.460938 67.332031 41.484375 C 66.625 41.507812 65.71875 41.4375 65.132812 41.921875 C 64.546875 42.410156 64.496094 43.242188 64.695312 43.925781 C 65.183594 45.683594 67.480469 46.488281 69.042969 46.878906 C 70.609375 47.269531 72.6875 46.390625 73.738281 45.023438 C 74.789062 43.65625 75.15625 41.410156 73.152344 41.535156 C 72.664062 41.558594 72.664062 42.339844 73.152344 42.3125 C 73.640625 42.289062 73.738281 42.386719 73.738281 42.851562 C 73.714844 43.558594 73.445312 44.242188 72.957031 44.78125 C 71.953125 45.902344 70.4375 46.488281 68.972656 46.074219 C 67.503906 45.660156 65.769531 45.074219 65.425781 43.679688 C 65.28125 43.167969 65.328125 42.558594 65.890625 42.363281 C 66.160156 42.3125 66.40625 42.265625 66.671875 42.265625 L 68.140625 42.265625 C 69.117188 42.289062 70.097656 42.410156 71.097656 42.410156 C 72.101562 42.410156 72.46875 42.363281 73.152344 42.3125 C 73.835938 42.265625 73.640625 41.507812 73.152344 41.535156 Z M 73.152344 41.535156 " fill-opacity="1" fill-rule="nonzero"/><path fill="#000000" d="M 65.964844 31.625 C 65.890625 31.183594 65.621094 30.671875 65.132812 30.574219 C 64.621094 30.425781 64.082031 30.71875 63.9375 31.234375 C 63.910156 31.402344 63.910156 31.574219 63.910156 31.746094 C 63.910156 32.011719 63.910156 32.304688 63.960938 32.574219 C 64.007812 32.890625 64.179688 33.160156 64.425781 33.355469 C 64.59375 33.601562 64.914062 33.699219 65.207031 33.625 C 65.476562 33.527344 65.671875 33.332031 65.792969 33.085938 C 65.988281 32.625 66.0625 32.109375 65.964844 31.625 Z M 65.964844 31.625 " fill-opacity="1" fill-rule="nonzero"/><path fill="#000000" d="M 77.503906 31.136719 C 77.429688 30.695312 77.160156 30.183594 76.671875 30.085938 C 76.183594 29.988281 75.597656 30.230469 75.5 30.746094 C 75.449219 30.914062 75.449219 31.085938 75.449219 31.257812 C 75.449219 31.527344 75.472656 31.816406 75.523438 32.085938 C 75.570312 32.402344 75.71875 32.671875 75.964844 32.867188 C 76.132812 33.113281 76.453125 33.210938 76.746094 33.136719 C 77.015625 33.039062 77.210938 32.84375 77.332031 32.597656 C 77.527344 32.136719 77.601562 31.625 77.503906 31.136719 Z M 77.503906 31.136719 " fill-opacity="1" fill-rule="nonzero"/><path fill="#000000" d="M 67.726562 25.324219 C 66.039062 24.226562 63.8125 24.324219 62.25 25.59375 C 62.101562 25.742188 62.078125 25.984375 62.25 26.15625 C 62.394531 26.277344 62.640625 26.277344 62.785156 26.15625 C 64.105469 25.128906 65.941406 25.058594 67.332031 25.984375 C 67.75 26.277344 68.140625 25.617188 67.726562 25.324219 Z M 67.726562 25.324219 " fill-opacity="1" fill-rule="nonzero"/><path fill="#000000" d="M 73.714844 32.695312 C 73.886719 33.84375 74.839844 34.503906 75.449219 35.382812 C 75.769531 35.871094 75.964844 36.359375 75.769531 36.917969 C 75.570312 37.480469 75.253906 38.117188 74.984375 38.726562 C 74.714844 39.335938 75.449219 39.554688 75.644531 39.117188 C 75.839844 38.675781 76.230469 37.871094 76.476562 37.210938 C 76.695312 36.628906 76.648438 35.992188 76.378906 35.457031 C 75.867188 34.382812 74.617188 33.722656 74.449219 32.5 C 74.375 32.011719 73.640625 32.207031 73.714844 32.695312 Z M 73.714844 32.695312 " fill-opacity="1" fill-rule="nonzero"/><path fill="#000000" d="M 78.703125 25.351562 C 77.601562 24.8125 76.28125 25.007812 75.375 25.8125 C 75.230469 25.984375 75.230469 26.203125 75.375 26.375 C 75.523438 26.496094 75.769531 26.496094 75.914062 26.375 C 76.085938 26.230469 76.257812 26.105469 76.476562 26.007812 L 76.746094 25.910156 L 77.085938 25.839844 C 77.0625 25.839844 77.113281 25.8125 77.113281 25.8125 L 77.84375 25.8125 L 78.015625 25.863281 L 78.210938 25.9375 L 78.308594 25.984375 C 78.503906 26.082031 78.726562 26.007812 78.847656 25.839844 C 78.945312 25.667969 78.898438 25.449219 78.703125 25.351562 C 78.726562 25.324219 78.703125 25.324219 78.703125 25.351562 Z M 78.703125 25.351562 " fill-opacity="1" fill-rule="nonzero"/><path fill="#000000" d="M 50.953125 44.363281 C 51.417969 46.21875 51.394531 48.246094 51.320312 50.148438 C 51.246094 52.054688 51.246094 54.226562 50.320312 55.863281 C 48.851562 58.449219 45.308594 59.570312 42.789062 60.671875 C 42.324219 60.867188 42.714844 61.523438 43.179688 61.328125 C 45.601562 60.28125 48.3125 59.328125 50.125 57.300781 C 50.832031 56.546875 51.320312 55.617188 51.566406 54.617188 C 51.980469 52.90625 52.078125 51.152344 52.128906 49.417969 C 52.175781 47.683594 52.128906 45.855469 51.6875 44.167969 C 51.589844 43.972656 51.34375 43.902344 51.148438 44.023438 C 51.027344 44.097656 50.953125 44.21875 50.953125 44.363281 Z M 50.953125 44.363281 " fill-opacity="1" fill-rule="nonzero"/><path fill="#000000" d="M 67.945312 57.421875 C 67.945312 57.421875 70.683594 58.15625 70.511719 57.519531 C 70.21875 56.472656 70.023438 55.398438 69.925781 54.300781 L 68.019531 54.175781 C 68.019531 54.175781 63.347656 53.003906 61.222656 51.785156 C 61.222656 51.785156 64.398438 56.691406 67.945312 57.421875 Z M 67.945312 57.421875 " fill-opacity="1" fill-rule="nonzero"/><path fill="#000000" d="M 46.652344 38.3125 C 45.941406 36.335938 44.964844 34.453125 43.742188 32.722656 C 42.59375 31.109375 41.738281 29.304688 41.152344 27.425781 C 39.609375 22.46875 41.003906 16.878906 43.546875 12.484375 C 45.28125 9.433594 48.046875 6.628906 50.953125 4.625 C 54.816406 1.988281 59.558594 1.0625 64.15625 1.183594 C 66.820312 1.234375 69.4375 1.648438 71.976562 2.429688 C 73.199219 2.820312 75.328125 3.40625 76.0625 4.601562 C 76.132812 4.722656 76.257812 4.773438 76.378906 4.773438 C 79.53125 4.480469 82.660156 6.507812 84.496094 8.847656 C 86.328125 11.191406 87.894531 14.804688 87.476562 18.003906 C 87.183594 20.347656 85.886719 22.371094 84.203125 23.933594 C 83.273438 24.8125 82.195312 25.546875 81.046875 26.105469 C 80.609375 26.300781 81 26.960938 81.4375 26.765625 C 84.570312 25.324219 87.378906 22.296875 88.113281 18.90625 C 88.847656 15.511719 87.648438 12.316406 85.9375 9.582031 C 84.570312 7.382812 82.613281 5.578125 80.167969 4.652344 C 78.996094 4.210938 77.625 3.894531 76.378906 4.015625 L 76.722656 4.210938 C 76.109375 3.210938 74.765625 2.671875 73.738281 2.257812 C 71.660156 1.453125 69.484375 0.917969 67.285156 0.648438 C 62.320312 0.0117188 56.917969 0.476562 52.421875 2.84375 C 49.339844 4.457031 46.457031 7.117188 44.355469 9.898438 C 42.8125 11.949219 41.617188 14.242188 40.859375 16.683594 C 40.074219 19.101562 39.488281 21.785156 39.734375 24.347656 C 40.003906 27.132812 40.929688 29.816406 42.421875 32.183594 C 43.765625 34.234375 45.0625 36.164062 45.917969 38.53125 C 46.066406 38.996094 46.824219 38.773438 46.652344 38.3125 Z M 46.652344 38.3125 " fill-opacity="1" fill-rule="nonzero"/><path fill="#000000" d="M 42.082031 61.355469 C 44.621094 65.480469 47.851562 69.261719 51.835938 72.070312 C 54.71875 74.167969 57.726562 76.046875 60.878906 77.707031 C 62.273438 78.441406 63.738281 79.148438 65.304688 79.539062 C 66.0625 79.710938 67.136719 79.929688 67.824219 79.390625 C 69.289062 78.269531 70.488281 76.707031 71.5625 75.242188 C 73.957031 71.851562 75.71875 68.015625 76.695312 63.988281 C 76.867188 63.332031 77.015625 62.671875 77.136719 62.011719 C 77.234375 61.550781 76.527344 61.355469 76.429688 61.816406 C 75.644531 66.066406 74.03125 70.117188 71.683594 73.753906 C 70.535156 75.585938 69.144531 77.242188 67.527344 78.707031 C 67.429688 78.757812 67.359375 78.832031 67.285156 78.902344 C 67.382812 78.855469 67.164062 78.929688 67.136719 78.929688 L 66.894531 78.976562 C 66.648438 79 66.40625 78.976562 66.160156 78.953125 C 64.765625 78.78125 63.398438 78.121094 62.152344 77.535156 C 58.972656 76 55.964844 74.070312 53.082031 72.070312 C 51.296875 70.847656 49.609375 69.480469 48.09375 67.945312 C 46.066406 65.820312 44.257812 63.476562 42.691406 60.988281 C 42.644531 60.792969 42.421875 60.695312 42.226562 60.742188 C 42.03125 60.792969 41.933594 61.011719 41.984375 61.207031 C 42.007812 61.257812 42.03125 61.304688 42.082031 61.355469 Z M 42.082031 61.355469 " fill-opacity="1" fill-rule="nonzero"/><path fill="#000000" d="M 56.40625 81.027344 C 61.222656 82.296875 66.210938 81.664062 71.050781 81.027344 C 71.515625 80.980469 71.515625 80.246094 71.050781 80.296875 C 66.257812 80.929688 61.34375 81.566406 56.601562 80.320312 C 56.160156 80.199219 55.964844 80.90625 56.40625 81.027344 Z M 56.40625 81.027344 " fill-opacity="1" fill-rule="nonzero"/><path fill="#000000" d="M 62.46875 96.917969 C 58.726562 93.941406 55.597656 90.644531 52.128906 87.375 C 51.296875 86.617188 50.464844 85.789062 49.585938 85.078125 C 49.167969 84.714844 48.65625 84.542969 48.117188 84.542969 C 46.554688 84.714844 46.53125 87.007812 47.261719 87.984375 C 47.726562 88.519531 48.214844 89.035156 48.753906 89.496094 C 49.367188 90.109375 50 90.695312 50.636719 91.28125 L 56.332031 96.527344 L 60.097656 99.945312 C 60.636719 100.433594 61.269531 99.75 60.757812 99.285156 L 52.8125 92.15625 C 51.542969 90.988281 50.246094 89.839844 49.023438 88.59375 C 48.511719 88.082031 47.75 87.347656 47.703125 86.59375 C 47.679688 86.324219 47.777344 85.542969 48.339844 85.445312 C 48.65625 85.398438 48.777344 85.566406 48.902344 85.664062 C 49.683594 86.203125 50.367188 86.957031 51.050781 87.59375 C 54.671875 90.960938 57.921875 94.402344 61.785156 97.480469 C 62.347656 97.917969 63.03125 97.355469 62.46875 96.917969 Z M 62.46875 96.917969 " fill-opacity="1" fill-rule="nonzero"/><path fill="#000000" d="M 47.679688 87.25 C 46.382812 86.984375 44.867188 88.203125 45.550781 89.546875 C 46.234375 90.890625 47.214844 91.769531 48.144531 92.695312 C 49.070312 93.621094 50.464844 94.890625 51.6875 95.917969 C 52.175781 96.308594 52.664062 96.722656 53.179688 97.089844 C 53.472656 97.332031 53.789062 97.527344 54.132812 97.675781 C 54.671875 97.820312 55.257812 97.746094 55.746094 97.503906 C 56.527344 97.113281 56.601562 96.257812 56.40625 95.503906 C 56.210938 94.746094 55.550781 95.234375 55.671875 95.699219 C 55.792969 96.160156 55.769531 96.769531 55.160156 96.917969 C 54.964844 96.964844 54.742188 96.964844 54.546875 96.964844 L 54.304688 96.917969 C 53.570312 96.625 52.859375 95.917969 52.273438 95.40625 C 50.488281 93.914062 48.609375 92.328125 47.140625 90.5 L 46.480469 89.570312 C 46.335938 89.425781 46.210938 89.230469 46.164062 89.007812 C 46.039062 88.324219 46.871094 87.863281 47.484375 87.984375 C 48.09375 88.105469 48.167969 87.347656 47.679688 87.25 Z M 47.679688 87.25 " fill-opacity="1" fill-rule="nonzero"/><path fill="#ffffff" d="M 91.4375 86.300781 C 91.585938 85.933594 92.269531 83.445312 93.050781 81.734375 C 93.050781 81.734375 93.148438 80.855469 95.03125 81.003906 C 96.914062 81.148438 108.941406 81.078125 108.941406 81.078125 C 108.941406 81.078125 110.554688 81.078125 110.3125 82.027344 C 110.066406 82.980469 109.136719 86.152344 109.136719 86.152344 C 109.136719 86.152344 109.160156 87.179688 107.742188 87.472656 C 106.324219 87.765625 92.710938 87.519531 92.710938 87.519531 C 92.710938 87.519531 90.972656 87.472656 91.4375 86.300781 Z M 91.4375 86.300781 " fill-opacity="1" fill-rule="nonzero"/><path fill="#000000" d="M 91.804688 86.398438 C 92.148438 85.46875 92.390625 84.542969 92.710938 83.613281 C 93.027344 82.6875 93.101562 81.855469 93.734375 81.515625 C 94.371094 81.175781 95.203125 81.417969 95.839844 81.441406 L 97.964844 81.441406 C 101.363281 81.492188 104.738281 81.46875 108.136719 81.441406 C 108.402344 81.441406 108.671875 81.417969 108.941406 81.441406 C 109.136719 81.441406 109.355469 81.46875 109.554688 81.515625 C 110.089844 81.761719 109.894531 82.125 109.773438 82.589844 L 108.964844 85.371094 C 108.867188 85.714844 108.796875 86.25 108.597656 86.542969 C 108.011719 87.421875 105.933594 87.152344 105.03125 87.179688 L 99.699219 87.179688 L 94.152344 87.128906 C 93.613281 87.105469 91.511719 87.324219 91.804688 86.375 C 91.976562 85.886719 91.21875 85.691406 91.070312 86.152344 C 90.65625 87.472656 91.953125 87.863281 92.976562 87.886719 L 97.453125 87.933594 L 103.808594 87.933594 C 105.105469 87.910156 106.546875 88.03125 107.839844 87.789062 C 109.601562 87.445312 109.652344 85.714844 110.066406 84.296875 C 110.285156 83.566406 110.898438 82.34375 110.703125 81.566406 C 110.507812 80.785156 109.625 80.6875 109.015625 80.636719 C 105.8125 80.492188 102.585938 80.6875 99.382812 80.660156 L 96.253906 80.660156 C 95.445312 80.636719 94.519531 80.464844 93.734375 80.6875 C 92.953125 80.90625 92.757812 81.417969 92.464844 82.101562 C 91.925781 83.417969 91.558594 84.8125 91.070312 86.152344 C 90.898438 86.640625 91.632812 86.863281 91.804688 86.398438 Z M 91.804688 86.398438 " fill-opacity="1" fill-rule="nonzero"/><path fill="#000000" d="M 114.859375 110.464844 C 113.464844 108.828125 111.777344 107.488281 109.871094 106.488281 C 108.894531 106 107.890625 105.609375 106.839844 105.316406 C 106.226562 105.144531 105.566406 104.925781 104.933594 105.023438 C 103.417969 105.316406 103.171875 107.144531 104.003906 108.242188 C 104.835938 109.34375 105.421875 109.34375 106.226562 109.707031 C 107.132812 110.125 107.964844 110.613281 108.746094 111.222656 C 109.527344 111.882812 110.285156 112.589844 111.019531 113.296875 C 111.507812 113.734375 111.949219 114.222656 112.363281 114.738281 C 112.65625 115.128906 113.316406 114.738281 113.023438 114.347656 C 112.316406 113.371094 111.335938 112.515625 110.457031 111.710938 C 109.847656 111.148438 109.234375 110.636719 108.574219 110.148438 C 107.839844 109.636719 107.082031 109.21875 106.253906 108.878906 C 105.542969 108.535156 104.664062 108.171875 104.371094 107.363281 C 104.078125 106.558594 104.246094 106.070312 104.882812 105.828125 C 105.519531 105.582031 105.835938 105.851562 106.300781 105.972656 C 107.28125 106.195312 108.207031 106.535156 109.113281 106.972656 C 111.117188 107.925781 112.902344 109.316406 114.320312 111.027344 C 114.636719 111.394531 115.199219 110.855469 114.859375 110.464844 Z M 114.859375 110.464844 " fill-opacity="1" fill-rule="nonzero"/><path fill="#000000" d="M 113.023438 114.710938 C 111.898438 113.027344 110.1875 111.734375 108.476562 110.734375 C 107.058594 109.855469 105.496094 109.246094 103.855469 108.953125 C 103.390625 108.855469 102.902344 108.953125 102.535156 109.269531 C 101.972656 109.757812 101.972656 110.636719 102.097656 111.320312 C 102.464844 113.148438 104.640625 113.46875 106.03125 114.222656 C 107.425781 114.980469 108.402344 115.859375 109.480469 116.789062 C 110.015625 117.226562 110.53125 117.664062 111.019531 118.152344 C 111.363281 118.496094 111.925781 117.957031 111.558594 117.617188 C 110.53125 116.640625 109.453125 115.714844 108.332031 114.859375 C 107.476562 114.175781 106.546875 113.613281 105.566406 113.148438 C 104.882812 112.855469 104.078125 112.636719 103.464844 112.171875 C 102.855469 111.710938 102.316406 109.511719 103.710938 109.683594 C 105.105469 109.855469 106.421875 110.464844 107.597656 111.125 C 109.40625 112.101562 111.214844 113.394531 112.363281 115.078125 C 112.65625 115.492188 113.316406 115.101562 113.023438 114.710938 Z M 113.023438 114.710938 " fill-opacity="1" fill-rule="nonzero"/><path fill="#000000" d="M 103.980469 112.492188 C 103.148438 112.492188 102.414062 112.882812 102.242188 113.734375 C 102.070312 114.566406 102.269531 115.421875 102.804688 116.078125 C 103.195312 116.46875 103.585938 116.8125 104.027344 117.128906 C 104.492188 117.519531 105.003906 117.886719 105.519531 118.226562 C 106.375 118.738281 107.230469 119.324219 108.011719 119.960938 C 108.722656 120.496094 109.382812 121.109375 109.992188 121.765625 C 110.3125 122.15625 110.847656 121.621094 110.554688 121.230469 C 109.945312 120.59375 109.308594 119.984375 108.597656 119.449219 C 107.71875 118.738281 106.839844 118.152344 105.910156 117.542969 C 105.347656 117.175781 104.785156 116.789062 104.273438 116.347656 C 103.808594 115.980469 103.222656 115.589844 103.050781 114.980469 C 102.929688 114.613281 102.929688 114.222656 103 113.859375 C 103.125 113.371094 103.515625 113.273438 103.980469 113.273438 C 104.445312 113.273438 104.46875 112.515625 103.980469 112.492188 Z M 103.980469 112.492188 " fill-opacity="1" fill-rule="nonzero"/><path fill="#000000" d="M 110.898438 126.746094 C 109.503906 125.597656 108.085938 124.5 106.667969 123.378906 C 105.8125 122.71875 105.03125 121.960938 104.347656 121.109375 C 103.953125 120.644531 103.660156 120.132812 103.808594 119.519531 C 103.953125 118.910156 104.050781 118.910156 104.347656 118.886719 C 104.664062 118.863281 104.957031 118.933594 105.226562 119.082031 C 106.203125 119.644531 107.132812 120.253906 108.039062 120.9375 C 108.453125 121.253906 108.84375 121.667969 109.285156 121.960938 L 109.75 122.15625 C 109.992188 122.230469 110.238281 122.179688 110.410156 121.984375 C 110.628906 121.742188 110.507812 121.402344 110.359375 121.132812 C 110.214844 120.863281 109.480469 121.082031 109.699219 121.523438 L 109.75 121.621094 C 109.796875 121.792969 109.871094 121.742188 110.015625 121.425781 C 110.164062 121.109375 109.96875 121.402344 109.96875 121.425781 L 109.773438 121.351562 C 109.503906 121.15625 109.257812 120.9375 109.015625 120.71875 C 108.355469 120.203125 107.644531 119.691406 106.9375 119.226562 C 106.226562 118.765625 105.25 118.03125 104.246094 118.128906 C 103.246094 118.226562 103.125 118.835938 103.027344 119.472656 C 102.929688 120.105469 103.148438 120.765625 103.5625 121.375 C 104.175781 122.207031 104.90625 122.960938 105.714844 123.621094 C 107.28125 124.84375 108.84375 126.039062 110.359375 127.28125 C 110.75 127.601562 111.289062 127.0625 110.898438 126.746094 Z M 110.898438 126.746094 " fill-opacity="1" fill-rule="nonzero"/><path fill="#000000" d="M 114.761719 111.222656 C 116.617188 114.808594 117.695312 118.640625 116.472656 122.621094 C 115.589844 125.476562 113.976562 128.503906 110.578125 128.480469 C 110.359375 128.480469 110.1875 128.648438 110.1875 128.871094 C 110.1875 129.089844 110.359375 129.261719 110.578125 129.261719 C 114.125 129.285156 115.933594 126.453125 117.007812 123.449219 C 118.574219 119.082031 117.472656 114.808594 115.421875 110.832031 C 115.199219 110.390625 114.539062 110.78125 114.761719 111.222656 Z M 114.761719 111.222656 " fill-opacity="1" fill-rule="nonzero"/><path fill="#000000" d="M 4.824219 124.964844 C 5.507812 124.988281 6.21875 124.914062 6.878906 124.746094 L 9.101562 124.257812 C 10.542969 123.914062 11.960938 123.546875 13.378906 123.132812 C 16.242188 122.277344 19.050781 121.304688 21.789062 120.15625 C 23.328125 119.496094 24.84375 118.8125 26.359375 118.082031 C 26.777344 117.886719 26.410156 117.25 25.996094 117.445312 C 20.789062 120.007812 15.3125 121.984375 9.664062 123.378906 C 8.882812 123.546875 8.125 123.742188 7.339844 123.890625 C 6.558594 124.035156 5.679688 124.304688 4.824219 124.230469 C 4.359375 124.183594 4.359375 124.914062 4.824219 124.964844 Z M 4.824219 124.964844 " fill-opacity="1" fill-rule="nonzero"/><path fill="#000000" d="M 66.136719 17.367188 C 66.941406 16.367188 68.066406 15.660156 69.3125 15.414062 C 69.753906 15.316406 70.242188 15.316406 70.683594 15.441406 C 71.148438 15.5625 71.292969 15.855469 71.5625 16.246094 C 72.664062 17.832031 73.738281 19.539062 75.15625 20.882812 C 77.234375 22.882812 81.707031 22.882812 83.710938 20.761719 C 84.054688 20.394531 83.515625 19.859375 83.175781 20.222656 C 81.878906 21.566406 79.679688 21.714844 77.917969 21.394531 C 76.160156 21.078125 74.960938 19.664062 73.859375 18.148438 C 73.273438 17.367188 72.710938 16.5625 72.175781 15.757812 C 71.636719 14.953125 71.441406 14.78125 70.609375 14.660156 C 68.679688 14.367188 66.796875 15.367188 65.574219 16.832031 C 65.28125 17.195312 65.816406 17.757812 66.136719 17.367188 Z M 66.136719 17.367188 " fill-opacity="1" fill-rule="nonzero"/><path fill="#000000" d="M 68.1875 18.148438 C 69.484375 17.171875 71.195312 16.929688 72.710938 17.515625 C 72.90625 17.5625 73.128906 17.441406 73.175781 17.246094 C 73.226562 17.027344 73.101562 16.832031 72.90625 16.757812 C 71.195312 16.148438 69.289062 16.417969 67.796875 17.464844 C 67.628906 17.585938 67.554688 17.832031 67.675781 18.003906 C 67.773438 18.171875 67.992188 18.246094 68.1875 18.148438 C 68.164062 18.148438 68.1875 18.148438 68.1875 18.148438 Z M 68.1875 18.148438 " fill-opacity="1" fill-rule="nonzero"/><path fill="#000000" d="M 106.621094 124.132812 C 106.621094 124.132812 109.722656 128.234375 109.820312 129.625 L 110.773438 127.476562 Z M 106.621094 124.132812 " fill-opacity="1" fill-rule="nonzero"/><path fill="#000000" d="M 25.699219 148.859375 C 25.699219 148.664062 47.898438 133.554688 53.886719 130.089844 C 59.878906 126.625 61.34375 124.890625 62.125 124.769531 C 62.910156 124.648438 65.792969 124.257812 65.792969 124.257812 L 67.675781 117.984375 C 67.675781 117.984375 62.125 120.398438 60.78125 121.109375 C 59.4375 121.816406 56.453125 124.425781 55.695312 125.597656 C 54.9375 126.769531 25.699219 148.859375 25.699219 148.859375 Z M 25.699219 148.859375 " fill-opacity="1" fill-rule="nonzero"/><path fill="#000000" d="M 50.148438 70.3125 C 50.148438 70.3125 61.246094 78.316406 68.140625 78.195312 C 68.140625 78.195312 67.285156 81.417969 59.949219 77.046875 C 52.617188 72.679688 50.148438 70.3125 50.148438 70.3125 Z M 50.148438 70.3125 " fill-opacity="1" fill-rule="nonzero"/><path fill="#000000" d="M 108.648438 87.082031 C 108.796875 87.300781 112.804688 84.421875 112.804688 84.421875 L 109.480469 84.273438 Z M 108.648438 87.082031 " fill-opacity="1" fill-rule="nonzero"/></svg>