<svg xmlns="http://www.w3.org/2000/svg" xmlns:xlink="http://www.w3.org/1999/xlink" width="400" zoomAndPan="magnify" viewBox="0 0 300 187.499995" height="250" preserveAspectRatio="xMidYMid meet" version="1.0"><defs><clipPath id="376e59ab96"><path d="M 72 15 L 297 15 L 297 166.058594 L 72 166.058594 Z M 72 15 " clip-rule="nonzero"/></clipPath></defs><g clip-path="url(#376e59ab96)"><path fill="#eff3f6" d="M 160.6875 165.742188 C 214.925781 160.636719 259.589844 123.628906 296.757812 74.175781 C 263.898438 44.347656 231.992188 24.726562 200.886719 15.472656 C 210.300781 22.015625 218.59375 30.308594 224.816406 40.039062 C 242.042969 48.652344 259.589844 60.617188 277.617188 75.933594 C 262.144531 95.234375 246.351562 110.707031 230.398438 122.671875 C 226.410156 125.542969 222.582031 128.253906 218.59375 130.808594 C 194.664062 145.960938 169.941406 152.980469 144.417969 152.183594 C 114.90625 148.515625 90.976562 124.746094 88.105469 93.957031 C 85.074219 61.734375 106.292969 32.859375 136.601562 25.203125 C 118.253906 28.554688 100.230469 36.371094 82.523438 48.175781 C 75.183594 61.734375 71.515625 77.367188 73.109375 93.957031 C 74.867188 112.304688 82.683594 128.574219 94.488281 141.175781 C 109.960938 157.445312 131.972656 167.179688 155.902344 166.0625 C 157.496094 165.902344 159.09375 165.902344 160.6875 165.742188 Z M 160.6875 165.742188 " fill-opacity="1" fill-rule="evenodd"/></g><path fill="#eff3f6" d="M 139.3125 0.480469 C 85.074219 5.582031 40.410156 42.59375 3.242188 92.042969 C 35.941406 121.875 68.007812 141.496094 99.113281 150.746094 C 89.699219 144.207031 81.40625 135.910156 75.183594 126.179688 C 57.957031 117.566406 40.410156 105.601562 22.382812 90.289062 C 37.855469 70.988281 53.648438 55.511719 69.601562 43.550781 C 73.589844 40.679688 77.417969 37.964844 81.40625 35.414062 C 105.335938 20.417969 130.058594 13.238281 155.582031 14.039062 C 185.09375 17.707031 209.023438 41.476562 211.894531 72.261719 C 214.925781 104.484375 193.707031 133.359375 163.398438 141.015625 C 181.746094 137.667969 199.769531 129.851562 217.476562 118.046875 C 224.816406 104.484375 228.484375 88.851562 226.890625 72.261719 C 225.132812 53.917969 217.316406 37.648438 205.511719 25.042969 C 190.039062 8.773438 168.027344 -0.957031 144.097656 0.160156 C 142.503906 0.320312 140.90625 0.320312 139.3125 0.480469 Z M 139.3125 0.480469 " fill-opacity="1" fill-rule="evenodd"/><path fill="#00bf63" d="M 100.867188 88.535156 C 98.316406 61.257812 118.414062 37.007812 145.691406 34.457031 C 172.972656 31.902344 197.21875 51.84375 199.769531 79.28125 C 202.324219 106.558594 182.222656 130.808594 154.945312 133.359375 C 127.667969 135.910156 103.417969 115.8125 100.867188 88.535156 Z M 151.914062 47.21875 C 149.203125 47.539062 147.289062 49.929688 147.449219 52.480469 C 147.765625 55.195312 150.160156 57.109375 152.710938 56.949219 C 164.515625 55.832031 175.042969 64.605469 176.160156 76.410156 C 176.480469 79.121094 178.875 81.035156 181.425781 80.878906 C 184.136719 80.558594 186.050781 78.164062 185.890625 75.613281 C 184.296875 58.382812 168.984375 45.78125 151.753906 47.378906 Z M 151.914062 47.21875 " fill-opacity="1" fill-rule="evenodd"/></svg>