<svg xmlns="http://www.w3.org/2000/svg" xmlns:xlink="http://www.w3.org/1999/xlink" width="400" zoomAndPan="magnify" viewBox="0 0 300 187.499995" height="250" preserveAspectRatio="xMidYMid meet" version="1.0"><defs><g/><clipPath id="0dce8929f2"><path d="M 27 60 L 112 60 L 112 116.96875 L 27 116.96875 Z M 27 60 " clip-rule="nonzero"/></clipPath><clipPath id="cb7db68e6f"><path d="M 1 54.886719 L 86 54.886719 L 86 112 L 1 112 Z M 1 54.886719 " clip-rule="nonzero"/></clipPath></defs><g clip-path="url(#0dce8929f2)"><path fill="#34cb78" d="M 60.414062 116.945312 C 80.722656 115.03125 97.445312 101.175781 111.359375 82.660156 C 99.058594 71.492188 87.113281 64.144531 75.464844 60.679688 C 78.988281 63.128906 82.09375 66.234375 84.425781 69.878906 C 90.875 73.101562 97.445312 77.582031 104.195312 83.316406 C 98.398438 90.542969 92.488281 96.335938 86.515625 100.816406 C 85.019531 101.890625 83.585938 102.90625 82.09375 103.863281 C 73.136719 109.539062 63.878906 112.164062 54.320312 111.867188 C 43.273438 110.492188 34.3125 101.59375 33.238281 90.066406 C 32.101562 78 40.046875 67.191406 51.394531 64.324219 C 44.527344 65.578125 37.777344 68.503906 31.148438 72.925781 C 28.398438 78 27.027344 83.855469 27.621094 90.066406 C 28.28125 96.933594 31.207031 103.027344 35.625 107.746094 C 41.421875 113.835938 49.664062 117.480469 58.621094 117.0625 C 59.21875 117.003906 59.816406 117.003906 60.414062 116.945312 Z M 60.414062 116.945312 " fill-opacity="1" fill-rule="evenodd"/></g><g clip-path="url(#cb7db68e6f)"><path fill="#34cb78" d="M 52.410156 55.066406 C 32.101562 56.976562 15.378906 70.832031 1.460938 89.347656 C 13.707031 100.519531 25.710938 107.863281 37.359375 111.328125 C 33.835938 108.878906 30.730469 105.773438 28.398438 102.132812 C 21.949219 98.90625 15.378906 94.425781 8.628906 88.691406 C 14.421875 81.464844 20.335938 75.671875 26.308594 71.191406 C 27.800781 70.117188 29.234375 69.101562 30.730469 68.144531 C 39.6875 62.53125 48.945312 59.84375 58.503906 60.140625 C 69.550781 61.515625 78.511719 70.414062 79.585938 81.941406 C 80.722656 94.007812 72.777344 104.820312 61.429688 107.6875 C 68.296875 106.429688 75.046875 103.503906 81.675781 99.085938 C 84.425781 94.007812 85.796875 88.15625 85.199219 81.941406 C 84.542969 75.074219 81.617188 68.980469 77.195312 64.261719 C 71.402344 58.171875 63.160156 54.527344 54.203125 54.945312 C 53.605469 55.003906 53.007812 55.003906 52.410156 55.066406 Z M 52.410156 55.066406 " fill-opacity="1" fill-rule="evenodd"/></g><path fill="#1ecc52" d="M 38.015625 88.035156 C 37.058594 77.820312 44.585938 68.742188 54.800781 67.789062 C 65.011719 66.832031 74.089844 74.296875 75.046875 84.570312 C 76.003906 94.785156 68.476562 103.863281 58.261719 104.820312 C 48.050781 105.773438 38.972656 98.25 38.015625 88.035156 Z M 57.128906 72.566406 C 56.113281 72.683594 55.394531 73.582031 55.457031 74.535156 C 55.574219 75.550781 56.472656 76.269531 57.425781 76.210938 C 61.847656 75.789062 65.789062 79.074219 66.207031 83.496094 C 66.328125 84.511719 67.222656 85.226562 68.179688 85.167969 C 69.195312 85.046875 69.910156 84.152344 69.851562 83.195312 C 69.253906 76.746094 63.519531 72.027344 57.070312 72.625 Z M 57.128906 72.566406 " fill-opacity="1" fill-rule="evenodd"/><g fill="#34cb78" fill-opacity="1"><g transform="translate(117.12674, 99.097885)"><g><path d="M 21.671875 -4.625 L 21.671875 0 L 2.828125 0 L 2.828125 -27.140625 L 21.328125 -27.140625 L 21.328125 -22.515625 L 8.109375 -22.515625 L 8.109375 -15.96875 L 19.53125 -15.96875 L 19.53125 -11.6875 L 8.109375 -11.6875 L 8.109375 -4.625 Z M 21.671875 -4.625 "/></g></g></g><g fill="#34cb78" fill-opacity="1"><g transform="translate(143.91869, 99.097885)"><g><path d="M 2.75 3.890625 C 3.207031 3.992188 3.632812 4.082031 4.03125 4.15625 C 4.425781 4.238281 4.765625 4.28125 5.046875 4.28125 C 5.523438 4.28125 5.921875 4.15625 6.234375 3.90625 C 6.554688 3.664062 6.867188 3.234375 7.171875 2.609375 C 7.484375 1.992188 7.804688 1.125 8.140625 0 L 0.234375 -20.03125 L 5.546875 -20.03125 L 10.9375 -5.234375 L 15.671875 -20.03125 L 20.5625 -20.03125 L 12.15625 3.96875 C 11.84375 4.863281 11.375 5.671875 10.75 6.390625 C 10.132812 7.117188 9.359375 7.691406 8.421875 8.109375 C 7.492188 8.535156 6.457031 8.75 5.3125 8.75 C 4.90625 8.75 4.5 8.71875 4.09375 8.65625 C 3.6875 8.59375 3.238281 8.484375 2.75 8.328125 Z M 2.75 3.890625 "/></g></g></g><g fill="#34cb78" fill-opacity="1"><g transform="translate(168.761497, 99.097885)"><g><path d="M 11.625 0.375 C 10.007812 0.375 8.550781 0.101562 7.25 -0.4375 C 5.957031 -0.988281 4.851562 -1.738281 3.9375 -2.6875 C 3.019531 -3.644531 2.3125 -4.738281 1.8125 -5.96875 C 1.3125 -7.207031 1.0625 -8.519531 1.0625 -9.90625 C 1.0625 -11.8125 1.488281 -13.550781 2.34375 -15.125 C 3.195312 -16.707031 4.421875 -17.976562 6.015625 -18.9375 C 7.609375 -19.894531 9.488281 -20.375 11.65625 -20.375 C 13.84375 -20.375 15.710938 -19.894531 17.265625 -18.9375 C 18.828125 -17.976562 20.019531 -16.710938 20.84375 -15.140625 C 21.675781 -13.578125 22.09375 -11.894531 22.09375 -10.09375 C 22.09375 -9.78125 22.078125 -9.460938 22.046875 -9.140625 C 22.023438 -8.828125 22 -8.570312 21.96875 -8.375 L 6.5 -8.375 C 6.601562 -7.351562 6.898438 -6.457031 7.390625 -5.6875 C 7.890625 -4.925781 8.523438 -4.347656 9.296875 -3.953125 C 10.078125 -3.554688 10.914062 -3.359375 11.8125 -3.359375 C 12.832031 -3.359375 13.789062 -3.609375 14.6875 -4.109375 C 15.59375 -4.609375 16.210938 -5.265625 16.546875 -6.078125 L 20.9375 -4.859375 C 20.457031 -3.835938 19.765625 -2.929688 18.859375 -2.140625 C 17.953125 -1.347656 16.882812 -0.726562 15.65625 -0.28125 C 14.4375 0.15625 13.09375 0.375 11.625 0.375 Z M 6.375 -11.625 L 16.859375 -11.625 C 16.753906 -12.632812 16.460938 -13.515625 15.984375 -14.265625 C 15.515625 -15.023438 14.898438 -15.613281 14.140625 -16.03125 C 13.378906 -16.445312 12.523438 -16.65625 11.578125 -16.65625 C 10.660156 -16.65625 9.828125 -16.445312 9.078125 -16.03125 C 8.328125 -15.613281 7.710938 -15.023438 7.234375 -14.265625 C 6.765625 -13.515625 6.476562 -12.632812 6.375 -11.625 Z M 6.375 -11.625 "/></g></g></g><g fill="#34cb78" fill-opacity="1"><g transform="translate(195.47701, 99.097885)"><g><path d="M 1.1875 -13.765625 C 1.1875 -15.421875 1.484375 -17.039062 2.078125 -18.625 C 2.679688 -20.21875 3.554688 -21.671875 4.703125 -22.984375 C 5.847656 -24.296875 7.25 -25.335938 8.90625 -26.109375 C 10.5625 -26.890625 12.445312 -27.28125 14.5625 -27.28125 C 17.0625 -27.28125 19.21875 -26.734375 21.03125 -25.640625 C 22.851562 -24.546875 24.210938 -23.117188 25.109375 -21.359375 L 21.0625 -18.578125 C 20.601562 -19.597656 20.003906 -20.40625 19.265625 -21 C 18.523438 -21.601562 17.734375 -22.023438 16.890625 -22.265625 C 16.046875 -22.503906 15.21875 -22.625 14.40625 -22.625 C 13.082031 -22.625 11.929688 -22.351562 10.953125 -21.8125 C 9.972656 -21.28125 9.148438 -20.582031 8.484375 -19.71875 C 7.816406 -18.851562 7.320312 -17.882812 7 -16.8125 C 6.6875 -15.75 6.53125 -14.679688 6.53125 -13.609375 C 6.53125 -12.410156 6.722656 -11.253906 7.109375 -10.140625 C 7.492188 -9.035156 8.035156 -8.054688 8.734375 -7.203125 C 9.429688 -6.347656 10.269531 -5.671875 11.25 -5.171875 C 12.238281 -4.679688 13.316406 -4.4375 14.484375 -4.4375 C 15.328125 -4.4375 16.179688 -4.578125 17.046875 -4.859375 C 17.910156 -5.140625 18.710938 -5.582031 19.453125 -6.1875 C 20.191406 -6.800781 20.765625 -7.59375 21.171875 -8.5625 L 25.484375 -6.078125 C 24.953125 -4.722656 24.082031 -3.570312 22.875 -2.625 C 21.664062 -1.6875 20.304688 -0.972656 18.796875 -0.484375 C 17.296875 -0.00390625 15.804688 0.234375 14.328125 0.234375 C 12.390625 0.234375 10.617188 -0.164062 9.015625 -0.96875 C 7.410156 -1.769531 6.03125 -2.835938 4.875 -4.171875 C 3.71875 -5.515625 2.8125 -7.019531 2.15625 -8.6875 C 1.507812 -10.363281 1.1875 -12.054688 1.1875 -13.765625 Z M 1.1875 -13.765625 "/></g></g></g><g fill="#34cb78" fill-opacity="1"><g transform="translate(225.517526, 99.097885)"><g><path d="M 0.953125 -5.921875 C 0.953125 -7.222656 1.316406 -8.363281 2.046875 -9.34375 C 2.773438 -10.320312 3.785156 -11.078125 5.078125 -11.609375 C 6.378906 -12.148438 7.867188 -12.421875 9.546875 -12.421875 C 10.390625 -12.421875 11.242188 -12.351562 12.109375 -12.21875 C 12.984375 -12.09375 13.738281 -11.894531 14.375 -11.625 L 14.375 -12.6875 C 14.375 -13.957031 13.992188 -14.9375 13.234375 -15.625 C 12.484375 -16.3125 11.375 -16.65625 9.90625 -16.65625 C 8.800781 -16.65625 7.753906 -16.460938 6.765625 -16.078125 C 5.773438 -15.703125 4.726562 -15.144531 3.625 -14.40625 L 1.984375 -17.765625 C 3.304688 -18.640625 4.660156 -19.289062 6.046875 -19.71875 C 7.441406 -20.15625 8.90625 -20.375 10.4375 -20.375 C 13.289062 -20.375 15.507812 -19.660156 17.09375 -18.234375 C 18.6875 -16.804688 19.484375 -14.765625 19.484375 -12.109375 L 19.484375 -5.734375 C 19.484375 -5.203125 19.578125 -4.820312 19.765625 -4.59375 C 19.960938 -4.363281 20.28125 -4.222656 20.71875 -4.171875 L 20.71875 0 C 20.257812 0.0703125 19.84375 0.132812 19.46875 0.1875 C 19.101562 0.238281 18.789062 0.265625 18.53125 0.265625 C 17.507812 0.265625 16.738281 0.0351562 16.21875 -0.421875 C 15.695312 -0.878906 15.375 -1.441406 15.25 -2.109375 L 15.140625 -3.140625 C 14.265625 -2.015625 13.175781 -1.144531 11.875 -0.53125 C 10.582031 0.0703125 9.257812 0.375 7.90625 0.375 C 6.582031 0.375 5.390625 0.101562 4.328125 -0.4375 C 3.273438 -0.988281 2.445312 -1.738281 1.84375 -2.6875 C 1.25 -3.644531 0.953125 -4.722656 0.953125 -5.921875 Z M 13.421875 -4.890625 C 13.691406 -5.191406 13.914062 -5.492188 14.09375 -5.796875 C 14.28125 -6.109375 14.375 -6.394531 14.375 -6.65625 L 14.375 -8.671875 C 13.757812 -8.929688 13.09375 -9.128906 12.375 -9.265625 C 11.664062 -9.410156 10.992188 -9.484375 10.359375 -9.484375 C 9.035156 -9.484375 7.945312 -9.195312 7.09375 -8.625 C 6.238281 -8.050781 5.8125 -7.289062 5.8125 -6.34375 C 5.8125 -5.832031 5.953125 -5.347656 6.234375 -4.890625 C 6.515625 -4.429688 6.921875 -4.0625 7.453125 -3.78125 C 7.984375 -3.5 8.617188 -3.359375 9.359375 -3.359375 C 10.128906 -3.359375 10.882812 -3.503906 11.625 -3.796875 C 12.363281 -4.097656 12.960938 -4.460938 13.421875 -4.890625 Z M 13.421875 -4.890625 "/></g></g></g><g fill="#34cb78" fill-opacity="1"><g transform="translate(251.277585, 99.097885)"><g><path d="M 14.25 -15.59375 C 12.695312 -15.59375 11.304688 -15.289062 10.078125 -14.6875 C 8.859375 -14.09375 7.984375 -13.234375 7.453125 -12.109375 L 7.453125 0 L 2.328125 0 L 2.328125 -20.03125 L 7.03125 -20.03125 L 7.03125 -15.75 C 7.75 -17.125 8.65625 -18.203125 9.75 -18.984375 C 10.84375 -19.773438 12 -20.210938 13.21875 -20.296875 C 13.5 -20.296875 13.71875 -20.296875 13.875 -20.296875 C 14.03125 -20.296875 14.15625 -20.28125 14.25 -20.25 Z M 14.25 -15.59375 "/></g></g></g><g fill="#34cb78" fill-opacity="1"><g transform="translate(269.89079, 99.097885)"><g><path d="M 11.625 0.375 C 10.007812 0.375 8.550781 0.101562 7.25 -0.4375 C 5.957031 -0.988281 4.851562 -1.738281 3.9375 -2.6875 C 3.019531 -3.644531 2.3125 -4.738281 1.8125 -5.96875 C 1.3125 -7.207031 1.0625 -8.519531 1.0625 -9.90625 C 1.0625 -11.8125 1.488281 -13.550781 2.34375 -15.125 C 3.195312 -16.707031 4.421875 -17.976562 6.015625 -18.9375 C 7.609375 -19.894531 9.488281 -20.375 11.65625 -20.375 C 13.84375 -20.375 15.710938 -19.894531 17.265625 -18.9375 C 18.828125 -17.976562 20.019531 -16.710938 20.84375 -15.140625 C 21.675781 -13.578125 22.09375 -11.894531 22.09375 -10.09375 C 22.09375 -9.78125 22.078125 -9.460938 22.046875 -9.140625 C 22.023438 -8.828125 22 -8.570312 21.96875 -8.375 L 6.5 -8.375 C 6.601562 -7.351562 6.898438 -6.457031 7.390625 -5.6875 C 7.890625 -4.925781 8.523438 -4.347656 9.296875 -3.953125 C 10.078125 -3.554688 10.914062 -3.359375 11.8125 -3.359375 C 12.832031 -3.359375 13.789062 -3.609375 14.6875 -4.109375 C 15.59375 -4.609375 16.210938 -5.265625 16.546875 -6.078125 L 20.9375 -4.859375 C 20.457031 -3.835938 19.765625 -2.929688 18.859375 -2.140625 C 17.953125 -1.347656 16.882812 -0.726562 15.65625 -0.28125 C 14.4375 0.15625 13.09375 0.375 11.625 0.375 Z M 6.375 -11.625 L 16.859375 -11.625 C 16.753906 -12.632812 16.460938 -13.515625 15.984375 -14.265625 C 15.515625 -15.023438 14.898438 -15.613281 14.140625 -16.03125 C 13.378906 -16.445312 12.523438 -16.65625 11.578125 -16.65625 C 10.660156 -16.65625 9.828125 -16.445312 9.078125 -16.03125 C 8.328125 -15.613281 7.710938 -15.023438 7.234375 -14.265625 C 6.765625 -13.515625 6.476562 -12.632812 6.375 -11.625 Z M 6.375 -11.625 "/></g></g></g></svg>