<svg xmlns="http://www.w3.org/2000/svg" xmlns:xlink="http://www.w3.org/1999/xlink" width="400" zoomAndPan="magnify" viewBox="0 0 300 187.499995" height="250" preserveAspectRatio="xMidYMid meet" version="1.0"><defs><g/></defs><g fill="#d0fff0" fill-opacity="1"><g transform="translate(16.938347, 113.542889)"><g><path d="M 33.484375 -7.140625 L 33.484375 0 L 4.375 0 L 4.375 -41.9375 L 32.953125 -41.9375 L 32.953125 -34.78125 L 12.515625 -34.78125 L 12.515625 -24.6875 L 30.1875 -24.6875 L 30.1875 -18.078125 L 12.515625 -18.078125 L 12.515625 -7.140625 Z M 33.484375 -7.140625 "/></g></g></g><g fill="#d0fff0" fill-opacity="1"><g transform="translate(57.45063, 113.542889)"><g><path d="M 4.25 6.03125 C 4.957031 6.1875 5.613281 6.320312 6.21875 6.4375 C 6.832031 6.550781 7.359375 6.609375 7.796875 6.609375 C 8.546875 6.609375 9.164062 6.421875 9.65625 6.046875 C 10.144531 5.679688 10.625 5.015625 11.09375 4.046875 C 11.570312 3.078125 12.066406 1.726562 12.578125 0 L 0.359375 -30.953125 L 8.5625 -30.953125 L 16.890625 -8.09375 L 24.21875 -30.953125 L 31.78125 -30.953125 L 18.78125 6.140625 C 18.3125 7.515625 17.59375 8.765625 16.625 9.890625 C 15.65625 11.015625 14.453125 11.898438 13.015625 12.546875 C 11.585938 13.203125 9.984375 13.53125 8.203125 13.53125 C 7.578125 13.53125 6.945312 13.476562 6.3125 13.375 C 5.6875 13.28125 5 13.113281 4.25 12.875 Z M 4.25 6.03125 "/></g></g></g><g fill="#d0fff0" fill-opacity="1"><g transform="translate(94.951141, 113.542889)"><g><path d="M 17.953125 0.59375 C 15.472656 0.59375 13.226562 0.171875 11.21875 -0.671875 C 9.207031 -1.523438 7.492188 -2.6875 6.078125 -4.15625 C 4.660156 -5.632812 3.566406 -7.328125 2.796875 -9.234375 C 2.035156 -11.148438 1.65625 -13.171875 1.65625 -15.296875 C 1.65625 -18.253906 2.3125 -20.953125 3.625 -23.390625 C 4.945312 -25.828125 6.835938 -27.785156 9.296875 -29.265625 C 11.765625 -30.742188 14.671875 -31.484375 18.015625 -31.484375 C 21.398438 -31.484375 24.289062 -30.742188 26.6875 -29.265625 C 29.09375 -27.785156 30.9375 -25.832031 32.21875 -23.40625 C 33.5 -20.988281 34.140625 -18.382812 34.140625 -15.59375 C 34.140625 -15.125 34.117188 -14.640625 34.078125 -14.140625 C 34.035156 -13.648438 33.992188 -13.25 33.953125 -12.9375 L 10.046875 -12.9375 C 10.203125 -11.363281 10.660156 -9.984375 11.421875 -8.796875 C 12.191406 -7.617188 13.175781 -6.722656 14.375 -6.109375 C 15.582031 -5.503906 16.875 -5.203125 18.25 -5.203125 C 19.820312 -5.203125 21.304688 -5.582031 22.703125 -6.34375 C 24.109375 -7.113281 25.066406 -8.128906 25.578125 -9.390625 L 32.359375 -7.5 C 31.617188 -5.925781 30.546875 -4.523438 29.140625 -3.296875 C 27.742188 -2.078125 26.097656 -1.125 24.203125 -0.4375 C 22.316406 0.25 20.234375 0.59375 17.953125 0.59375 Z M 9.859375 -17.953125 L 26.046875 -17.953125 C 25.890625 -19.523438 25.445312 -20.890625 24.71875 -22.046875 C 23.988281 -23.210938 23.03125 -24.117188 21.84375 -24.765625 C 20.664062 -25.421875 19.347656 -25.75 17.890625 -25.75 C 16.472656 -25.75 15.179688 -25.421875 14.015625 -24.765625 C 12.859375 -24.117188 11.914062 -23.210938 11.1875 -22.046875 C 10.457031 -20.890625 10.015625 -19.523438 9.859375 -17.953125 Z M 9.859375 -17.953125 "/></g></g></g><g fill="#d0fff0" fill-opacity="1"><g transform="translate(135.345313, 113.542889)"><g><path d="M 1.828125 -21.265625 C 1.828125 -23.816406 2.289062 -26.320312 3.21875 -28.78125 C 4.144531 -31.25 5.492188 -33.492188 7.265625 -35.515625 C 9.035156 -37.546875 11.195312 -39.160156 13.75 -40.359375 C 16.3125 -41.566406 19.226562 -42.171875 22.5 -42.171875 C 26.363281 -42.171875 29.703125 -41.320312 32.515625 -39.625 C 35.328125 -37.9375 37.421875 -35.734375 38.796875 -33.015625 L 32.546875 -28.703125 C 31.835938 -30.273438 30.910156 -31.523438 29.765625 -32.453125 C 28.617188 -33.378906 27.394531 -34.03125 26.09375 -34.40625 C 24.800781 -34.78125 23.523438 -34.96875 22.265625 -34.96875 C 20.210938 -34.96875 18.425781 -34.550781 16.90625 -33.71875 C 15.394531 -32.894531 14.128906 -31.8125 13.109375 -30.46875 C 12.085938 -29.132812 11.328125 -27.640625 10.828125 -25.984375 C 10.335938 -24.328125 10.09375 -22.675781 10.09375 -21.03125 C 10.09375 -19.175781 10.390625 -17.390625 10.984375 -15.671875 C 11.578125 -13.960938 12.414062 -12.445312 13.5 -11.125 C 14.582031 -9.8125 15.878906 -8.769531 17.390625 -8 C 18.910156 -7.226562 20.578125 -6.84375 22.390625 -6.84375 C 23.679688 -6.84375 24.992188 -7.0625 26.328125 -7.5 C 27.671875 -7.9375 28.914062 -8.625 30.0625 -9.5625 C 31.207031 -10.507812 32.09375 -11.734375 32.71875 -13.234375 L 39.390625 -9.390625 C 38.566406 -7.304688 37.21875 -5.535156 35.34375 -4.078125 C 33.476562 -2.617188 31.382812 -1.515625 29.0625 -0.765625 C 26.738281 -0.015625 24.429688 0.359375 22.140625 0.359375 C 19.148438 0.359375 16.414062 -0.257812 13.9375 -1.5 C 11.457031 -2.738281 9.320312 -4.390625 7.53125 -6.453125 C 5.738281 -8.523438 4.335938 -10.851562 3.328125 -13.4375 C 2.328125 -16.019531 1.828125 -18.628906 1.828125 -21.265625 Z M 1.828125 -21.265625 "/></g></g></g><g fill="#d0fff0" fill-opacity="1"><g transform="translate(180.877205, 113.542889)"><g><path d="M 1.46875 -9.15625 C 1.46875 -11.164062 2.03125 -12.925781 3.15625 -14.4375 C 4.28125 -15.957031 5.847656 -17.128906 7.859375 -17.953125 C 9.867188 -18.773438 12.171875 -19.1875 14.765625 -19.1875 C 16.066406 -19.1875 17.382812 -19.085938 18.71875 -18.890625 C 20.0625 -18.703125 21.222656 -18.390625 22.203125 -17.953125 L 22.203125 -19.609375 C 22.203125 -21.578125 21.617188 -23.09375 20.453125 -24.15625 C 19.296875 -25.21875 17.578125 -25.75 15.296875 -25.75 C 13.597656 -25.75 11.984375 -25.453125 10.453125 -24.859375 C 8.921875 -24.273438 7.304688 -23.410156 5.609375 -22.265625 L 3.078125 -27.46875 C 5.117188 -28.800781 7.210938 -29.800781 9.359375 -30.46875 C 11.503906 -31.144531 13.757812 -31.484375 16.125 -31.484375 C 20.53125 -31.484375 23.960938 -30.378906 26.421875 -28.171875 C 28.890625 -25.960938 30.125 -22.8125 30.125 -18.71875 L 30.125 -8.859375 C 30.125 -8.035156 30.269531 -7.445312 30.5625 -7.09375 C 30.851562 -6.738281 31.335938 -6.519531 32.015625 -6.4375 L 32.015625 0 C 31.304688 0.113281 30.664062 0.207031 30.09375 0.28125 C 29.519531 0.363281 29.035156 0.40625 28.640625 0.40625 C 27.066406 0.40625 25.875 0.0507812 25.0625 -0.65625 C 24.257812 -1.363281 23.757812 -2.226562 23.5625 -3.25 L 23.390625 -4.84375 C 22.046875 -3.113281 20.367188 -1.773438 18.359375 -0.828125 C 16.359375 0.117188 14.3125 0.59375 12.21875 0.59375 C 10.175781 0.59375 8.335938 0.171875 6.703125 -0.671875 C 5.066406 -1.523438 3.785156 -2.6875 2.859375 -4.15625 C 1.929688 -5.632812 1.46875 -7.300781 1.46875 -9.15625 Z M 20.734375 -7.5625 C 21.160156 -8.03125 21.507812 -8.5 21.78125 -8.96875 C 22.0625 -9.445312 22.203125 -9.882812 22.203125 -10.28125 L 22.203125 -13.40625 C 21.265625 -13.800781 20.242188 -14.101562 19.140625 -14.3125 C 18.035156 -14.53125 16.988281 -14.640625 16 -14.640625 C 13.957031 -14.640625 12.273438 -14.195312 10.953125 -13.3125 C 9.640625 -12.425781 8.984375 -11.253906 8.984375 -9.796875 C 8.984375 -9.015625 9.195312 -8.269531 9.625 -7.5625 C 10.0625 -6.851562 10.691406 -6.28125 11.515625 -5.84375 C 12.335938 -5.414062 13.320312 -5.203125 14.46875 -5.203125 C 15.644531 -5.203125 16.804688 -5.425781 17.953125 -5.875 C 19.097656 -6.332031 20.023438 -6.894531 20.734375 -7.5625 Z M 20.734375 -7.5625 "/></g></g></g><g fill="#d0fff0" fill-opacity="1"><g transform="translate(219.795029, 113.542889)"><g><path d="M 22.03125 -24.09375 C 19.625 -24.09375 17.472656 -23.628906 15.578125 -22.703125 C 13.691406 -21.785156 12.335938 -20.457031 11.515625 -18.71875 L 11.515625 0 L 3.609375 0 L 3.609375 -30.953125 L 10.875 -30.953125 L 10.875 -24.328125 C 11.96875 -26.453125 13.359375 -28.125 15.046875 -29.34375 C 16.742188 -30.570312 18.539062 -31.242188 20.4375 -31.359375 C 20.863281 -31.359375 21.195312 -31.359375 21.4375 -31.359375 C 21.675781 -31.359375 21.875 -31.335938 22.03125 -31.296875 Z M 22.03125 -24.09375 "/></g></g></g><g fill="#d0fff0" fill-opacity="1"><g transform="translate(247.669683, 113.542889)"><g><path d="M 17.953125 0.59375 C 15.472656 0.59375 13.226562 0.171875 11.21875 -0.671875 C 9.207031 -1.523438 7.492188 -2.6875 6.078125 -4.15625 C 4.660156 -5.632812 3.566406 -7.328125 2.796875 -9.234375 C 2.035156 -11.148438 1.65625 -13.171875 1.65625 -15.296875 C 1.65625 -18.253906 2.3125 -20.953125 3.625 -23.390625 C 4.945312 -25.828125 6.835938 -27.785156 9.296875 -29.265625 C 11.765625 -30.742188 14.671875 -31.484375 18.015625 -31.484375 C 21.398438 -31.484375 24.289062 -30.742188 26.6875 -29.265625 C 29.09375 -27.785156 30.9375 -25.832031 32.21875 -23.40625 C 33.5 -20.988281 34.140625 -18.382812 34.140625 -15.59375 C 34.140625 -15.125 34.117188 -14.640625 34.078125 -14.140625 C 34.035156 -13.648438 33.992188 -13.25 33.953125 -12.9375 L 10.046875 -12.9375 C 10.203125 -11.363281 10.660156 -9.984375 11.421875 -8.796875 C 12.191406 -7.617188 13.175781 -6.722656 14.375 -6.109375 C 15.582031 -5.503906 16.875 -5.203125 18.25 -5.203125 C 19.820312 -5.203125 21.304688 -5.582031 22.703125 -6.34375 C 24.109375 -7.113281 25.066406 -8.128906 25.578125 -9.390625 L 32.359375 -7.5 C 31.617188 -5.925781 30.546875 -4.523438 29.140625 -3.296875 C 27.742188 -2.078125 26.097656 -1.125 24.203125 -0.4375 C 22.316406 0.25 20.234375 0.59375 17.953125 0.59375 Z M 9.859375 -17.953125 L 26.046875 -17.953125 C 25.890625 -19.523438 25.445312 -20.890625 24.71875 -22.046875 C 23.988281 -23.210938 23.03125 -24.117188 21.84375 -24.765625 C 20.664062 -25.421875 19.347656 -25.75 17.890625 -25.75 C 16.472656 -25.75 15.179688 -25.421875 14.015625 -24.765625 C 12.859375 -24.117188 11.914062 -23.210938 11.1875 -22.046875 C 10.457031 -20.890625 10.015625 -19.523438 9.859375 -17.953125 Z M 9.859375 -17.953125 "/></g></g></g></svg>