<svg xmlns="http://www.w3.org/2000/svg" xmlns:xlink="http://www.w3.org/1999/xlink" width="400" zoomAndPan="magnify" viewBox="0 0 300 187.499995" height="250" preserveAspectRatio="xMidYMid meet" version="1.0"><defs><g/></defs><g fill="#34cb78" fill-opacity="1"><g transform="translate(12.199229, 114.256703)"><g><path d="M 34.6875 -7.40625 L 34.6875 0 L 4.53125 0 L 4.53125 -43.4375 L 34.140625 -43.4375 L 34.140625 -36.03125 L 12.96875 -36.03125 L 12.96875 -25.5625 L 31.265625 -25.5625 L 31.265625 -18.71875 L 12.96875 -18.71875 L 12.96875 -7.40625 Z M 34.6875 -7.40625 "/></g></g></g><g fill="#34cb78" fill-opacity="1"><g transform="translate(54.154397, 114.256703)"><g><path d="M 4.40625 6.234375 C 5.132812 6.398438 5.816406 6.539062 6.453125 6.65625 C 7.085938 6.78125 7.628906 6.84375 8.078125 6.84375 C 8.847656 6.84375 9.488281 6.648438 10 6.265625 C 10.507812 5.878906 11.007812 5.1875 11.5 4.1875 C 11.988281 3.1875 12.5 1.789062 13.03125 0 L 0.359375 -32.046875 L 8.875 -32.046875 L 17.5 -8.375 L 25.078125 -32.046875 L 32.90625 -32.046875 L 19.453125 6.359375 C 18.960938 7.785156 18.21875 9.078125 17.21875 10.234375 C 16.21875 11.398438 14.972656 12.320312 13.484375 13 C 11.992188 13.675781 10.332031 14.015625 8.5 14.015625 C 7.851562 14.015625 7.203125 13.960938 6.546875 13.859375 C 5.890625 13.753906 5.175781 13.578125 4.40625 13.328125 Z M 4.40625 6.234375 "/></g></g></g><g fill="#34cb78" fill-opacity="1"><g transform="translate(92.990527, 114.256703)"><g><path d="M 18.59375 0.609375 C 16.03125 0.609375 13.707031 0.171875 11.625 -0.703125 C 9.539062 -1.578125 7.765625 -2.78125 6.296875 -4.3125 C 4.828125 -5.84375 3.695312 -7.597656 2.90625 -9.578125 C 2.113281 -11.554688 1.71875 -13.644531 1.71875 -15.84375 C 1.71875 -18.90625 2.398438 -21.695312 3.765625 -24.21875 C 5.128906 -26.75 7.082031 -28.78125 9.625 -30.3125 C 12.175781 -31.84375 15.1875 -32.609375 18.65625 -32.609375 C 22.164062 -32.609375 25.160156 -31.84375 27.640625 -30.3125 C 30.128906 -28.78125 32.035156 -26.757812 33.359375 -24.25 C 34.691406 -21.75 35.359375 -19.050781 35.359375 -16.15625 C 35.359375 -15.664062 35.335938 -15.164062 35.296875 -14.65625 C 35.253906 -14.144531 35.210938 -13.722656 35.171875 -13.390625 L 10.40625 -13.390625 C 10.5625 -11.765625 11.035156 -10.335938 11.828125 -9.109375 C 12.628906 -7.890625 13.648438 -6.960938 14.890625 -6.328125 C 16.140625 -5.703125 17.476562 -5.390625 18.90625 -5.390625 C 20.53125 -5.390625 22.066406 -5.785156 23.515625 -6.578125 C 24.960938 -7.367188 25.953125 -8.414062 26.484375 -9.71875 L 33.515625 -7.765625 C 32.742188 -6.140625 31.632812 -4.691406 30.1875 -3.421875 C 28.738281 -2.160156 27.035156 -1.171875 25.078125 -0.453125 C 23.117188 0.253906 20.957031 0.609375 18.59375 0.609375 Z M 10.21875 -18.59375 L 26.984375 -18.59375 C 26.816406 -20.226562 26.351562 -21.644531 25.59375 -22.84375 C 24.84375 -24.050781 23.851562 -24.988281 22.625 -25.65625 C 21.40625 -26.332031 20.039062 -26.671875 18.53125 -26.671875 C 17.0625 -26.671875 15.722656 -26.332031 14.515625 -25.65625 C 13.316406 -24.988281 12.335938 -24.050781 11.578125 -22.84375 C 10.828125 -21.644531 10.375 -20.226562 10.21875 -18.59375 Z M 10.21875 -18.59375 "/></g></g></g><g fill="#34cb78" fill-opacity="1"><g transform="translate(134.823378, 114.256703)"><g><path d="M 1.890625 -22.015625 C 1.890625 -24.671875 2.367188 -27.269531 3.328125 -29.8125 C 4.285156 -32.363281 5.679688 -34.6875 7.515625 -36.78125 C 9.359375 -38.882812 11.601562 -40.554688 14.25 -41.796875 C 16.90625 -43.046875 19.925781 -43.671875 23.3125 -43.671875 C 27.300781 -43.671875 30.753906 -42.796875 33.671875 -41.046875 C 36.585938 -39.296875 38.757812 -37.007812 40.1875 -34.1875 L 33.703125 -29.734375 C 32.972656 -31.359375 32.015625 -32.648438 30.828125 -33.609375 C 29.648438 -34.566406 28.382812 -35.238281 27.03125 -35.625 C 25.6875 -36.019531 24.363281 -36.21875 23.0625 -36.21875 C 20.9375 -36.21875 19.085938 -35.785156 17.515625 -34.921875 C 15.953125 -34.066406 14.640625 -32.945312 13.578125 -31.5625 C 12.515625 -30.175781 11.726562 -28.625 11.21875 -26.90625 C 10.707031 -25.195312 10.453125 -23.488281 10.453125 -21.78125 C 10.453125 -19.863281 10.757812 -18.015625 11.375 -16.234375 C 11.988281 -14.460938 12.851562 -12.894531 13.96875 -11.53125 C 15.09375 -10.164062 16.441406 -9.082031 18.015625 -8.28125 C 19.585938 -7.488281 21.3125 -7.09375 23.1875 -7.09375 C 24.53125 -7.09375 25.894531 -7.316406 27.28125 -7.765625 C 28.664062 -8.210938 29.945312 -8.925781 31.125 -9.90625 C 32.3125 -10.882812 33.234375 -12.148438 33.890625 -13.703125 L 40.796875 -9.71875 C 39.941406 -7.5625 38.546875 -5.726562 36.609375 -4.21875 C 34.671875 -2.707031 32.5 -1.566406 30.09375 -0.796875 C 27.6875 -0.0234375 25.300781 0.359375 22.9375 0.359375 C 19.84375 0.359375 17.007812 -0.28125 14.4375 -1.5625 C 11.863281 -2.84375 9.648438 -4.550781 7.796875 -6.6875 C 5.941406 -8.832031 4.492188 -11.238281 3.453125 -13.90625 C 2.410156 -16.582031 1.890625 -19.285156 1.890625 -22.015625 Z M 1.890625 -22.015625 "/></g></g></g><g fill="#34cb78" fill-opacity="1"><g transform="translate(181.976934, 114.256703)"><g><path d="M 1.53125 -9.484375 C 1.53125 -11.554688 2.109375 -13.378906 3.265625 -14.953125 C 4.429688 -16.523438 6.050781 -17.738281 8.125 -18.59375 C 10.207031 -19.445312 12.597656 -19.875 15.296875 -19.875 C 16.640625 -19.875 18.003906 -19.769531 19.390625 -19.5625 C 20.773438 -19.363281 21.976562 -19.039062 23 -18.59375 L 23 -20.3125 C 23 -22.351562 22.394531 -23.921875 21.1875 -25.015625 C 19.988281 -26.117188 18.207031 -26.671875 15.84375 -26.671875 C 14.09375 -26.671875 12.421875 -26.363281 10.828125 -25.75 C 9.234375 -25.132812 7.5625 -24.238281 5.8125 -23.0625 L 3.1875 -28.4375 C 5.300781 -29.832031 7.46875 -30.875 9.6875 -31.5625 C 11.914062 -32.257812 14.253906 -32.609375 16.703125 -32.609375 C 21.265625 -32.609375 24.820312 -31.460938 27.375 -29.171875 C 29.925781 -26.890625 31.203125 -23.628906 31.203125 -19.390625 L 31.203125 -9.171875 C 31.203125 -8.316406 31.351562 -7.707031 31.65625 -7.34375 C 31.957031 -6.976562 32.457031 -6.753906 33.15625 -6.671875 L 33.15625 0 C 32.414062 0.125 31.75 0.222656 31.15625 0.296875 C 30.570312 0.378906 30.078125 0.421875 29.671875 0.421875 C 28.035156 0.421875 26.800781 0.0546875 25.96875 -0.671875 C 25.132812 -1.410156 24.613281 -2.304688 24.40625 -3.359375 L 24.21875 -5.015625 C 22.832031 -3.222656 21.097656 -1.835938 19.015625 -0.859375 C 16.941406 0.117188 14.820312 0.609375 12.65625 0.609375 C 10.539062 0.609375 8.632812 0.171875 6.9375 -0.703125 C 5.25 -1.578125 3.925781 -2.78125 2.96875 -4.3125 C 2.007812 -5.84375 1.53125 -7.566406 1.53125 -9.484375 Z M 21.46875 -7.828125 C 21.914062 -8.316406 22.28125 -8.804688 22.5625 -9.296875 C 22.851562 -9.785156 23 -10.234375 23 -10.640625 L 23 -13.890625 C 22.019531 -14.296875 20.957031 -14.609375 19.8125 -14.828125 C 18.675781 -15.054688 17.597656 -15.171875 16.578125 -15.171875 C 14.453125 -15.171875 12.707031 -14.710938 11.34375 -13.796875 C 9.976562 -12.878906 9.296875 -11.664062 9.296875 -10.15625 C 9.296875 -9.34375 9.519531 -8.566406 9.96875 -7.828125 C 10.414062 -7.097656 11.066406 -6.507812 11.921875 -6.0625 C 12.785156 -5.613281 13.804688 -5.390625 14.984375 -5.390625 C 16.210938 -5.390625 17.414062 -5.625 18.59375 -6.09375 C 19.78125 -6.5625 20.738281 -7.140625 21.46875 -7.828125 Z M 21.46875 -7.828125 "/></g></g></g><g fill="#34cb78" fill-opacity="1"><g transform="translate(222.280856, 114.256703)"><g><path d="M 22.8125 -24.953125 C 20.320312 -24.953125 18.097656 -24.472656 16.140625 -23.515625 C 14.191406 -22.554688 12.785156 -21.179688 11.921875 -19.390625 L 11.921875 0 L 3.734375 0 L 3.734375 -32.046875 L 11.25 -32.046875 L 11.25 -25.203125 C 12.394531 -27.398438 13.84375 -29.128906 15.59375 -30.390625 C 17.351562 -31.660156 19.210938 -32.359375 21.171875 -32.484375 C 21.617188 -32.484375 21.960938 -32.484375 22.203125 -32.484375 C 22.453125 -32.484375 22.65625 -32.460938 22.8125 -32.421875 Z M 22.8125 -24.953125 "/></g></g></g><g fill="#34cb78" fill-opacity="1"><g transform="translate(251.148294, 114.256703)"><g><path d="M 18.59375 0.609375 C 16.03125 0.609375 13.707031 0.171875 11.625 -0.703125 C 9.539062 -1.578125 7.765625 -2.78125 6.296875 -4.3125 C 4.828125 -5.84375 3.695312 -7.597656 2.90625 -9.578125 C 2.113281 -11.554688 1.71875 -13.644531 1.71875 -15.84375 C 1.71875 -18.90625 2.398438 -21.695312 3.765625 -24.21875 C 5.128906 -26.75 7.082031 -28.78125 9.625 -30.3125 C 12.175781 -31.84375 15.1875 -32.609375 18.65625 -32.609375 C 22.164062 -32.609375 25.160156 -31.84375 27.640625 -30.3125 C 30.128906 -28.78125 32.035156 -26.757812 33.359375 -24.25 C 34.691406 -21.75 35.359375 -19.050781 35.359375 -16.15625 C 35.359375 -15.664062 35.335938 -15.164062 35.296875 -14.65625 C 35.253906 -14.144531 35.210938 -13.722656 35.171875 -13.390625 L 10.40625 -13.390625 C 10.5625 -11.765625 11.035156 -10.335938 11.828125 -9.109375 C 12.628906 -7.890625 13.648438 -6.960938 14.890625 -6.328125 C 16.140625 -5.703125 17.476562 -5.390625 18.90625 -5.390625 C 20.53125 -5.390625 22.066406 -5.785156 23.515625 -6.578125 C 24.960938 -7.367188 25.953125 -8.414062 26.484375 -9.71875 L 33.515625 -7.765625 C 32.742188 -6.140625 31.632812 -4.691406 30.1875 -3.421875 C 28.738281 -2.160156 27.035156 -1.171875 25.078125 -0.453125 C 23.117188 0.253906 20.957031 0.609375 18.59375 0.609375 Z M 10.21875 -18.59375 L 26.984375 -18.59375 C 26.816406 -20.226562 26.351562 -21.644531 25.59375 -22.84375 C 24.84375 -24.050781 23.851562 -24.988281 22.625 -25.65625 C 21.40625 -26.332031 20.039062 -26.671875 18.53125 -26.671875 C 17.0625 -26.671875 15.722656 -26.332031 14.515625 -25.65625 C 13.316406 -24.988281 12.335938 -24.050781 11.578125 -22.84375 C 10.828125 -21.644531 10.375 -20.226562 10.21875 -18.59375 Z M 10.21875 -18.59375 "/></g></g></g></svg>