<svg xmlns="http://www.w3.org/2000/svg" xmlns:xlink="http://www.w3.org/1999/xlink" width="400" zoomAndPan="magnify" viewBox="0 0 300 187.499995" height="250" preserveAspectRatio="xMidYMid meet" version="1.0"><defs><filter x="0%" y="0%" width="100%" height="100%" id="5cfe57db4f"><feColorMatrix values="0 0 0 0 1 0 0 0 0 1 0 0 0 0 1 0 0 0 1 0" color-interpolation-filters="sRGB"/></filter><clipPath id="e31ef3972a"><path d="M 0.398438 0 L 299.601562 0 L 299.601562 187 L 0.398438 187 Z M 0.398438 0 " clip-rule="nonzero"/></clipPath><mask id="e59796781f"><g filter="url(#5cfe57db4f)"><rect x="-30" width="360" fill="#000000" y="-18.749999" height="224.999994" fill-opacity="0.2"/></g></mask><clipPath id="1b6c959785"><path d="M 0.503906 1 L 31.382812 1 L 31.382812 42.335938 L 0.503906 42.335938 Z M 0.503906 1 " clip-rule="nonzero"/></clipPath><clipPath id="8d84a6a9d3"><rect x="0" width="32" y="0" height="43"/></clipPath><clipPath id="97a468f96c"><path d="M 0.398438 113 L 46 113 L 46 179 L 0.398438 179 Z M 0.398438 113 " clip-rule="nonzero"/></clipPath><mask id="4fedb7eff7"><g filter="url(#5cfe57db4f)"><rect x="-30" width="360" fill="#000000" y="-18.749999" height="224.999994" fill-opacity="0.2"/></g></mask><clipPath id="707aff9875"><path d="M 0.707031 1 L 8.605469 1 L 8.605469 44.335938 L 0.707031 44.335938 Z M 0.707031 1 " clip-rule="nonzero"/></clipPath><clipPath id="40c023ac1e"><rect x="0" width="9" y="0" height="45"/></clipPath><mask id="28dd9ce69e"><g filter="url(#5cfe57db4f)"><rect x="-30" width="360" fill="#000000" y="-18.749999" height="224.999994" fill-opacity="0.2"/></g></mask><clipPath id="21fa5fcc14"><path d="M 1 1 L 37.847656 1 L 37.847656 4.664062 L 1 4.664062 Z M 1 1 " clip-rule="nonzero"/></clipPath><clipPath id="cae22ad3a1"><rect x="0" width="38" y="0" height="5"/></clipPath><mask id="1931fdaf0a"><g filter="url(#5cfe57db4f)"><rect x="-30" width="360" fill="#000000" y="-18.749999" height="224.999994" fill-opacity="0.2"/></g></mask><clipPath id="9fd4c2d2f0"><path d="M 1 0.398438 L 12 0.398438 L 12 3 L 1 3 Z M 1 0.398438 " clip-rule="nonzero"/></clipPath><clipPath id="bf8956eb77"><rect x="0" width="13" y="0" height="4"/></clipPath><mask id="483a6b39d5"><g filter="url(#5cfe57db4f)"><rect x="-30" width="360" fill="#000000" y="-18.749999" height="224.999994" fill-opacity="0.2"/></g></mask><clipPath id="f41bcfd2dd"><path d="M 1 1 L 12 1 L 12 3.972656 L 1 3.972656 Z M 1 1 " clip-rule="nonzero"/></clipPath><clipPath id="54aa7a691e"><rect x="0" width="13" y="0" height="4"/></clipPath><mask id="a932e9c010"><g filter="url(#5cfe57db4f)"><rect x="-30" width="360" fill="#000000" y="-18.749999" height="224.999994" fill-opacity="0.2"/></g></mask><clipPath id="838f8855db"><path d="M 0.546875 0.00390625 L 61 0.00390625 L 61 15.5625 L 0.546875 15.5625 Z M 0.546875 0.00390625 " clip-rule="nonzero"/></clipPath><clipPath id="a7f7573a78"><rect x="0" width="62" y="0" height="16"/></clipPath><mask id="52923b4073"><g filter="url(#5cfe57db4f)"><rect x="-30" width="360" fill="#000000" y="-18.749999" height="224.999994" fill-opacity="0.2"/></g></mask><clipPath id="a9abf5d575"><path d="M 1 0.0859375 L 43 0.0859375 L 43 3 L 1 3 Z M 1 0.0859375 " clip-rule="nonzero"/></clipPath><clipPath id="43246b28ac"><rect x="0" width="44" y="0" height="4"/></clipPath><mask id="a18e6bc976"><g filter="url(#5cfe57db4f)"><rect x="-30" width="360" fill="#000000" y="-18.749999" height="224.999994" fill-opacity="0.3"/></g></mask><clipPath id="3654c0d5f5"><path d="M 1 0.335938 L 7 0.335938 L 7 132.941406 L 1 132.941406 Z M 1 0.335938 " clip-rule="nonzero"/></clipPath><clipPath id="dcedf07bd0"><rect x="0" width="8" y="0" height="133"/></clipPath><mask id="d99a796018"><g filter="url(#5cfe57db4f)"><rect x="-30" width="360" fill="#000000" y="-18.749999" height="224.999994" fill-opacity="0.2"/></g></mask><clipPath id="8cdaf85a2f"><path d="M 0.652344 0.21875 L 43.738281 0.21875 L 43.738281 1.414062 L 0.652344 1.414062 Z M 0.652344 0.21875 " clip-rule="nonzero"/></clipPath><clipPath id="092354884d"><rect x="0" width="44" y="0" height="2"/></clipPath><mask id="40c42844aa"><g filter="url(#5cfe57db4f)"><rect x="-30" width="360" fill="#000000" y="-18.749999" height="224.999994" fill-opacity="0.2"/></g></mask><clipPath id="d62d824b4b"><path d="M 0.652344 0.0976562 L 43.738281 0.0976562 L 43.738281 1 L 0.652344 1 Z M 0.652344 0.0976562 " clip-rule="nonzero"/></clipPath><clipPath id="c0cb7cba27"><rect x="0" width="44" y="0" height="2"/></clipPath></defs><g clip-path="url(#e31ef3972a)"><path fill="#ffffff" d="M 0.398438 0 L 299.601562 0 L 299.601562 187 L 0.398438 187 Z M 0.398438 0 " fill-opacity="1" fill-rule="nonzero"/><path fill="#ffffff" d="M 0.398438 0 L 299.601562 0 L 299.601562 187 L 0.398438 187 Z M 0.398438 0 " fill-opacity="1" fill-rule="nonzero"/></g><path fill="#d0fff0" d="M 144.777344 12.019531 C 145.003906 12.019531 145.191406 12.207031 145.191406 12.433594 L 145.191406 46.511719 C 145.191406 46.738281 145.003906 46.925781 144.777344 46.925781 L 85.707031 46.925781 C 85.484375 46.925781 85.296875 46.738281 85.296875 46.511719 L 85.296875 12.433594 C 85.296875 12.207031 85.484375 12.019531 85.707031 12.019531 Z M 144.777344 11.308594 L 85.707031 11.308594 C 85.085938 11.308594 84.585938 11.808594 84.585938 12.433594 L 84.585938 46.511719 C 84.585938 47.132812 85.085938 47.632812 85.707031 47.632812 L 144.773438 47.632812 C 145.394531 47.632812 145.894531 47.132812 145.894531 46.511719 L 145.894531 12.433594 C 145.902344 11.808594 145.394531 11.308594 144.777344 11.308594 Z M 144.777344 11.308594 " fill-opacity="1" fill-rule="nonzero"/><path fill="#d0fff0" d="M 86.695312 13.566406 L 143.792969 13.566406 L 143.792969 45.375 L 86.695312 45.375 Z M 86.695312 13.566406 " fill-opacity="1" fill-rule="nonzero"/><path fill="#0cc0df" d="M 137.699219 29.484375 C 112.78125 -0.00390625 92.785156 29.441406 92.785156 29.441406 C 92.785156 29.441406 112.78125 58.976562 137.699219 29.484375 Z M 137.699219 29.484375 " fill-opacity="1" fill-rule="nonzero"/><path fill="#d0fff0" d="M 124.238281 29.484375 C 124.238281 30.074219 124.179688 30.660156 124.066406 31.238281 C 123.949219 31.820312 123.78125 32.382812 123.554688 32.925781 C 123.328125 33.472656 123.050781 33.992188 122.722656 34.480469 C 122.394531 34.972656 122.019531 35.425781 121.605469 35.84375 C 121.1875 36.261719 120.730469 36.636719 120.242188 36.964844 C 119.75 37.292969 119.230469 37.570312 118.6875 37.796875 C 118.140625 38.019531 117.578125 38.191406 117 38.308594 C 116.417969 38.421875 115.835938 38.480469 115.242188 38.480469 C 114.652344 38.480469 114.066406 38.421875 113.488281 38.308594 C 112.910156 38.191406 112.347656 38.019531 111.800781 37.796875 C 111.253906 37.570312 110.738281 37.292969 110.246094 36.964844 C 109.753906 36.636719 109.300781 36.261719 108.882812 35.84375 C 108.464844 35.425781 108.09375 34.972656 107.765625 34.480469 C 107.4375 33.992188 107.160156 33.472656 106.933594 32.925781 C 106.707031 32.382812 106.535156 31.820312 106.421875 31.238281 C 106.304688 30.660156 106.25 30.074219 106.25 29.484375 C 106.25 28.894531 106.304688 28.308594 106.421875 27.730469 C 106.535156 27.152344 106.707031 26.589844 106.933594 26.042969 C 107.160156 25.496094 107.4375 24.980469 107.765625 24.488281 C 108.09375 23.996094 108.464844 23.542969 108.882812 23.125 C 109.300781 22.707031 109.753906 22.335938 110.246094 22.007812 C 110.738281 21.679688 111.253906 21.402344 111.800781 21.175781 C 112.347656 20.949219 112.910156 20.777344 113.488281 20.664062 C 114.066406 20.546875 114.652344 20.492188 115.242188 20.492188 C 115.835938 20.492188 116.417969 20.546875 117 20.664062 C 117.578125 20.777344 118.140625 20.949219 118.6875 21.175781 C 119.230469 21.402344 119.75 21.679688 120.242188 22.007812 C 120.730469 22.335938 121.1875 22.707031 121.605469 23.125 C 122.019531 23.542969 122.394531 23.996094 122.722656 24.488281 C 123.050781 24.980469 123.328125 25.496094 123.554688 26.042969 C 123.78125 26.589844 123.949219 27.152344 124.066406 27.730469 C 124.179688 28.308594 124.238281 28.894531 124.238281 29.484375 Z M 124.238281 29.484375 " fill-opacity="1" fill-rule="nonzero"/><path fill="#0cc0df" d="M 119.578125 29.484375 C 119.578125 29.769531 119.550781 30.050781 119.496094 30.332031 C 119.441406 30.609375 119.355469 30.882812 119.25 31.144531 C 119.140625 31.40625 119.007812 31.65625 118.847656 31.894531 C 118.691406 32.128906 118.511719 32.347656 118.308594 32.550781 C 118.109375 32.75 117.886719 32.929688 117.652344 33.089844 C 117.414062 33.246094 117.164062 33.382812 116.902344 33.488281 C 116.640625 33.597656 116.367188 33.679688 116.089844 33.738281 C 115.808594 33.792969 115.527344 33.820312 115.242188 33.820312 C 114.957031 33.820312 114.675781 33.792969 114.398438 33.738281 C 114.117188 33.679688 113.847656 33.597656 113.585938 33.488281 C 113.320312 33.382812 113.070312 33.246094 112.835938 33.089844 C 112.597656 32.929688 112.378906 32.75 112.179688 32.550781 C 111.976562 32.347656 111.796875 32.128906 111.640625 31.894531 C 111.480469 31.65625 111.347656 31.40625 111.238281 31.144531 C 111.128906 30.882812 111.046875 30.609375 110.992188 30.332031 C 110.9375 30.050781 110.910156 29.769531 110.910156 29.484375 C 110.910156 29.199219 110.9375 28.917969 110.992188 28.640625 C 111.046875 28.359375 111.128906 28.089844 111.238281 27.824219 C 111.347656 27.5625 111.480469 27.3125 111.640625 27.078125 C 111.796875 26.839844 111.976562 26.621094 112.179688 26.417969 C 112.378906 26.21875 112.597656 26.039062 112.835938 25.878906 C 113.070312 25.722656 113.320312 25.589844 113.585938 25.480469 C 113.847656 25.371094 114.117188 25.289062 114.398438 25.234375 C 114.675781 25.179688 114.957031 25.148438 115.242188 25.148438 C 115.527344 25.148438 115.808594 25.179688 116.089844 25.234375 C 116.367188 25.289062 116.640625 25.371094 116.902344 25.480469 C 117.164062 25.589844 117.414062 25.722656 117.652344 25.878906 C 117.886719 26.039062 118.109375 26.21875 118.308594 26.417969 C 118.511719 26.621094 118.691406 26.839844 118.847656 27.078125 C 119.007812 27.3125 119.140625 27.5625 119.25 27.824219 C 119.355469 28.089844 119.441406 28.359375 119.496094 28.640625 C 119.550781 28.917969 119.578125 29.199219 119.578125 29.484375 Z M 119.578125 29.484375 " fill-opacity="1" fill-rule="nonzero"/><path fill="#d0fff0" d="M 117.46875 27.523438 C 117.46875 27.738281 117.394531 27.921875 117.242188 28.074219 C 117.089844 28.226562 116.90625 28.300781 116.691406 28.300781 C 116.476562 28.300781 116.292969 28.226562 116.144531 28.074219 C 115.992188 27.921875 115.914062 27.738281 115.914062 27.523438 C 115.914062 27.308594 115.992188 27.125 116.144531 26.976562 C 116.292969 26.824219 116.476562 26.746094 116.691406 26.746094 C 116.90625 26.746094 117.089844 26.824219 117.242188 26.976562 C 117.394531 27.125 117.46875 27.308594 117.46875 27.523438 Z M 117.46875 27.523438 " fill-opacity="1" fill-rule="nonzero"/><path fill="#0cc0df" d="M 29.777344 68.527344 C 29.777344 68.527344 29.257812 79.328125 27.050781 82.582031 C 26.242188 83.777344 25.433594 84.898438 24.640625 85.980469 C 24.242188 86.523438 23.847656 87.054688 23.449219 87.578125 C 22.667969 88.289062 21.847656 89.039062 21.015625 89.832031 C 20.234375 90.460938 19.453125 91.109375 18.667969 91.789062 C 10.765625 97.828125 1.824219 107.101562 5.335938 117.796875 C 6.222656 121.089844 10.375 121.84375 13.4375 122.390625 C 14.445312 122.417969 15.472656 122.367188 16.5 122.257812 C 18.554688 122.03125 20.574219 121.558594 22.308594 120.941406 C 23.402344 120.738281 24.453125 120.511719 25.464844 120.253906 C 29.519531 119.203125 32.992188 117.472656 32.992188 117.472656 C 32.992188 117.472656 36.707031 93.738281 35.988281 88.707031 C 35.269531 83.679688 33.535156 80.722656 36.894531 73.757812 C 40.253906 66.796875 29.777344 68.527344 29.777344 68.527344 Z M 29.777344 68.527344 " fill-opacity="1" fill-rule="nonzero"/><path fill="#0cc0df" d="M 31.382812 76.027344 C 27.546875 67.203125 29.71875 50.566406 46.660156 48.546875 C 52.273438 47.882812 55.445312 51.023438 55.445312 51.023438 C 68.519531 51.929688 66.847656 71.472656 64.234375 75.441406 C 61.300781 79.882812 58.855469 84.121094 58.855469 84.121094 C 58.855469 84.121094 34.234375 82.59375 31.382812 76.027344 Z M 31.382812 76.027344 " fill-opacity="1" fill-rule="nonzero"/><path fill="#ffbbb9" d="M 51.816406 117.765625 L 51.933594 134.65625 L 51.921875 154.640625 L 26.414062 107.226562 L 26.34375 104.1875 C 26.34375 104.1875 31.453125 98.96875 32.542969 92.53125 C 32.59375 92.15625 32.648438 91.753906 32.699219 91.378906 C 32.890625 89.28125 33.078125 87.324219 33.25 85.585938 C 33.65625 81.507812 33.945312 78.734375 33.945312 78.734375 L 52.964844 81.042969 L 49.226562 97.554688 L 51.1875 109.511719 Z M 51.816406 117.765625 " fill-opacity="1" fill-rule="nonzero"/><path fill="#5479f7" d="M 31.332031 111.761719 C 31.332031 111.761719 43.496094 112.949219 52.785156 108.835938 C 62.078125 104.722656 54.511719 147.480469 54.511719 147.480469 L 39.65625 143.496094 Z M 31.332031 111.761719 " fill-opacity="1" fill-rule="nonzero"/><path fill="#ffbbb9" d="M 34.632812 86.160156 C 38.460938 94.167969 46.75 99.625 51.078125 100.28125 C 55.015625 100.894531 60.21875 91.902344 61.816406 88.191406 C 65.914062 78.640625 64.292969 68.421875 64.292969 68.421875 C 64.292969 68.421875 63.957031 67.503906 62.988281 65.773438 C 62.019531 64.039062 56.316406 59.542969 56.316406 59.542969 L 33.695312 61.882812 C 33.695312 61.882812 32.671875 82.050781 34.632812 86.160156 Z M 34.632812 86.160156 " fill-opacity="1" fill-rule="nonzero"/><path fill="#0cc0df" d="M 56.21875 52.222656 C 55.035156 51.75 53.699219 51.375 52.203125 51.121094 C 27.640625 46.988281 31.300781 73.417969 31.300781 73.417969 C 31.789062 72.410156 33.265625 73.433594 33.265625 73.433594 C 33.265625 73.433594 34.417969 73.621094 34.644531 75.21875 C 34.902344 77.058594 35.683594 82.347656 36.183594 82.335938 C 36.6875 82.324219 37.980469 72.785156 43.8125 69.105469 C 43.835938 69.089844 43.851562 69.078125 43.878906 69.0625 C 51.34375 67.667969 58.292969 63.582031 58.292969 63.582031 C 58.292969 63.582031 63.003906 63.421875 64.632812 73.847656 C 64.628906 73.847656 68.902344 57.308594 56.21875 52.222656 Z M 56.21875 52.222656 " fill-opacity="1" fill-rule="nonzero"/><path fill="#0cc0df" d="M 48.78125 99.753906 C 48.765625 99.753906 48.753906 99.753906 48.738281 99.742188 C 45.808594 98.589844 41.394531 95.78125 37.808594 91.359375 C 37.765625 91.304688 37.777344 91.230469 37.828125 91.1875 C 37.875 91.144531 37.957031 91.152344 37.996094 91.203125 C 41.554688 95.589844 45.921875 98.375 48.828125 99.515625 C 48.886719 99.539062 48.921875 99.609375 48.890625 99.675781 C 48.875 99.71875 48.828125 99.753906 48.78125 99.753906 Z M 48.78125 99.753906 " fill-opacity="1" fill-rule="nonzero"/><path fill="#0cc0df" d="M 60.425781 79.574219 C 60.574219 79.59375 60.707031 79.648438 60.832031 79.738281 C 60.957031 79.824219 61.0625 79.941406 61.144531 80.078125 C 61.230469 80.21875 61.289062 80.375 61.320312 80.546875 C 61.351562 80.71875 61.355469 80.894531 61.328125 81.070312 C 61.300781 81.25 61.246094 81.414062 61.167969 81.570312 C 61.085938 81.726562 60.984375 81.859375 60.863281 81.96875 C 60.742188 82.078125 60.609375 82.15625 60.464844 82.203125 C 60.320312 82.25 60.171875 82.265625 60.027344 82.242188 C 59.882812 82.21875 59.746094 82.164062 59.621094 82.078125 C 59.496094 81.988281 59.390625 81.875 59.308594 81.734375 C 59.222656 81.59375 59.164062 81.4375 59.132812 81.265625 C 59.101562 81.09375 59.101562 80.917969 59.125 80.742188 C 59.152344 80.566406 59.207031 80.398438 59.285156 80.246094 C 59.367188 80.089844 59.46875 79.957031 59.589844 79.847656 C 59.710938 79.738281 59.84375 79.660156 59.988281 79.613281 C 60.136719 79.5625 60.28125 79.550781 60.425781 79.574219 Z M 60.425781 79.574219 " fill-opacity="1" fill-rule="nonzero"/><path fill="#0cc0df" d="M 59.949219 79.609375 C 59.949219 79.609375 61.601562 79.015625 62.964844 80.308594 C 62.964844 80.308594 61.507812 79.910156 60.574219 80.199219 Z M 59.949219 79.609375 " fill-opacity="1" fill-rule="nonzero"/><path fill="#0cc0df" d="M 50.515625 78.046875 C 50.664062 78.070312 50.796875 78.125 50.921875 78.210938 C 51.046875 78.300781 51.152344 78.414062 51.238281 78.554688 C 51.320312 78.695312 51.378906 78.851562 51.410156 79.023438 C 51.441406 79.195312 51.445312 79.371094 51.417969 79.546875 C 51.390625 79.722656 51.339844 79.890625 51.257812 80.042969 C 51.175781 80.199219 51.078125 80.332031 50.953125 80.441406 C 50.832031 80.550781 50.699219 80.628906 50.554688 80.675781 C 50.410156 80.726562 50.265625 80.738281 50.117188 80.714844 C 49.972656 80.695312 49.835938 80.640625 49.710938 80.550781 C 49.585938 80.464844 49.484375 80.351562 49.398438 80.210938 C 49.3125 80.070312 49.257812 79.914062 49.226562 79.742188 C 49.191406 79.570312 49.191406 79.394531 49.21875 79.21875 C 49.242188 79.039062 49.296875 78.875 49.378906 78.71875 C 49.457031 78.5625 49.558594 78.429688 49.679688 78.320312 C 49.800781 78.210938 49.9375 78.132812 50.082031 78.085938 C 50.226562 78.039062 50.371094 78.023438 50.515625 78.046875 Z M 50.515625 78.046875 " fill-opacity="1" fill-rule="nonzero"/><path fill="#0cc0df" d="M 50.964844 78.222656 C 50.964844 78.222656 49.558594 77.167969 47.875 78.007812 C 47.875 78.007812 49.382812 78.054688 50.191406 78.601562 Z M 50.964844 78.222656 " fill-opacity="1" fill-rule="nonzero"/><path fill="#0cc0df" d="M 58.507812 77.097656 C 58.507812 77.097656 61.445312 75.804688 64.019531 78.117188 Z M 58.507812 77.097656 " fill-opacity="1" fill-rule="nonzero"/><path fill="#0cc0df" d="M 47.554688 75.410156 C 47.554688 75.410156 50.488281 74.117188 53.0625 76.429688 Z M 47.554688 75.410156 " fill-opacity="1" fill-rule="nonzero"/><path fill="#d0fff0" d="M 49.011719 91.445312 C 49.011719 91.445312 49.867188 93.726562 51.691406 93.996094 C 53.515625 94.265625 54.835938 92.316406 54.835938 92.316406 Z M 49.011719 91.445312 " fill-opacity="1" fill-rule="nonzero"/><path fill="#0cc0df" d="M 53.371094 88.035156 C 53.316406 88.035156 53.253906 88.027344 53.199219 88.015625 L 52.925781 87.960938 C 52.832031 87.941406 52.769531 87.847656 52.785156 87.761719 C 52.804688 87.667969 52.898438 87.605469 52.984375 87.625 L 53.261719 87.679688 C 53.484375 87.722656 53.71875 87.660156 53.894531 87.511719 C 54.070312 87.363281 54.167969 87.148438 54.164062 86.917969 L 54.140625 85.574219 C 54.140625 85.480469 54.214844 85.402344 54.3125 85.398438 C 54.40625 85.398438 54.484375 85.46875 54.488281 85.570312 L 54.511719 86.914062 C 54.515625 87.25 54.375 87.5625 54.113281 87.773438 C 53.90625 87.960938 53.640625 88.046875 53.371094 88.035156 Z M 53.371094 88.035156 " fill-opacity="1" fill-rule="nonzero"/><path fill="#ffbbb9" d="M 35.417969 75.847656 C 35.417969 75.847656 34.191406 72.011719 31.507812 73.617188 C 28.175781 75.609375 31.613281 84.054688 35.089844 84.253906 Z M 35.417969 75.847656 " fill-opacity="1" fill-rule="nonzero"/><path fill="#0cc0df" d="M 33.816406 76.402344 C 33.816406 76.402344 31.277344 74.523438 31.332031 76.75 C 31.386719 78.976562 34.082031 81.503906 34.082031 81.503906 Z M 33.816406 76.402344 " fill-opacity="1" fill-rule="nonzero"/><path fill="#0cc0df" d="M 109.535156 149.539062 C 109.535156 149.539062 112.320312 148.625 108.921875 140.742188 C 105.523438 132.863281 100.089844 145.144531 100.089844 145.144531 L 102.894531 149.964844 Z M 109.535156 149.539062 " fill-opacity="1" fill-rule="nonzero"/><path fill="#ffbbb9" d="M 105.523438 132.855469 L 110.332031 131.523438 L 116.136719 139.488281 C 116.21875 139.632812 101.703125 149.960938 101.703125 149.960938 Z M 105.523438 132.855469 " fill-opacity="1" fill-rule="nonzero"/><path fill="#d0fff0" d="M 68.269531 103.691406 C 74.617188 105.058594 84.25 135.625 85.636719 136.316406 C 87.023438 137.003906 105.523438 132.855469 105.523438 132.855469 C 105.523438 132.855469 102.449219 144.691406 109.535156 149.539062 C 109.535156 149.539062 80.742188 160.136719 74.339844 159.613281 C 67.941406 159.089844 62.503906 137.832031 62.503906 137.832031 C 62.503906 137.832031 61.03125 102.136719 68.269531 103.691406 Z M 68.269531 103.691406 " fill-opacity="1" fill-rule="nonzero"/><path fill="#0cc0df" d="M 78.757812 147.523438 L 78.460938 147.441406 C 79.914062 142.253906 85.464844 136.269531 85.527344 136.210938 L 85.753906 136.425781 C 85.691406 136.480469 80.191406 142.414062 78.757812 147.523438 Z M 78.757812 147.523438 " fill-opacity="1" fill-rule="nonzero"/><path fill="#d0fff0" d="M 67.152344 170.988281 C 67.324219 176.292969 67.703125 180.871094 68.160156 184.617188 L 10.203125 184.617188 C 11.582031 172.574219 14.113281 153.703125 13.75 142.511719 C 13.253906 128.644531 4.546875 113.484375 4.546875 113.484375 C 7.058594 110.367188 15.082031 107.101562 20.824219 105.089844 L 20.839844 105.074219 C 24.355469 103.824219 27.019531 103.046875 27.019531 103.046875 C 27.019531 103.046875 36.945312 115.113281 39.667969 119.554688 C 43.167969 125.335938 51.238281 144.03125 51.238281 144.03125 L 49.921875 101.320312 C 56.164062 100.996094 68.257812 103.691406 68.257812 103.691406 C 68.257812 103.691406 69.277344 112.722656 69.933594 120.136719 C 70.574219 127.570312 67.988281 138.53125 67.238281 146.484375 C 66.484375 154.4375 66.738281 158.550781 67.152344 170.988281 Z M 67.152344 170.988281 " fill-opacity="1" fill-rule="nonzero"/><path fill="#0cc0df" d="M 51.960938 184.246094 C 51.894531 184.246094 51.839844 184.199219 51.839844 184.132812 C 51.542969 176.84375 51.652344 170.019531 51.71875 165.503906 C 51.738281 163.957031 51.761719 162.609375 51.761719 161.585938 C 51.761719 155.933594 51.210938 145.816406 51.210938 145.71875 C 51.207031 145.652344 51.261719 145.589844 51.328125 145.589844 C 51.394531 145.597656 51.453125 145.640625 51.453125 145.707031 C 51.460938 145.804688 52.003906 155.933594 52.003906 161.585938 C 52.003906 162.617188 51.984375 163.957031 51.960938 165.503906 C 51.890625 170.015625 51.785156 176.832031 52.082031 184.121094 C 52.085938 184.1875 52.03125 184.242188 51.960938 184.246094 C 51.964844 184.246094 51.960938 184.246094 51.960938 184.246094 Z M 51.960938 184.246094 " fill-opacity="1" fill-rule="nonzero"/><g mask="url(#e59796781f)"><g transform="matrix(1, 0, 0, 1, 20, 102)"><g clip-path="url(#8d84a6a9d3)"><g clip-path="url(#1b6c959785)"><path fill="#0cc0df" d="M 16.332031 28.542969 L 17.5625 24.058594 L 13.359375 24.058594 C 10.964844 20.726562 0.824219 3.085938 0.824219 3.085938 L 0.839844 3.066406 C 4.371094 1.824219 7.023438 1.039062 7.023438 1.039062 C 7.023438 1.039062 16.945312 13.121094 19.660156 17.554688 C 23.175781 23.335938 31.246094 42.03125 31.246094 42.03125 Z M 16.332031 28.542969 " fill-opacity="1" fill-rule="nonzero"/></g></g></g></g><path fill="#0cc0df" d="M 45.53125 173.175781 C 45.53125 173.175781 48.898438 172.542969 47.492188 165.53125 C 46.089844 158.519531 33.46875 168.476562 33.46875 168.476562 Z M 45.53125 173.175781 " fill-opacity="1" fill-rule="nonzero"/><path fill="#ffbbb9" d="M 49.972656 156.207031 L 38.304688 158.375 L 36.417969 172.125 L 51.882812 167.304688 Z M 49.972656 156.207031 " fill-opacity="1" fill-rule="nonzero"/><path fill="#ffbbb9" d="M 65.175781 165.917969 C 64.09375 165.152344 62.410156 165.910156 57.808594 166.394531 C 55.039062 166.6875 53.078125 167.617188 51.882812 167.308594 C 51.882812 167.308594 49.890625 165.449219 48.976562 160.996094 C 48.554688 158.953125 49.972656 156.210938 49.972656 156.210938 C 51.761719 155.8125 55.390625 153.453125 57.585938 152.527344 C 60.332031 151.371094 63.382812 149.308594 65.625 150.175781 C 69.425781 151.632812 73.914062 154.09375 73.28125 155.511719 C 72.636719 156.925781 68.160156 155.328125 68.160156 155.328125 C 68.160156 155.328125 70.441406 156.699219 70.082031 158.25 C 69.722656 159.792969 67.652344 160.222656 67.652344 160.222656 C 68.695312 161.878906 66.640625 163.304688 66.640625 163.304688 C 67.511719 164.796875 66.027344 166.523438 65.175781 165.917969 Z M 65.175781 165.917969 " fill-opacity="1" fill-rule="nonzero"/><path fill="#0cc0df" d="M 66.644531 163.421875 C 66.617188 163.421875 66.585938 163.410156 66.5625 163.386719 C 66.546875 163.371094 64.953125 161.960938 62.460938 161.703125 C 62.394531 161.695312 62.34375 161.636719 62.347656 161.570312 C 62.355469 161.503906 62.410156 161.449219 62.480469 161.460938 C 65.058594 161.722656 66.65625 163.144531 66.722656 163.207031 C 66.773438 163.25 66.777344 163.328125 66.734375 163.375 C 66.710938 163.410156 66.679688 163.421875 66.644531 163.421875 Z M 66.644531 163.421875 " fill-opacity="1" fill-rule="nonzero"/><path fill="#0cc0df" d="M 67.652344 160.335938 C 67.621094 160.335938 67.59375 160.324219 67.570312 160.304688 C 67.546875 160.285156 65.542969 158.382812 63.1875 157.902344 C 63.121094 157.886719 63.074219 157.824219 63.09375 157.757812 C 63.101562 157.691406 63.167969 157.648438 63.234375 157.664062 C 65.664062 158.160156 67.660156 160.050781 67.742188 160.132812 C 67.789062 160.175781 67.789062 160.253906 67.746094 160.304688 C 67.71875 160.324219 67.6875 160.335938 67.652344 160.335938 Z M 67.652344 160.335938 " fill-opacity="1" fill-rule="nonzero"/><path fill="#0cc0df" d="M 68.160156 155.445312 C 68.136719 155.445312 68.117188 155.441406 68.09375 155.429688 C 68.070312 155.417969 66.023438 154.167969 63.523438 154.078125 C 63.457031 154.078125 63.402344 154.019531 63.40625 153.953125 C 63.40625 153.886719 63.472656 153.832031 63.53125 153.835938 C 66.09375 153.925781 68.199219 155.207031 68.21875 155.21875 C 68.277344 155.253906 68.296875 155.328125 68.257812 155.382812 C 68.238281 155.421875 68.199219 155.445312 68.160156 155.445312 Z M 68.160156 155.445312 " fill-opacity="1" fill-rule="nonzero"/><g clip-path="url(#97a468f96c)"><path fill="#d0fff0" d="M 4.546875 113.472656 C 4.546875 113.472656 0.515625 120.089844 0.675781 140.082031 C 0.832031 160.082031 1.644531 178.308594 8.738281 178.789062 C 15.832031 179.273438 45.527344 173.171875 45.527344 173.171875 C 45.527344 173.171875 34.632812 165.1875 44.144531 157.285156 L 19.164062 160.78125 C 19.164062 160.78125 18.519531 143.46875 17.230469 134.007812 C 15.941406 124.542969 4.546875 113.472656 4.546875 113.472656 Z M 4.546875 113.472656 " fill-opacity="1" fill-rule="nonzero"/></g><path fill="#0cc0df" d="M 9.636719 178.941406 C 9.304688 178.941406 9.003906 178.933594 8.738281 178.914062 C 8.671875 178.910156 8.621094 178.855469 8.621094 178.78125 C 8.621094 178.710938 8.695312 178.671875 8.753906 178.667969 C 15.75 179.148438 45.214844 173.109375 45.511719 173.050781 C 45.578125 173.03125 45.644531 173.078125 45.652344 173.144531 C 45.664062 173.207031 45.625 173.273438 45.558594 173.285156 C 45.269531 173.351562 17.976562 178.941406 9.636719 178.941406 Z M 9.636719 178.941406 " fill-opacity="1" fill-rule="nonzero"/><path fill="#0cc0df" d="M 19.054688 160.925781 L 19.050781 160.789062 C 19.042969 160.617188 18.386719 143.375 17.117188 134.03125 C 17.105469 133.964844 17.15625 133.902344 17.21875 133.890625 C 17.292969 133.878906 17.347656 133.929688 17.359375 133.996094 C 18.574219 142.914062 19.226562 159.003906 19.292969 160.644531 L 44.140625 157.167969 C 44.214844 157.160156 44.265625 157.207031 44.277344 157.273438 C 44.289062 157.339844 44.238281 157.402344 44.171875 157.410156 Z M 19.054688 160.925781 " fill-opacity="1" fill-rule="nonzero"/><path fill="#0cc0df" d="M 67.234375 146.609375 C 67.230469 146.609375 67.230469 146.609375 67.222656 146.609375 C 67.15625 146.605469 67.109375 146.542969 67.113281 146.476562 C 67.367188 143.789062 67.824219 140.800781 68.308594 137.632812 C 69.25 131.445312 70.230469 125.058594 69.800781 120.15625 C 69.167969 112.84375 68.097656 110.050781 68.089844 110.023438 C 68.066406 109.964844 68.09375 109.894531 68.160156 109.867188 C 68.21875 109.84375 68.292969 109.871094 68.320312 109.9375 C 68.332031 109.964844 69.410156 112.777344 70.050781 120.132812 C 70.480469 125.0625 69.5 131.46875 68.550781 137.664062 C 68.066406 140.828125 67.613281 143.8125 67.355469 146.496094 C 67.351562 146.5625 67.296875 146.609375 67.234375 146.609375 Z M 67.234375 146.609375 " fill-opacity="1" fill-rule="nonzero"/><path fill="#ffbbb9" d="M 108.578125 131.898438 C 108.578125 131.898438 111.71875 130.773438 114.378906 129.78125 C 117.035156 128.792969 119.707031 127.9375 122.09375 128.585938 C 124.484375 129.242188 128.863281 130.816406 129.714844 132.648438 C 130.5625 134.476562 130.554688 137.707031 129.960938 138.484375 C 129.371094 139.269531 128.707031 138.941406 128.707031 138.941406 C 128.707031 138.941406 129.015625 140.429688 128.640625 141.195312 C 128.265625 141.960938 127.585938 141.8125 127.585938 141.8125 C 127.585938 141.8125 127.890625 143.570312 127.269531 144.066406 C 126.644531 144.5625 125.554688 144.085938 125.339844 143.003906 C 125.125 141.917969 123.363281 138.964844 122.039062 138.792969 C 120.71875 138.625 117.171875 140.726562 114.121094 142.050781 C 112.3125 142.832031 111.039062 143.339844 111.039062 143.339844 C 111.039062 143.339844 107.398438 140.183594 107.191406 138.550781 C 106.597656 133.886719 108.578125 131.898438 108.578125 131.898438 Z M 108.578125 131.898438 " fill-opacity="1" fill-rule="nonzero"/><path fill="#0cc0df" d="M 128.585938 138.980469 C 128.574219 138.949219 127.621094 135.515625 127.070312 134.851562 C 126.523438 134.195312 123.757812 133.285156 123.730469 133.273438 L 123.804688 133.050781 C 123.917969 133.085938 126.660156 133.992188 127.25 134.695312 C 127.835938 135.402344 128.773438 138.773438 128.816406 138.914062 Z M 128.585938 138.980469 " fill-opacity="1" fill-rule="nonzero"/><path fill="#0cc0df" d="M 127.464844 141.855469 C 127.453125 141.816406 126.386719 138.226562 124.148438 137.121094 L 124.253906 136.910156 C 126.585938 138.0625 127.648438 141.640625 127.691406 141.789062 Z M 127.464844 141.855469 " fill-opacity="1" fill-rule="nonzero"/><path fill="#ffbbb9" d="M 111.917969 137.726562 L 116.554688 131.925781 L 117.632812 131.671875 C 117.578125 131.683594 117.511719 131.695312 117.457031 131.707031 C 116.878906 131.828125 116.550781 131.921875 116.550781 131.921875 C 116.550781 131.921875 116.863281 131.792969 117.429688 131.605469 C 118.003906 131.441406 118.824219 131.1875 119.855469 131.089844 C 120.367188 131.042969 120.9375 131.027344 121.542969 131.148438 C 122.15625 131.277344 122.746094 131.640625 123.199219 132.144531 C 123.621094 132.65625 124.019531 133.3125 123.90625 134.128906 C 123.859375 134.542969 123.460938 134.925781 123.054688 134.988281 C 122.636719 135.070312 122.300781 134.992188 121.992188 135.011719 C 120.6875 135 119.453125 135.566406 118.410156 136.253906 C 117.875 136.597656 117.425781 136.964844 116.902344 137.308594 C 116.378906 137.625 115.820312 137.792969 115.308594 137.890625 C 114.484375 138.046875 113.773438 138.007812 113.214844 137.945312 L 113.210938 137.945312 L 113.195312 137.941406 C 113.066406 137.929688 112.941406 137.914062 112.832031 137.902344 C 112.242188 137.824219 111.917969 137.726562 111.917969 137.726562 Z M 111.917969 137.726562 " fill-opacity="1" fill-rule="nonzero"/><path fill="#0cc0df" d="M 114.121094 138.121094 C 113.777344 138.121094 113.46875 138.101562 113.207031 138.074219 L 113.1875 138.074219 L 113.171875 138.066406 C 113.050781 138.054688 112.925781 138.039062 112.8125 138.027344 L 112.84375 137.792969 C 112.953125 137.800781 113.078125 137.820312 113.207031 137.832031 C 113.757812 137.886719 114.46875 137.929688 115.292969 137.78125 C 115.898438 137.664062 116.40625 137.476562 116.839844 137.214844 C 117.082031 137.054688 117.320312 136.882812 117.546875 136.71875 C 117.800781 136.535156 118.0625 136.34375 118.34375 136.160156 C 119.628906 135.3125 120.808594 134.894531 121.941406 134.894531 C 121.957031 134.894531 121.972656 134.894531 121.984375 134.894531 C 122.089844 134.890625 122.210938 134.894531 122.332031 134.898438 C 122.546875 134.910156 122.769531 134.921875 123.027344 134.871094 C 123.394531 134.816406 123.738281 134.46875 123.785156 134.117188 C 123.898438 133.308594 123.476562 132.679688 123.105469 132.222656 C 122.664062 131.726562 122.09375 131.386719 121.515625 131.265625 C 120.90625 131.136719 120.339844 131.164062 119.863281 131.203125 C 118.882812 131.304688 118.101562 131.527344 117.53125 131.699219 L 117.464844 131.722656 C 116.914062 131.902344 116.597656 132.03125 116.59375 132.03125 L 116.503906 131.808594 C 116.515625 131.804688 116.828125 131.675781 117.398438 131.496094 L 117.46875 131.472656 C 118.046875 131.304688 118.847656 131.066406 119.847656 130.96875 C 120.339844 130.921875 120.929688 130.902344 121.574219 131.03125 C 122.199219 131.160156 122.8125 131.527344 123.289062 132.070312 C 123.671875 132.527344 124.15625 133.238281 124.027344 134.144531 C 123.972656 134.601562 123.542969 135.039062 123.074219 135.105469 C 122.796875 135.160156 122.546875 135.148438 122.328125 135.136719 C 122.210938 135.132812 122.101562 135.125 121.996094 135.132812 C 121.980469 135.132812 121.96875 135.132812 121.953125 135.132812 C 120.855469 135.132812 119.722656 135.535156 118.476562 136.359375 C 118.195312 136.535156 117.9375 136.722656 117.6875 136.90625 C 117.457031 137.070312 117.222656 137.246094 116.96875 137.40625 C 116.503906 137.6875 115.96875 137.886719 115.335938 138.007812 C 114.898438 138.09375 114.488281 138.121094 114.121094 138.121094 Z M 114.121094 138.121094 " fill-opacity="1" fill-rule="nonzero"/><g mask="url(#4fedb7eff7)"><g transform="matrix(1, 0, 0, 1, 49, 100)"><g clip-path="url(#40c023ac1e)"><g clip-path="url(#707aff9875)"><path fill="#0cc0df" d="M 0.929688 1.320312 L 2.25 44.027344 L 7.699219 24.253906 L 5.890625 21.867188 L 7.699219 19.339844 C 7.699219 19.339844 8.417969 11.980469 8.417969 9.519531 C 8.417969 5.113281 7.046875 1.621094 7.046875 1.621094 C 7.046875 1.621094 1.816406 0.855469 0.929688 1.320312 Z M 0.929688 1.320312 " fill-opacity="1" fill-rule="nonzero"/></g></g></g></g><path fill="#0cc0df" d="M 27.488281 146.609375 L 27.285156 144.203125 L 27.378906 144.199219 L 39.617188 143.144531 L 39.820312 145.550781 L 39.726562 145.558594 Z M 27.488281 144.378906 L 27.664062 146.402344 L 39.617188 145.375 L 39.441406 143.355469 Z M 27.488281 144.378906 " fill-opacity="1" fill-rule="nonzero"/><path fill="#0cc0df" d="M 186.359375 74.738281 L 187.285156 79.167969 L 189.902344 99.460938 L 187.148438 98.171875 Z M 186.359375 74.738281 " fill-opacity="1" fill-rule="nonzero"/><path fill="#0cc0df" d="M 217.082031 54.328125 C 217.082031 54.328125 226.117188 60.632812 226.027344 76.054688 C 225.980469 85.066406 223.8125 86.742188 231.621094 90.082031 C 239.425781 93.417969 253.898438 101.574219 246.617188 118.398438 C 239.335938 135.21875 208.667969 114.410156 208.667969 114.410156 L 202.453125 79.988281 L 205.152344 60.792969 Z M 217.082031 54.328125 " fill-opacity="1" fill-rule="nonzero"/><path fill="#0cc0df" d="M 236.273438 91.320312 C 236.273438 91.957031 236.210938 92.589844 236.085938 93.21875 C 235.960938 93.84375 235.777344 94.453125 235.535156 95.042969 C 235.289062 95.632812 234.988281 96.191406 234.632812 96.722656 C 234.28125 97.253906 233.875 97.746094 233.425781 98.199219 C 232.972656 98.648438 232.480469 99.050781 231.949219 99.40625 C 231.417969 99.761719 230.859375 100.0625 230.269531 100.304688 C 229.679688 100.550781 229.070312 100.734375 228.445312 100.859375 C 227.816406 100.984375 227.183594 101.046875 226.546875 101.046875 C 225.90625 101.046875 225.273438 100.984375 224.648438 100.859375 C 224.023438 100.734375 223.414062 100.550781 222.824219 100.304688 C 222.234375 100.0625 221.671875 99.761719 221.140625 99.40625 C 220.609375 99.050781 220.121094 98.648438 219.667969 98.199219 C 219.214844 97.746094 218.8125 97.253906 218.457031 96.722656 C 218.105469 96.191406 217.804688 95.632812 217.558594 95.042969 C 217.316406 94.453125 217.128906 93.84375 217.007812 93.21875 C 216.882812 92.589844 216.820312 91.957031 216.820312 91.320312 C 216.820312 90.679688 216.882812 90.046875 217.007812 89.421875 C 217.128906 88.796875 217.316406 88.1875 217.558594 87.597656 C 217.804688 87.007812 218.105469 86.445312 218.457031 85.914062 C 218.8125 85.382812 219.214844 84.894531 219.667969 84.441406 C 220.121094 83.988281 220.609375 83.585938 221.140625 83.230469 C 221.671875 82.875 222.234375 82.578125 222.824219 82.332031 C 223.414062 82.089844 224.023438 81.902344 224.648438 81.777344 C 225.273438 81.65625 225.90625 81.59375 226.546875 81.59375 C 227.183594 81.59375 227.816406 81.65625 228.445312 81.777344 C 229.070312 81.902344 229.679688 82.089844 230.269531 82.332031 C 230.859375 82.578125 231.417969 82.875 231.949219 83.230469 C 232.480469 83.585938 232.972656 83.988281 233.425781 84.441406 C 233.875 84.894531 234.28125 85.382812 234.632812 85.914062 C 234.988281 86.445312 235.289062 87.007812 235.535156 87.597656 C 235.777344 88.1875 235.960938 88.796875 236.085938 89.421875 C 236.210938 90.046875 236.273438 90.679688 236.273438 91.320312 Z M 236.273438 91.320312 " fill-opacity="1" fill-rule="nonzero"/><path fill="#0cc0df" d="M 202.710938 84.5625 C 202.710938 85.199219 202.652344 85.832031 202.527344 86.457031 C 202.402344 87.085938 202.214844 87.691406 201.972656 88.285156 C 201.726562 88.875 201.429688 89.433594 201.074219 89.964844 C 200.71875 90.496094 200.316406 90.988281 199.863281 91.4375 C 199.410156 91.890625 198.921875 92.292969 198.390625 92.648438 C 197.859375 93.003906 197.296875 93.304688 196.707031 93.546875 C 196.117188 93.792969 195.507812 93.976562 194.882812 94.101562 C 194.257812 94.226562 193.625 94.289062 192.984375 94.289062 C 192.347656 94.289062 191.714844 94.226562 191.085938 94.101562 C 190.460938 93.976562 189.851562 93.792969 189.261719 93.546875 C 188.671875 93.304688 188.113281 93.003906 187.582031 92.648438 C 187.050781 92.292969 186.558594 91.890625 186.105469 91.4375 C 185.65625 90.988281 185.253906 90.496094 184.898438 89.964844 C 184.542969 89.433594 184.242188 88.875 184 88.285156 C 183.753906 87.691406 183.570312 87.085938 183.445312 86.457031 C 183.320312 85.832031 183.257812 85.199219 183.257812 84.5625 C 183.257812 83.921875 183.320312 83.289062 183.445312 82.664062 C 183.570312 82.035156 183.753906 81.429688 184 80.839844 C 184.242188 80.25 184.542969 79.6875 184.898438 79.15625 C 185.253906 78.625 185.65625 78.132812 186.105469 77.683594 C 186.558594 77.230469 187.050781 76.828125 187.582031 76.472656 C 188.113281 76.117188 188.671875 75.820312 189.261719 75.574219 C 189.851562 75.328125 190.460938 75.144531 191.085938 75.019531 C 191.714844 74.894531 192.347656 74.832031 192.984375 74.832031 C 193.625 74.832031 194.257812 74.894531 194.882812 75.019531 C 195.507812 75.144531 196.117188 75.328125 196.707031 75.574219 C 197.296875 75.820312 197.859375 76.117188 198.390625 76.472656 C 198.921875 76.828125 199.410156 77.230469 199.863281 77.683594 C 200.316406 78.132812 200.71875 78.625 201.074219 79.15625 C 201.429688 79.6875 201.726562 80.25 201.972656 80.839844 C 202.214844 81.429688 202.402344 82.035156 202.527344 82.664062 C 202.652344 83.289062 202.710938 83.921875 202.710938 84.5625 Z M 202.710938 84.5625 " fill-opacity="1" fill-rule="nonzero"/><path fill="#0cc0df" d="M 197.808594 99.769531 C 197.808594 100.40625 197.75 101.039062 197.625 101.667969 C 197.5 102.292969 197.3125 102.902344 197.070312 103.492188 C 196.824219 104.082031 196.527344 104.640625 196.171875 105.171875 C 195.816406 105.703125 195.414062 106.195312 194.960938 106.648438 C 194.511719 107.097656 194.019531 107.503906 193.488281 107.855469 C 192.957031 108.210938 192.394531 108.511719 191.804688 108.753906 C 191.214844 109 190.605469 109.183594 189.980469 109.308594 C 189.355469 109.433594 188.722656 109.496094 188.082031 109.496094 C 187.445312 109.496094 186.8125 109.433594 186.183594 109.308594 C 185.558594 109.183594 184.949219 109 184.359375 108.753906 C 183.769531 108.511719 183.210938 108.210938 182.679688 107.855469 C 182.148438 107.503906 181.65625 107.097656 181.203125 106.648438 C 180.753906 106.195312 180.351562 105.703125 179.996094 105.171875 C 179.640625 104.640625 179.339844 104.082031 179.097656 103.492188 C 178.851562 102.902344 178.667969 102.292969 178.542969 101.667969 C 178.417969 101.039062 178.355469 100.40625 178.355469 99.769531 C 178.355469 99.128906 178.417969 98.496094 178.542969 97.871094 C 178.667969 97.246094 178.851562 96.636719 179.097656 96.046875 C 179.339844 95.457031 179.640625 94.894531 179.996094 94.363281 C 180.351562 93.832031 180.753906 93.34375 181.203125 92.890625 C 181.65625 92.4375 182.148438 92.035156 182.679688 91.679688 C 183.210938 91.324219 183.769531 91.027344 184.359375 90.78125 C 184.949219 90.539062 185.558594 90.351562 186.183594 90.226562 C 186.8125 90.105469 187.445312 90.042969 188.082031 90.042969 C 188.722656 90.042969 189.355469 90.105469 189.980469 90.226562 C 190.605469 90.351562 191.214844 90.539062 191.804688 90.78125 C 192.394531 91.027344 192.957031 91.324219 193.488281 91.679688 C 194.019531 92.035156 194.511719 92.4375 194.960938 92.890625 C 195.414062 93.34375 195.816406 93.832031 196.171875 94.363281 C 196.527344 94.894531 196.824219 95.457031 197.070312 96.046875 C 197.3125 96.636719 197.5 97.246094 197.625 97.871094 C 197.75 98.496094 197.808594 99.128906 197.808594 99.769531 Z M 197.808594 99.769531 " fill-opacity="1" fill-rule="nonzero"/><path fill="#0cc0df" d="M 199.402344 60.453125 C 199.402344 60.902344 199.359375 61.347656 199.269531 61.789062 C 199.183594 62.234375 199.050781 62.660156 198.878906 63.078125 C 198.707031 63.496094 198.496094 63.890625 198.246094 64.265625 C 197.996094 64.640625 197.710938 64.984375 197.390625 65.304688 C 197.074219 65.625 196.726562 65.90625 196.351562 66.160156 C 195.976562 66.410156 195.582031 66.621094 195.164062 66.792969 C 194.75 66.964844 194.320312 67.09375 193.878906 67.183594 C 193.4375 67.269531 192.988281 67.316406 192.539062 67.316406 C 192.089844 67.316406 191.640625 67.269531 191.199219 67.183594 C 190.757812 67.09375 190.328125 66.964844 189.914062 66.792969 C 189.496094 66.621094 189.101562 66.410156 188.726562 66.160156 C 188.351562 65.90625 188.003906 65.625 187.6875 65.304688 C 187.367188 64.984375 187.082031 64.640625 186.832031 64.265625 C 186.582031 63.890625 186.371094 63.496094 186.199219 63.078125 C 186.027344 62.660156 185.894531 62.234375 185.808594 61.789062 C 185.71875 61.347656 185.675781 60.902344 185.675781 60.453125 C 185.675781 60 185.71875 59.554688 185.808594 59.113281 C 185.894531 58.671875 186.027344 58.242188 186.199219 57.824219 C 186.371094 57.410156 186.582031 57.011719 186.832031 56.640625 C 187.082031 56.265625 187.367188 55.917969 187.6875 55.597656 C 188.003906 55.28125 188.351562 54.996094 188.726562 54.746094 C 189.101562 54.496094 189.496094 54.285156 189.914062 54.109375 C 190.328125 53.9375 190.757812 53.808594 191.199219 53.71875 C 191.640625 53.632812 192.089844 53.589844 192.539062 53.589844 C 192.988281 53.589844 193.4375 53.632812 193.878906 53.71875 C 194.320312 53.808594 194.75 53.9375 195.164062 54.109375 C 195.582031 54.285156 195.976562 54.496094 196.351562 54.746094 C 196.726562 54.996094 197.074219 55.28125 197.390625 55.597656 C 197.710938 55.917969 197.996094 56.265625 198.246094 56.640625 C 198.496094 57.011719 198.707031 57.410156 198.878906 57.824219 C 199.050781 58.242188 199.183594 58.671875 199.269531 59.113281 C 199.359375 59.554688 199.402344 60 199.402344 60.453125 Z M 199.402344 60.453125 " fill-opacity="1" fill-rule="nonzero"/><path fill="#0cc0df" d="M 185.796875 70.144531 C 185.972656 65.464844 187.714844 70.085938 183.738281 95.933594 C 182.609375 103.261719 174.472656 108 178.820312 117.316406 C 183.164062 126.636719 205.316406 118.105469 205.71875 117.914062 C 206.121094 117.71875 203.804688 92.070312 203.097656 91.027344 C 202.394531 89.980469 185.796875 70.144531 185.796875 70.144531 Z M 185.796875 70.144531 " fill-opacity="1" fill-rule="nonzero"/><path fill="#ffbbb9" d="M 199.238281 100.164062 C 199.238281 100.164062 200.851562 113.078125 200.585938 115.214844 C 200.320312 117.34375 216.203125 111.027344 219.308594 108.945312 C 222.410156 106.863281 222.777344 103.800781 222.777344 103.800781 C 222.777344 103.800781 214.597656 93.148438 214.347656 87.574219 C 214.105469 82 199.238281 100.164062 199.238281 100.164062 Z M 199.238281 100.164062 " fill-opacity="1" fill-rule="nonzero"/><path fill="#ffbbb9" d="M 201.152344 103.585938 C 208.511719 103.625 213.652344 95.214844 215.46875 87.519531 C 217.289062 79.824219 216.757812 53.058594 200.574219 54.160156 C 184.394531 55.261719 185.316406 72.730469 186.105469 80.578125 C 186.898438 88.433594 191.191406 103.53125 201.152344 103.585938 Z M 201.152344 103.585938 " fill-opacity="1" fill-rule="nonzero"/><path fill="#0cc0df" d="M 201.203125 103.742188 C 201.105469 103.742188 201 103.683594 201 103.585938 C 201 103.503906 201.070312 103.433594 201.152344 103.433594 C 201.164062 103.433594 201.1875 103.433594 201.203125 103.433594 C 204.46875 103.433594 207.90625 101.558594 210.902344 98.148438 C 210.957031 98.082031 211.058594 98.078125 211.125 98.132812 C 211.191406 98.1875 211.195312 98.289062 211.140625 98.351562 C 208.082031 101.828125 204.550781 103.742188 201.203125 103.742188 Z M 201.203125 103.742188 " fill-opacity="1" fill-rule="nonzero"/><path fill="#0cc0df" d="M 192.488281 80.328125 C 192.507812 80.523438 192.496094 80.71875 192.453125 80.90625 C 192.40625 81.09375 192.332031 81.265625 192.230469 81.417969 C 192.128906 81.566406 192.007812 81.6875 191.863281 81.777344 C 191.722656 81.867188 191.570312 81.921875 191.40625 81.9375 C 191.242188 81.953125 191.082031 81.929688 190.925781 81.867188 C 190.765625 81.808594 190.625 81.710938 190.496094 81.582031 C 190.367188 81.453125 190.261719 81.300781 190.183594 81.125 C 190.101562 80.949219 190.050781 80.761719 190.035156 80.5625 C 190.015625 80.367188 190.027344 80.171875 190.070312 79.984375 C 190.117188 79.796875 190.191406 79.625 190.292969 79.476562 C 190.394531 79.324219 190.515625 79.203125 190.660156 79.113281 C 190.800781 79.023438 190.953125 78.96875 191.117188 78.953125 C 191.28125 78.9375 191.441406 78.960938 191.597656 79.023438 C 191.757812 79.082031 191.898438 79.179688 192.027344 79.308594 C 192.15625 79.4375 192.261719 79.589844 192.339844 79.765625 C 192.421875 79.941406 192.46875 80.128906 192.488281 80.328125 Z M 192.488281 80.328125 " fill-opacity="1" fill-rule="nonzero"/><path fill="#0cc0df" d="M 197.828125 89.066406 C 197.402344 89.066406 197 88.886719 196.714844 88.558594 C 196.417969 88.222656 196.296875 87.777344 196.367188 87.335938 L 196.671875 85.578125 C 196.691406 85.449219 196.820312 85.355469 196.953125 85.382812 C 197.082031 85.402344 197.175781 85.53125 197.148438 85.667969 L 196.847656 87.425781 C 196.796875 87.71875 196.878906 88.019531 197.078125 88.242188 C 197.277344 88.460938 197.5625 88.585938 197.859375 88.578125 L 198.230469 88.558594 C 198.363281 88.550781 198.476562 88.660156 198.484375 88.796875 C 198.488281 88.933594 198.382812 89.042969 198.246094 89.050781 L 197.875 89.066406 C 197.867188 89.066406 197.84375 89.066406 197.828125 89.066406 Z M 197.828125 89.066406 " fill-opacity="1" fill-rule="nonzero"/><path fill="#d0fff0" d="M 195.992188 94.308594 C 195.992188 94.308594 200.773438 95.984375 202.023438 93.1875 Z M 195.992188 94.308594 " fill-opacity="1" fill-rule="nonzero"/><path fill="#0cc0df" d="M 201.285156 76.082031 C 201.285156 76.082031 204.730469 74.921875 207.207031 76.855469 Z M 201.285156 76.082031 " fill-opacity="1" fill-rule="nonzero"/><path fill="#0cc0df" d="M 193.292969 76.601562 C 193.292969 76.601562 190.578125 75.609375 187.917969 77.730469 Z M 193.292969 76.601562 " fill-opacity="1" fill-rule="nonzero"/><path fill="#0cc0df" d="M 191.648438 79.023438 C 191.648438 79.023438 189.851562 78.265625 188.257812 79.625 C 188.257812 79.625 189.894531 79.273438 190.917969 79.640625 Z M 191.648438 79.023438 " fill-opacity="1" fill-rule="nonzero"/><path fill="#0cc0df" d="M 204.332031 81.191406 C 204.351562 81.390625 204.339844 81.582031 204.292969 81.769531 C 204.25 81.960938 204.175781 82.128906 204.074219 82.28125 C 203.972656 82.433594 203.851562 82.550781 203.707031 82.640625 C 203.5625 82.734375 203.410156 82.785156 203.246094 82.800781 C 203.085938 82.816406 202.925781 82.792969 202.765625 82.734375 C 202.609375 82.671875 202.464844 82.578125 202.335938 82.449219 C 202.207031 82.320312 202.105469 82.167969 202.023438 81.992188 C 201.945312 81.8125 201.894531 81.625 201.875 81.429688 C 201.855469 81.230469 201.871094 81.039062 201.914062 80.847656 C 201.960938 80.660156 202.03125 80.492188 202.132812 80.339844 C 202.234375 80.1875 202.359375 80.066406 202.5 79.976562 C 202.644531 79.886719 202.796875 79.835938 202.960938 79.820312 C 203.121094 79.804688 203.285156 79.824219 203.441406 79.886719 C 203.597656 79.949219 203.742188 80.042969 203.871094 80.171875 C 204 80.300781 204.105469 80.453125 204.183594 80.628906 C 204.261719 80.804688 204.3125 80.992188 204.332031 81.191406 Z M 204.332031 81.191406 " fill-opacity="1" fill-rule="nonzero"/><path fill="#0cc0df" d="M 202.453125 79.988281 C 202.453125 79.988281 204.074219 78.902344 205.890625 79.933594 C 205.890625 79.933594 204.214844 79.902344 203.285156 80.457031 Z M 202.453125 79.988281 " fill-opacity="1" fill-rule="nonzero"/><path fill="#0cc0df" d="M 213.574219 80.777344 C 212.535156 79.355469 212.40625 74.289062 206.820312 73.570312 C 196.671875 72.265625 195.550781 66.410156 195.550781 66.410156 C 195.550781 66.410156 189.113281 66.4375 185.71875 76.195312 C 185.71875 76.195312 179.132812 54.480469 194.605469 54.234375 C 195.851562 54.210938 200.0625 49.847656 209.179688 50.851562 C 225.726562 52.675781 223.214844 74.441406 217.933594 79.820312 C 217.078125 80.699219 213.574219 80.777344 213.574219 80.777344 Z M 213.574219 80.777344 " fill-opacity="1" fill-rule="nonzero"/><path fill="#ffbbb9" d="M 214.746094 80.726562 C 214.746094 80.726562 219.578125 78.746094 220.140625 82.945312 C 220.703125 87.148438 214.324219 91.28125 214.324219 91.28125 Z M 214.746094 80.726562 " fill-opacity="1" fill-rule="nonzero"/><path fill="#0cc0df" d="M 216.367188 83.023438 C 216.367188 83.023438 219.332031 83.160156 216.554688 86.808594 Z M 216.367188 83.023438 " fill-opacity="1" fill-rule="nonzero"/><path fill="#ffbbb9" d="M 195.402344 118.28125 C 194.96875 124.722656 192.953125 133.148438 203.039062 134.796875 C 213.113281 136.453125 217.574219 131.246094 219.722656 124.804688 C 221.871094 118.359375 233.371094 105.824219 233.371094 105.824219 L 219.097656 101.808594 C 219.097656 101.808594 208.441406 113.792969 200.988281 103.769531 L 194.132812 105.457031 C 194.503906 107.007812 195.785156 112.761719 195.402344 118.28125 Z M 195.402344 118.28125 " fill-opacity="1" fill-rule="nonzero"/><path fill="#ffbbb9" d="M 183.113281 124 L 180.6875 156.09375 L 163.671875 150.691406 L 161.535156 158.964844 C 161.535156 158.964844 192.097656 183.921875 192.230469 175.78125 C 192.363281 167.640625 196.234375 123.730469 196.234375 123.730469 Z M 183.113281 124 " fill-opacity="1" fill-rule="nonzero"/><path fill="#34cb78" d="M 192.636719 105.828125 C 192.636719 105.828125 186.53125 106.625 185.003906 113.605469 C 183.476562 120.585938 183.113281 124 183.113281 124 L 188.859375 125.019531 L 195.113281 114.039062 Z M 192.636719 105.828125 " fill-opacity="1" fill-rule="nonzero"/><path fill="#34cb78" d="M 187.15625 186.984375 C 187.675781 179.890625 191.398438 170.660156 189.507812 164.054688 C 186.019531 151.84375 181.886719 146.40625 183.421875 135.609375 C 184.945312 124.8125 188.65625 121.535156 190.722656 114.0625 C 192.109375 109.105469 192.636719 105.832031 192.636719 105.832031 L 199.695312 104.042969 C 200.078125 105.589844 196.015625 113.324219 206.101562 114.960938 C 216.175781 116.628906 221.890625 102.644531 221.890625 102.644531 L 238.796875 107.355469 C 238.796875 107.355469 234.242188 114.976562 236.125 137.070312 C 238.027344 159.175781 242.585938 172.640625 244.011719 186.992188 L 187.15625 186.992188 Z M 187.15625 186.984375 " fill-opacity="1" fill-rule="nonzero"/><path fill="#0cc0df" d="M 186.148438 124.730469 C 186.121094 124.730469 186.089844 124.726562 186.0625 124.710938 C 185.96875 124.660156 185.929688 124.542969 185.980469 124.449219 C 186.011719 124.386719 189.304688 117.972656 189.945312 115.378906 C 189.972656 115.273438 190.070312 115.207031 190.175781 115.234375 C 190.28125 115.261719 190.339844 115.367188 190.320312 115.46875 C 189.667969 118.105469 186.457031 124.355469 186.320312 124.621094 C 186.289062 124.691406 186.222656 124.730469 186.148438 124.730469 Z M 186.148438 124.730469 " fill-opacity="1" fill-rule="nonzero"/><path fill="#ffbbb9" d="M 245.484375 144.675781 C 243.269531 160.726562 241.230469 172.15625 237.511719 180.738281 C 235.710938 184.878906 226.476562 183.023438 217.054688 175.78125 C 205.289062 166.738281 190.761719 155.925781 190.105469 153.070312 L 193.964844 144.683594 C 195.101562 145.988281 205.175781 150.289062 224.824219 161.078125 L 225.714844 139.679688 C 227.660156 140.722656 235.640625 146.476562 245.484375 144.675781 Z M 245.484375 144.675781 " fill-opacity="1" fill-rule="nonzero"/><path fill="#0cc0df" d="M 231.101562 173.882812 C 229.933594 168.796875 224.910156 162.160156 224.859375 162.09375 L 225.195312 161.839844 C 225.246094 161.90625 230.324219 168.621094 231.507812 173.789062 Z M 231.101562 173.882812 " fill-opacity="1" fill-rule="nonzero"/><path fill="#34cb78" d="M 245.484375 144.671875 C 235.640625 146.472656 225.429688 141.851562 223.484375 140.820312 L 226.574219 120.925781 L 232.757812 111.910156 L 238.800781 107.34375 C 238.800781 107.34375 248.359375 115.460938 246.914062 132.191406 C 246.589844 135.875 246.105469 140.148438 245.484375 144.671875 Z M 245.484375 144.671875 " fill-opacity="1" fill-rule="nonzero"/><path fill="#0cc0df" d="M 225.621094 142.003906 C 225.617188 142.003906 225.609375 142.003906 225.605469 142.003906 C 225.5 141.996094 225.421875 141.902344 225.429688 141.796875 L 226.746094 127.398438 C 226.753906 127.292969 226.855469 127.210938 226.953125 127.222656 C 227.058594 127.234375 227.136719 127.324219 227.128906 127.429688 L 225.8125 141.828125 C 225.804688 141.929688 225.71875 142.003906 225.621094 142.003906 Z M 225.621094 142.003906 " fill-opacity="1" fill-rule="nonzero"/><path fill="#ffbbb9" d="M 190.285156 140.695312 C 190.285156 140.695312 189.359375 138.867188 187.863281 137.847656 C 186.363281 136.828125 181.730469 136.113281 180.894531 136.007812 C 180.058594 135.902344 179.523438 138.539062 179.523438 138.539062 L 188.472656 142.78125 Z M 190.285156 140.695312 " fill-opacity="1" fill-rule="nonzero"/><path fill="#d0fff0" d="M 147.570312 97.363281 L 147.570312 122.832031 C 147.570312 124.21875 146.453125 125.34375 145.058594 125.34375 L 113.777344 125.34375 C 112.390625 125.34375 111.265625 124.226562 111.265625 122.832031 L 111.265625 97.363281 C 111.265625 95.972656 112.386719 94.851562 113.777344 94.851562 L 145.058594 94.851562 C 146.453125 94.851562 147.570312 95.972656 147.570312 97.363281 Z M 147.570312 97.363281 " fill-opacity="1" fill-rule="nonzero"/><g mask="url(#28dd9ce69e)"><g transform="matrix(1, 0, 0, 1, 110, 121)"><g clip-path="url(#cae22ad3a1)"><g clip-path="url(#21fa5fcc14)"><path fill="#0cc0df" d="M 37.570312 1.121094 L 37.570312 1.832031 C 37.570312 3.21875 36.453125 4.34375 35.058594 4.34375 L 3.777344 4.34375 C 2.390625 4.34375 1.265625 3.226562 1.265625 1.832031 L 1.265625 1.121094 Z M 37.570312 1.121094 " fill-opacity="1" fill-rule="nonzero"/></g></g></g></g><path fill="#0cc0df" d="M 116.71875 110.835938 L 141.964844 110.835938 L 141.964844 112.628906 L 116.71875 112.628906 Z M 116.71875 110.835938 " fill-opacity="1" fill-rule="nonzero"/><path fill="#0cc0df" d="M 144.085938 98.992188 C 144.085938 99.132812 144.058594 99.269531 144.003906 99.398438 C 143.949219 99.53125 143.871094 99.644531 143.773438 99.742188 C 143.671875 99.84375 143.558594 99.921875 143.429688 99.972656 C 143.296875 100.027344 143.160156 100.054688 143.019531 100.054688 C 142.878906 100.054688 142.746094 100.027344 142.613281 99.972656 C 142.484375 99.921875 142.367188 99.84375 142.269531 99.742188 C 142.167969 99.644531 142.09375 99.53125 142.039062 99.398438 C 141.984375 99.269531 141.957031 99.132812 141.957031 98.992188 C 141.957031 98.851562 141.984375 98.714844 142.039062 98.585938 C 142.09375 98.457031 142.167969 98.339844 142.269531 98.242188 C 142.367188 98.140625 142.484375 98.0625 142.613281 98.011719 C 142.746094 97.957031 142.878906 97.929688 143.019531 97.929688 C 143.160156 97.929688 143.296875 97.957031 143.429688 98.011719 C 143.558594 98.0625 143.671875 98.140625 143.773438 98.242188 C 143.871094 98.339844 143.949219 98.457031 144.003906 98.585938 C 144.058594 98.714844 144.085938 98.851562 144.085938 98.992188 Z M 144.085938 98.992188 " fill-opacity="1" fill-rule="nonzero"/><path fill="#0cc0df" d="M 139.480469 98.992188 C 139.480469 99.132812 139.453125 99.269531 139.398438 99.398438 C 139.34375 99.53125 139.269531 99.644531 139.167969 99.742188 C 139.066406 99.84375 138.953125 99.921875 138.824219 99.972656 C 138.691406 100.027344 138.558594 100.054688 138.417969 100.054688 C 138.273438 100.054688 138.140625 100.027344 138.007812 99.972656 C 137.878906 99.921875 137.765625 99.84375 137.664062 99.742188 C 137.566406 99.644531 137.488281 99.53125 137.433594 99.398438 C 137.378906 99.269531 137.351562 99.132812 137.351562 98.992188 C 137.351562 98.851562 137.378906 98.714844 137.433594 98.585938 C 137.488281 98.457031 137.566406 98.339844 137.664062 98.242188 C 137.765625 98.140625 137.878906 98.0625 138.007812 98.011719 C 138.140625 97.957031 138.273438 97.929688 138.417969 97.929688 C 138.558594 97.929688 138.691406 97.957031 138.824219 98.011719 C 138.953125 98.0625 139.066406 98.140625 139.167969 98.242188 C 139.269531 98.339844 139.34375 98.457031 139.398438 98.585938 C 139.453125 98.714844 139.480469 98.851562 139.480469 98.992188 Z M 139.480469 98.992188 " fill-opacity="1" fill-rule="nonzero"/><path fill="#0cc0df" d="M 134.867188 98.992188 C 134.867188 99.132812 134.84375 99.269531 134.789062 99.398438 C 134.734375 99.53125 134.65625 99.644531 134.558594 99.742188 C 134.457031 99.84375 134.34375 99.921875 134.210938 99.972656 C 134.082031 100.027344 133.945312 100.054688 133.804688 100.054688 C 133.664062 100.054688 133.53125 100.027344 133.398438 99.972656 C 133.269531 99.921875 133.152344 99.84375 133.054688 99.742188 C 132.953125 99.644531 132.878906 99.53125 132.824219 99.398438 C 132.769531 99.269531 132.742188 99.132812 132.742188 98.992188 C 132.742188 98.851562 132.769531 98.714844 132.824219 98.585938 C 132.878906 98.457031 132.953125 98.339844 133.054688 98.242188 C 133.152344 98.140625 133.269531 98.0625 133.398438 98.011719 C 133.53125 97.957031 133.664062 97.929688 133.804688 97.929688 C 133.945312 97.929688 134.082031 97.957031 134.210938 98.011719 C 134.34375 98.0625 134.457031 98.140625 134.558594 98.242188 C 134.65625 98.339844 134.734375 98.457031 134.789062 98.585938 C 134.84375 98.714844 134.867188 98.851562 134.867188 98.992188 Z M 134.867188 98.992188 " fill-opacity="1" fill-rule="nonzero"/><path fill="#0cc0df" d="M 120.265625 125.34375 L 138.574219 125.34375 L 138.574219 147.882812 L 120.265625 147.882812 Z M 120.265625 125.34375 " fill-opacity="1" fill-rule="nonzero"/><path fill="#0cc0df" d="M 125.496094 70.851562 L 133.34375 64.824219 L 133.34375 94.855469 L 125.496094 94.855469 Z M 125.496094 70.851562 " fill-opacity="1" fill-rule="nonzero"/><path fill="#0cc0df" d="M 123.3125 94.90625 L 135.53125 94.90625 L 135.53125 89.160156 C 135.53125 88.113281 134.683594 87.265625 133.636719 87.265625 L 125.207031 87.265625 C 124.160156 87.265625 123.3125 88.113281 123.3125 89.160156 Z M 123.3125 94.90625 " fill-opacity="1" fill-rule="nonzero"/><path fill="#0cc0df" d="M 124.253906 75.710938 L 134.582031 75.710938 L 134.582031 77.691406 L 124.253906 77.691406 Z M 124.253906 75.710938 " fill-opacity="1" fill-rule="nonzero"/><g mask="url(#1931fdaf0a)"><g transform="matrix(1, 0, 0, 1, 123, 75)"><g clip-path="url(#bf8956eb77)"><g clip-path="url(#9fd4c2d2f0)"><path fill="#d0fff0" d="M 1.253906 0.710938 L 11.582031 0.710938 L 11.582031 2.691406 L 1.253906 2.691406 Z M 1.253906 0.710938 " fill-opacity="1" fill-rule="nonzero"/></g></g></g></g><path fill="#0cc0df" d="M 124.253906 82.515625 L 134.582031 82.515625 L 134.582031 84.5 L 124.253906 84.5 Z M 124.253906 82.515625 " fill-opacity="1" fill-rule="nonzero"/><g mask="url(#483a6b39d5)"><g transform="matrix(1, 0, 0, 1, 123, 81)"><g clip-path="url(#54aa7a691e)"><g clip-path="url(#f41bcfd2dd)"><path fill="#d0fff0" d="M 1.253906 1.515625 L 11.582031 1.515625 L 11.582031 3.5 L 1.253906 3.5 Z M 1.253906 1.515625 " fill-opacity="1" fill-rule="nonzero"/></g></g></g></g><path fill="#0cc0df" d="M 124.746094 152.144531 L 167.003906 152.144531 L 167.003906 146.859375 C 167.003906 145.335938 165.769531 144.109375 164.253906 144.109375 L 124.746094 144.109375 C 113.4375 144.109375 104.277344 134.945312 104.277344 123.640625 L 104.277344 64.675781 L 96.242188 64.675781 L 96.242188 123.640625 C 96.234375 139.382812 108.996094 152.144531 124.746094 152.144531 Z M 124.746094 152.144531 " fill-opacity="1" fill-rule="nonzero"/><path fill="#0cc0df" d="M 152.980469 148.128906 L 167.003906 148.128906 L 167.003906 173.359375 L 152.980469 173.359375 Z M 152.980469 148.128906 " fill-opacity="1" fill-rule="nonzero"/><path fill="#0cc0df" d="M 117.320312 163.558594 L 167.25 163.558594 C 168.753906 163.558594 169.976562 164.777344 169.976562 166.285156 L 169.976562 178.4375 L 109.933594 178.4375 L 109.933594 170.949219 C 109.933594 166.863281 113.238281 163.558594 117.320312 163.558594 Z M 117.320312 163.558594 " fill-opacity="1" fill-rule="nonzero"/><g mask="url(#a932e9c010)"><g transform="matrix(1, 0, 0, 1, 109, 163)"><g clip-path="url(#a7f7573a78)"><g clip-path="url(#838f8855db)"><path fill="#d0fff0" d="M 8.320312 0.558594 L 58.25 0.558594 C 59.753906 0.558594 60.976562 1.777344 60.976562 3.285156 L 60.976562 15.4375 L 0.933594 15.4375 L 0.933594 7.949219 C 0.933594 3.863281 4.238281 0.558594 8.320312 0.558594 Z M 8.320312 0.558594 " fill-opacity="1" fill-rule="nonzero"/></g></g></g></g><path fill="#0cc0df" d="M 119.929688 159.808594 L 137.726562 159.808594 L 137.726562 163.5625 L 119.929688 163.5625 Z M 119.929688 159.808594 " fill-opacity="1" fill-rule="nonzero"/><path fill="#0cc0df" d="M 103.503906 178.4375 L 182.488281 178.4375 L 182.488281 186.445312 L 103.503906 186.445312 Z M 103.503906 178.4375 " fill-opacity="1" fill-rule="nonzero"/><path fill="#0cc0df" d="M 94.207031 97.03125 L 106.1875 97.03125 C 106.871094 97.03125 107.425781 96.476562 107.425781 95.792969 L 107.425781 89.375 L 92.96875 89.375 L 92.96875 95.792969 C 92.96875 96.480469 93.523438 97.03125 94.207031 97.03125 Z M 94.207031 97.03125 " fill-opacity="1" fill-rule="nonzero"/><path fill="#d0fff0" d="M 113.652344 71.296875 L 113.652344 90.949219 L 74.203125 90.949219 C 73.011719 90.949219 72.046875 90.003906 72.046875 88.808594 L 72.046875 73.433594 C 72.046875 72.253906 73.011719 71.292969 74.203125 71.292969 L 113.652344 71.292969 Z M 113.652344 71.296875 " fill-opacity="1" fill-rule="nonzero"/><g mask="url(#52923b4073)"><g transform="matrix(1, 0, 0, 1, 71, 88)"><g clip-path="url(#43246b28ac)"><g clip-path="url(#a9abf5d575)"><path fill="#0cc0df" d="M 42.652344 0.355469 L 42.652344 2.949219 L 3.203125 2.949219 C 2.011719 2.949219 1.046875 2.003906 1.046875 0.808594 L 1.046875 0.355469 Z M 42.652344 0.355469 " fill-opacity="1" fill-rule="nonzero"/></g></g></g></g><path fill="#0cc0df" d="M 113.652344 75.441406 L 116.21875 75.441406 L 116.21875 86.8125 L 113.652344 86.8125 Z M 113.652344 75.441406 " fill-opacity="1" fill-rule="nonzero"/><path fill="#0cc0df" d="M 59.285156 75.972656 L 72.054688 75.972656 L 72.054688 86.28125 L 59.285156 86.28125 Z M 59.285156 75.972656 " fill-opacity="1" fill-rule="nonzero"/><path fill="#0cc0df" d="M 57.472656 75.207031 L 59.964844 75.207031 L 59.964844 87.050781 L 57.472656 87.050781 Z M 57.472656 75.207031 " fill-opacity="1" fill-rule="nonzero"/><path fill="#0cc0df" d="M 90.484375 81.128906 C 90.484375 81.503906 90.449219 81.871094 90.375 82.238281 C 90.300781 82.601562 90.195312 82.957031 90.050781 83.300781 C 89.910156 83.648438 89.734375 83.972656 89.527344 84.285156 C 89.320312 84.59375 89.085938 84.882812 88.820312 85.144531 C 88.558594 85.410156 88.269531 85.644531 87.960938 85.851562 C 87.652344 86.058594 87.324219 86.234375 86.980469 86.375 C 86.632812 86.519531 86.277344 86.625 85.914062 86.699219 C 85.546875 86.773438 85.179688 86.808594 84.804688 86.808594 C 84.433594 86.808594 84.0625 86.773438 83.699219 86.699219 C 83.332031 86.625 82.976562 86.519531 82.632812 86.375 C 82.289062 86.234375 81.960938 86.058594 81.652344 85.851562 C 81.339844 85.644531 81.054688 85.410156 80.789062 85.144531 C 80.527344 84.882812 80.289062 84.59375 80.082031 84.285156 C 79.875 83.972656 79.703125 83.648438 79.558594 83.300781 C 79.417969 82.957031 79.308594 82.601562 79.234375 82.238281 C 79.164062 81.871094 79.125 81.503906 79.125 81.128906 C 79.125 80.757812 79.164062 80.386719 79.234375 80.019531 C 79.308594 79.65625 79.417969 79.300781 79.558594 78.957031 C 79.703125 78.613281 79.875 78.285156 80.082031 77.972656 C 80.289062 77.664062 80.527344 77.378906 80.789062 77.113281 C 81.054688 76.851562 81.339844 76.613281 81.652344 76.40625 C 81.960938 76.199219 82.289062 76.027344 82.632812 75.882812 C 82.976562 75.738281 83.332031 75.632812 83.699219 75.558594 C 84.0625 75.488281 84.433594 75.449219 84.804688 75.449219 C 85.179688 75.449219 85.546875 75.488281 85.914062 75.558594 C 86.277344 75.632812 86.632812 75.738281 86.980469 75.882812 C 87.324219 76.027344 87.652344 76.199219 87.960938 76.40625 C 88.269531 76.613281 88.558594 76.851562 88.820312 77.113281 C 89.085938 77.378906 89.320312 77.664062 89.527344 77.972656 C 89.734375 78.285156 89.910156 78.613281 90.050781 78.957031 C 90.195312 79.300781 90.300781 79.65625 90.375 80.019531 C 90.449219 80.386719 90.484375 80.757812 90.484375 81.128906 Z M 90.484375 81.128906 " fill-opacity="1" fill-rule="nonzero"/><path fill="#0cc0df" d="M 88.117188 81.128906 C 88.117188 81.566406 88.03125 81.992188 87.863281 82.394531 C 87.695312 82.800781 87.457031 83.160156 87.144531 83.46875 C 86.835938 83.78125 86.476562 84.019531 86.074219 84.1875 C 85.667969 84.355469 85.246094 84.441406 84.804688 84.441406 C 84.367188 84.441406 83.945312 84.355469 83.539062 84.1875 C 83.132812 84.019531 82.773438 83.78125 82.464844 83.46875 C 82.15625 83.160156 81.914062 82.800781 81.746094 82.394531 C 81.578125 81.992188 81.496094 81.566406 81.496094 81.128906 C 81.496094 80.691406 81.578125 80.269531 81.746094 79.863281 C 81.914062 79.457031 82.15625 79.097656 82.464844 78.789062 C 82.773438 78.476562 83.132812 78.238281 83.539062 78.070312 C 83.945312 77.902344 84.367188 77.820312 84.804688 77.820312 C 85.246094 77.820312 85.667969 77.902344 86.074219 78.070312 C 86.476562 78.238281 86.835938 78.476562 87.144531 78.789062 C 87.457031 79.097656 87.695312 79.457031 87.863281 79.863281 C 88.03125 80.269531 88.117188 80.691406 88.117188 81.128906 Z M 88.117188 81.128906 " fill-opacity="1" fill-rule="nonzero"/><path fill="#0cc0df" d="M 92.421875 73.992188 L 111.210938 73.992188 L 111.210938 75.195312 L 92.421875 75.195312 Z M 92.421875 73.992188 " fill-opacity="1" fill-rule="nonzero"/><path fill="#0cc0df" d="M 68.734375 64.675781 L 104.269531 64.675781 L 104.269531 66.6875 L 68.734375 66.6875 Z M 68.734375 64.675781 " fill-opacity="1" fill-rule="nonzero"/><path fill="#d0fff0" d="M 65.53125 64.523438 L 73.382812 64.523438 L 73.382812 66.933594 L 65.53125 66.933594 Z M 65.53125 64.523438 " fill-opacity="1" fill-rule="nonzero"/><path fill="#0cc0df" d="M 177.414062 54.972656 L 182.488281 54.972656 L 182.488281 186.445312 L 177.414062 186.445312 Z M 177.414062 54.972656 " fill-opacity="1" fill-rule="nonzero"/><g mask="url(#a18e6bc976)"><g transform="matrix(1, 0, 0, 1, 176, 54)"><g clip-path="url(#dcedf07bd0)"><g clip-path="url(#3654c0d5f5)"><path fill="#d0fff0" d="M 1.414062 0.972656 L 6.488281 0.972656 L 6.488281 132.445312 L 1.414062 132.445312 Z M 1.414062 0.972656 " fill-opacity="1" fill-rule="nonzero"/></g></g></g></g><path fill="#d0fff0" d="M 217.523438 69.011719 L 174.796875 69.011719 L 174.796875 66.308594 L 217.523438 66.308594 Z M 217.523438 69.011719 " fill-opacity="1" fill-rule="nonzero"/><g mask="url(#d99a796018)"><g transform="matrix(1, 0, 0, 1, 174, 68)"><g clip-path="url(#092354884d)"><g clip-path="url(#8cdaf85a2f)"><path fill="#0cc0df" d="M 0.792969 0.304688 L 43.519531 0.304688 L 43.519531 1.007812 L 0.792969 1.007812 Z M 0.792969 0.304688 " fill-opacity="1" fill-rule="nonzero"/></g></g></g></g><path fill="#d0fff0" d="M 217.523438 99.972656 L 174.796875 99.972656 L 174.796875 97.265625 L 217.523438 97.265625 Z M 217.523438 99.972656 " fill-opacity="1" fill-rule="nonzero"/><g mask="url(#40c42844aa)"><g transform="matrix(1, 0, 0, 1, 174, 99)"><g clip-path="url(#c0cb7cba27)"><g clip-path="url(#d62d824b4b)"><path fill="#0cc0df" d="M 0.792969 0.273438 L 43.519531 0.273438 L 43.519531 0.972656 L 0.792969 0.972656 Z M 0.792969 0.273438 " fill-opacity="1" fill-rule="nonzero"/></g></g></g></g><path fill="#0cc0df" d="M 168.09375 119.882812 L 191.226562 119.882812 L 191.226562 126.3125 L 168.09375 126.3125 Z M 168.09375 119.882812 " fill-opacity="1" fill-rule="nonzero"/><path fill="#0cc0df" d="M 176.960938 130.601562 L 182.359375 130.601562 C 183.5 130.601562 184.425781 129.679688 184.425781 128.539062 L 184.425781 119.882812 L 174.898438 119.882812 L 174.898438 128.539062 C 174.898438 129.683594 175.820312 130.601562 176.960938 130.601562 Z M 176.960938 130.601562 " fill-opacity="1" fill-rule="nonzero"/><path fill="#ffbbb9" d="M 194.632812 144.984375 L 190.105469 153.078125 C 188.550781 153.1875 186.746094 152.921875 185.316406 152.757812 C 183.863281 152.585938 182.074219 152.59375 179.871094 150.957031 C 177.660156 149.308594 178.648438 147.695312 178.648438 147.695312 C 177.007812 146.125 178.453125 144.363281 178.453125 144.363281 C 176.757812 143.238281 177.277344 140.566406 177.277344 140.566406 C 173.359375 138.765625 176.042969 137.230469 176.96875 137.273438 C 177.886719 137.3125 182.105469 137.933594 183.429688 138.386719 C 184.761719 138.832031 187.597656 139.625 189.261719 139.902344 C 190.925781 140.164062 192.367188 141.613281 193.277344 142.847656 C 193.953125 143.742188 194.429688 144.59375 194.632812 144.984375 Z M 194.632812 144.984375 " fill-opacity="1" fill-rule="nonzero"/><path fill="#0cc0df" d="M 187.488281 143.558594 C 187.464844 143.554688 185.074219 143.234375 182.28125 142.285156 C 179.511719 141.34375 177.253906 140.726562 177.230469 140.714844 L 177.320312 140.398438 C 177.34375 140.402344 179.613281 141.023438 182.386719 141.972656 C 185.148438 142.910156 187.503906 143.222656 187.527344 143.226562 Z M 187.488281 143.558594 " fill-opacity="1" fill-rule="nonzero"/><path fill="#0cc0df" d="M 185.097656 147.214844 C 181.402344 146.191406 178.398438 144.515625 178.367188 144.5 L 178.527344 144.214844 C 178.554688 144.230469 181.527344 145.886719 185.179688 146.902344 Z M 185.097656 147.214844 " fill-opacity="1" fill-rule="nonzero"/><path fill="#0cc0df" d="M 184.011719 150.734375 C 181.40625 149.882812 178.585938 147.839844 178.554688 147.820312 L 178.746094 147.558594 C 178.773438 147.578125 181.554688 149.589844 184.113281 150.425781 Z M 184.011719 150.734375 " fill-opacity="1" fill-rule="nonzero"/><path fill="#d0fff0" d="M 117.753906 149.441406 C 117.734375 149.441406 117.710938 149.441406 117.6875 149.4375 C 102.152344 146.621094 98.355469 128.121094 98.316406 127.933594 C 98.277344 127.738281 98.40625 127.550781 98.597656 127.511719 C 98.789062 127.480469 98.976562 127.601562 99.015625 127.792969 C 99.050781 127.976562 102.757812 146.007812 117.816406 148.734375 C 118.007812 148.769531 118.136719 148.957031 118.101562 149.148438 C 118.074219 149.320312 117.925781 149.441406 117.753906 149.441406 Z M 117.753906 149.441406 " fill-opacity="1" fill-rule="nonzero"/><path fill="#0cc0df" d="M 87.296875 73.171875 L 77.082031 73.171875 C 76.886719 73.171875 76.730469 73.011719 76.730469 72.816406 C 76.730469 72.625 76.890625 72.464844 77.082031 72.464844 L 87.296875 72.464844 C 87.492188 72.464844 87.648438 72.625 87.648438 72.816406 C 87.648438 73.011719 87.488281 73.171875 87.296875 73.171875 Z M 87.296875 73.171875 " fill-opacity="1" fill-rule="nonzero"/></svg>