<svg xmlns="http://www.w3.org/2000/svg" xmlns:xlink="http://www.w3.org/1999/xlink" width="400" zoomAndPan="magnify" viewBox="0 0 300 187.499995" height="250" preserveAspectRatio="xMidYMid meet" version="1.0"><defs><clipPath id="2e27ed0622"><path d="M 0.398438 80 L 98 80 L 98 167 L 0.398438 167 Z M 0.398438 80 " clip-rule="nonzero"/></clipPath><clipPath id="d2f56e3454"><path d="M 100 56 L 148.503906 56 L 148.503906 119 L 100 119 Z M 100 56 " clip-rule="nonzero"/></clipPath></defs><path fill="#f5bf93" d="M 1.933594 120.234375 C 1.773438 116.652344 4.011719 114.070312 5.996094 111.359375 C 7.554688 109.234375 9.121094 107.113281 10.664062 104.976562 C 13.691406 100.789062 16.921875 96.589844 19.4375 92.074219 C 20.539062 90.09375 21.625 88.109375 22.671875 86.097656 C 23.355469 84.792969 24.164062 83.542969 24.792969 82.21875 C 25.558594 80.605469 26.015625 78.851562 27.023438 77.359375 C 31.203125 71.148438 40.1875 69.09375 47.191406 68.8125 C 51.292969 68.648438 55.457031 69.074219 59.398438 70.230469 C 62.074219 71.011719 64.472656 72.261719 66.925781 73.542969 C 69.519531 74.898438 72.101562 76.261719 74.695312 77.625 C 77.933594 79.324219 81.171875 81.027344 84.40625 82.726562 C 88.40625 84.824219 92.742188 86.902344 94.800781 91.191406 C 96.023438 93.738281 95.71875 96.554688 95.71875 99.296875 C 95.71875 102.195312 95.726562 105.09375 95.726562 107.992188 C 95.726562 113.664062 95.71875 119.332031 95.71875 125.003906 C 95.71875 130.429688 92.613281 134 88.035156 136.65625 C 86.164062 137.742188 84.285156 138.816406 82.410156 139.898438 C 70.089844 146.992188 57.816406 154.175781 45.445312 161.183594 C 35.007812 167.101562 19.800781 167.25 9.359375 161.230469 C 6.5 159.578125 3.765625 157.242188 2.542969 154.097656 C 1.519531 151.453125 1.925781 148.34375 1.925781 145.566406 C 1.925781 139.894531 1.933594 134.222656 1.933594 128.550781 C 1.933594 125.789062 1.808594 122.996094 1.933594 120.234375 Z M 1.933594 120.234375 " fill-opacity="1" fill-rule="nonzero"/><path fill="#f5bf93" d="M 25.972656 79.394531 C 26.933594 76.144531 28.128906 72.941406 29.203125 69.722656 C 29.808594 67.914062 30.316406 66.132812 31.566406 64.640625 C 33.117188 62.792969 35.269531 61.496094 37.472656 60.5625 C 42.007812 58.640625 47.15625 58.105469 52.039062 58.578125 C 56.726562 59.035156 61.886719 60.476562 65.339844 63.847656 C 67.964844 66.40625 68.683594 70.457031 69.816406 73.828125 C 70.902344 77.050781 72.832031 80.746094 71.96875 84.199219 C 70.808594 88.832031 66.175781 91.753906 62 93.398438 C 57.476562 95.175781 52.515625 95.855469 47.671875 95.71875 C 42.382812 95.566406 36.894531 94.457031 32.277344 91.785156 C 27.945312 89.285156 23.992188 84.664062 25.972656 79.394531 Z M 25.972656 79.394531 " fill-opacity="1" fill-rule="nonzero"/><path fill="#ffd1a9" d="M 24 44.003906 C 24.289062 45.300781 24.808594 46.566406 24.957031 47.902344 C 25.082031 49.054688 25.167969 50.207031 25.375 51.355469 C 25.78125 53.910156 26.132812 56.371094 26.710938 58.816406 C 26.980469 59.832031 27.265625 60.851562 27.53125 61.847656 C 27.972656 63.390625 28.40625 64.917969 28.78125 66.476562 C 29.214844 68.28125 29.929688 69.804688 31.21875 71.242188 C 32.484375 72.753906 34.015625 73.699219 35.4375 74.703125 C 39.039062 77.25 42.757812 79.753906 46.898438 82.308594 C 48.449219 83.203125 50.019531 84.167969 51.761719 84.890625 C 55.851562 86.703125 60.5625 87.660156 64.914062 87.597656 C 64.929688 87.617188 64.929688 87.617188 64.945312 87.601562 C 65.703125 87.597656 66.441406 87.542969 67.175781 87.472656 C 70.4375 87.066406 73.058594 85.59375 75.609375 83.9375 C 77.851562 82.414062 80.355469 80.925781 81.613281 77.871094 C 82.46875 75.972656 82.585938 73.648438 82.921875 71.632812 C 83.332031 69.175781 83.703125 66.800781 83.832031 64.363281 C 83.839844 62.117188 84.257812 59.714844 84.414062 57.484375 C 84.480469 56.210938 84.566406 54.953125 84.664062 53.695312 C 84.75 52.421875 84.566406 51.148438 84.648438 49.871094 C 84.933594 45.3125 86.226562 40.867188 86.042969 36.257812 C 85.875 32.199219 84.917969 28.210938 83.238281 24.519531 C 76.3125 9.449219 58.140625 2.269531 42.757812 8.59375 C 35.398438 11.609375 29.34375 17.460938 26.066406 24.707031 C 24.402344 28.410156 23.476562 32.417969 23.34375 36.460938 C 23.261719 38.992188 23.480469 41.523438 24 44.003906 Z M 24 44.003906 " fill-opacity="1" fill-rule="nonzero"/><path fill="#5e4f38" d="M 39.898438 52.585938 L 46.480469 56.375 L 46.480469 35.589844 C 46.480469 35.589844 53.339844 40.566406 63.214844 41.222656 C 73.09375 41.882812 83.605469 39.179688 85.621094 32.320312 C 87.636719 25.460938 82.777344 6.578125 62.433594 3.292969 C 42.089844 0.0078125 26.269531 9.589844 23.203125 23 C 20.136719 36.410156 23.328125 47.417969 23.328125 47.417969 Z M 39.898438 52.585938 " fill-opacity="1" fill-rule="nonzero"/><path fill="#fac69b" d="M 27.53125 61.847656 C 27.972656 63.390625 28.40625 64.921875 28.78125 66.476562 C 29.214844 68.28125 29.929688 69.804688 31.21875 71.242188 C 32.484375 72.753906 34.015625 73.699219 35.4375 74.703125 C 39.039062 77.25 42.757812 79.757812 46.898438 82.308594 C 48.449219 83.207031 50.019531 84.167969 51.761719 84.890625 C 55.851562 86.703125 60.566406 87.664062 64.914062 87.601562 C 58.890625 87.34375 51.660156 82.914062 47.289062 80.40625 C 42.839844 77.644531 35.605469 73.316406 35.246094 68.835938 C 35.085938 67.4375 32.070312 64.707031 27.53125 61.847656 Z M 27.53125 61.847656 " fill-opacity="1" fill-rule="nonzero"/><path fill="#5e4f38" d="M 25.339844 58.667969 C 28.378906 61.925781 28.175781 68.160156 27.460938 72.214844 C 28.363281 72.074219 28.757812 71.03125 29.527344 70.828125 C 30.421875 70.59375 30.894531 71.078125 31.792969 71.382812 C 31.773438 70.214844 31.128906 69.078125 30.992188 67.859375 C 30.878906 66.847656 31.027344 65.863281 30.789062 64.886719 C 30.160156 62.289062 27.882812 61.347656 25.339844 58.667969 Z M 25.339844 58.667969 " fill-opacity="1" fill-rule="nonzero"/><path fill="#ffd1a9" d="M 23.410156 64.410156 C 27.917969 69.371094 33.464844 70.144531 38.355469 70.460938 C 40.355469 71.183594 35.515625 62.347656 39.246094 55.289062 C 40.070312 53.914062 40.136719 51.917969 39.398438 50.492188 C 39.398438 50.476562 39.378906 50.460938 39.378906 50.460938 C 36.101562 43.667969 30.285156 39.511719 24.371094 41.910156 C 24.300781 41.925781 24.21875 41.960938 24.152344 41.992188 C 17.394531 45.914062 17.160156 57.316406 23.410156 64.410156 Z M 23.410156 64.410156 " fill-opacity="1" fill-rule="nonzero"/><path fill="#fac69b" d="M 23.410156 64.410156 C 27.917969 69.371094 33.464844 70.144531 38.355469 70.460938 C 30.304688 69.019531 20.636719 63.019531 20.46875 53.175781 C 20.335938 46.234375 22.875 43.132812 24.371094 41.910156 C 24.300781 41.925781 24.21875 41.957031 24.152344 41.992188 C 17.394531 45.914062 17.160156 57.316406 23.410156 64.410156 Z M 23.410156 64.410156 " fill-opacity="1" fill-rule="nonzero"/><path fill="#fac69b" d="M 24.609375 49.160156 C 22.308594 51.191406 23.074219 56.589844 25.164062 58.535156 C 25.546875 56.742188 24.359375 54.875 26.199219 53.371094 C 28.417969 51.550781 33.25 54.898438 32.578125 57.394531 C 32.46875 57.804688 31.703125 58.136719 31.484375 58.570312 C 31.214844 59.097656 31.101562 59.808594 31.191406 60.433594 C 31.363281 61.636719 32.308594 62.886719 33.769531 62.542969 C 33.613281 61.863281 32.882812 61.027344 32.804688 60.449219 C 32.558594 58.597656 33.160156 59.546875 34.105469 59.222656 C 35.328125 58.800781 35.335938 59.550781 35.566406 57.988281 C 35.9375 55.441406 33.578125 51.761719 31.558594 50.226562 C 29.683594 48.800781 26.808594 47.21875 24.609375 49.160156 Z M 24.609375 49.160156 " fill-opacity="1" fill-rule="nonzero"/><path fill="#3b332d" d="M 78.480469 44.109375 C 77.007812 45.179688 71.050781 46.828125 71.050781 46.828125 L 72.1875 47.738281 L 74.472656 47.507812 L 78.058594 45.601562 Z M 78.480469 44.109375 " fill-opacity="1" fill-rule="nonzero"/><path fill="#a8bfb9" d="M 54.527344 56.636719 C 54.570312 54.664062 58.035156 52.296875 59.832031 51.523438 C 64.515625 49.601562 68.746094 48.605469 72.273438 48.101562 C 72.445312 48.082031 72.589844 48.078125 72.714844 48.085938 C 72.792969 48.023438 72.847656 47.953125 72.933594 47.894531 C 74.050781 47.109375 75.542969 46.632812 76.789062 46.066406 C 77.375 45.796875 77.992188 45.542969 78.503906 45.902344 C 78.65625 45.734375 78.839844 45.574219 79.082031 45.417969 C 82.097656 43.480469 85.269531 41.484375 88 40.339844 C 89.074219 39.859375 91.148438 39.523438 90.8125 41.488281 L 90.050781 47.972656 C 89.90625 50.023438 88.84375 52.519531 87.929688 53.925781 C 85.863281 57.109375 83.585938 58.136719 81.316406 57.980469 C 80.171875 57.84375 79.109375 57.554688 78.871094 55.171875 C 78.722656 53.691406 78.566406 52.339844 78.414062 51.082031 C 77.632812 50.066406 76.484375 49.625 75.328125 50.183594 C 74.261719 50.703125 73.605469 51.8125 73.175781 53.132812 C 73.140625 53.242188 73.082031 53.488281 73.011719 53.789062 C 72.851562 55.15625 72.671875 56.621094 72.492188 58.15625 C 72.171875 60.925781 70.84375 62.308594 69.300781 63.652344 C 65.925781 66.40625 61.8125 67.875 57.9375 67.324219 C 56.226562 66.972656 54.453125 66.097656 54.378906 64.023438 Z M 54.527344 56.636719 " fill-opacity="0.5" fill-rule="nonzero"/><path fill="#92d4c5" d="M 76.339844 118.105469 C 74.660156 126.488281 67.933594 133.195312 59.53125 124.8125 C 46.089844 111.40625 32.007812 99.917969 16.121094 92.660156 C 19.871094 87.738281 23.503906 82.816406 25.910156 77.664062 C 25.878906 77.746094 25.691406 78.753906 26.144531 79.542969 C 26.363281 79.945312 26.667969 80.378906 27.019531 80.816406 C 28.917969 83.246094 31.441406 85.125 34.265625 86.382812 C 43.222656 90.355469 52.519531 91.195312 61.679688 90.121094 C 62.304688 89.988281 63.042969 89.902344 63.511719 90.324219 C 63.867188 90.65625 63.933594 91.175781 63.984375 91.664062 L 64.839844 100.300781 L 65.566406 105.867188 C 65.566406 105.867188 67.328125 102.8125 67.328125 100.382812 C 67.429688 99.796875 67.53125 99.207031 67.613281 98.605469 C 67.664062 98.269531 67.714844 97.917969 67.75 97.566406 C 67.917969 96.257812 68.019531 94.917969 68.070312 93.59375 C 68.101562 92.535156 68.269531 91.511719 68.574219 90.507812 C 69.011719 89.066406 69.984375 88.261719 70.875 87.824219 C 73.609375 86.492188 75.824219 85.570312 77.683594 84.003906 C 79.996094 95.421875 77.660156 106.246094 76.339844 118.105469 Z M 76.339844 118.105469 " fill-opacity="1" fill-rule="nonzero"/><g clip-path="url(#2e27ed0622)"><path fill="#cbe0ca" d="M 2.578125 114.332031 C 5.207031 106.671875 10.78125 99.667969 16.121094 92.660156 C 32.007812 99.917969 46.089844 111.40625 59.53125 124.8125 C 67.933594 133.195312 74.660156 126.488281 76.339844 118.105469 C 77.660156 106.246094 79.996094 95.421875 77.683594 84.003906 C 78.84375 83.03125 79.871094 81.808594 80.792969 80.078125 C 84.863281 81.402344 89.214844 83.515625 92.390625 86.449219 C 93.703125 87.65625 94.863281 88.746094 95.550781 90.457031 C 96.226562 92.117188 96.492188 93.925781 96.679688 95.703125 C 97.671875 104.976562 97.886719 114.332031 97.351562 123.636719 C 97.183594 126.335938 96.929688 129.136719 95.570312 131.484375 C 94.359375 133.597656 92.359375 135.125 90.359375 136.550781 C 88.207031 138.089844 86.019531 139.566406 83.800781 140.992188 C 83.246094 141.34375 82.691406 141.695312 82.121094 142.050781 C 79.566406 143.65625 76.960938 145.199219 74.320312 146.675781 C 74.003906 146.878906 73.683594 147.0625 73.347656 147.230469 C 67.007812 150.800781 60.503906 154.121094 54.015625 157.425781 C 44.183594 162.421875 33.660156 167.566406 22.683594 166.394531 C 16.027344 165.691406 9.738281 162.640625 4.613281 158.347656 C 3.65625 157.539062 2.710938 156.667969 2.140625 155.5625 C 1.367188 154.105469 1.300781 152.394531 1.25 150.769531 C 1.082031 145.519531 0.914062 140.269531 0.746094 135.023438 C 0.578125 129.941406 0.425781 124.777344 1.234375 119.800781 C 1.539062 117.953125 1.972656 116.125 2.578125 114.332031 Z M 2.578125 114.332031 " fill-opacity="1" fill-rule="nonzero"/></g><path fill="#dbf2da" d="M 33.417969 149.269531 C 42.328125 146.066406 49.957031 142.828125 54.894531 139.566406 C 56.09375 138.535156 56.980469 136.832031 57.09375 135.261719 L 57.21875 133.816406 L 57.394531 131.976562 C 57.574219 130.265625 56.835938 129.351562 55.722656 130.050781 C 55.722656 130.050781 53.328125 131.53125 50.8125 132.855469 C 48.03125 134.09375 45.039062 135.308594 45.039062 135.308594 C 45.039062 135.308594 41.984375 136.429688 38.96875 137.546875 C 36.042969 138.503906 33.277344 139.550781 33.277344 139.550781 C 32.011719 140.097656 30.957031 141.785156 30.921875 143.292969 L 30.914062 145.019531 L 30.9375 146.464844 C 30.992188 148.15625 31.984375 149.253906 33.417969 149.269531 Z M 33.417969 149.269531 " fill-opacity="1" fill-rule="nonzero"/><path fill="#9ee6d7" d="M 62.71875 106.433594 C 62.582031 107.015625 61.96875 107.332031 61.414062 107.101562 C 57.164062 105.332031 48.835938 101.832031 40.195312 96.820312 C 30.78125 91.363281 21.753906 84.046875 23.1875 78.957031 C 23.804688 76.769531 26.222656 72.628906 28.207031 72.628906 C 28.207031 72.628906 24.535156 80.300781 37 85.667969 C 49.460938 91.03125 62.882812 88.5 65.003906 88.601562 C 66.8125 88.6875 63.679688 102.40625 62.71875 106.433594 Z M 62.71875 106.433594 " fill-opacity="1" fill-rule="nonzero"/><path fill="#9ee6d7" d="M 68.574219 89.886719 C 68.589844 89.902344 68.605469 89.902344 68.605469 89.902344 C 68.65625 89.953125 68.691406 90.019531 68.742188 90.070312 C 69.546875 88.496094 72.101562 91.898438 73.816406 95.769531 C 74.742188 97.882812 75.398438 98.972656 75.984375 99.34375 C 76.558594 99.710938 77.0625 99.375 77.683594 98.621094 C 78.390625 97.765625 79.582031 93.304688 80.339844 88.613281 C 80.878906 85.175781 81.195312 81.601562 80.894531 79.273438 C 79.917969 80.867188 78.542969 81.957031 77.144531 82.925781 C 76.625 83.296875 76.105469 83.632812 75.597656 83.984375 C 75.429688 84.101562 75.246094 84.203125 75.078125 84.320312 C 73.953125 85.023438 72.808594 85.695312 71.582031 86.246094 C 71.179688 87.085938 70.488281 88.023438 69.3125 88.679688 C 69.3125 88.679688 68.691406 88.878906 68.574219 89.886719 Z M 68.574219 89.886719 " fill-opacity="1" fill-rule="nonzero"/><path fill="#a6b8a5" d="M 72.945312 131.855469 C 72.960938 132.304688 72.945312 132.875 72.960938 133.328125 C 73.144531 138.964844 73.28125 144.09375 73.347656 147.230469 C 73.683594 147.0625 74.003906 146.878906 74.320312 146.675781 C 74.203125 143.675781 74.019531 138.878906 73.765625 133.496094 C 73.765625 133.347656 73.3125 132.324219 72.945312 131.855469 Z M 72.945312 131.855469 " fill-opacity="1" fill-rule="nonzero"/><path fill="#9ead9e" d="M 64.257812 142.097656 C 64.472656 143.492188 65.722656 144.210938 67.042969 143.699219 C 68.363281 143.1875 69.257812 141.644531 69.039062 140.25 C 68.820312 138.851562 67.574219 138.132812 66.253906 138.644531 C 64.933594 139.15625 64.039062 140.699219 64.257812 142.097656 Z M 64.257812 142.097656 " fill-opacity="1" fill-rule="nonzero"/><path fill="#677d67" d="M 64.75 142.261719 C 64.96875 143.65625 66.214844 144.375 67.535156 143.863281 C 68.855469 143.355469 69.75 141.808594 69.535156 140.414062 C 69.316406 139.015625 68.070312 138.300781 66.75 138.808594 C 65.429688 139.320312 64.535156 140.863281 64.75 142.261719 Z M 64.75 142.261719 " fill-opacity="1" fill-rule="nonzero"/><path fill="#89a588" d="M 65.464844 142.589844 C 65.683594 143.984375 66.929688 144.703125 68.25 144.191406 C 69.570312 143.683594 70.464844 142.136719 70.246094 140.742188 C 70.03125 139.347656 68.785156 138.628906 67.464844 139.136719 C 66.144531 139.648438 65.25 141.191406 65.464844 142.589844 Z M 65.464844 142.589844 " fill-opacity="1" fill-rule="nonzero"/><path fill="#ffffff" d="M 68.847656 139.355469 C 69.5 139.472656 69.890625 139.945312 70.019531 140.574219 C 70.050781 140.738281 69.804688 140.808594 69.765625 140.644531 C 69.617188 140.039062 69.234375 139.847656 68.765625 139.546875 C 68.664062 139.480469 68.730469 139.335938 68.847656 139.355469 Z M 68.847656 139.355469 " fill-opacity="1" fill-rule="nonzero"/><path fill="#dbf2da" d="M 31.761719 109.167969 C 33.980469 110.996094 34.921875 112.972656 35.308594 114.332031 C 35.558594 115.253906 36.566406 115.757812 37.492188 115.457031 L 44.132812 113.292969 C 45.191406 112.941406 46.300781 113.660156 46.402344 114.769531 L 47.578125 127.175781 C 47.660156 128.015625 48.316406 128.667969 49.15625 128.734375 C 55.074219 129.1875 61.125 129.824219 66.488281 130.664062 C 66.65625 130.699219 66.824219 130.714844 66.976562 130.746094 C 67.246094 130.78125 67.515625 130.832031 67.765625 130.863281 C 68.167969 130.933594 68.574219 131.015625 68.976562 131.082031 C 70.371094 131.316406 71.699219 131.585938 72.945312 131.855469 C 72.945312 131.855469 72.289062 130.964844 71.210938 129.558594 C 70.488281 128.617188 69.582031 127.460938 68.605469 126.167969 C 68.238281 125.699219 67.851562 125.214844 67.445312 124.710938 C 67.210938 124.425781 66.976562 124.125 66.742188 123.824219 C 66.355469 123.335938 65.949219 122.851562 65.546875 122.347656 C 61.175781 116.898438 44.367188 104.253906 37.238281 99.492188 C 30.113281 94.75 22.261719 88.445312 23.035156 82.894531 C 23.035156 82.894531 20.09375 83.261719 16.042969 89.382812 C 12.007812 95.519531 27.828125 105.898438 31.761719 109.167969 Z M 31.761719 109.167969 " fill-opacity="1" fill-rule="nonzero"/><path fill="#dbf2da" d="M 68.605469 126.167969 C 69.582031 127.460938 70.488281 128.617188 71.210938 129.558594 C 77.414062 125.316406 86.625 118.707031 86.039062 117.265625 C 85.148438 115.105469 79.484375 110.460938 80.996094 108.898438 C 82.523438 107.355469 87.617188 103.214844 87.097656 101.488281 C 86.878906 100.785156 83.683594 94.648438 80.339844 88.613281 C 79.582031 93.304688 78.390625 97.765625 77.683594 98.621094 C 77.0625 99.375 76.558594 99.710938 75.984375 99.34375 C 75.214844 109.46875 72.121094 119.699219 68.605469 126.167969 Z M 68.605469 126.167969 " fill-opacity="1" fill-rule="nonzero"/><path fill="#5e4f38" d="M 82.929688 17.554688 C 85.011719 19.109375 86.480469 22.808594 87.277344 25.179688 C 87.832031 26.828125 88.359375 29.050781 87.871094 30.78125 C 87.507812 32.058594 86.175781 32.75 85.25 33.597656 C 84.695312 34.101562 84.21875 34.625 83.992188 35.351562 C 83.894531 35.664062 83.960938 36.359375 83.761719 36.59375 C 83.429688 36.984375 83.394531 36.59375 82.960938 36.753906 C 81.707031 37.214844 81.378906 39.148438 80.054688 39.664062 C 80 39.058594 79.707031 37.765625 79.011719 37.570312 C 78.128906 37.320312 76.972656 39.414062 76.25 39.914062 C 74.480469 41.140625 72.300781 41.660156 70.171875 41.648438 C 69.792969 41.644531 67.179688 41.433594 67.996094 40.519531 C 67.121094 41.785156 63.820312 43.058594 62.332031 42.675781 C 62.347656 41.945312 64.144531 39.160156 62.140625 40.132812 C 59.496094 41.417969 56.796875 41.871094 53.957031 42.496094 C 53.960938 42.398438 53.941406 42.289062 53.933594 42.195312 C 53.453125 43.058594 51.464844 43.515625 50.515625 43.339844 C 48.851562 43.039062 49.015625 40.921875 48.1875 39.820312 C 47.554688 41.195312 47.558594 42.882812 47.710938 44.390625 C 47.824219 45.503906 48.660156 46.585938 48.652344 47.644531 C 47.679688 47.914062 46.339844 45.800781 45.667969 45.191406 C 44.851562 47.359375 41.894531 43.308594 40.980469 43.125 C 40.761719 43.683594 41.050781 44.160156 40.308594 44.410156 C 39.324219 44.742188 37.429688 43.292969 36.664062 42.835938 C 35.78125 42.308594 35.132812 42.011719 34.480469 41.1875 C 33.894531 40.441406 33.351562 39.664062 32.757812 38.921875 C 31.367188 37.179688 29.785156 35.59375 28.046875 34.199219 C 26.382812 32.863281 25.082031 32.238281 25.394531 30.003906 C 25.972656 25.808594 29.210938 21.269531 31.847656 18.0625 C 36.898438 11.921875 42.296875 9.316406 50.265625 8.78125 C 54.621094 8.488281 58.628906 9.039062 62.890625 9.789062 C 69.121094 10.890625 78.054688 10.949219 82.929688 17.554688 Z M 82.929688 17.554688 " fill-opacity="1" fill-rule="nonzero"/><path fill="#3b332d" d="M 86.046875 36.257812 C 86.097656 37.464844 86.046875 38.640625 85.929688 39.828125 L 90.648438 41.964844 C 90.648438 41.964844 91.394531 41.675781 91.308594 41.472656 L 91.527344 38.136719 C 91.59375 37.800781 91.578125 37.347656 91.425781 37.164062 C 90.855469 36.492188 88.753906 35.488281 85.894531 34.347656 C 85.945312 34.699219 85.980469 35.035156 85.996094 35.371094 C 86.015625 35.671875 86.03125 35.957031 86.046875 36.257812 Z M 86.046875 36.257812 " fill-opacity="1" fill-rule="nonzero"/><path fill="#292523" d="M 85.929688 39.828125 C 85.929688 39.878906 85.929688 39.949219 85.914062 40.015625 L 90.523438 41.910156 C 90.589844 41.960938 90.621094 41.910156 90.570312 41.792969 L 90.703125 38.789062 C 90.820312 38.4375 90.855469 37.984375 90.6875 37.800781 C 90.148438 37.195312 88.417969 36.34375 85.996094 35.371094 C 86.015625 35.671875 86.03125 35.957031 86.046875 36.257812 C 86.097656 37.464844 86.046875 38.640625 85.929688 39.828125 Z M 85.929688 39.828125 " fill-opacity="1" fill-rule="nonzero"/><path fill="#3b332d" d="M 53.292969 51.667969 C 53.648438 51.902344 53.933594 52.117188 54.132812 52.320312 C 54.269531 52.4375 54.351562 52.554688 54.421875 52.671875 C 54.453125 52.738281 54.488281 52.824219 54.519531 52.941406 L 54.519531 52.992188 C 54.570312 53.175781 54.605469 53.394531 54.589844 53.578125 L 54.800781 56.304688 C 54.785156 56.320312 54.769531 56.335938 54.753906 56.347656 C 53.648438 57.207031 52.476562 57.121094 51.246094 56.816406 L 39.273438 50.726562 C 39.207031 50.492188 39.105469 50.273438 39.007812 50.054688 C 39.007812 50.039062 38.988281 50.023438 38.988281 50.023438 C 38.300781 48.613281 37.511719 47.304688 36.617188 46.148438 C 36.25 45.648438 35.84375 45.175781 35.441406 44.742188 C 42.382812 46.835938 50.335938 49.738281 53.292969 51.667969 Z M 53.292969 51.667969 " fill-opacity="1" fill-rule="nonzero"/><path fill="#433c39" d="M 53.09375 52.6875 C 53.292969 52.855469 53.445312 53.023438 53.527344 53.175781 C 53.628906 53.375 53.714844 53.796875 53.714844 54.097656 L 53.796875 54.953125 L 53.960938 56.796875 C 52.960938 57.199219 51.914062 57.011719 50.820312 56.703125 C 50.78125 56.691406 50.746094 56.679688 50.707031 56.667969 L 39.441406 51.398438 C 39.410156 51.164062 39.359375 50.945312 39.273438 50.726562 C 39.207031 50.492188 39.105469 50.273438 39.003906 50.058594 C 39.003906 50.039062 38.988281 50.023438 38.988281 50.023438 C 38.300781 48.613281 37.507812 47.308594 36.617188 46.152344 C 43.644531 48.296875 51.09375 50.980469 53.09375 52.6875 Z M 53.09375 52.6875 " fill-opacity="1" fill-rule="nonzero"/><path fill="#3b332d" d="M 77.214844 45.058594 C 78.003906 44.289062 79.097656 43.769531 80.039062 43.214844 C 80.8125 42.761719 81.585938 42.308594 82.375 41.875 L 82.390625 41.875 C 82.492188 41.808594 82.574219 41.738281 82.675781 41.691406 C 83.753906 41.070312 84.828125 40.464844 85.921875 39.894531 C 86.324219 39.679688 86.777344 39.441406 87.230469 39.226562 C 87.585938 39.039062 87.953125 38.871094 88.324219 38.738281 L 88.339844 38.738281 C 89.230469 38.386719 90.089844 38.203125 90.8125 38.453125 C 90.945312 38.503906 91.066406 38.570312 91.183594 38.65625 L 91.183594 38.671875 C 91.402344 38.789062 91.550781 38.957031 91.6875 39.125 L 91.703125 39.140625 C 91.738281 39.191406 91.753906 39.242188 91.789062 39.292969 C 91.820312 39.375 91.835938 39.476562 91.855469 39.59375 C 91.921875 40.199219 91.753906 41.152344 91.703125 41.859375 C 91.699219 41.910156 91.695312 41.960938 91.691406 42.011719 C 91.625 42.050781 91.277344 42.152344 91.109375 42.128906 C 90.921875 42.125 90.609375 41.960938 90.523438 41.910156 C 90.503906 41.816406 90.511719 41.304688 90.527344 41.121094 L 90.527344 40.984375 C 90.558594 40.667969 90.511719 40.449219 90.273438 40.398438 C 90.089844 40.347656 89.871094 40.363281 89.652344 40.398438 C 89.652344 40.398438 89.652344 40.398438 89.636719 40.398438 C 89.535156 40.414062 89.417969 40.449219 89.316406 40.464844 C 88.980469 40.53125 88.644531 40.648438 88.308594 40.785156 C 88.273438 40.785156 88.257812 40.785156 88.222656 40.816406 C 88.089844 40.867188 87.953125 40.9375 87.804688 41.019531 C 87.636719 41.085938 87.449219 41.171875 87.28125 41.269531 C 87.214844 41.289062 87.164062 41.320312 87.097656 41.371094 C 86.492188 41.722656 85.902344 42.125 85.332031 42.476562 C 85.199219 42.5625 85.046875 42.628906 84.910156 42.710938 L 84.878906 42.710938 C 84.792969 42.746094 84.761719 42.796875 84.695312 42.847656 C 83.414062 43.550781 82.171875 44.304688 80.945312 45.058594 C 80.777344 45.160156 80.609375 45.261719 80.421875 45.363281 C 80.40625 45.378906 80.371094 45.394531 80.355469 45.394531 C 80.121094 45.53125 79.867188 45.664062 79.652344 45.863281 C 79.605469 45.898438 79.578125 45.921875 79.535156 45.949219 C 78.640625 46.359375 77.742188 46.761719 76.875 47.234375 C 76.871094 47.234375 76.871094 47.242188 76.863281 47.242188 C 76.773438 47.277344 76.679688 47.308594 76.585938 47.34375 C 76.570312 47.332031 76.558594 47.304688 76.539062 47.296875 C 76.46875 46.410156 76.59375 45.636719 77.214844 45.058594 Z M 77.214844 45.058594 " fill-opacity="1" fill-rule="nonzero"/><path fill="#3b332d" d="M 55.597656 55.523438 C 55.546875 55.589844 55.53125 55.640625 55.496094 55.671875 C 55.488281 55.6875 55.488281 55.699219 55.480469 55.710938 C 55.242188 55.933594 55.007812 56.152344 54.753906 56.347656 C 54.210938 56.769531 53.652344 56.957031 53.082031 57.007812 C 53.078125 56.683594 53.066406 56.347656 53.09375 56.042969 C 53.109375 55.859375 53.125 55.691406 53.160156 55.523438 C 53.195312 55.355469 53.226562 55.1875 53.292969 55.019531 C 53.765625 53.726562 55.160156 52.621094 56.453125 51.765625 C 57.144531 51.3125 57.898438 50.878906 58.742188 50.542969 C 62.859375 48.832031 66.945312 47.589844 70.84375 46.871094 C 71.886719 46.6875 73.214844 46.167969 74.238281 46.855469 C 74.425781 46.988281 74.660156 47.121094 74.863281 47.289062 C 74.894531 47.308594 74.929688 47.339844 74.960938 47.355469 C 74.980469 47.355469 74.996094 47.390625 74.996094 47.390625 C 75.03125 47.421875 75.0625 47.457031 75.078125 47.472656 C 75.117188 47.511719 75.144531 47.554688 75.167969 47.601562 C 75.121094 47.675781 75.085938 47.757812 75.066406 47.859375 C 75.0625 47.863281 75.0625 47.867188 75.0625 47.871094 C 74.8125 47.957031 74.5625 48.042969 74.3125 48.125 C 73.804688 48.265625 73.300781 48.417969 72.796875 48.570312 C 72.761719 48.574219 72.726562 48.582031 72.691406 48.582031 L 72.640625 48.582031 C 70.960938 48.714844 69.179688 49.132812 67.414062 49.636719 C 67.078125 49.722656 66.726562 49.820312 66.371094 49.921875 C 66.070312 50.023438 65.785156 50.105469 65.480469 50.207031 C 63.296875 50.894531 60.976562 51.648438 59.007812 52.707031 C 58.839844 52.789062 58.691406 52.875 58.539062 52.972656 C 58.402344 53.039062 58.285156 53.125 58.167969 53.191406 C 57.160156 53.828125 56.117188 54.582031 55.597656 55.523438 Z M 55.597656 55.523438 " fill-opacity="1" fill-rule="nonzero"/><path fill="#3b332d" d="M 84.542969 42.78125 C 84.609375 42.730469 84.675781 42.695312 84.746094 42.644531 L 84.761719 42.644531 L 84.878906 42.710938 C 84.792969 42.746094 84.761719 42.796875 84.695312 42.847656 C 83.417969 43.550781 82.171875 44.304688 80.945312 45.058594 C 80.777344 45.160156 80.609375 45.261719 80.425781 45.363281 C 81.804688 44.472656 83.179688 43.585938 84.542969 42.78125 Z M 84.542969 42.78125 " fill-opacity="1" fill-rule="nonzero"/><path fill="#3b332d" d="M 88.730469 38.605469 C 90.410156 38.363281 91.339844 37.839844 89.390625 36.90625 C 87.4375 35.972656 90.3125 36.648438 91.152344 36.90625 C 91.992188 37.164062 91.921875 39.574219 91.90625 39.96875 C 91.886719 40.363281 89.886719 39.007812 89.113281 39.089844 C 88.339844 39.175781 88.730469 38.605469 88.730469 38.605469 Z M 88.730469 38.605469 " fill-opacity="1" fill-rule="nonzero"/><path fill="#433c39" d="M 54.703125 56.378906 C 53.90625 56.976562 53.078125 57.09375 52.214844 56.996094 L 51.613281 56.46875 L 50.988281 55.667969 L 50.507812 52.828125 C 50.507812 52.828125 51.332031 51.449219 52.246094 51.867188 C 53.160156 52.285156 56.285156 52.550781 58.050781 52.085938 C 58.050781 52.085938 57.585938 52.867188 57.4375 52.972656 C 55.871094 54.101562 55.132812 55.417969 54.703125 56.378906 Z M 54.703125 56.378906 " fill-opacity="1" fill-rule="nonzero"/><path fill="#3b332d" d="M 52.789062 51.355469 C 53.332031 51.898438 56.261719 51.839844 57.324219 51.265625 L 58.050781 52.085938 C 56.140625 53.066406 54.570312 53.652344 52.046875 51.976562 C 49.519531 50.300781 52.246094 50.8125 52.789062 51.355469 Z M 52.789062 51.355469 " fill-opacity="1" fill-rule="nonzero"/><path fill="#433c39" d="M 53.816406 56.714844 C 53.816406 56.378906 53.933594 56.027344 54.132812 55.671875 C 55.09375 53.828125 58.152344 51.851562 59.917969 51.113281 C 64.464844 49.191406 68.613281 48.105469 72.191406 47.484375 L 72.1875 47.484375 C 73.996094 47.132812 78.488281 45.191406 79.457031 44.808594 C 80.769531 43.964844 82.097656 43.109375 83.417969 42.308594 C 83.5 42.242188 83.566406 42.191406 83.667969 42.140625 C 85.199219 41.1875 86.675781 40.316406 88.089844 39.59375 C 88.375 39.441406 88.660156 39.308594 88.929688 39.175781 C 88.996094 39.140625 89.046875 39.109375 89.113281 39.089844 C 89.769531 38.773438 90.59375 38.488281 91.183594 38.671875 C 91.402344 38.738281 91.570312 38.90625 91.703125 39.140625 C 91.738281 39.191406 91.753906 39.242188 91.789062 39.292969 C 91.820312 39.375 91.839844 39.476562 91.855469 39.59375 C 91.90625 39.796875 91.921875 40.0625 91.890625 40.367188 C 91.890625 40.367188 91.753906 41.972656 91.75 41.976562 C 91.726562 42.136719 91.109375 42.128906 91.109375 42.128906 L 91.148438 41.789062 C 91.183594 41.035156 90.980469 40.601562 90.644531 40.398438 C 90.34375 40.214844 89.9375 40.214844 89.519531 40.316406 C 89.148438 40.398438 88.777344 40.550781 88.460938 40.699219 C 88.410156 40.71875 88.359375 40.75 88.308594 40.785156 C 88.273438 40.785156 88.257812 40.785156 88.222656 40.816406 C 88.089844 40.867188 87.953125 40.9375 87.804688 41.019531 C 87.636719 41.085938 87.449219 41.171875 87.28125 41.269531 C 87.214844 41.289062 87.164062 41.320312 87.097656 41.371094 C 86.339844 41.738281 85.550781 42.175781 84.746094 42.644531 C 84.675781 42.695312 84.609375 42.730469 84.542969 42.78125 C 83.179688 43.585938 81.800781 44.472656 80.425781 45.363281 C 80.40625 45.378906 80.375 45.394531 80.355469 45.394531 C 80.121094 45.5625 79.886719 45.714844 79.652344 45.863281 C 79.609375 45.898438 79.578125 45.921875 79.539062 45.949219 C 79.425781 46.035156 75.195312 48.109375 74.199219 48.160156 C 73.730469 48.289062 73.265625 48.429688 72.796875 48.570312 C 72.761719 48.574219 72.726562 48.582031 72.691406 48.582031 L 72.640625 48.582031 C 71.0625 48.816406 69.296875 49.152344 67.414062 49.636719 C 67.078125 49.722656 66.726562 49.820312 66.371094 49.921875 C 64.574219 50.425781 62.65625 51.0625 60.640625 51.882812 C 60.167969 52.066406 59.597656 52.355469 59.007812 52.707031 C 58.839844 52.789062 58.6875 52.875 58.539062 52.972656 C 57.363281 53.695312 56.183594 54.632812 55.597656 55.523438 C 55.546875 55.589844 55.527344 55.640625 55.496094 55.671875 C 55.488281 55.6875 55.484375 55.699219 55.480469 55.714844 C 55.242188 55.933594 55.007812 56.152344 54.753906 56.347656 C 54.445312 56.589844 54.132812 56.753906 53.8125 56.863281 Z M 53.816406 56.714844 " fill-opacity="1" fill-rule="nonzero"/><path fill="#f5f5f5" d="M 89.234375 105.886719 C 89.589844 105.933594 89.9375 105.992188 90.285156 106.066406 C 90.515625 106.113281 90.742188 106.167969 90.96875 106.226562 C 91.292969 106.308594 91.613281 106.394531 91.925781 106.503906 C 92.179688 106.589844 92.421875 106.703125 92.671875 106.804688 C 92.839844 106.875 93.019531 106.933594 93.183594 107.011719 C 93.027344 106.078125 92.902344 105.121094 92.8125 104.128906 C 91.449219 104.648438 90.050781 105.21875 88.621094 105.835938 C 88.828125 105.851562 89.03125 105.863281 89.234375 105.886719 Z M 89.234375 105.886719 " fill-opacity="1" fill-rule="nonzero"/><path fill="#37bffb" d="M 101.117188 122.601562 C 101.117188 137.804688 90.417969 156.289062 77.21875 163.890625 C 64.019531 171.492188 53.320312 165.332031 53.320312 150.128906 C 53.320312 134.925781 64.019531 116.4375 77.21875 108.835938 C 83.214844 105.382812 88.988281 104.957031 93.183594 106.742188 C 93.183594 106.742188 94.300781 115.597656 101 120.277344 C 101.089844 121.222656 101.117188 121.5625 101.117188 122.601562 Z M 101.117188 122.601562 " fill-opacity="1" fill-rule="nonzero"/><path fill="#141615" d="M 85.796875 121.535156 C 86.363281 121.859375 86.863281 122.277344 87.308594 122.785156 C 87.75 123.292969 88.125 123.882812 88.429688 124.558594 C 88.734375 125.230469 88.964844 125.972656 89.121094 126.78125 C 89.277344 127.59375 89.355469 128.457031 89.355469 129.375 C 89.355469 130.292969 89.277344 131.246094 89.121094 132.238281 C 88.964844 133.226562 88.734375 134.234375 88.429688 135.257812 C 88.125 136.28125 87.75 137.304688 87.308594 138.320312 C 86.863281 139.339844 86.363281 140.335938 85.796875 141.308594 C 85.234375 142.285156 84.621094 143.214844 83.957031 144.109375 C 83.296875 145 82.597656 145.832031 81.859375 146.609375 C 81.125 147.382812 80.363281 148.085938 79.582031 148.714844 C 78.800781 149.34375 78.011719 149.890625 77.214844 150.347656 C 76.417969 150.808594 75.628906 151.171875 74.847656 151.441406 C 74.066406 151.714844 73.304688 151.886719 72.570312 151.960938 C 71.832031 152.03125 71.132812 152.003906 70.46875 151.875 C 69.808594 151.746094 69.195312 151.519531 68.632812 151.195312 C 68.066406 150.871094 67.5625 150.457031 67.121094 149.945312 C 66.679688 149.4375 66.304688 148.847656 66 148.175781 C 65.695312 147.503906 65.464844 146.761719 65.308594 145.949219 C 65.152344 145.140625 65.074219 144.273438 65.074219 143.355469 C 65.074219 142.4375 65.152344 141.484375 65.308594 140.496094 C 65.464844 139.503906 65.695312 138.5 66 137.472656 C 66.304688 136.449219 66.679688 135.429688 67.121094 134.410156 C 67.5625 133.394531 68.066406 132.398438 68.632812 131.421875 C 69.195312 130.449219 69.808594 129.515625 70.46875 128.625 C 71.132812 127.734375 71.832031 126.898438 72.570312 126.125 C 73.304688 125.347656 74.066406 124.644531 74.847656 124.015625 C 75.628906 123.386719 76.417969 122.84375 77.214844 122.382812 C 78.011719 121.925781 78.800781 121.558594 79.582031 121.289062 C 80.363281 121.019531 81.125 120.847656 81.859375 120.773438 C 82.597656 120.699219 83.296875 120.730469 83.957031 120.855469 C 84.621094 120.984375 85.234375 121.210938 85.796875 121.535156 Z M 85.796875 121.535156 " fill-opacity="1" fill-rule="nonzero"/><path fill="#df9f66" d="M 22.273438 168.96875 C 22.273438 168.96875 35.582031 122.761719 77.21875 98.785156 C 83.335938 95.261719 88.808594 92.933594 93.746094 91.445312 C 93.894531 90.742188 91.773438 89.984375 90.480469 90.390625 C 85.792969 91.878906 80.621094 94.140625 74.890625 97.441406 C 33.25 121.421875 19.941406 167.625 19.941406 167.625 C 19.941406 167.625 23.285156 174.050781 31.28125 178.179688 C 24.960938 174.132812 22.273438 168.96875 22.273438 168.96875 Z M 22.273438 168.96875 " fill-opacity="1" fill-rule="nonzero"/><path fill="#f5f5f5" d="M 88.59375 154.027344 C 103.441406 143.335938 114.316406 130.78125 121.5 120.898438 C 121.511719 120.894531 121.519531 120.886719 121.527344 120.882812 C 121.148438 121.066406 120.75 121.226562 120.359375 121.386719 C 119.160156 121.875 117.914062 122.257812 116.625 122.535156 C 114.707031 123.027344 112.820312 123.292969 110.980469 123.292969 C 108.839844 123.292969 106.851562 122.957031 105.023438 122.335938 C 105.007812 122.332031 104.988281 122.332031 104.972656 122.324219 C 104.640625 122.230469 104.324219 122.09375 104.015625 121.9375 C 102.945312 121.492188 101.9375 120.933594 101 120.277344 C 101.066406 121.027344 101.117188 121.792969 101.117188 122.601562 C 101.117188 133.058594 96.054688 145.074219 88.59375 154.027344 Z M 88.59375 154.027344 " fill-opacity="1" fill-rule="nonzero"/><path fill="#f5f5f5" d="M 53.320312 150.128906 C 53.320312 139.769531 58.292969 127.890625 65.632812 118.964844 C 36.144531 140.292969 22.273438 168.96875 22.273438 168.96875 C 22.273438 168.96875 36.691406 179.414062 65.632812 167.105469 C 58.292969 166.636719 53.320312 160.488281 53.320312 150.128906 Z M 53.320312 150.128906 " fill-opacity="1" fill-rule="nonzero"/><path fill="#ffffff" d="M 92.011719 106.28125 C 91.71875 106.183594 91.421875 106.105469 91.121094 106.03125 C 90.910156 105.976562 90.699219 105.925781 90.480469 105.882812 C 90.160156 105.820312 89.835938 105.765625 89.5 105.722656 C 89.316406 105.703125 89.125 105.691406 88.933594 105.675781 C 85.742188 107.023438 82.359375 108.675781 78.808594 110.625 C 76.351562 114.789062 74.816406 119.507812 74.816406 123.765625 C 74.816406 123.855469 74.828125 123.941406 74.828125 124.03125 C 74.957031 132.195312 80.785156 135.472656 87.96875 131.339844 C 88.421875 131.074219 88.867188 130.769531 89.3125 130.460938 C 93.265625 127.714844 96.652344 123.25 98.777344 118.421875 C 95.960938 115.589844 94.039062 111.605469 93.1875 106.753906 C 93.03125 106.679688 92.867188 106.621094 92.707031 106.554688 C 92.476562 106.460938 92.25 106.359375 92.011719 106.28125 Z M 92.011719 106.28125 " fill-opacity="0.3" fill-rule="nonzero"/><path fill="#f8be7f" d="M 123.570312 119.75 C 123.167969 120.003906 122.75 120.238281 122.328125 120.460938 C 122.058594 120.597656 121.800781 120.753906 121.527344 120.882812 C 121.519531 120.886719 121.511719 120.894531 121.5 120.898438 C 114.320312 130.78125 103.441406 143.335938 88.59375 154.027344 C 85.199219 156.472656 81.601562 158.820312 77.789062 161.015625 C 73.480469 163.496094 69.4375 165.488281 65.632812 167.105469 C 36.691406 179.414062 22.273438 168.96875 22.273438 168.96875 C 22.273438 168.96875 24.960938 174.132812 31.28125 178.179688 C 39.742188 183.59375 54.722656 187 78.558594 173.269531 C 105.414062 157.804688 119.886719 133.464844 126.804688 118.097656 C 126.40625 118.265625 125.988281 118.414062 125.574219 118.566406 C 125.214844 118.789062 124.863281 119.035156 124.5 119.246094 C 124.1875 119.421875 123.878906 119.582031 123.570312 119.75 Z M 123.570312 119.75 " fill-opacity="1" fill-rule="nonzero"/><path fill="#f8be7f" d="M 22.273438 168.96875 C 22.273438 168.96875 36.144531 140.292969 65.632812 118.964844 C 69.09375 116.460938 72.753906 114.054688 76.648438 111.8125 C 77.382812 111.390625 78.089844 111.023438 78.808594 110.625 C 82.359375 108.675781 85.742188 107.023438 88.933594 105.679688 C 90.265625 105.117188 91.566406 104.601562 92.839844 104.128906 C 92.746094 103.089844 92.679688 102.027344 92.679688 100.921875 C 92.679688 97.828125 93.066406 94.644531 93.746094 91.445312 C 88.808594 92.933594 83.335938 95.261719 77.21875 98.785156 C 35.582031 122.761719 22.273438 168.96875 22.273438 168.96875 Z M 22.273438 168.96875 " fill-opacity="1" fill-rule="nonzero"/><path fill="#232524" d="M 121.242188 57.929688 C 108.019531 65.546875 97.296875 84.066406 97.296875 99.300781 C 97.296875 106.339844 99.585938 111.445312 103.355469 114.148438 C 103.613281 114.332031 107.800781 116.699219 107.800781 116.699219 C 107.800781 116.699219 110.105469 114.339844 116.800781 110.484375 C 130.023438 102.871094 140.746094 84.347656 140.746094 69.117188 C 140.746094 62.46875 141.992188 58.433594 141.992188 58.433594 C 141.992188 58.433594 138.195312 56.261719 137.792969 56.046875 C 133.492188 53.785156 127.660156 54.234375 121.242188 57.929688 Z M 121.242188 57.929688 " fill-opacity="1" fill-rule="nonzero"/><g clip-path="url(#d2f56e3454)"><path fill="#4b4d4c" d="M 124.503906 59.722656 C 111.28125 67.335938 100.558594 85.859375 100.558594 101.089844 C 100.558594 116.320312 111.28125 122.496094 124.503906 114.878906 C 137.730469 107.265625 148.449219 88.742188 148.449219 73.511719 C 148.449219 58.28125 137.730469 52.105469 124.503906 59.722656 Z M 124.503906 59.722656 " fill-opacity="1" fill-rule="nonzero"/></g><path fill="#ffffff" d="M 124.503906 63.75 C 113.210938 70.253906 104.058594 86.070312 104.058594 99.078125 C 104.058594 112.085938 113.210938 117.355469 124.503906 110.851562 C 135.800781 104.347656 144.953125 88.53125 144.953125 75.527344 C 144.953125 62.519531 135.800781 57.246094 124.503906 63.75 Z M 124.503906 63.75 " fill-opacity="1" fill-rule="nonzero"/><path fill="#008efa" d="M 140.601562 78.023438 C 139.609375 76.3125 137.414062 75.730469 135.707031 76.714844 L 111.269531 90.789062 C 109.554688 91.777344 108.964844 93.960938 109.957031 95.671875 C 110.621094 96.820312 111.824219 97.460938 113.0625 97.460938 C 113.671875 97.460938 114.289062 97.304688 114.851562 96.980469 L 139.289062 82.90625 C 141.003906 81.917969 141.59375 79.734375 140.601562 78.023438 Z M 140.601562 78.023438 " fill-opacity="1" fill-rule="nonzero"/></svg>