<svg xmlns="http://www.w3.org/2000/svg" xmlns:xlink="http://www.w3.org/1999/xlink" width="400" zoomAndPan="magnify" viewBox="0 0 300 187.499995" height="250" preserveAspectRatio="xMidYMid meet" version="1.0"><defs><clipPath id="5c8baa4489"><path d="M 179 0 L 280.152344 0 L 280.152344 61 L 179 61 Z M 179 0 " clip-rule="nonzero"/></clipPath><clipPath id="3235d64651"><path d="M 276 5 L 280.152344 5 L 280.152344 49 L 276 49 Z M 276 5 " clip-rule="nonzero"/></clipPath><clipPath id="b963b82e29"><path d="M 0.398438 77 L 96 77 L 96 187 L 0.398438 187 Z M 0.398438 77 " clip-rule="nonzero"/></clipPath><clipPath id="09ab8e3f08"><path d="M 0.398438 75 L 96 75 L 96 187 L 0.398438 187 Z M 0.398438 75 " clip-rule="nonzero"/></clipPath></defs><path fill="#ffffff" d="M 179.894531 0.222656 L 279.777344 0.222656 L 279.777344 59.851562 L 179.894531 59.851562 Z M 179.894531 0.222656 " fill-opacity="1" fill-rule="nonzero"/><g clip-path="url(#5c8baa4489)"><path fill="#000000" d="M 279.777344 60.078125 L 179.894531 60.078125 C 179.773438 60.078125 179.667969 59.976562 179.667969 59.851562 L 179.667969 0.222656 C 179.667969 0.101562 179.773438 0 179.894531 0 L 279.777344 0 C 279.902344 0 280.003906 0.101562 280.003906 0.222656 L 280.003906 59.851562 C 280.003906 59.976562 279.902344 60.078125 279.777344 60.078125 Z M 180.117188 59.628906 L 279.554688 59.628906 L 279.554688 0.449219 L 180.117188 0.449219 Z M 180.117188 59.628906 " fill-opacity="1" fill-rule="nonzero"/></g><path fill="#ffffff" d="M 229.546875 29.222656 C 229.546875 29.222656 220.347656 40.433594 209.058594 40.375 C 197.773438 40.3125 188.683594 29.019531 188.683594 29.019531 C 188.683594 29.019531 197.882812 17.808594 209.171875 17.871094 C 220.460938 17.929688 229.546875 29.222656 229.546875 29.222656 Z M 229.546875 29.222656 " fill-opacity="1" fill-rule="nonzero"/><path fill="#000000" d="M 209.152344 40.597656 C 209.121094 40.597656 209.089844 40.597656 209.070312 40.597656 C 197.8125 40.535156 188.613281 29.273438 188.523438 29.152344 C 188.449219 29.070312 188.460938 28.949219 188.523438 28.867188 C 188.613281 28.753906 197.875 17.636719 209.101562 17.636719 C 209.132812 17.636719 209.160156 17.636719 209.183594 17.636719 C 220.4375 17.695312 229.636719 28.957031 229.730469 29.082031 C 229.800781 29.164062 229.789062 29.285156 229.730469 29.367188 C 229.628906 29.476562 220.367188 40.597656 209.152344 40.597656 Z M 188.980469 29.019531 C 190.082031 30.324219 198.699219 40.097656 209.070312 40.148438 C 209.101562 40.148438 209.132812 40.148438 209.152344 40.148438 C 219.480469 40.148438 228.152344 30.515625 229.261719 29.222656 C 228.160156 27.921875 219.542969 18.144531 209.171875 18.09375 C 209.140625 18.09375 209.109375 18.09375 209.089844 18.09375 C 198.761719 18.09375 190.089844 27.726562 188.980469 29.019531 Z M 188.980469 29.019531 " fill-opacity="1" fill-rule="nonzero"/><path fill="#ffffff" d="M 215.640625 19.082031 C 217.605469 20.875 218.847656 23.449219 218.828125 26.320312 C 218.796875 31.6875 214.4375 36.015625 209.078125 35.996094 C 203.722656 35.964844 199.390625 31.597656 199.421875 26.230469 C 199.433594 23.359375 200.695312 20.792969 202.683594 19.019531 C 194.5625 21.863281 188.675781 29.019531 188.675781 29.019531 C 188.675781 29.019531 197.773438 40.324219 209.050781 40.375 C 220.335938 40.433594 229.535156 29.222656 229.535156 29.222656 C 229.535156 29.222656 223.738281 22.015625 215.640625 19.082031 Z M 215.640625 19.082031 " fill-opacity="1" fill-rule="nonzero"/><path fill="#000000" d="M 209.152344 40.597656 C 209.121094 40.597656 209.089844 40.597656 209.070312 40.597656 C 197.8125 40.535156 188.613281 29.273438 188.523438 29.152344 C 188.449219 29.070312 188.460938 28.949219 188.523438 28.867188 C 188.582031 28.796875 194.53125 21.628906 202.621094 18.796875 C 202.722656 18.765625 202.835938 18.808594 202.886719 18.898438 C 202.9375 18.992188 202.925781 19.113281 202.84375 19.183594 C 200.828125 20.976562 199.667969 23.542969 199.65625 26.21875 C 199.636719 31.453125 203.863281 35.742188 209.089844 35.761719 C 209.109375 35.761719 209.121094 35.761719 209.140625 35.761719 C 211.65625 35.761719 214.019531 34.785156 215.804688 33.011719 C 217.605469 31.230469 218.605469 28.847656 218.617188 26.3125 C 218.625 23.632812 217.496094 21.058594 215.496094 19.234375 C 215.417969 19.164062 215.40625 19.042969 215.457031 18.949219 C 215.507812 18.859375 215.621094 18.816406 215.722656 18.859375 C 223.78125 21.769531 229.667969 29 229.730469 29.070312 C 229.800781 29.152344 229.789062 29.273438 229.730469 29.355469 C 229.628906 29.476562 220.367188 40.597656 209.152344 40.597656 Z M 188.980469 29.019531 C 190.082031 30.324219 198.710938 40.097656 209.070312 40.148438 C 209.101562 40.148438 209.132812 40.148438 209.152344 40.148438 C 219.480469 40.148438 228.152344 30.515625 229.261719 29.222656 C 228.4375 28.246094 223.371094 22.492188 216.546875 19.671875 C 218.167969 21.496094 219.082031 23.867188 219.0625 26.320312 C 219.054688 28.980469 218.003906 31.472656 216.121094 33.335938 C 214.246094 35.191406 211.769531 36.207031 209.132812 36.21875 C 209.109375 36.21875 209.101562 36.21875 209.078125 36.21875 C 203.609375 36.1875 199.167969 31.707031 199.199219 26.230469 C 199.207031 23.777344 200.144531 21.414062 201.785156 19.601562 C 194.929688 22.339844 189.816406 28.054688 188.980469 29.019531 Z M 188.980469 29.019531 " fill-opacity="1" fill-rule="nonzero"/><path fill="#000000" d="M 225.613281 25.230469 C 225.550781 25.230469 225.480469 25.203125 225.441406 25.152344 C 225.359375 25.058594 225.378906 24.917969 225.472656 24.835938 L 231.421875 20.058594 C 231.511719 19.976562 231.65625 20 231.738281 20.089844 C 231.816406 20.183594 231.796875 20.324219 231.707031 20.40625 L 225.757812 25.179688 C 225.714844 25.222656 225.664062 25.230469 225.613281 25.230469 Z M 225.613281 25.230469 " fill-opacity="1" fill-rule="nonzero"/><path fill="#000000" d="M 218.59375 20.078125 C 218.554688 20.078125 218.511719 20.070312 218.484375 20.050781 C 218.382812 19.988281 218.339844 19.84375 218.410156 19.742188 L 222.425781 13.113281 C 222.488281 13.011719 222.628906 12.972656 222.730469 13.042969 C 222.832031 13.105469 222.875 13.246094 222.800781 13.347656 L 218.789062 19.976562 C 218.746094 20.050781 218.667969 20.078125 218.59375 20.078125 Z M 218.59375 20.078125 " fill-opacity="1" fill-rule="nonzero"/><path fill="#000000" d="M 192.027344 25.375 C 191.984375 25.375 191.933594 25.363281 191.894531 25.335938 L 185.253906 20.488281 C 185.148438 20.414062 185.128906 20.273438 185.203125 20.171875 C 185.273438 20.070312 185.414062 20.050781 185.515625 20.121094 L 192.160156 24.96875 C 192.261719 25.039062 192.28125 25.179688 192.210938 25.28125 C 192.167969 25.335938 192.097656 25.375 192.027344 25.375 Z M 192.027344 25.375 " fill-opacity="1" fill-rule="nonzero"/><path fill="#000000" d="M 199.726562 20.773438 C 199.65625 20.773438 199.585938 20.730469 199.535156 20.671875 L 195.074219 13.695312 C 195 13.59375 195.03125 13.449219 195.144531 13.390625 C 195.246094 13.320312 195.386719 13.347656 195.449219 13.460938 L 199.910156 20.4375 C 199.984375 20.539062 199.953125 20.679688 199.839844 20.742188 C 199.808594 20.761719 199.769531 20.773438 199.726562 20.773438 Z M 199.726562 20.773438 " fill-opacity="1" fill-rule="nonzero"/><path fill="#000000" d="M 208.480469 18.09375 C 208.355469 18.09375 208.253906 17.992188 208.253906 17.871094 L 208.253906 9.96875 C 208.253906 9.847656 208.355469 9.746094 208.480469 9.746094 C 208.601562 9.746094 208.703125 9.847656 208.703125 9.96875 L 208.703125 17.871094 C 208.703125 17.992188 208.601562 18.09375 208.480469 18.09375 Z M 208.480469 18.09375 " fill-opacity="1" fill-rule="nonzero"/><path fill="#5479f7" d="M 239.398438 27.972656 L 209.101562 27.972656 C 208.976562 27.972656 208.875 27.871094 208.875 27.746094 C 208.875 27.625 208.976562 27.523438 209.101562 27.523438 L 239.398438 27.523438 C 239.519531 27.523438 239.621094 27.625 239.621094 27.746094 C 239.621094 27.878906 239.519531 27.972656 239.398438 27.972656 Z M 239.398438 27.972656 " fill-opacity="1" fill-rule="nonzero"/><path fill="#5479f7" d="M 209.191406 28.15625 C 208.96875 28.15625 208.785156 27.972656 208.785156 27.746094 C 208.785156 27.523438 208.96875 27.339844 209.191406 27.339844 C 209.417969 27.339844 209.597656 27.523438 209.597656 27.746094 C 209.609375 27.972656 209.425781 28.15625 209.191406 28.15625 Z M 209.191406 28.15625 " fill-opacity="1" fill-rule="nonzero"/><path fill="#5479f7" d="M 239.140625 29 L 239.140625 26.242188 L 243.117188 25.457031 L 243.117188 29.785156 Z M 239.140625 29 " fill-opacity="1" fill-rule="nonzero"/><path fill="#5479f7" d="M 267.175781 19.710938 L 267.175781 35.5625 L 259.953125 35.5625 L 259.953125 19.710938 Z M 267.175781 19.710938 " fill-opacity="1" fill-rule="nonzero"/><path fill="#ffffff" d="M 278.210938 8.859375 L 265.222656 16.75 L 265.222656 37.910156 L 278.210938 45.800781 Z M 278.210938 8.859375 " fill-opacity="1" fill-rule="nonzero"/><path fill="#000000" d="M 278.210938 46.023438 C 278.167969 46.023438 278.128906 46.015625 278.097656 45.996094 L 265.109375 38.101562 C 265.039062 38.0625 264.996094 37.992188 264.996094 37.910156 L 264.996094 16.75 C 264.996094 16.667969 265.039062 16.597656 265.109375 16.558594 L 278.097656 8.675781 C 278.167969 8.632812 278.25 8.632812 278.320312 8.675781 C 278.394531 8.714844 278.433594 8.789062 278.433594 8.867188 L 278.433594 45.8125 C 278.433594 45.890625 278.394531 45.964844 278.320312 46.003906 C 278.28125 46.015625 278.25 46.023438 278.210938 46.023438 Z M 265.445312 37.789062 L 277.984375 45.402344 L 277.984375 9.257812 L 265.445312 16.871094 Z M 265.445312 37.789062 " fill-opacity="1" fill-rule="nonzero"/><path fill="#ffffff" d="M 279.914062 5.277344 L 279.914062 48.136719 L 276.378906 48.136719 L 276.378906 5.277344 Z M 279.914062 5.277344 " fill-opacity="1" fill-rule="nonzero"/><g clip-path="url(#3235d64651)"><path fill="#000000" d="M 279.910156 48.355469 L 276.375 48.355469 C 276.253906 48.355469 276.152344 48.253906 276.152344 48.132812 L 276.152344 5.273438 C 276.152344 5.152344 276.253906 5.050781 276.375 5.050781 L 279.910156 5.050781 C 280.035156 5.050781 280.136719 5.152344 280.136719 5.273438 L 280.136719 48.132812 C 280.136719 48.265625 280.035156 48.355469 279.910156 48.355469 Z M 276.601562 47.910156 L 279.6875 47.910156 L 279.6875 5.5 L 276.601562 5.5 Z M 276.601562 47.910156 " fill-opacity="1" fill-rule="nonzero"/></g><path fill="#ffffff" d="M 256.308594 37.726562 L 242.667969 30.617188 L 242.667969 24.386719 L 256.308594 16.921875 L 260.921875 16.921875 L 260.921875 37.695312 Z M 256.308594 37.726562 " fill-opacity="1" fill-rule="nonzero"/><path fill="#000000" d="M 242.667969 25.761719 C 242.542969 25.761719 242.441406 25.660156 242.441406 25.539062 L 242.441406 24.375 C 242.441406 24.296875 242.484375 24.222656 242.554688 24.183594 L 256.183594 16.71875 C 256.214844 16.699219 256.257812 16.6875 256.296875 16.6875 L 260.921875 16.6875 C 261.042969 16.6875 261.148438 16.789062 261.148438 16.914062 L 261.148438 19.691406 C 261.148438 19.816406 261.042969 19.917969 260.921875 19.917969 C 260.800781 19.917969 260.699219 19.816406 260.699219 19.691406 L 260.699219 17.136719 L 256.359375 17.136719 L 242.890625 24.507812 L 242.890625 25.539062 C 242.890625 25.660156 242.800781 25.761719 242.667969 25.761719 Z M 242.667969 25.761719 " fill-opacity="1" fill-rule="nonzero"/><path fill="#000000" d="M 256.308594 37.949219 C 256.265625 37.949219 256.238281 37.941406 256.207031 37.929688 L 242.574219 30.824219 C 242.503906 30.78125 242.453125 30.710938 242.453125 30.617188 L 242.453125 29.691406 C 242.453125 29.570312 242.554688 29.46875 242.675781 29.46875 C 242.800781 29.46875 242.902344 29.570312 242.902344 29.691406 L 242.902344 30.476562 L 256.367188 37.492188 L 260.707031 37.472656 L 260.707031 35.578125 C 260.707031 35.457031 260.808594 35.355469 260.933594 35.355469 C 261.054688 35.355469 261.15625 35.457031 261.15625 35.578125 L 261.15625 37.695312 C 261.15625 37.816406 261.054688 37.917969 260.933594 37.917969 Z M 256.308594 37.949219 " fill-opacity="1" fill-rule="nonzero"/><path fill="#000000" d="M 256.308594 37.949219 C 256.183594 37.949219 256.082031 37.847656 256.082031 37.726562 L 256.082031 16.921875 C 256.082031 16.800781 256.183594 16.699219 256.308594 16.699219 C 256.429688 16.699219 256.53125 16.800781 256.53125 16.921875 L 256.53125 37.726562 C 256.53125 37.847656 256.429688 37.949219 256.308594 37.949219 Z M 256.308594 37.949219 " fill-opacity="1" fill-rule="nonzero"/><path fill="#5479f7" d="M 212.410156 34.722656 C 212.328125 34.722656 212.25 34.671875 212.207031 34.589844 L 211.78125 33.664062 C 211.730469 33.550781 211.78125 33.417969 211.890625 33.367188 C 212.003906 33.316406 212.136719 33.367188 212.1875 33.480469 L 212.613281 34.40625 C 212.664062 34.519531 212.613281 34.652344 212.503906 34.703125 C 212.472656 34.710938 212.441406 34.722656 212.410156 34.722656 Z M 212.410156 34.722656 " fill-opacity="1" fill-rule="nonzero"/><path fill="#5479f7" d="M 211.679688 33.125 C 211.597656 33.125 211.515625 33.074219 211.472656 32.992188 L 210.128906 30.046875 C 210.078125 29.9375 210.128906 29.804688 210.242188 29.753906 C 210.351562 29.703125 210.484375 29.753906 210.535156 29.863281 L 211.882812 32.808594 C 211.933594 32.921875 211.882812 33.050781 211.769531 33.101562 C 211.738281 33.113281 211.707031 33.125 211.679688 33.125 Z M 211.679688 33.125 " fill-opacity="1" fill-rule="nonzero"/><path fill="#5479f7" d="M 217.148438 33.09375 C 217.109375 33.09375 217.066406 33.082031 217.027344 33.0625 L 215.753906 32.277344 C 215.652344 32.21875 215.609375 32.074219 215.679688 31.972656 C 215.742188 31.871094 215.886719 31.832031 215.988281 31.902344 L 217.261719 32.6875 C 217.363281 32.746094 217.402344 32.890625 217.332031 32.992188 C 217.300781 33.050781 217.230469 33.09375 217.148438 33.09375 Z M 217.148438 33.09375 " fill-opacity="1" fill-rule="nonzero"/><path fill="#5479f7" d="M 215.285156 31.953125 C 215.242188 31.953125 215.203125 31.941406 215.160156 31.921875 L 211.128906 29.449219 C 211.027344 29.386719 210.984375 29.242188 211.054688 29.140625 C 211.117188 29.039062 211.261719 29 211.363281 29.070312 L 215.394531 31.546875 C 215.496094 31.605469 215.539062 31.75 215.46875 31.851562 C 215.4375 31.910156 215.367188 31.953125 215.285156 31.953125 Z M 215.285156 31.953125 " fill-opacity="1" fill-rule="nonzero"/><path fill="#5479f7" d="M 205.839844 34.722656 C 205.808594 34.722656 205.78125 34.710938 205.75 34.703125 C 205.636719 34.652344 205.585938 34.519531 205.636719 34.40625 L 206.066406 33.480469 C 206.117188 33.367188 206.246094 33.316406 206.359375 33.367188 C 206.472656 33.417969 206.523438 33.550781 206.472656 33.664062 L 206.042969 34.589844 C 206.003906 34.671875 205.921875 34.722656 205.839844 34.722656 Z M 205.839844 34.722656 " fill-opacity="1" fill-rule="nonzero"/><path fill="#5479f7" d="M 206.574219 33.125 C 206.542969 33.125 206.511719 33.113281 206.480469 33.101562 C 206.371094 33.050781 206.320312 32.921875 206.371094 32.808594 L 207.714844 29.863281 C 207.765625 29.753906 207.898438 29.703125 208.011719 29.753906 C 208.121094 29.804688 208.171875 29.9375 208.121094 30.046875 L 206.777344 32.992188 C 206.738281 33.074219 206.65625 33.125 206.574219 33.125 Z M 206.574219 33.125 " fill-opacity="1" fill-rule="nonzero"/><path fill="#5479f7" d="M 201.09375 33.09375 C 201.023438 33.09375 200.941406 33.050781 200.898438 32.980469 C 200.839844 32.878906 200.871094 32.738281 200.972656 32.675781 L 202.246094 31.890625 C 202.347656 31.832031 202.488281 31.859375 202.550781 31.960938 C 202.609375 32.066406 202.582031 32.207031 202.480469 32.269531 L 201.207031 33.050781 C 201.175781 33.082031 201.132812 33.09375 201.09375 33.09375 Z M 201.09375 33.09375 " fill-opacity="1" fill-rule="nonzero"/><path fill="#5479f7" d="M 202.957031 31.953125 C 202.886719 31.953125 202.804688 31.910156 202.765625 31.839844 C 202.703125 31.738281 202.734375 31.597656 202.835938 31.535156 L 206.871094 29.0625 C 206.972656 29 207.113281 29.03125 207.175781 29.132812 C 207.234375 29.234375 207.207031 29.375 207.105469 29.4375 L 203.070312 31.910156 C 203.039062 31.933594 203 31.953125 202.957031 31.953125 Z M 202.957031 31.953125 " fill-opacity="1" fill-rule="nonzero"/><path fill="#5479f7" d="M 211.984375 22.117188 C 211.953125 22.117188 211.921875 22.105469 211.890625 22.097656 C 211.78125 22.046875 211.730469 21.914062 211.78125 21.800781 L 212.207031 20.875 C 212.257812 20.761719 212.390625 20.710938 212.503906 20.761719 C 212.613281 20.8125 212.664062 20.945312 212.613281 21.058594 L 212.1875 21.984375 C 212.15625 22.074219 212.074219 22.117188 211.984375 22.117188 Z M 211.984375 22.117188 " fill-opacity="1" fill-rule="nonzero"/><path fill="#5479f7" d="M 210.332031 25.730469 C 210.300781 25.730469 210.273438 25.722656 210.242188 25.710938 C 210.128906 25.660156 210.078125 25.527344 210.128906 25.414062 L 211.472656 22.472656 C 211.523438 22.359375 211.65625 22.308594 211.769531 22.359375 C 211.882812 22.410156 211.933594 22.542969 211.882812 22.65625 L 210.535156 25.597656 C 210.496094 25.691406 210.414062 25.730469 210.332031 25.730469 Z M 210.332031 25.730469 " fill-opacity="1" fill-rule="nonzero"/><path fill="#5479f7" d="M 215.875 23.601562 C 215.804688 23.601562 215.722656 23.5625 215.679688 23.492188 C 215.621094 23.390625 215.652344 23.246094 215.753906 23.183594 L 217.027344 22.402344 C 217.128906 22.339844 217.269531 22.371094 217.332031 22.472656 C 217.394531 22.574219 217.363281 22.71875 217.261719 22.777344 L 215.988281 23.5625 C 215.957031 23.59375 215.914062 23.601562 215.875 23.601562 Z M 215.875 23.601562 " fill-opacity="1" fill-rule="nonzero"/><path fill="#5479f7" d="M 211.261719 26.445312 C 211.1875 26.445312 211.105469 26.402344 211.066406 26.332031 C 211.003906 26.230469 211.035156 26.085938 211.136719 26.027344 L 215.171875 23.550781 C 215.273438 23.492188 215.417969 23.523438 215.476562 23.625 C 215.539062 23.726562 215.507812 23.867188 215.40625 23.929688 L 211.371094 26.402344 C 211.332031 26.433594 211.300781 26.445312 211.261719 26.445312 Z M 211.261719 26.445312 " fill-opacity="1" fill-rule="nonzero"/><path fill="#5479f7" d="M 206.257812 22.117188 C 206.175781 22.117188 206.09375 22.066406 206.054688 21.984375 L 205.625 21.058594 C 205.574219 20.945312 205.625 20.8125 205.738281 20.761719 C 205.851562 20.710938 205.984375 20.761719 206.035156 20.875 L 206.460938 21.800781 C 206.511719 21.914062 206.460938 22.046875 206.351562 22.097656 C 206.320312 22.117188 206.289062 22.117188 206.257812 22.117188 Z M 206.257812 22.117188 " fill-opacity="1" fill-rule="nonzero"/><path fill="#5479f7" d="M 207.917969 25.730469 C 207.835938 25.730469 207.753906 25.679688 207.714844 25.597656 L 206.371094 22.65625 C 206.320312 22.542969 206.371094 22.410156 206.480469 22.359375 C 206.59375 22.308594 206.726562 22.359375 206.777344 22.472656 L 208.121094 25.414062 C 208.171875 25.527344 208.121094 25.660156 208.011719 25.710938 C 207.980469 25.730469 207.949219 25.730469 207.917969 25.730469 Z M 207.917969 25.730469 " fill-opacity="1" fill-rule="nonzero"/><path fill="#5479f7" d="M 202.367188 23.601562 C 202.324219 23.601562 202.285156 23.59375 202.246094 23.574219 L 200.972656 22.789062 C 200.871094 22.726562 200.828125 22.585938 200.898438 22.484375 C 200.960938 22.382812 201.101562 22.339844 201.207031 22.410156 L 202.480469 23.195312 C 202.582031 23.257812 202.621094 23.398438 202.550781 23.5 C 202.519531 23.5625 202.449219 23.601562 202.367188 23.601562 Z M 202.367188 23.601562 " fill-opacity="1" fill-rule="nonzero"/><path fill="#5479f7" d="M 206.992188 26.445312 C 206.949219 26.445312 206.910156 26.433594 206.871094 26.414062 L 202.835938 23.9375 C 202.734375 23.878906 202.691406 23.734375 202.765625 23.632812 C 202.824219 23.53125 202.96875 23.492188 203.070312 23.5625 L 207.105469 26.035156 C 207.207031 26.097656 207.246094 26.242188 207.175781 26.34375 C 207.144531 26.402344 207.0625 26.445312 206.992188 26.445312 Z M 206.992188 26.445312 " fill-opacity="1" fill-rule="nonzero"/><path fill="#ffffff" d="M 10.335938 5.453125 L 72.335938 5.300781 L 72.523438 84.574219 L 10.523438 84.722656 Z M 10.335938 5.453125 " fill-opacity="1" fill-rule="nonzero"/><path fill="#000000" d="M 10.53125 84.941406 C 10.410156 84.941406 10.308594 84.839844 10.308594 84.71875 L 10.105469 5.449219 C 10.105469 5.386719 10.125 5.335938 10.164062 5.285156 C 10.207031 5.242188 10.265625 5.222656 10.328125 5.222656 L 72.328125 5.070312 C 72.449219 5.070312 72.550781 5.171875 72.550781 5.292969 L 72.753906 84.566406 C 72.753906 84.625 72.734375 84.675781 72.695312 84.726562 C 72.652344 84.769531 72.59375 84.789062 72.53125 84.789062 L 10.53125 84.941406 C 10.542969 84.941406 10.542969 84.941406 10.53125 84.941406 Z M 10.5625 5.671875 L 10.765625 84.496094 L 72.316406 84.339844 L 72.113281 5.519531 Z M 10.5625 5.671875 " fill-opacity="1" fill-rule="nonzero"/><path fill="#e2eaff" d="M 38.230469 14.304688 L 45.5625 14.289062 L 45.585938 23.941406 L 38.253906 23.957031 Z M 38.230469 14.304688 " fill-opacity="1" fill-rule="nonzero"/><path fill="#e2eaff" d="M 38.945312 30.484375 L 44.933594 30.46875 L 44.953125 38.339844 L 38.964844 38.355469 Z M 38.945312 30.484375 " fill-opacity="1" fill-rule="nonzero"/><path fill="#e2eaff" d="M 48.957031 30.464844 L 54.949219 30.449219 L 54.96875 38.320312 L 48.976562 38.335938 Z M 48.957031 30.464844 " fill-opacity="1" fill-rule="nonzero"/><path fill="#e2eaff" d="M 28.929688 30.503906 L 34.921875 30.488281 L 34.941406 38.359375 L 28.949219 38.375 Z M 28.929688 30.503906 " fill-opacity="1" fill-rule="nonzero"/><path fill="#e2eaff" d="M 35.289062 44.800781 L 40.1875 44.789062 L 40.203125 51.242188 L 35.304688 51.253906 Z M 35.289062 44.800781 " fill-opacity="1" fill-rule="nonzero"/><path fill="#e2eaff" d="M 43.488281 44.777344 L 48.390625 44.765625 L 48.40625 51.222656 L 43.503906 51.234375 Z M 43.488281 44.777344 " fill-opacity="1" fill-rule="nonzero"/><path fill="#e2eaff" d="M 51.628906 44.757812 L 56.53125 44.746094 L 56.546875 51.203125 L 51.644531 51.214844 Z M 51.628906 44.757812 " fill-opacity="1" fill-rule="nonzero"/><path fill="#e2eaff" d="M 27.078125 44.820312 L 31.980469 44.808594 L 31.992188 51.261719 L 27.09375 51.273438 Z M 27.078125 44.820312 " fill-opacity="1" fill-rule="nonzero"/><path fill="#e2eaff" d="M 31.96875 57.769531 L 36.523438 57.761719 L 36.535156 63.757812 L 31.984375 63.769531 Z M 31.96875 57.769531 " fill-opacity="1" fill-rule="nonzero"/><path fill="#e2eaff" d="M 39.597656 57.761719 L 44.152344 57.75 L 44.167969 63.746094 L 39.613281 63.757812 Z M 39.597656 57.761719 " fill-opacity="1" fill-rule="nonzero"/><path fill="#e2eaff" d="M 47.15625 57.742188 L 51.710938 57.730469 L 51.726562 63.726562 L 47.171875 63.738281 Z M 47.15625 57.742188 " fill-opacity="1" fill-rule="nonzero"/><path fill="#e2eaff" d="M 54.605469 57.71875 L 59.160156 57.710938 L 59.171875 63.707031 L 54.621094 63.71875 Z M 54.605469 57.71875 " fill-opacity="1" fill-rule="nonzero"/><path fill="#e2eaff" d="M 24.347656 57.792969 L 28.902344 57.78125 L 28.917969 63.777344 L 24.363281 63.789062 Z M 24.347656 57.792969 " fill-opacity="1" fill-rule="nonzero"/><path fill="#e2eaff" d="M 28.730469 70.019531 L 33.089844 70.011719 L 33.101562 75.742188 L 28.742188 75.753906 Z M 28.730469 70.019531 " fill-opacity="1" fill-rule="nonzero"/><path fill="#e2eaff" d="M 36.023438 70 L 40.382812 69.988281 L 40.398438 75.722656 L 36.039062 75.734375 Z M 36.023438 70 " fill-opacity="1" fill-rule="nonzero"/><path fill="#e2eaff" d="M 43.257812 69.980469 L 47.617188 69.96875 L 47.628906 75.703125 L 43.269531 75.710938 Z M 43.257812 69.980469 " fill-opacity="1" fill-rule="nonzero"/><path fill="#e2eaff" d="M 50.378906 69.96875 L 54.738281 69.960938 L 54.75 75.691406 L 50.390625 75.703125 Z M 50.378906 69.96875 " fill-opacity="1" fill-rule="nonzero"/><path fill="#e2eaff" d="M 57.214844 69.949219 L 61.574219 69.9375 L 61.589844 75.671875 L 57.226562 75.683594 Z M 57.214844 69.949219 " fill-opacity="1" fill-rule="nonzero"/><path fill="#e2eaff" d="M 21.425781 70.03125 L 25.785156 70.019531 L 25.800781 75.753906 L 21.4375 75.761719 Z M 21.425781 70.03125 " fill-opacity="1" fill-rule="nonzero"/><path fill="#ffffff" d="M 193.332031 181.257812 L 115.53125 181.257812 L 115.53125 174.285156 C 115.53125 172.929688 116.222656 171.636719 117.46875 170.679688 L 138.175781 154.710938 C 139.429688 153.746094 141.140625 153.207031 142.914062 153.207031 L 193.332031 153.207031 Z M 193.332031 181.257812 " fill-opacity="1" fill-rule="nonzero"/><path fill="#000000" d="M 193.332031 181.480469 L 115.53125 181.480469 C 115.410156 181.480469 115.308594 181.378906 115.308594 181.257812 L 115.308594 174.285156 C 115.308594 172.859375 116.03125 171.515625 117.335938 170.503906 L 138.046875 154.539062 C 139.347656 153.53125 141.082031 152.980469 142.925781 152.980469 L 193.339844 152.980469 C 193.464844 152.980469 193.566406 153.082031 193.566406 153.207031 L 193.566406 181.257812 C 193.554688 181.378906 193.453125 181.480469 193.332031 181.480469 Z M 115.753906 181.035156 L 193.105469 181.035156 L 193.105469 153.429688 L 142.914062 153.429688 C 141.191406 153.429688 139.523438 153.960938 138.308594 154.894531 L 117.609375 170.863281 C 116.417969 171.777344 115.753906 173 115.753906 174.285156 Z M 115.753906 181.035156 " fill-opacity="1" fill-rule="nonzero"/><path fill="#ffffff" d="M 108.726562 179.832031 L 193.332031 179.832031 L 193.332031 186.011719 L 108.726562 186.011719 Z M 108.726562 179.832031 " fill-opacity="1" fill-rule="nonzero"/><path fill="#000000" d="M 193.332031 186.238281 L 108.726562 186.238281 C 108.605469 186.238281 108.503906 186.136719 108.503906 186.011719 L 108.503906 179.832031 C 108.503906 179.710938 108.605469 179.609375 108.726562 179.609375 L 193.332031 179.609375 C 193.453125 179.609375 193.554688 179.710938 193.554688 179.832031 L 193.554688 186.011719 C 193.554688 186.136719 193.453125 186.238281 193.332031 186.238281 Z M 108.949219 185.789062 L 193.105469 185.789062 L 193.105469 180.058594 L 108.949219 180.058594 Z M 108.949219 185.789062 " fill-opacity="1" fill-rule="nonzero"/><path fill="#ffffff" d="M 200.257812 52.960938 C 208.019531 52.960938 214.613281 59.261719 214.316406 67.019531 C 214.171875 70.777344 211.972656 73.609375 210.515625 76.03125 L 221.34375 88.617188 L 207.601562 97.4375 L 198.894531 85.59375 C 197.050781 86.488281 194.789062 87.316406 193.179688 87.183594 C 187.269531 86.714844 186.199219 74.78125 186.199219 67.019531 C 186.199219 59.25 192.496094 52.960938 200.257812 52.960938 Z M 200.257812 52.960938 " fill-opacity="1" fill-rule="nonzero"/><path fill="#000000" d="M 207.613281 97.648438 C 207.542969 97.648438 207.480469 97.621094 207.429688 97.558594 L 198.820312 85.867188 C 197.414062 86.539062 194.960938 87.550781 193.15625 87.40625 C 186.902344 86.90625 185.976562 74.421875 185.976562 67.019531 C 185.976562 59.148438 192.382812 52.734375 200.257812 52.734375 C 204.191406 52.734375 208 54.355469 210.71875 57.175781 C 213.316406 59.871094 214.671875 63.367188 214.539062 67.019531 C 214.417969 70.257812 212.828125 72.773438 211.421875 74.992188 C 211.199219 75.339844 210.996094 75.675781 210.792969 76.003906 L 221.519531 88.457031 C 221.558594 88.507812 221.578125 88.566406 221.570312 88.636719 C 221.558594 88.699219 221.519531 88.761719 221.46875 88.792969 L 207.726562 97.609375 C 207.695312 97.640625 207.652344 97.648438 207.613281 97.648438 Z M 198.894531 85.359375 C 198.964844 85.359375 199.023438 85.390625 199.078125 85.453125 L 207.664062 97.121094 L 221.007812 88.558594 L 210.34375 76.175781 C 210.28125 76.105469 210.273438 75.992188 210.324219 75.910156 C 210.546875 75.535156 210.792969 75.15625 211.046875 74.761719 C 212.421875 72.589844 213.96875 70.136719 214.09375 67.011719 C 214.222656 63.476562 212.910156 60.097656 210.40625 57.492188 C 207.765625 54.75 204.066406 53.183594 200.257812 53.183594 C 192.628906 53.183594 186.421875 59.382812 186.421875 67.019531 C 186.421875 72.855469 187.085938 86.480469 193.199219 86.957031 C 194.972656 87.101562 197.464844 86.03125 198.800781 85.390625 C 198.832031 85.371094 198.863281 85.359375 198.894531 85.359375 Z M 198.894531 85.359375 " fill-opacity="1" fill-rule="nonzero"/><path fill="#000000" d="M 201.15625 71.714844 C 201.132812 71.714844 201.101562 71.714844 201.082031 71.703125 C 200.960938 71.664062 200.898438 71.542969 200.941406 71.421875 C 201.183594 70.675781 201.59375 70.167969 202.164062 69.882812 C 203.109375 69.414062 204.140625 69.78125 204.191406 69.800781 C 204.300781 69.839844 204.363281 69.972656 204.324219 70.085938 C 204.28125 70.199219 204.148438 70.257812 204.039062 70.21875 C 204.015625 70.207031 203.128906 69.902344 202.355469 70.289062 C 201.898438 70.515625 201.5625 70.941406 201.367188 71.5625 C 201.335938 71.652344 201.246094 71.714844 201.15625 71.714844 Z M 201.15625 71.714844 " fill-opacity="1" fill-rule="nonzero"/><path fill="#000000" d="M 200.351562 68.90625 C 200.351562 68.90625 201.828125 65.953125 204.710938 67.640625 C 207.988281 69.566406 204.292969 74.25 204.292969 74.25 C 204.292969 74.25 209.628906 78.609375 212.441406 77.90625 C 215.253906 77.203125 221.621094 69.839844 218.535156 58.039062 C 217.382812 53.652344 211.382812 49.609375 207.054688 49.160156 C 202.753906 48.722656 195.703125 49.222656 190.785156 54.984375 C 190.785156 54.984375 181.269531 53.722656 185.957031 67.121094 C 185.957031 67.121094 190.265625 63.84375 195.703125 67.683594 C 195.703125 67.683594 197.546875 68.964844 200.351562 68.90625 Z M 200.351562 68.90625 " fill-opacity="1" fill-rule="nonzero"/><path fill="#000000" d="M 217.605469 59.25 C 217.605469 59.25 235.820312 51.859375 243.605469 60.757812 C 252.957031 71.460938 238.023438 88.863281 254.546875 91.019531 C 271.070312 93.167969 247.761719 116.40625 233.101562 105.480469 C 216.363281 93.007812 228.671875 76.695312 224.757812 68.996094 C 221.679688 62.9375 218.328125 64.046875 218.328125 64.046875 Z M 217.605469 59.25 " fill-opacity="1" fill-rule="nonzero"/><path fill="#5479f7" d="M 195.164062 177.582031 C 195.164062 177.582031 184.5 94.148438 218.960938 84.902344 C 218.960938 84.902344 232.828125 88.25 246.210938 109.757812 C 253.640625 121.691406 270.019531 176.511719 270.019531 176.511719 Z M 195.164062 177.582031 " fill-opacity="1" fill-rule="nonzero"/><path fill="#ffffff" d="M 234.496094 129.835938 C 234.496094 129.835938 217.289062 128.402344 200.308594 134.855469 L 203.832031 156.269531 C 203.832031 156.269531 160.445312 163.398438 152.328125 165.140625 C 143.167969 167.09375 130.160156 172.328125 131.339844 178.804688 C 132.054688 182.734375 136.925781 181.257812 136.925781 181.257812 C 136.925781 181.257812 136.984375 184.78125 139.421875 184.976562 C 141.855469 185.167969 161.066406 185.433594 174.027344 185.933594 C 188.347656 186.480469 221.722656 186.371094 232.277344 177.5625 C 246.210938 165.933594 234.496094 129.835938 234.496094 129.835938 Z M 234.496094 129.835938 " fill-opacity="1" fill-rule="nonzero"/><path fill="#000000" d="M 183.835938 186.339844 C 179.355469 186.339844 175.828125 186.226562 174.027344 186.167969 C 166.855469 185.890625 157.871094 185.6875 150.644531 185.523438 C 144.980469 185.390625 140.5 185.289062 139.410156 185.210938 C 137.230469 185.035156 136.800781 182.429688 136.71875 181.554688 C 136.007812 181.726562 134.0625 182.074219 132.625 181.199219 C 131.820312 180.707031 131.320312 179.925781 131.128906 178.855469 C 130.589844 175.871094 132.910156 172.835938 137.851562 170.089844 C 141.652344 167.96875 147.050781 166.046875 152.277344 164.925781 C 158.183594 163.664062 182.398438 159.601562 196.316406 157.289062 C 196.4375 157.269531 196.550781 157.351562 196.570312 157.472656 C 196.589844 157.59375 196.507812 157.707031 196.386719 157.726562 C 182.480469 160.039062 158.265625 164.089844 152.367188 165.351562 C 143.371094 167.277344 130.40625 172.441406 131.554688 178.765625 C 131.730469 179.699219 132.15625 180.382812 132.847656 180.800781 C 134.417969 181.757812 136.832031 181.042969 136.851562 181.042969 C 136.925781 181.023438 136.996094 181.035156 137.046875 181.074219 C 137.097656 181.117188 137.136719 181.175781 137.136719 181.25 C 137.136719 181.277344 137.230469 184.578125 139.429688 184.75 C 140.511719 184.832031 144.980469 184.933594 150.636719 185.066406 C 157.859375 185.230469 166.84375 185.433594 174.027344 185.707031 C 181.707031 186.003906 220.613281 187 232.125 177.390625 C 232.316406 177.226562 232.511719 177.054688 232.703125 176.878906 C 232.796875 176.796875 232.9375 176.796875 233.019531 176.890625 C 233.101562 176.980469 233.101562 177.125 233.007812 177.207031 C 232.816406 177.390625 232.613281 177.5625 232.410156 177.734375 C 223.515625 185.179688 198.503906 186.339844 183.835938 186.339844 Z M 183.835938 186.339844 " fill-opacity="1" fill-rule="nonzero"/><path fill="#000000" d="M 136.964844 181.460938 C 136.875 181.460938 136.792969 181.410156 136.761719 181.320312 C 136.710938 181.207031 136.773438 181.074219 136.882812 181.023438 C 141.058594 179.292969 147.824219 177.113281 153.140625 176.6875 C 153.265625 176.675781 153.375 176.769531 153.386719 176.890625 C 153.398438 177.011719 153.304688 177.125 153.183594 177.132812 C 147.917969 177.550781 141.203125 179.722656 137.058594 181.441406 C 137.027344 181.453125 136.996094 181.460938 136.964844 181.460938 Z M 136.964844 181.460938 " fill-opacity="1" fill-rule="nonzero"/><path fill="#000000" d="M 135.234375 181.789062 C 135.222656 181.789062 135.203125 181.789062 135.191406 181.789062 C 134.695312 181.695312 134.253906 181.441406 133.949219 181.085938 C 133.308594 180.320312 133.175781 179.121094 133.625 178.03125 C 134.042969 177.011719 134.855469 176.21875 135.527344 175.636719 C 139.550781 172.144531 144.910156 170.527344 149.628906 169.089844 C 149.75 169.050781 149.871094 169.121094 149.902344 169.242188 C 149.945312 169.367188 149.871094 169.488281 149.75 169.519531 C 145.074219 170.945312 139.765625 172.550781 135.8125 175.972656 C 135.183594 176.523438 134.40625 177.265625 134.03125 178.195312 C 133.652344 179.128906 133.746094 180.148438 134.285156 180.78125 C 134.519531 181.054688 134.875 181.257812 135.273438 181.328125 C 135.394531 181.351562 135.476562 181.472656 135.457031 181.59375 C 135.425781 181.707031 135.335938 181.789062 135.234375 181.789062 Z M 135.234375 181.789062 " fill-opacity="1" fill-rule="nonzero"/><path fill="#ffffff" d="M 163.523438 138.675781 L 166.417969 138.675781 L 166.417969 143.910156 L 163.523438 143.910156 Z M 163.523438 138.675781 " fill-opacity="1" fill-rule="nonzero"/><path fill="#000000" d="M 166.417969 144.132812 L 163.523438 144.132812 C 163.402344 144.132812 163.300781 144.03125 163.300781 143.910156 L 163.300781 138.675781 C 163.300781 138.554688 163.402344 138.453125 163.523438 138.453125 L 166.417969 138.453125 C 166.539062 138.453125 166.640625 138.554688 166.640625 138.675781 L 166.640625 143.910156 C 166.640625 144.03125 166.539062 144.132812 166.417969 144.132812 Z M 163.746094 143.683594 L 166.191406 143.683594 L 166.191406 138.898438 L 163.746094 138.898438 Z M 163.746094 143.683594 " fill-opacity="1" fill-rule="nonzero"/><path fill="#ffffff" d="M 157.738281 147.585938 L 172.140625 147.585938 L 172.140625 150.75 L 157.738281 150.75 Z M 157.738281 147.585938 " fill-opacity="1" fill-rule="nonzero"/><path fill="#000000" d="M 172.140625 150.976562 L 157.738281 150.976562 C 157.613281 150.976562 157.511719 150.875 157.511719 150.75 L 157.511719 147.585938 C 157.511719 147.460938 157.613281 147.359375 157.738281 147.359375 L 172.140625 147.359375 C 172.261719 147.359375 172.367188 147.460938 172.367188 147.585938 L 172.367188 150.75 C 172.367188 150.875 172.273438 150.976562 172.140625 150.976562 Z M 157.960938 150.527344 L 171.917969 150.527344 L 171.917969 147.808594 L 157.960938 147.808594 Z M 157.960938 150.527344 " fill-opacity="1" fill-rule="nonzero"/><path fill="#ffffff" d="M 172.140625 147.625 L 157.738281 147.625 L 160.425781 143.675781 L 169.453125 143.675781 Z M 172.140625 147.625 " fill-opacity="1" fill-rule="nonzero"/><path fill="#000000" d="M 172.140625 147.851562 L 157.738281 147.851562 C 157.65625 147.851562 157.574219 147.796875 157.542969 147.726562 C 157.503906 147.65625 157.511719 147.566406 157.554688 147.492188 L 160.242188 143.542969 C 160.285156 143.480469 160.355469 143.441406 160.425781 143.441406 L 169.453125 143.441406 C 169.523438 143.441406 169.59375 143.480469 169.636719 143.542969 L 172.324219 147.492188 C 172.375 147.566406 172.375 147.644531 172.335938 147.726562 C 172.304688 147.796875 172.234375 147.851562 172.140625 147.851562 Z M 158.164062 147.402344 L 171.722656 147.402344 L 169.339844 143.898438 L 160.546875 143.898438 Z M 158.164062 147.402344 " fill-opacity="1" fill-rule="nonzero"/><path fill="#000000" d="M 140.246094 62.835938 C 140.125 62.835938 140.019531 62.734375 140.019531 62.613281 L 140.019531 57.417969 C 140.019531 57.296875 140.125 57.195312 140.246094 57.195312 C 140.367188 57.195312 140.46875 57.296875 140.46875 57.417969 L 140.46875 62.613281 C 140.46875 62.746094 140.367188 62.835938 140.246094 62.835938 Z M 140.246094 62.835938 " fill-opacity="1" fill-rule="nonzero"/><path fill="#ffffff" d="M 122.011719 76.53125 L 115.113281 76.53125 L 115.113281 62.785156 L 122.011719 62.785156 C 124.953125 62.785156 127.347656 65.179688 127.347656 68.121094 L 127.347656 71.195312 C 127.347656 74.148438 124.953125 76.53125 122.011719 76.53125 Z M 122.011719 76.53125 " fill-opacity="1" fill-rule="nonzero"/><path fill="#000000" d="M 122.011719 76.753906 L 115.113281 76.753906 C 114.992188 76.753906 114.890625 76.652344 114.890625 76.53125 L 114.890625 62.785156 C 114.890625 62.664062 114.992188 62.5625 115.113281 62.5625 L 122.011719 62.5625 C 125.078125 62.5625 127.574219 65.054688 127.574219 68.121094 L 127.574219 71.195312 C 127.574219 74.261719 125.078125 76.753906 122.011719 76.753906 Z M 115.335938 76.308594 L 122.011719 76.308594 C 124.832031 76.308594 127.125 74.015625 127.125 71.195312 L 127.125 68.121094 C 127.125 65.300781 124.832031 63.007812 122.011719 63.007812 L 115.335938 63.007812 Z M 115.335938 76.308594 " fill-opacity="1" fill-rule="nonzero"/><path fill="#ffffff" d="M 131.445312 111.753906 L 114.296875 112.273438 L 114.296875 88.292969 L 131.445312 88.292969 Z M 131.445312 111.753906 " fill-opacity="1" fill-rule="nonzero"/><path fill="#000000" d="M 114.296875 112.496094 C 114.238281 112.496094 114.1875 112.476562 114.144531 112.433594 C 114.105469 112.394531 114.074219 112.332031 114.074219 112.273438 L 114.074219 88.292969 C 114.074219 88.171875 114.175781 88.066406 114.296875 88.066406 L 131.445312 88.066406 C 131.566406 88.066406 131.667969 88.171875 131.667969 88.292969 L 131.667969 111.742188 C 131.667969 111.863281 131.574219 111.964844 131.453125 111.964844 Z M 114.523438 88.527344 L 114.523438 112.046875 L 131.21875 111.539062 L 131.21875 88.527344 Z M 131.445312 111.753906 Z M 131.445312 111.753906 " fill-opacity="1" fill-rule="nonzero"/><path fill="#ffffff" d="M 94.199219 58.8125 L 106.351562 58.8125 L 106.351562 63.265625 L 94.199219 63.265625 Z M 94.199219 58.8125 " fill-opacity="1" fill-rule="nonzero"/><path fill="#000000" d="M 106.363281 63.488281 L 94.210938 63.488281 C 94.085938 63.488281 93.984375 63.386719 93.984375 63.265625 L 93.984375 58.8125 C 93.984375 58.691406 94.085938 58.589844 94.210938 58.589844 L 106.363281 58.589844 C 106.484375 58.589844 106.585938 58.691406 106.585938 58.8125 L 106.585938 63.265625 C 106.585938 63.386719 106.484375 63.488281 106.363281 63.488281 Z M 94.421875 63.039062 L 106.128906 63.039062 L 106.128906 59.039062 L 94.421875 59.039062 Z M 94.421875 63.039062 " fill-opacity="1" fill-rule="nonzero"/><path fill="#ffffff" d="M 103.316406 57.703125 L 115.101562 57.703125 L 115.101562 66.605469 L 103.316406 66.605469 Z M 103.316406 57.703125 " fill-opacity="1" fill-rule="nonzero"/><path fill="#000000" d="M 115.101562 66.828125 L 103.316406 66.828125 C 103.195312 66.828125 103.09375 66.726562 103.09375 66.605469 L 103.09375 57.703125 C 103.09375 57.582031 103.195312 57.480469 103.316406 57.480469 L 115.101562 57.480469 C 115.226562 57.480469 115.328125 57.582031 115.328125 57.703125 L 115.328125 66.605469 C 115.328125 66.726562 115.226562 66.828125 115.101562 66.828125 Z M 103.542969 66.378906 L 114.878906 66.378906 L 114.878906 57.929688 L 103.542969 57.929688 Z M 103.542969 66.378906 " fill-opacity="1" fill-rule="nonzero"/><path fill="#000000" d="M 122.234375 87.957031 C 122.113281 87.957031 122.011719 87.855469 122.011719 87.730469 L 122.011719 53.925781 C 122.011719 53.804688 122.113281 53.703125 122.234375 53.703125 C 122.355469 53.703125 122.457031 53.804688 122.457031 53.925781 L 122.457031 87.730469 C 122.457031 87.855469 122.355469 87.957031 122.234375 87.957031 Z M 122.234375 87.957031 " fill-opacity="1" fill-rule="nonzero"/><path fill="#ffffff" d="M 158.632812 118.871094 L 155.515625 118.871094 L 138.695312 89.574219 L 138.695312 61.492188 L 141.804688 61.492188 L 141.804688 89.574219 Z M 158.632812 118.871094 " fill-opacity="1" fill-rule="nonzero"/><path fill="#000000" d="M 158.632812 119.09375 L 155.515625 119.09375 C 155.433594 119.09375 155.363281 119.054688 155.324219 118.980469 L 138.503906 89.6875 C 138.484375 89.65625 138.472656 89.617188 138.472656 89.574219 L 138.472656 61.492188 C 138.472656 61.371094 138.574219 61.269531 138.695312 61.269531 L 141.8125 61.269531 C 141.9375 61.269531 142.039062 61.371094 142.039062 61.492188 L 142.039062 89.515625 L 158.828125 118.757812 C 158.867188 118.828125 158.867188 118.910156 158.828125 118.980469 C 158.785156 119.042969 158.714844 119.09375 158.632812 119.09375 Z M 155.648438 118.644531 L 158.246094 118.644531 L 141.621094 89.6875 C 141.601562 89.65625 141.589844 89.617188 141.589844 89.574219 L 141.589844 61.714844 L 138.921875 61.714844 L 138.921875 89.515625 Z M 155.648438 118.644531 " fill-opacity="1" fill-rule="nonzero"/><path fill="#ffffff" d="M 196.0625 115.753906 L 196.0625 118.871094 L 151.789062 118.871094 L 151.789062 115.753906 Z M 196.0625 115.753906 " fill-opacity="1" fill-rule="nonzero"/><path fill="#000000" d="M 196.070312 119.09375 L 151.796875 119.09375 C 151.675781 119.09375 151.574219 118.992188 151.574219 118.871094 L 151.574219 115.753906 C 151.574219 115.632812 151.675781 115.53125 151.796875 115.53125 L 196.070312 115.53125 C 196.191406 115.53125 196.296875 115.632812 196.296875 115.753906 L 196.296875 118.871094 C 196.296875 118.992188 196.191406 119.09375 196.070312 119.09375 Z M 152.023438 118.644531 L 195.847656 118.644531 L 195.847656 115.976562 L 152.023438 115.976562 Z M 152.023438 118.644531 " fill-opacity="1" fill-rule="nonzero"/><path fill="#ffffff" d="M 196.070312 137.304688 L 196.070312 140.417969 L 160.976562 140.417969 L 160.976562 137.304688 Z M 196.070312 137.304688 " fill-opacity="1" fill-rule="nonzero"/><path fill="#000000" d="M 196.070312 140.640625 L 160.976562 140.640625 C 160.855469 140.640625 160.753906 140.539062 160.753906 140.417969 L 160.753906 137.300781 C 160.753906 137.179688 160.855469 137.078125 160.976562 137.078125 L 196.070312 137.078125 C 196.191406 137.078125 196.296875 137.179688 196.296875 137.300781 L 196.296875 140.417969 C 196.296875 140.546875 196.191406 140.640625 196.070312 140.640625 Z M 161.199219 140.191406 L 195.847656 140.191406 L 195.847656 137.523438 L 161.199219 137.523438 Z M 161.199219 140.191406 " fill-opacity="1" fill-rule="nonzero"/><path fill="#ffffff" d="M 196.417969 61.207031 L 182.859375 61.207031 C 182.003906 61.207031 181.300781 61.898438 181.300781 62.765625 C 181.300781 63.621094 181.992188 64.324219 182.859375 64.324219 L 193.300781 64.324219 L 193.300781 86.398438 L 183.347656 86.398438 C 182.492188 86.398438 181.789062 87.089844 181.789062 87.957031 C 181.789062 88.8125 182.480469 89.515625 183.347656 89.515625 L 193.300781 89.515625 L 193.300781 158.011719 L 196.40625 157.503906 L 196.40625 61.207031 Z M 196.417969 61.207031 " fill-opacity="1" fill-rule="nonzero"/><path fill="#000000" d="M 193.300781 158.234375 C 193.25 158.234375 193.199219 158.214844 193.15625 158.183594 C 193.105469 158.144531 193.074219 158.082031 193.074219 158.011719 L 193.074219 89.738281 L 183.347656 89.738281 C 182.371094 89.738281 181.566406 88.945312 181.566406 87.957031 C 181.566406 86.980469 182.359375 86.175781 183.347656 86.175781 L 193.074219 86.175781 L 193.074219 64.546875 L 182.859375 64.546875 C 181.878906 64.546875 181.074219 63.753906 181.074219 62.765625 C 181.074219 61.777344 181.871094 60.984375 182.859375 60.984375 L 196.417969 60.984375 C 196.539062 60.984375 196.640625 61.085938 196.640625 61.207031 L 196.640625 64.324219 C 196.640625 64.332031 196.640625 64.34375 196.640625 64.363281 L 196.640625 117.273438 C 196.640625 117.394531 196.539062 117.496094 196.417969 117.496094 C 196.296875 117.496094 196.191406 117.394531 196.191406 117.273438 L 196.191406 64.324219 C 196.191406 64.3125 196.191406 64.300781 196.191406 64.28125 L 196.191406 61.429688 L 182.859375 61.429688 C 182.125 61.429688 181.523438 62.03125 181.523438 62.765625 C 181.523438 63.496094 182.125 64.097656 182.859375 64.097656 L 193.300781 64.097656 C 193.421875 64.097656 193.523438 64.199219 193.523438 64.324219 L 193.523438 86.398438 C 193.523438 86.519531 193.421875 86.621094 193.300781 86.621094 L 183.347656 86.621094 C 182.613281 86.621094 182.011719 87.222656 182.011719 87.957031 C 182.011719 88.6875 182.613281 89.289062 183.347656 89.289062 L 193.300781 89.289062 C 193.421875 89.289062 193.523438 89.390625 193.523438 89.515625 L 193.523438 157.746094 L 196.375 157.277344 C 196.5 157.257812 196.609375 157.339844 196.632812 157.460938 C 196.652344 157.585938 196.570312 157.695312 196.449219 157.714844 L 193.339844 158.226562 C 193.332031 158.234375 193.308594 158.234375 193.300781 158.234375 Z M 193.300781 158.234375 " fill-opacity="1" fill-rule="nonzero"/><path fill="#ffffff" d="M 144.75 89.71875 C 144.75 90.023438 144.71875 90.328125 144.660156 90.628906 C 144.597656 90.929688 144.511719 91.21875 144.394531 91.503906 C 144.277344 91.785156 144.132812 92.054688 143.964844 92.308594 C 143.792969 92.5625 143.601562 92.800781 143.382812 93.015625 C 143.167969 93.230469 142.933594 93.425781 142.679688 93.59375 C 142.425781 93.765625 142.15625 93.910156 141.875 94.027344 C 141.589844 94.144531 141.300781 94.230469 141 94.292969 C 140.699219 94.351562 140.398438 94.382812 140.09375 94.382812 C 139.785156 94.382812 139.484375 94.351562 139.183594 94.292969 C 138.882812 94.230469 138.59375 94.144531 138.3125 94.027344 C 138.027344 93.910156 137.761719 93.765625 137.507812 93.59375 C 137.25 93.425781 137.015625 93.230469 136.800781 93.015625 C 136.585938 92.800781 136.390625 92.5625 136.222656 92.308594 C 136.050781 92.054688 135.910156 91.785156 135.792969 91.503906 C 135.675781 91.21875 135.585938 90.929688 135.527344 90.628906 C 135.46875 90.328125 135.4375 90.023438 135.4375 89.71875 C 135.4375 89.410156 135.46875 89.109375 135.527344 88.808594 C 135.585938 88.507812 135.675781 88.214844 135.792969 87.933594 C 135.910156 87.648438 136.050781 87.382812 136.222656 87.125 C 136.390625 86.871094 136.585938 86.636719 136.800781 86.421875 C 137.015625 86.203125 137.25 86.011719 137.507812 85.839844 C 137.761719 85.671875 138.027344 85.527344 138.3125 85.410156 C 138.59375 85.292969 138.882812 85.203125 139.183594 85.144531 C 139.484375 85.085938 139.785156 85.054688 140.09375 85.054688 C 140.398438 85.054688 140.699219 85.085938 141 85.144531 C 141.300781 85.203125 141.589844 85.292969 141.875 85.410156 C 142.15625 85.527344 142.425781 85.671875 142.679688 85.839844 C 142.933594 86.011719 143.167969 86.203125 143.382812 86.421875 C 143.601562 86.636719 143.792969 86.871094 143.964844 87.125 C 144.132812 87.382812 144.277344 87.648438 144.394531 87.933594 C 144.511719 88.214844 144.597656 88.507812 144.660156 88.808594 C 144.71875 89.109375 144.75 89.410156 144.75 89.71875 Z M 144.75 89.71875 " fill-opacity="1" fill-rule="nonzero"/><path fill="#000000" d="M 140.09375 94.605469 C 137.402344 94.605469 135.214844 92.417969 135.214844 89.71875 C 135.214844 87.03125 137.402344 84.832031 140.09375 84.832031 C 142.78125 84.832031 144.972656 87.019531 144.972656 89.71875 C 144.972656 92.417969 142.78125 94.605469 140.09375 94.605469 Z M 140.09375 85.289062 C 137.648438 85.289062 135.660156 87.273438 135.660156 89.726562 C 135.660156 92.171875 137.648438 94.167969 140.09375 94.167969 C 142.539062 94.167969 144.523438 92.183594 144.523438 89.726562 C 144.523438 87.273438 142.539062 85.289062 140.09375 85.289062 Z M 140.09375 85.289062 " fill-opacity="1" fill-rule="nonzero"/><path fill="#ffffff" d="M 141.234375 89.71875 C 141.234375 89.867188 141.203125 90.015625 141.148438 90.152344 C 141.089844 90.292969 141.007812 90.417969 140.898438 90.523438 C 140.792969 90.632812 140.667969 90.714844 140.527344 90.769531 C 140.390625 90.828125 140.242188 90.859375 140.09375 90.859375 C 139.941406 90.859375 139.796875 90.828125 139.65625 90.769531 C 139.515625 90.714844 139.394531 90.632812 139.285156 90.523438 C 139.179688 90.417969 139.097656 90.292969 139.039062 90.152344 C 138.980469 90.015625 138.953125 89.867188 138.953125 89.71875 C 138.953125 89.566406 138.980469 89.421875 139.039062 89.28125 C 139.097656 89.140625 139.179688 89.019531 139.285156 88.910156 C 139.394531 88.804688 139.515625 88.722656 139.65625 88.664062 C 139.796875 88.605469 139.941406 88.578125 140.09375 88.578125 C 140.242188 88.578125 140.390625 88.605469 140.527344 88.664062 C 140.667969 88.722656 140.792969 88.804688 140.898438 88.910156 C 141.007812 89.019531 141.089844 89.140625 141.148438 89.28125 C 141.203125 89.421875 141.234375 89.566406 141.234375 89.71875 Z M 141.234375 89.71875 " fill-opacity="1" fill-rule="nonzero"/><path fill="#000000" d="M 140.09375 91.082031 C 139.339844 91.082031 138.726562 90.472656 138.726562 89.71875 C 138.726562 88.964844 139.339844 88.351562 140.09375 88.351562 C 140.847656 88.351562 141.457031 88.964844 141.457031 89.71875 C 141.449219 90.472656 140.835938 91.082031 140.09375 91.082031 Z M 140.09375 88.8125 C 139.59375 88.8125 139.175781 89.21875 139.175781 89.726562 C 139.175781 90.238281 139.582031 90.644531 140.09375 90.644531 C 140.601562 90.644531 141.007812 90.238281 141.007812 89.726562 C 141.007812 89.21875 140.589844 88.8125 140.09375 88.8125 Z M 140.09375 88.8125 " fill-opacity="1" fill-rule="nonzero"/><path fill="#ffffff" d="M 159.714844 117.027344 C 159.714844 117.332031 159.683594 117.636719 159.625 117.9375 C 159.5625 118.238281 159.476562 118.527344 159.359375 118.8125 C 159.242188 119.09375 159.097656 119.363281 158.929688 119.617188 C 158.757812 119.871094 158.566406 120.109375 158.347656 120.324219 C 158.132812 120.542969 157.898438 120.734375 157.644531 120.90625 C 157.390625 121.074219 157.121094 121.21875 156.839844 121.335938 C 156.558594 121.453125 156.265625 121.542969 155.964844 121.601562 C 155.664062 121.660156 155.363281 121.691406 155.058594 121.691406 C 154.75 121.691406 154.449219 121.660156 154.148438 121.601562 C 153.847656 121.542969 153.558594 121.453125 153.277344 121.335938 C 152.992188 121.21875 152.726562 121.074219 152.472656 120.90625 C 152.21875 120.734375 151.980469 120.542969 151.765625 120.324219 C 151.550781 120.109375 151.355469 119.871094 151.1875 119.617188 C 151.015625 119.363281 150.875 119.09375 150.757812 118.8125 C 150.640625 118.527344 150.550781 118.238281 150.492188 117.9375 C 150.433594 117.636719 150.402344 117.332031 150.402344 117.027344 C 150.402344 116.722656 150.433594 116.417969 150.492188 116.117188 C 150.550781 115.816406 150.640625 115.527344 150.757812 115.242188 C 150.875 114.960938 151.015625 114.691406 151.1875 114.4375 C 151.355469 114.183594 151.550781 113.945312 151.765625 113.730469 C 151.980469 113.511719 152.21875 113.320312 152.472656 113.148438 C 152.726562 112.980469 152.992188 112.835938 153.277344 112.71875 C 153.558594 112.601562 153.847656 112.511719 154.148438 112.453125 C 154.449219 112.394531 154.75 112.363281 155.058594 112.363281 C 155.363281 112.363281 155.664062 112.394531 155.964844 112.453125 C 156.265625 112.511719 156.558594 112.601562 156.839844 112.71875 C 157.121094 112.835938 157.390625 112.980469 157.644531 113.148438 C 157.898438 113.320312 158.132812 113.511719 158.347656 113.730469 C 158.566406 113.945312 158.757812 114.183594 158.929688 114.4375 C 159.097656 114.691406 159.242188 114.960938 159.359375 115.242188 C 159.476562 115.527344 159.5625 115.816406 159.625 116.117188 C 159.683594 116.417969 159.714844 116.722656 159.714844 117.027344 Z M 159.714844 117.027344 " fill-opacity="1" fill-rule="nonzero"/><path fill="#000000" d="M 155.058594 121.914062 C 152.367188 121.914062 150.179688 119.726562 150.179688 117.027344 C 150.179688 114.339844 152.367188 112.140625 155.058594 112.140625 C 157.746094 112.140625 159.9375 114.328125 159.9375 117.027344 C 159.9375 119.714844 157.746094 121.914062 155.058594 121.914062 Z M 155.058594 112.585938 C 152.613281 112.585938 150.625 114.574219 150.625 117.027344 C 150.625 119.480469 152.613281 121.46875 155.058594 121.46875 C 157.503906 121.46875 159.488281 119.480469 159.488281 117.027344 C 159.488281 114.574219 157.503906 112.585938 155.058594 112.585938 Z M 155.058594 112.585938 " fill-opacity="1" fill-rule="nonzero"/><path fill="#ffffff" d="M 155.058594 115.96875 C 155.210938 115.972656 155.355469 116 155.496094 116.058594 C 155.636719 116.117188 155.757812 116.199219 155.867188 116.304688 C 155.972656 116.414062 156.054688 116.539062 156.113281 116.675781 C 156.171875 116.816406 156.199219 116.960938 156.199219 117.113281 C 156.199219 117.265625 156.167969 117.410156 156.109375 117.550781 C 156.050781 117.691406 155.96875 117.8125 155.863281 117.917969 C 155.753906 118.027344 155.632812 118.109375 155.492188 118.164062 C 155.351562 118.222656 155.207031 118.25 155.054688 118.25 C 154.902344 118.25 154.757812 118.222656 154.617188 118.164062 C 154.476562 118.105469 154.355469 118.023438 154.25 117.914062 C 154.140625 117.808594 154.058594 117.683594 154.003906 117.546875 C 153.945312 117.40625 153.914062 117.257812 153.917969 117.109375 C 153.917969 116.957031 153.945312 116.8125 154.003906 116.671875 C 154.0625 116.53125 154.144531 116.410156 154.253906 116.304688 C 154.359375 116.195312 154.484375 116.113281 154.625 116.054688 C 154.761719 116 154.910156 115.96875 155.058594 115.96875 Z M 155.058594 115.96875 " fill-opacity="1" fill-rule="nonzero"/><path fill="#000000" d="M 155.058594 118.472656 C 154.304688 118.472656 153.691406 117.863281 153.691406 117.109375 C 153.691406 116.355469 154.304688 115.746094 155.058594 115.746094 C 155.8125 115.746094 156.421875 116.355469 156.421875 117.109375 C 156.414062 117.863281 155.800781 118.472656 155.058594 118.472656 Z M 155.058594 116.203125 C 154.558594 116.203125 154.140625 116.609375 154.140625 117.117188 C 154.140625 117.628906 154.546875 118.035156 155.058594 118.035156 C 155.566406 118.035156 155.972656 117.628906 155.972656 117.117188 C 155.972656 116.609375 155.558594 116.203125 155.058594 116.203125 Z M 155.058594 116.203125 " fill-opacity="1" fill-rule="nonzero"/><path fill="#ffffff" d="M 119.757812 50.34375 L 143.535156 50.34375 L 143.535156 58.152344 L 119.757812 58.152344 Z M 119.757812 50.34375 " fill-opacity="1" fill-rule="nonzero"/><path fill="#000000" d="M 143.535156 58.375 L 119.757812 58.375 C 119.636719 58.375 119.535156 58.273438 119.535156 58.152344 L 119.535156 50.34375 C 119.535156 50.21875 119.636719 50.117188 119.757812 50.117188 L 143.535156 50.117188 C 143.65625 50.117188 143.761719 50.21875 143.761719 50.34375 L 143.761719 58.152344 C 143.761719 58.273438 143.65625 58.375 143.535156 58.375 Z M 119.984375 57.929688 L 143.3125 57.929688 L 143.3125 50.566406 L 119.984375 50.566406 Z M 119.984375 57.929688 " fill-opacity="1" fill-rule="nonzero"/><path fill="#ffffff" d="M 126.65625 66.492188 L 130.261719 66.492188 L 130.261719 72.222656 L 126.65625 72.222656 Z M 126.65625 66.492188 " fill-opacity="1" fill-rule="nonzero"/><path fill="#000000" d="M 130.261719 72.4375 L 126.65625 72.4375 C 126.535156 72.4375 126.429688 72.335938 126.429688 72.214844 L 126.429688 66.492188 C 126.429688 66.371094 126.535156 66.269531 126.65625 66.269531 L 130.261719 66.269531 C 130.382812 66.269531 130.484375 66.371094 130.484375 66.492188 L 130.484375 72.222656 C 130.484375 72.347656 130.382812 72.4375 130.261719 72.4375 Z M 126.878906 71.988281 L 130.027344 71.988281 L 130.027344 66.707031 L 126.878906 66.707031 Z M 126.878906 71.988281 " fill-opacity="1" fill-rule="nonzero"/><path fill="#e2eaff" d="M 91.613281 18.421875 C 91.613281 18.882812 91.523438 19.332031 91.34375 19.761719 C 91.167969 20.191406 90.914062 20.570312 90.585938 20.898438 C 90.257812 21.226562 89.878906 21.476562 89.449219 21.65625 C 89.019531 21.835938 88.570312 21.921875 88.109375 21.921875 C 87.644531 21.921875 87.195312 21.835938 86.765625 21.65625 C 86.335938 21.476562 85.957031 21.226562 85.628906 20.898438 C 85.300781 20.570312 85.046875 20.191406 84.871094 19.761719 C 84.691406 19.332031 84.601562 18.882812 84.601562 18.421875 C 84.601562 17.957031 84.691406 17.507812 84.871094 17.078125 C 85.046875 16.652344 85.300781 16.273438 85.628906 15.941406 C 85.957031 15.613281 86.335938 15.363281 86.765625 15.183594 C 87.195312 15.007812 87.644531 14.917969 88.109375 14.917969 C 88.570312 14.917969 89.019531 15.007812 89.449219 15.183594 C 89.878906 15.363281 90.257812 15.613281 90.585938 15.941406 C 90.914062 16.273438 91.167969 16.652344 91.34375 17.078125 C 91.523438 17.507812 91.613281 17.957031 91.613281 18.421875 Z M 91.613281 18.421875 " fill-opacity="1" fill-rule="nonzero"/><path fill="#e2eaff" d="M 101.839844 18.421875 C 101.839844 18.882812 101.75 19.332031 101.574219 19.761719 C 101.394531 20.191406 101.140625 20.570312 100.8125 20.898438 C 100.484375 21.226562 100.105469 21.476562 99.675781 21.65625 C 99.246094 21.835938 98.800781 21.921875 98.335938 21.921875 C 97.871094 21.921875 97.421875 21.835938 96.996094 21.65625 C 96.566406 21.476562 96.1875 21.226562 95.855469 20.898438 C 95.527344 20.570312 95.277344 20.191406 95.097656 19.761719 C 94.917969 19.332031 94.832031 18.882812 94.832031 18.421875 C 94.832031 17.957031 94.917969 17.507812 95.097656 17.078125 C 95.277344 16.652344 95.527344 16.273438 95.855469 15.941406 C 96.1875 15.613281 96.566406 15.363281 96.996094 15.183594 C 97.421875 15.007812 97.871094 14.917969 98.335938 14.917969 C 98.800781 14.917969 99.246094 15.007812 99.675781 15.183594 C 100.105469 15.363281 100.484375 15.613281 100.8125 15.941406 C 101.140625 16.273438 101.394531 16.652344 101.574219 17.078125 C 101.75 17.507812 101.839844 17.957031 101.839844 18.421875 Z M 101.839844 18.421875 " fill-opacity="1" fill-rule="nonzero"/><path fill="#e2eaff" d="M 112.066406 18.421875 C 112.066406 18.882812 111.980469 19.332031 111.800781 19.761719 C 111.625 20.191406 111.371094 20.570312 111.042969 20.898438 C 110.710938 21.226562 110.332031 21.476562 109.90625 21.65625 C 109.476562 21.835938 109.027344 21.921875 108.5625 21.921875 C 108.097656 21.921875 107.652344 21.835938 107.222656 21.65625 C 106.792969 21.476562 106.414062 21.226562 106.085938 20.898438 C 105.757812 20.570312 105.503906 20.191406 105.324219 19.761719 C 105.148438 19.332031 105.058594 18.882812 105.058594 18.421875 C 105.058594 17.957031 105.148438 17.507812 105.324219 17.078125 C 105.503906 16.652344 105.757812 16.273438 106.085938 15.941406 C 106.414062 15.613281 106.792969 15.363281 107.222656 15.183594 C 107.652344 15.007812 108.097656 14.917969 108.5625 14.917969 C 109.027344 14.917969 109.476562 15.007812 109.90625 15.183594 C 110.332031 15.363281 110.710938 15.613281 111.042969 15.941406 C 111.371094 16.273438 111.625 16.652344 111.800781 17.078125 C 111.980469 17.507812 112.066406 17.957031 112.066406 18.421875 Z M 112.066406 18.421875 " fill-opacity="1" fill-rule="nonzero"/><path fill="#000000" d="M 142.84375 46.777344 C 142.722656 46.777344 142.617188 46.675781 142.617188 46.554688 L 142.617188 18.644531 L 115.734375 18.644531 C 115.613281 18.644531 115.511719 18.542969 115.511719 18.421875 C 115.511719 18.296875 115.613281 18.195312 115.734375 18.195312 L 142.84375 18.195312 C 142.964844 18.195312 143.066406 18.296875 143.066406 18.421875 L 143.066406 46.554688 C 143.066406 46.675781 142.976562 46.777344 142.84375 46.777344 Z M 142.84375 46.777344 " fill-opacity="1" fill-rule="nonzero"/><g clip-path="url(#b963b82e29)"><path fill="#ffffff" d="M 45.097656 77.03125 C 45.097656 77.03125 24.039062 80.746094 17.386719 95.757812 C 10.613281 111.050781 0.652344 186.023438 0.652344 186.023438 L 95.472656 186.207031 C 95.472656 186.207031 87.058594 103.863281 78.46875 95.125 C 69.882812 86.386719 45.097656 77.03125 45.097656 77.03125 Z M 45.097656 77.03125 " fill-opacity="1" fill-rule="nonzero"/></g><g clip-path="url(#09ab8e3f08)"><path fill="#000000" d="M 0.660156 186.238281 C 0.652344 186.238281 0.640625 186.238281 0.628906 186.238281 C 0.507812 186.21875 0.417969 186.105469 0.4375 185.984375 C 0.539062 185.21875 10.613281 109.816406 16.605469 96.84375 C 20.996094 87.335938 29.5 82.152344 35.859375 79.484375 C 42.734375 76.59375 48.664062 75.929688 48.722656 75.929688 C 48.765625 75.929688 48.804688 75.929688 48.847656 75.949219 C 49.058594 76.054688 70.128906 86.277344 78.644531 94.953125 C 87.179688 103.648438 95.359375 182.5625 95.707031 185.921875 C 95.71875 186.042969 95.625 186.15625 95.503906 186.167969 C 95.382812 186.175781 95.269531 186.085938 95.257812 185.960938 C 95.175781 185.136719 86.753906 103.851562 78.328125 95.265625 C 70.097656 86.875 49.957031 76.988281 48.714844 76.390625 C 48.0625 76.46875 42.46875 77.203125 36.019531 79.910156 C 29.734375 82.550781 21.339844 87.671875 17.011719 97.039062 C 11.042969 109.949219 0.976562 185.289062 0.875 186.042969 C 0.863281 186.15625 0.773438 186.238281 0.660156 186.238281 Z M 0.660156 186.238281 " fill-opacity="1" fill-rule="nonzero"/></g><path fill="#ffffff" d="M 122.671875 103.320312 L 132.871094 103.320312 L 132.871094 78.894531 C 132.871094 77.722656 131.921875 76.777344 130.75 76.777344 L 124.792969 76.777344 C 123.621094 76.777344 122.671875 77.722656 122.671875 78.894531 Z M 122.671875 103.320312 " fill-opacity="1" fill-rule="nonzero"/><path fill="#000000" d="M 132.871094 103.546875 L 122.671875 103.546875 C 122.550781 103.546875 122.449219 103.445312 122.449219 103.320312 L 122.449219 78.894531 C 122.449219 77.601562 123.496094 76.550781 124.792969 76.550781 L 130.75 76.550781 C 132.042969 76.550781 133.09375 77.601562 133.09375 78.894531 L 133.09375 103.320312 C 133.09375 103.453125 132.992188 103.546875 132.871094 103.546875 Z M 122.898438 103.097656 L 132.644531 103.097656 L 132.644531 78.894531 C 132.644531 77.84375 131.800781 77 130.75 77 L 124.792969 77 C 123.742188 77 122.898438 77.84375 122.898438 78.894531 Z M 122.898438 103.097656 " fill-opacity="1" fill-rule="nonzero"/><path fill="#ffffff" d="M 93.558594 108.433594 L 67.976562 121.90625 L 50.382812 98.820312 C 42.019531 90.929688 34.492188 86.335938 24.886719 92.660156 L 24.886719 92.496094 C 13.667969 99.878906 15.460938 119.828125 25.007812 129.265625 L 45.003906 149.070312 C 57.3125 161.261719 77.238281 160.925781 89.136719 148.339844 L 107.992188 128.378906 Z M 93.558594 108.433594 " fill-opacity="1" fill-rule="nonzero"/><path fill="#000000" d="M 66.695312 158.234375 C 58.453125 158.234375 50.71875 155.058594 44.84375 149.246094 L 24.84375 129.441406 C 19.355469 124.003906 16.226562 114.757812 17.050781 106.425781 C 17.671875 100.195312 20.402344 95.1875 24.761719 92.324219 C 24.835938 92.285156 24.917969 92.273438 24.996094 92.3125 C 25.007812 92.3125 25.007812 92.324219 25.019531 92.324219 C 34.339844 86.335938 41.703125 90.320312 50.558594 98.667969 C 50.566406 98.679688 50.578125 98.6875 50.578125 98.699219 L 68.058594 121.628906 L 93.464844 108.25 C 93.566406 108.199219 93.691406 108.230469 93.75 108.320312 L 108.1875 128.277344 C 108.246094 128.371094 108.238281 128.484375 108.164062 128.5625 L 89.308594 148.523438 C 83.511719 154.652344 75.679688 158.113281 67.246094 158.246094 C 67.050781 158.234375 66.878906 158.234375 66.695312 158.234375 Z M 24.761719 92.855469 C 20.667969 95.664062 18.089844 100.492188 17.5 106.46875 C 16.683594 114.675781 19.761719 123.777344 25.160156 129.125 L 45.160156 148.929688 C 51.066406 154.785156 58.902344 157.921875 67.214844 157.789062 C 75.527344 157.644531 83.25 154.246094 88.964844 148.195312 L 107.699219 128.371094 L 93.484375 108.71875 L 68.078125 122.097656 C 67.976562 122.148438 67.867188 122.117188 67.792969 122.035156 L 50.222656 98.972656 C 41.460938 90.714844 34.1875 86.804688 25.007812 92.855469 C 24.9375 92.894531 24.855469 92.90625 24.773438 92.863281 C 24.773438 92.863281 24.773438 92.855469 24.761719 92.855469 Z M 24.761719 92.855469 " fill-opacity="1" fill-rule="nonzero"/><path fill="#000000" d="M 53.65625 133.960938 C 53.632812 133.960938 53.625 133.960938 53.605469 133.949219 C 53.480469 133.921875 53.410156 133.808594 53.429688 133.6875 C 53.460938 133.523438 54.449219 129.582031 67.867188 121.699219 C 67.96875 121.640625 68.109375 121.671875 68.171875 121.78125 C 68.230469 121.882812 68.203125 122.027344 68.089844 122.089844 C 54.929688 129.816406 53.878906 133.738281 53.867188 133.777344 C 53.847656 133.890625 53.757812 133.960938 53.65625 133.960938 Z M 53.65625 133.960938 " fill-opacity="1" fill-rule="nonzero"/><path fill="#ffffff" d="M 114.890625 86.519531 L 122.671875 78.558594 L 122.671875 82.46875 L 124.699219 81.410156 C 125.800781 80.839844 127.054688 80.644531 128.265625 80.878906 L 133.074219 81.777344 C 134.253906 82 135.285156 82.703125 135.914062 83.71875 L 137.210938 85.789062 C 137.78125 86.695312 137.34375 87.925781 136.3125 88.210938 C 135.578125 88.414062 134.691406 88.507812 133.785156 88.242188 L 128.925781 87.40625 L 125.820312 90.632812 C 125.820312 90.632812 132.003906 89.015625 134.539062 90.144531 C 136.039062 90.808594 136.292969 93.445312 135.703125 94.726562 C 135.152344 95.929688 133.632812 96.519531 133.632812 96.519531 C 133.632812 96.519531 137.578125 99.402344 133.785156 103.953125 C 133.785156 103.953125 137.292969 106.84375 132.472656 110.929688 C 125.035156 117.222656 117.160156 119.992188 117.160156 119.992188 L 104.875 132.117188 L 90.441406 108.167969 L 102.726562 100.652344 Z M 114.890625 86.519531 " fill-opacity="1" fill-rule="nonzero"/><path fill="#5479f7" d="M 104.867188 132.3125 C 104.855469 132.3125 104.84375 132.3125 104.835938 132.3125 C 104.761719 132.300781 104.703125 132.261719 104.671875 132.210938 L 90.238281 108.261719 C 90.175781 108.160156 90.207031 108.015625 90.308594 107.953125 L 102.5625 100.460938 L 114.714844 86.378906 C 114.714844 86.378906 114.726562 86.367188 114.726562 86.367188 L 122.507812 78.40625 C 122.570312 78.34375 122.671875 78.324219 122.753906 78.355469 C 122.835938 78.386719 122.898438 78.464844 122.898438 78.558594 L 122.898438 82.089844 L 124.597656 81.207031 C 125.730469 80.613281 127.054688 80.421875 128.304688 80.65625 L 133.113281 81.550781 C 134.347656 81.785156 135.445312 82.527344 136.109375 83.589844 L 137.402344 85.65625 C 137.71875 86.164062 137.78125 86.765625 137.566406 87.324219 C 137.363281 87.863281 136.925781 88.261719 136.375 88.414062 C 135.445312 88.679688 134.550781 88.6875 133.734375 88.445312 L 129.007812 87.628906 L 126.511719 90.21875 C 128.253906 89.820312 132.5625 88.996094 134.632812 89.921875 C 135.203125 90.175781 135.652344 90.695312 135.925781 91.4375 C 136.324219 92.496094 136.3125 93.921875 135.90625 94.808594 C 135.476562 95.734375 134.550781 96.304688 134.042969 96.558594 C 134.511719 97 135.425781 98.027344 135.621094 99.535156 C 135.792969 100.960938 135.285156 102.425781 134.09375 103.921875 C 134.4375 104.277344 135.234375 105.226562 135.242188 106.609375 C 135.253906 108.097656 134.367188 109.605469 132.625 111.082031 C 125.546875 117.078125 117.964844 119.917969 117.292969 120.164062 L 105.039062 132.25 C 104.988281 132.289062 104.925781 132.3125 104.867188 132.3125 Z M 90.734375 108.21875 L 104.917969 131.730469 L 117 119.808594 C 117.019531 119.785156 117.050781 119.765625 117.078125 119.757812 C 117.160156 119.726562 125.003906 116.9375 132.320312 110.734375 C 133.960938 109.339844 134.796875 107.953125 134.785156 106.609375 C 134.773438 105.074219 133.644531 104.117188 133.632812 104.105469 C 133.59375 104.066406 133.5625 104.015625 133.550781 103.953125 C 133.542969 103.890625 133.5625 103.832031 133.601562 103.789062 C 134.804688 102.34375 135.335938 100.929688 135.171875 99.585938 C 134.949219 97.761719 133.511719 96.691406 133.492188 96.683594 C 133.429688 96.632812 133.390625 96.550781 133.398438 96.46875 C 133.410156 96.386719 133.460938 96.316406 133.542969 96.285156 C 133.550781 96.277344 134.980469 95.714844 135.488281 94.617188 C 135.855469 93.820312 135.855469 92.546875 135.5 91.589844 C 135.335938 91.152344 135.019531 90.582031 134.4375 90.328125 C 132.003906 89.25 125.921875 90.816406 125.859375 90.839844 C 125.757812 90.867188 125.65625 90.816406 125.605469 90.734375 C 125.554688 90.644531 125.566406 90.542969 125.636719 90.472656 L 128.742188 87.242188 C 128.796875 87.191406 128.867188 87.160156 128.949219 87.183594 L 133.808594 88.015625 C 133.816406 88.015625 133.828125 88.015625 133.835938 88.027344 C 134.582031 88.25 135.386719 88.242188 136.242188 87.996094 C 136.648438 87.886719 136.976562 87.578125 137.136719 87.171875 C 137.300781 86.746094 137.261719 86.285156 137.015625 85.898438 L 135.722656 83.832031 C 135.121094 82.875 134.132812 82.203125 133.023438 81.988281 L 128.214844 81.09375 C 127.054688 80.878906 125.839844 81.050781 124.792969 81.601562 L 122.765625 82.660156 C 122.691406 82.703125 122.613281 82.691406 122.539062 82.652344 C 122.46875 82.609375 122.429688 82.539062 122.429688 82.457031 L 122.429688 79.097656 L 115.042969 86.664062 L 102.867188 100.777344 C 102.847656 100.796875 102.839844 100.804688 102.816406 100.816406 Z M 102.714844 100.632812 Z M 102.714844 100.632812 " fill-opacity="1" fill-rule="nonzero"/><path fill="#5479f7" d="M 116.253906 88.792969 C 116.195312 88.792969 116.132812 88.769531 116.089844 88.71875 C 116.011719 88.628906 116.011719 88.484375 116.101562 88.40625 L 122.519531 82.292969 C 122.613281 82.214844 122.753906 82.214844 122.835938 82.304688 C 122.917969 82.398438 122.917969 82.539062 122.824219 82.621094 L 116.40625 88.730469 C 116.367188 88.769531 116.316406 88.792969 116.253906 88.792969 Z M 116.253906 88.792969 " fill-opacity="1" fill-rule="nonzero"/><path fill="#5479f7" d="M 130.078125 97.570312 C 129.976562 97.570312 129.886719 97.496094 129.863281 97.394531 C 129.835938 97.273438 129.90625 97.152344 130.027344 97.121094 L 133.574219 96.265625 C 133.695312 96.234375 133.816406 96.304688 133.847656 96.429688 C 133.878906 96.550781 133.808594 96.671875 133.683594 96.703125 L 130.140625 97.558594 C 130.109375 97.570312 130.097656 97.570312 130.078125 97.570312 Z M 130.078125 97.570312 " fill-opacity="1" fill-rule="nonzero"/><path fill="#5479f7" d="M 130.667969 105.441406 C 130.578125 105.441406 130.496094 105.390625 130.464844 105.296875 C 130.414062 105.183594 130.476562 105.050781 130.589844 105 L 133.695312 103.71875 C 133.808594 103.667969 133.941406 103.730469 133.992188 103.839844 C 134.042969 103.953125 133.980469 104.085938 133.867188 104.136719 L 130.761719 105.417969 C 130.730469 105.429688 130.699219 105.441406 130.667969 105.441406 Z M 130.667969 105.441406 " fill-opacity="1" fill-rule="nonzero"/><path fill="#000000" d="M 65.238281 68.855469 C 65.941406 69.015625 66.683594 68.964844 67.355469 68.691406 C 69.679688 67.742188 74.964844 65.003906 76.199219 59.445312 C 78.175781 50.453125 70.597656 41.636719 65.664062 43.203125 C 64.769531 43.488281 63.800781 43.449219 62.976562 43.019531 C 59.359375 41.136719 49.996094 38.53125 48.195312 60.699219 C 48.113281 61.757812 47.542969 62.722656 46.65625 63.324219 L 42.113281 66.378906 C 37.976562 69.160156 39.117188 75.535156 43.957031 76.703125 L 50.128906 78.191406 C 51.757812 78.589844 53.429688 77.761719 54.132812 76.246094 L 57.058594 69.832031 C 57.75 68.3125 59.421875 67.488281 61.039062 67.875 Z M 65.238281 68.855469 " fill-opacity="1" fill-rule="nonzero"/><path fill="#ffffff" d="M 82.117188 56.269531 C 81.851562 63.476562 81.871094 76.492188 76.117188 77.792969 C 73.214844 78.445312 69.527344 76.855469 69.527344 76.855469 C 69.527344 76.855469 66.746094 83.527344 63.863281 86.980469 C 61.457031 89.859375 45.085938 77.03125 45.085938 77.03125 C 45.085938 77.03125 50.425781 72.355469 54.613281 65.789062 C 54.613281 57.246094 59.675781 48.875 63.953125 46.707031 C 72.703125 42.265625 82.554688 44.292969 82.117188 56.269531 Z M 82.117188 56.269531 " fill-opacity="1" fill-rule="nonzero"/><path fill="#000000" d="M 62.761719 87.601562 C 58.371094 87.601562 46.460938 78.375 44.953125 77.203125 C 44.902344 77.164062 44.875 77.101562 44.875 77.03125 C 44.875 76.960938 44.902344 76.898438 44.953125 76.855469 C 45.003906 76.804688 50.292969 72.152344 54.410156 65.726562 C 54.4375 57.214844 59.410156 48.773438 63.871094 46.503906 C 69.140625 43.824219 74.40625 43.582031 77.972656 45.851562 C 81.007812 47.785156 82.523438 51.390625 82.351562 56.269531 L 82.128906 56.257812 L 82.351562 56.269531 C 82.332031 56.765625 82.320312 57.296875 82.300781 57.855469 C 82.066406 65.382812 81.699219 76.753906 76.179688 78.007812 C 73.601562 78.589844 70.492188 77.480469 69.660156 77.140625 C 69.160156 78.292969 66.632812 84.015625 64.046875 87.121094 C 63.761719 87.445312 63.320312 87.601562 62.761719 87.601562 Z M 45.445312 77.011719 C 50.097656 80.636719 61.867188 89.015625 63.6875 86.824219 C 66.519531 83.433594 69.292969 76.828125 69.324219 76.765625 C 69.34375 76.714844 69.394531 76.664062 69.445312 76.644531 C 69.496094 76.625 69.566406 76.625 69.617188 76.644531 C 69.660156 76.664062 73.265625 78.203125 76.066406 77.570312 C 81.25 76.398438 81.597656 65.230469 81.832031 57.847656 C 81.851562 57.296875 81.863281 56.757812 81.882812 56.257812 C 82.054688 51.542969 80.609375 48.082031 77.714844 46.226562 C 74.34375 44.078125 69.117188 44.335938 64.066406 46.902344 C 59.714844 49.109375 54.847656 57.664062 54.847656 65.789062 C 54.847656 65.828125 54.835938 65.871094 54.816406 65.910156 C 51.117188 71.703125 46.460938 76.082031 45.445312 77.011719 Z M 45.445312 77.011719 " fill-opacity="1" fill-rule="nonzero"/><path fill="#000000" d="M 69.546875 77.101562 C 69.515625 77.101562 69.484375 77.089844 69.453125 77.082031 C 69.191406 76.960938 63.046875 74.058594 62.527344 71.847656 C 62.496094 71.726562 62.566406 71.601562 62.691406 71.574219 C 62.8125 71.542969 62.933594 71.613281 62.964844 71.734375 C 63.363281 73.394531 67.925781 75.859375 69.648438 76.675781 C 69.761719 76.726562 69.8125 76.855469 69.761719 76.96875 C 69.710938 77.0625 69.628906 77.101562 69.546875 77.101562 Z M 69.546875 77.101562 " fill-opacity="1" fill-rule="nonzero"/><path fill="#ffffff" d="M 63.515625 60.210938 C 63.515625 60.210938 59.808594 56.074219 57.1875 58.691406 C 54.570312 61.308594 58.25 66.859375 59.980469 67.203125 C 61.253906 67.457031 62.304688 66.835938 62.8125 66.226562 Z M 63.515625 60.210938 " fill-opacity="1" fill-rule="nonzero"/><path fill="#000000" d="M 60.582031 67.480469 C 60.378906 67.480469 60.164062 67.457031 59.949219 67.417969 C 58.738281 67.175781 56.984375 64.921875 56.34375 62.785156 C 55.96875 61.542969 55.785156 59.792969 57.046875 58.527344 C 57.6875 57.886719 58.453125 57.582031 59.296875 57.601562 C 61.519531 57.664062 63.605469 59.964844 63.6875 60.066406 C 63.769531 60.15625 63.761719 60.300781 63.667969 60.382812 C 63.578125 60.464844 63.433594 60.453125 63.351562 60.363281 C 63.332031 60.339844 61.304688 58.101562 59.277344 58.050781 C 58.554688 58.03125 57.902344 58.304688 57.351562 58.855469 C 56.253906 59.953125 56.425781 61.53125 56.761719 62.664062 C 57.394531 64.761719 59.085938 66.796875 60.03125 66.992188 C 61.203125 67.226562 62.171875 66.65625 62.648438 66.09375 C 62.730469 66.003906 62.875 65.984375 62.964844 66.0625 C 63.058594 66.144531 63.078125 66.289062 62.996094 66.378906 C 62.527344 66.917969 61.660156 67.480469 60.582031 67.480469 Z M 60.582031 67.480469 " fill-opacity="1" fill-rule="nonzero"/><path fill="#000000" d="M 61.507812 64.160156 C 61.40625 64.160156 61.316406 64.089844 61.292969 63.988281 C 60.753906 61.839844 60.0625 61.207031 59.582031 61.054688 C 59.042969 60.882812 58.605469 61.246094 58.585938 61.269531 C 58.492188 61.347656 58.351562 61.339844 58.269531 61.246094 C 58.1875 61.15625 58.199219 61.011719 58.289062 60.933594 C 58.320312 60.910156 58.929688 60.382812 59.714844 60.625 C 60.582031 60.902344 61.265625 61.992188 61.734375 63.886719 C 61.761719 64.007812 61.691406 64.128906 61.570312 64.160156 C 61.550781 64.160156 61.527344 64.160156 61.507812 64.160156 Z M 61.507812 64.160156 " fill-opacity="1" fill-rule="nonzero"/><path fill="#ffffff" d="M 82.003906 56.503906 C 82.003906 56.503906 83.308594 49.34375 74.875 51.371094 C 64.238281 53.925781 57.832031 64.667969 51.953125 66.605469 C 47.542969 68.058594 38.792969 65.859375 43.957031 52.765625 C 43.957031 52.765625 51.34375 32.144531 71.390625 39.84375 C 71.402344 39.84375 91.613281 41.414062 82.003906 56.503906 Z M 82.003906 56.503906 " fill-opacity="1" fill-rule="nonzero"/><path fill="#000000" d="M 49.394531 67.214844 C 47.492188 67.214844 45.445312 66.613281 43.988281 65.078125 C 42.335938 63.324219 40.949219 59.75 43.753906 52.675781 C 43.78125 52.582031 47.207031 43.265625 55.4375 39.488281 C 60.164062 37.320312 65.554688 37.359375 71.441406 39.621094 C 72.175781 39.679688 81.351562 40.546875 84.074219 45.996094 C 85.5 48.84375 84.867188 52.410156 82.1875 56.613281 C 82.128906 56.707031 82.015625 56.746094 81.914062 56.707031 C 81.8125 56.664062 81.75 56.5625 81.769531 56.460938 C 81.769531 56.429688 82.238281 53.742188 80.652344 52.246094 C 79.507812 51.167969 77.574219 50.941406 74.914062 51.585938 C 68.679688 53.082031 63.972656 57.359375 59.816406 61.136719 C 56.933594 63.753906 54.449219 66.011719 52.003906 66.816406 C 51.238281 67.070312 50.332031 67.214844 49.394531 67.214844 Z M 62.851562 38.347656 C 60.308594 38.347656 57.890625 38.867188 55.628906 39.894531 C 47.5625 43.589844 44.199219 52.746094 44.171875 52.835938 C 41.460938 59.699219 42.753906 63.109375 44.3125 64.769531 C 46.25 66.828125 49.589844 67.144531 51.882812 66.390625 C 54.246094 65.617188 56.699219 63.386719 59.53125 60.800781 C 63.730469 56.992188 68.476562 52.675781 74.824219 51.148438 C 77.644531 50.464844 79.714844 50.730469 80.976562 51.921875 C 82.117188 53 82.3125 54.566406 82.300781 55.574219 C 84.46875 51.871094 84.929688 48.714844 83.675781 46.199219 C 81.015625 40.871094 71.472656 40.078125 71.378906 40.066406 C 71.359375 40.066406 71.339844 40.058594 71.320312 40.058594 C 68.355469 38.917969 65.523438 38.347656 62.851562 38.347656 Z M 62.851562 38.347656 " fill-opacity="1" fill-rule="nonzero"/><path fill="#000000" d="M 61.039062 55.972656 C 61 55.972656 60.957031 55.964844 60.917969 55.933594 C 60.816406 55.859375 60.785156 55.730469 60.855469 55.617188 C 63.097656 52.277344 67.589844 51.105469 69.921875 50.71875 C 67.242188 50.402344 61.050781 50.402344 53.550781 55.261719 C 53.449219 55.332031 53.308594 55.300781 53.246094 55.199219 C 53.175781 55.097656 53.207031 54.953125 53.308594 54.894531 C 63.503906 48.285156 71.390625 50.527344 71.472656 50.554688 C 71.574219 50.585938 71.644531 50.6875 71.636719 50.800781 C 71.625 50.914062 71.53125 50.992188 71.429688 51.003906 C 71.359375 51.003906 64.15625 51.535156 61.242188 55.890625 C 61.183594 55.933594 61.113281 55.972656 61.039062 55.972656 Z M 61.039062 55.972656 " fill-opacity="1" fill-rule="nonzero"/><path fill="#000000" d="M 72.613281 49.109375 C 72.53125 49.109375 72.460938 49.070312 72.417969 49 C 72.410156 48.976562 71.296875 47.054688 68.4375 45.636719 C 65.777344 44.324219 61.03125 43.203125 53.480469 45.261719 C 53.359375 45.292969 53.238281 45.21875 53.207031 45.109375 C 53.175781 44.984375 53.246094 44.863281 53.359375 44.832031 C 61.058594 42.726562 65.929688 43.898438 68.660156 45.25 C 71.636719 46.726562 72.765625 48.691406 72.804688 48.773438 C 72.867188 48.886719 72.828125 49.019531 72.726562 49.078125 C 72.683594 49.101562 72.652344 49.109375 72.613281 49.109375 Z M 72.613281 49.109375 " fill-opacity="1" fill-rule="nonzero"/><path fill="#000000" d="M 77.1875 49.109375 C 77.066406 49.109375 76.972656 49.019531 76.960938 48.894531 C 76.960938 48.84375 76.667969 43.988281 71.460938 40.921875 C 71.359375 40.863281 71.320312 40.71875 71.378906 40.617188 C 71.441406 40.507812 71.582031 40.476562 71.6875 40.535156 C 77.117188 43.734375 77.410156 48.824219 77.410156 48.875 C 77.421875 49 77.320312 49.101562 77.195312 49.109375 C 77.195312 49.109375 77.195312 49.109375 77.1875 49.109375 Z M 77.1875 49.109375 " fill-opacity="1" fill-rule="nonzero"/><path fill="#000000" d="M 80.203125 49.882812 C 80.140625 49.882812 80.070312 49.851562 80.027344 49.800781 C 79.949219 49.699219 79.96875 49.566406 80.070312 49.488281 C 80.140625 49.425781 81.851562 48.011719 80.652344 44.882812 C 80.609375 44.773438 80.660156 44.640625 80.78125 44.597656 C 80.894531 44.558594 81.027344 44.609375 81.066406 44.730469 C 82.390625 48.171875 80.425781 49.773438 80.34375 49.84375 C 80.304688 49.863281 80.253906 49.882812 80.203125 49.882812 Z M 80.203125 49.882812 " fill-opacity="1" fill-rule="nonzero"/></svg>