<svg xmlns="http://www.w3.org/2000/svg" xmlns:xlink="http://www.w3.org/1999/xlink" width="400" zoomAndPan="magnify" viewBox="0 0 300 187.499995" height="250" preserveAspectRatio="xMidYMid meet" version="1.0"><defs><clipPath id="9aa82f7436"><path d="M 55.433594 0 L 244.679688 0 L 244.679688 65 L 55.433594 65 Z M 55.433594 0 " clip-rule="nonzero"/></clipPath></defs><path fill="#0cc0df" d="M 173.546875 162.355469 L 173.546875 119.347656 C 173.546875 116.128906 170.941406 113.519531 167.71875 113.519531 L 132.128906 113.519531 C 128.90625 113.519531 126.300781 116.128906 126.300781 119.347656 L 126.300781 162.355469 L 70.152344 162.355469 L 70.152344 69.4375 L 104.824219 69.4375 L 104.824219 91.121094 C 104.824219 92.65625 106.050781 93.882812 107.585938 93.882812 L 186.28125 93.882812 C 187.8125 93.882812 189.042969 92.65625 189.195312 91.277344 L 189.195312 69.4375 L 229.847656 69.4375 L 229.847656 162.355469 Z M 162.503906 147.726562 L 157.59375 147.726562 C 156.058594 147.726562 154.832031 146.5 154.832031 144.964844 C 154.832031 143.433594 156.058594 142.207031 157.59375 142.207031 L 162.503906 142.207031 C 164.035156 142.207031 165.261719 143.433594 165.261719 144.96875 C 165.261719 146.5 163.882812 147.726562 162.503906 147.726562 Z M 131.824219 162.355469 L 131.824219 119.347656 C 131.824219 119.195312 131.976562 118.886719 132.28125 118.886719 L 167.71875 118.886719 C 167.871094 118.886719 168.179688 119.042969 168.179688 119.347656 L 168.179688 162.355469 Z M 183.671875 69.4375 L 183.671875 73.632812 L 110.347656 73.632812 L 110.347656 69.4375 Z M 183.671875 79.15625 L 183.671875 88.515625 L 110.347656 88.515625 L 110.347656 79.15625 Z M 183.671875 79.15625 " fill-opacity="1" fill-rule="evenodd"/><g clip-path="url(#9aa82f7436)"><path fill="#1ecc52" d="M 241.65625 64.277344 L 58.34375 64.277344 C 57.269531 64.277344 56.347656 63.664062 55.886719 62.742188 C 55.425781 61.824219 55.582031 60.75 56.195312 59.980469 L 100.988281 1.074219 C 101.449219 0.460938 102.214844 0 103.136719 0 L 196.863281 0 C 197.632812 0 198.550781 0.460938 199.011719 1.074219 L 243.804688 59.980469 C 244.417969 60.75 244.574219 61.824219 244.113281 62.742188 C 243.5 63.664062 242.578125 64.277344 241.65625 64.277344 Z M 155.597656 53.539062 L 144.402344 53.539062 C 142.867188 53.539062 141.640625 52.3125 141.640625 50.777344 L 141.640625 40.5 L 131.363281 40.5 C 129.828125 40.5 128.601562 39.273438 128.601562 37.738281 L 128.601562 26.539062 C 128.601562 25.003906 129.828125 23.777344 131.363281 23.777344 L 141.640625 23.777344 L 141.640625 13.652344 C 141.640625 12.121094 142.867188 10.894531 144.402344 10.894531 L 155.597656 10.894531 C 157.132812 10.894531 158.359375 12.121094 158.359375 13.652344 L 158.359375 23.933594 L 168.640625 23.933594 C 170.171875 23.933594 171.398438 25.160156 171.398438 26.695312 L 171.398438 38.046875 C 171.398438 39.578125 170.171875 40.804688 168.640625 40.804688 L 158.359375 40.804688 L 158.359375 51.085938 C 158.207031 52.3125 157.132812 53.539062 155.597656 53.539062 Z M 147.007812 48.167969 L 152.839844 48.167969 L 152.839844 37.890625 C 152.839844 36.359375 154.066406 35.128906 155.597656 35.128906 L 165.878906 35.128906 L 165.878906 29.148438 L 155.597656 29.148438 C 154.066406 29.148438 152.839844 27.921875 152.839844 26.539062 L 152.839844 16.261719 L 147.007812 16.261719 L 147.007812 26.539062 C 147.007812 28.074219 145.78125 29.148438 144.246094 29.148438 L 133.96875 29.148438 L 133.96875 35.128906 L 144.246094 35.128906 C 145.78125 35.128906 147.007812 36.359375 147.007812 37.890625 Z M 147.007812 48.167969 " fill-opacity="1" fill-rule="evenodd"/></g><path fill="#0cc0df" d="M 236.597656 187 L 63.558594 187 C 62.023438 187 60.796875 185.773438 60.796875 184.238281 L 60.796875 170.277344 C 60.796875 168.746094 62.023438 167.515625 63.558594 167.515625 L 236.597656 167.515625 C 238.128906 167.515625 239.355469 168.742188 239.355469 170.277344 L 239.355469 184.238281 C 239.203125 185.773438 237.976562 187 236.597656 187 Z M 236.597656 187 " fill-opacity="1" fill-rule="evenodd"/></svg>